<svg width="136" height="136" viewBox="0 0 136 136" fill="none" xmlns="http://www.w3.org/2000/svg">
<g clip-path="url(#clip0_5899_13197)">
<path d="M133.37 37.1204C134.78 33.9604 135.64 30.4204 135.66 26.7004C135.75 12.2704 124.19 0.570413 109.76 0.490413C101.27 0.440413 93.7195 4.42041 88.9395 10.6504C84.2195 4.37041 76.7295 0.300413 68.2295 0.250413C59.7395 0.200413 52.1895 4.18041 47.4095 10.4104C42.6895 4.12041 35.1995 0.0504131 26.6995 0.000413082C12.2695 -0.0795869 0.579545 11.4704 0.489545 25.9004C0.469545 29.6704 1.29955 33.2204 2.58955 36.3404C1.28955 39.4004 0.389545 42.8604 0.359545 46.6904C0.339545 50.4604 1.16955 54.0104 2.45955 57.1304C1.15955 60.1904 0.259545 63.6504 0.229545 67.4804C0.179545 75.9904 4.17955 83.5404 10.4195 88.3304C4.13954 93.0504 0.0495454 100.56 -0.000454596 109.07C-0.0904546 123.5 11.4695 135.2 25.8995 135.28C34.3895 135.33 41.9395 131.35 46.7195 125.12C51.4295 131.4 58.9295 135.47 67.4195 135.52C75.9095 135.57 83.4595 131.59 88.2395 125.36C92.9495 131.64 100.45 135.71 108.94 135.76C123.38 135.85 135.07 124.29 135.15 109.86C135.2 101.35 131.2 93.8004 124.96 89.0104C131.26 84.3004 135.35 76.7904 135.4 68.2804C135.42 64.4904 134.57 61.0204 133.23 57.9104C134.64 54.7504 135.5 51.2104 135.52 47.4904C135.54 43.7004 134.69 40.2304 133.35 37.1204H133.37ZM14.4895 25.9304V26.0804C14.4895 26.0804 14.4895 26.0204 14.4895 25.9904C14.4895 25.9704 14.4895 25.9504 14.4895 25.9304Z" fill="#F3A0D6"/>
<path d="M23.0803 26.0403C23.0703 27.9503 24.6203 29.5103 26.5203 29.5303C28.4303 29.5403 29.9903 27.9903 30.0103 26.0903C30.0203 24.1803 28.4703 22.6203 26.5703 22.6003C24.6603 22.5903 23.1003 24.1403 23.0803 26.0403ZM22.9603 46.8303C22.9503 48.7403 24.5003 50.3003 26.4003 50.3203C28.3103 50.3303 29.8703 48.7803 29.8903 46.8803C29.9003 44.9703 28.3503 43.4103 26.4503 43.3903C24.5403 43.3803 22.9803 44.9303 22.9603 46.8303ZM22.8403 67.6203C22.8303 69.5303 24.3803 71.0903 26.2803 71.1103C28.1903 71.1203 29.7503 69.5703 29.7703 67.6703C29.7803 65.7603 28.2303 64.2003 26.3303 64.1803C24.4203 64.1703 22.8603 65.7203 22.8403 67.6203ZM22.5903 109.2C22.5803 111.11 24.1303 112.67 26.0303 112.69C27.9403 112.7 29.5003 111.15 29.5203 109.25C29.5303 107.34 27.9803 105.78 26.0803 105.76C24.1703 105.75 22.6103 107.3 22.5903 109.2ZM7.37032 46.7403C7.39032 42.9303 8.63032 39.4703 10.3803 36.3603C8.66032 33.4003 7.47032 29.7603 7.50032 25.9503C7.56032 15.3803 16.1003 6.94032 26.6703 7.00032C37.2403 7.06032 45.6803 15.6003 45.6203 26.1703C45.6003 29.9803 44.3603 33.6103 42.4403 36.5503C44.3303 39.6803 45.5203 43.1503 45.5003 46.9603C45.4803 50.7703 44.2403 54.4003 42.3203 57.3403C44.2103 60.4703 45.4003 63.9403 45.3803 67.7503C45.3203 78.3203 36.7803 86.7603 26.2103 86.7003C15.6403 86.6403 7.20032 78.1003 7.26032 67.5303C7.28032 63.7203 8.52032 60.2603 10.2703 57.1503C8.55032 54.1903 7.36032 50.5503 7.39032 46.7403H7.37032ZM7.00032 109.11C7.06032 98.5403 15.6003 90.1003 26.1703 90.1603C36.7403 90.2203 45.1803 98.7603 45.1203 109.33C45.0603 119.9 36.5203 128.34 25.9503 128.28C15.3803 128.22 6.94032 119.68 7.00032 109.11ZM64.6103 26.2803C64.6003 28.1903 66.1503 29.7503 68.0503 29.7703C69.9603 29.7803 71.5203 28.2303 71.5403 26.3303C71.5503 24.4203 70.0003 22.8603 68.1003 22.8403C66.1903 22.8303 64.6303 24.3803 64.6103 26.2803ZM64.4903 47.0703C64.4803 48.9803 66.0303 50.5403 67.9303 50.5603C69.8403 50.5703 71.4003 49.0203 71.4203 47.1203C71.4303 45.2103 69.8803 43.6503 67.9803 43.6303C66.0703 43.6203 64.5103 45.1703 64.4903 47.0703ZM64.3703 67.8603C64.3603 69.7703 65.9103 71.3303 67.8103 71.3503C69.7203 71.3603 71.2803 69.8103 71.3003 67.9103C71.3203 66.0103 69.7603 64.4403 67.8603 64.4203C65.9503 64.4103 64.3903 65.9603 64.3703 67.8603ZM64.1203 109.44C64.1103 111.35 65.6603 112.91 67.5603 112.93C69.4703 112.94 71.0303 111.39 71.0503 109.49C71.0603 107.58 69.5103 106.02 67.6103 106C65.7003 105.99 64.1403 107.54 64.1203 109.44ZM48.8903 46.9803C48.9103 43.1703 50.1503 39.7103 51.9003 36.6003C50.1803 33.6403 48.9903 30.0003 49.0203 26.1903C49.0803 15.6203 57.6203 7.18032 68.1903 7.24032C78.7603 7.30032 87.2003 15.8403 87.1403 26.4103C87.1203 30.2203 85.8803 33.8503 83.9603 36.7903C85.8503 39.9203 87.0403 43.3903 87.0203 47.2003C87.0003 51.0103 85.7603 54.6403 83.8403 57.5803C85.7303 60.7103 86.9203 64.1803 86.9003 67.9903C86.8403 78.5603 78.3003 87.0003 67.7303 86.9403C57.1603 86.8803 48.7203 78.3403 48.7803 67.7703C48.8003 63.9603 50.0403 60.5003 51.7903 57.3903C50.0703 54.4303 48.8803 50.7903 48.9103 46.9803H48.8903ZM48.5203 109.35C48.5803 98.7803 57.1203 90.3403 67.6903 90.4003C78.2603 90.4603 86.7003 99.0003 86.6403 109.57C86.5803 120.14 78.0403 128.58 67.4703 128.52C56.9003 128.46 48.4603 119.92 48.5203 109.35ZM106.14 26.5303C106.13 28.4403 107.68 30.0003 109.58 30.0203C111.49 30.0303 113.05 28.4803 113.07 26.5803C113.08 24.6703 111.53 23.1103 109.63 23.0903C107.72 23.0803 106.16 24.6303 106.14 26.5303ZM106.02 47.3203C106.01 49.2303 107.56 50.7903 109.46 50.8103C111.37 50.8203 112.93 49.2703 112.95 47.3703C112.97 45.4703 111.41 43.9003 109.51 43.8803C107.61 43.8603 106.04 45.4203 106.02 47.3203ZM105.9 68.1103C105.89 70.0203 107.44 71.5803 109.34 71.6003C111.25 71.6103 112.81 70.0603 112.83 68.1603C112.85 66.2603 111.29 64.6903 109.39 64.6703C107.48 64.6603 105.92 66.2103 105.9 68.1103ZM105.66 109.69C105.65 111.6 107.2 113.16 109.1 113.18C111.01 113.19 112.57 111.64 112.59 109.74C112.6 107.83 111.05 106.26 109.15 106.25C107.24 106.24 105.68 107.79 105.66 109.69ZM90.4303 47.2303C90.4503 43.4203 91.6903 39.9603 93.4403 36.8503C91.7203 33.8903 90.5303 30.2503 90.5603 26.4403C90.6203 15.8703 99.1603 7.43032 109.73 7.49032C120.3 7.55032 128.74 16.0903 128.68 26.6603C128.66 30.4703 127.42 34.1003 125.5 37.0403C127.39 40.1703 128.58 43.6403 128.56 47.4503C128.54 51.2603 127.3 54.8903 125.38 57.8303C127.27 60.9603 128.46 64.4303 128.44 68.2403C128.38 78.8103 119.84 87.2503 109.27 87.1903C98.7003 87.1303 90.2603 78.5903 90.3203 68.0203C90.3403 64.2103 91.5803 60.7503 93.3303 57.6403C91.6103 54.6803 90.4203 51.0403 90.4503 47.2303H90.4303ZM90.0603 109.6C90.1203 99.0303 98.6603 90.5903 109.23 90.6503C119.8 90.7103 128.24 99.2503 128.18 109.82C128.12 120.39 119.58 128.83 109.01 128.77C98.4403 128.71 90.0003 120.17 90.0603 109.6Z" fill="black"/>
</g>
<defs>
<clipPath id="clip0_5899_13197">
<rect width="135.66" height="135.77" fill="white"/>
</clipPath>
</defs>
</svg>
