<svg width="224" height="83" viewBox="0 0 224 83" fill="none" xmlns="http://www.w3.org/2000/svg">
<g clip-path="url(#clip0_5899_13217)">
<path d="M220.36 47.1514C218.94 44.8514 217.07 43.0214 214.89 41.6514C214.19 40.0914 213.22 38.5414 211.8 37.2114C208.91 34.5014 205.45 33.8014 202.63 33.7914C201.77 33.7914 200.85 33.8514 199.9 34.0114L210.55 14.0314C211.87 11.5614 211.8 8.58142 210.36 6.17142C208.93 3.76142 206.34 2.28142 203.53 2.27142L197.37 2.23142C194.4 2.21142 191.66 3.84142 190.26 6.47142L184.16 17.9014C183.73 16.6714 183.19 15.4714 182.48 14.3214C181.06 12.0114 179.19 10.1914 177.01 8.82142C176.31 7.26142 175.34 5.71142 173.92 4.38142C171.03 1.67142 167.57 0.971422 164.75 0.961422C161.95 0.941422 158.48 1.59142 155.54 4.24142C154.05 5.59142 153.03 7.18142 152.31 8.79142C150.18 10.1414 148.34 11.9214 146.92 14.1514C146.34 15.0614 145.86 16.0014 145.46 16.9714C143.91 15.0914 142.07 13.4614 139.93 12.0914C138.62 9.19142 136.8 6.55142 134.21 4.51142C130.63 1.69142 126.48 0.721422 122.46 0.691422C118.41 0.671422 114.19 1.56142 110.54 4.35142C107.87 6.39142 106.02 9.04142 104.7 11.9614C102.45 13.4114 100.53 15.1714 98.9201 17.1814H91.5301C89.8901 15.0814 87.9301 13.2614 85.6001 11.7614C84.2901 8.86142 82.4701 6.22142 79.8801 4.18142C76.3101 1.36142 72.1601 0.391422 68.1401 0.371422C64.0901 0.351422 59.8701 1.24142 56.2201 4.03142C53.5501 6.07142 51.7001 8.72142 50.3801 11.6414C45.7101 14.6514 42.4501 18.9314 40.4001 24.1914L40.4901 9.29142C40.5201 4.87142 36.9601 1.27142 32.5401 1.24142L26.4701 1.20142C23.0301 1.18142 19.9601 3.37142 18.8501 6.63142L18.7601 6.90142C18.6901 7.11142 18.6301 7.31142 18.5801 7.52142C17.9901 9.87142 17.1401 11.9614 16.1401 13.7314L8.10007 13.6814C3.67007 13.6714 0.0700743 17.2314 0.0400743 21.6514L7.42878e-05 28.7214C-0.00992571 31.0514 0.990074 33.2714 2.75007 34.8014C4.51007 36.3314 6.84007 37.0214 9.15007 36.6814C11.7001 36.3114 14.1101 35.6014 16.3701 34.5814L16.1501 72.5714C16.1201 76.9914 19.6801 80.5914 24.1001 80.6214L32.0701 80.6714C36.4901 80.7014 40.0901 77.1414 40.1201 72.7214L40.2001 58.6214C40.4701 59.3114 40.7701 59.9914 41.0801 60.6514C43.2101 65.0714 46.2901 68.4314 50.1101 70.8114C51.4201 73.7214 53.2801 76.3414 55.9401 78.3514C59.5801 81.0914 63.7601 81.9514 67.6701 81.9714C71.5801 81.9914 75.7101 81.1714 79.3601 78.4714C82.0001 76.5214 83.8901 73.9514 85.2701 71.0914C85.8201 70.7614 86.3601 70.4014 86.8801 70.0314H102.87C103.39 70.4114 103.92 70.7814 104.46 71.1214C105.77 74.0314 107.63 76.6514 110.29 78.6614C113.94 81.4014 118.11 82.2614 122.02 82.2814C125.93 82.3014 130.06 81.4814 133.71 78.7814C136.35 76.8314 138.24 74.2614 139.62 71.4014C143.53 69.0714 146.67 65.7114 148.86 61.2914C151.38 56.2014 152.48 50.0514 152.61 43.0814C153.28 44.3414 154.15 45.5514 155.33 46.6214C158.31 49.3114 161.82 49.9014 164.51 49.9114C165.35 49.9114 166.28 49.8514 167.23 49.7014L156.58 69.6714C155.26 72.1414 155.33 75.1214 156.77 77.5314C158.2 79.9414 160.79 81.4214 163.6 81.4314L169.76 81.4714C172.73 81.4914 175.47 79.8614 176.87 77.2314L182.91 65.8914C183.37 67.2114 183.97 68.4914 184.76 69.7114C186.16 71.8714 187.94 73.5514 189.94 74.8214C190.65 76.4614 191.67 78.0814 193.19 79.4614C196.17 82.1514 199.68 82.7414 202.36 82.7514C205.06 82.7714 208.58 82.2214 211.57 79.5414C213.05 78.2214 214.07 76.6614 214.79 75.0814C216.89 73.8214 218.74 72.1214 220.18 69.9114C222.43 66.4714 223.25 62.5014 223.27 58.5714C223.29 54.6314 222.52 50.6414 220.37 47.1514H220.36Z" fill="#A23EF1"/>
<path d="M26.42 9.21112L26.33 9.48112C25.12 14.2711 23.02 18.5211 20.28 21.7711L24.45 21.7911L24.15 72.6111L32.12 72.6611L32.49 9.25112L26.42 9.21112ZM8 28.7611L8.04 21.6911L20.27 21.7611C16.99 25.6411 12.8 28.0611 8 28.7511V28.7611ZM78.99 65.3311C75.81 66.6711 72.09 67.1911 67.75 67.1711C63.4 67.1411 59.6 66.5811 56.53 65.2011C58.49 71.5511 62.1 73.9311 67.71 73.9611C73.24 73.9911 76.78 71.6611 78.99 65.3311ZM45.52 41.4911C45.44 54.9011 49.29 61.9911 56.52 65.2011C54.92 60.1211 54.24 52.5011 54.3 41.5411C54.37 30.3111 55.05 22.4311 56.8 17.1811C49.53 20.5811 45.59 28.2611 45.51 41.4811L45.52 41.4911ZM56.81 17.1911C59.99 15.7611 63.71 15.0611 68.06 15.0811C72.41 15.1111 76.12 15.7611 79.19 17.3211C77.14 10.9711 73.63 8.41112 68.1 8.38112C62.39 8.35112 58.84 10.8611 56.81 17.1911ZM79.19 17.3211C80.88 22.4911 81.56 30.3811 81.49 41.7011C81.42 52.7511 80.66 60.2711 78.99 65.3311C86.26 62.2911 90.19 55.1611 90.27 41.7511C90.35 28.4311 86.5 20.7111 79.18 17.3111L79.19 17.3211ZM133.34 65.6611C130.16 67.0011 126.44 67.5211 122.09 67.5011C117.74 67.4711 113.94 66.9111 110.87 65.5311C112.83 71.8811 116.44 74.2611 122.05 74.2911C127.58 74.3211 131.12 71.9911 133.34 65.6611ZM99.87 41.8211C99.79 55.2311 103.64 62.3211 110.87 65.5311C109.27 60.4511 108.59 52.8311 108.65 41.8711C108.72 30.6411 109.4 22.7611 111.15 17.5111C103.88 20.9111 99.94 28.5911 99.86 41.8111L99.87 41.8211ZM111.16 17.5211C114.34 16.0911 118.06 15.3911 122.41 15.4111C126.76 15.4411 130.47 16.0911 133.54 17.6511C131.49 11.3011 127.98 8.74112 122.45 8.71112C116.74 8.68112 113.2 11.1911 111.16 17.5211ZM133.54 17.6511C135.23 22.8211 135.91 30.7111 135.84 42.0311C135.77 53.0811 135 60.6011 133.35 65.6611C140.61 62.6211 144.55 55.4911 144.63 42.0811C144.71 28.7611 140.86 21.0411 133.54 17.6411V17.6511ZM163.64 73.4511L169.8 73.4911L203.51 10.2711L197.35 10.2311L163.64 73.4511ZM151.87 25.5511C151.83 31.3511 154.26 34.8011 158.69 36.3711C158.16 33.8311 158 30.3911 158.03 25.5911C158.06 20.6111 158.26 16.9811 158.91 14.4511C154.37 16.0511 151.9 19.8411 151.87 25.5511ZM158.69 36.3711C159.48 40.5411 161.29 41.9111 164.55 41.9311C167.81 41.9511 169.54 40.6011 170.47 36.4411C168.84 36.9711 166.84 37.2311 164.58 37.2211C162.32 37.2111 160.32 36.9211 158.7 36.3711H158.69ZM158.91 14.4511C160.54 13.8311 162.54 13.5711 164.71 13.5811C166.97 13.5911 168.88 13.8811 170.5 14.5211C169.62 10.4411 167.9 8.98112 164.74 8.96112C161.57 8.94112 159.75 10.3811 158.91 14.4511ZM170.51 14.5211C171.13 17.0611 171.29 20.6911 171.26 25.6711C171.23 30.4711 171.03 34.0011 170.47 36.4511C175.01 35.0311 177.39 31.5111 177.42 25.7111C177.45 19.9111 175.12 16.0911 170.51 14.5311V14.5211ZM189.73 58.3911C189.7 64.1911 192.12 67.6411 196.55 69.2111C196.02 66.6711 195.86 63.2311 195.89 58.4311C195.92 53.4511 196.12 49.8211 196.77 47.2911C192.23 48.8911 189.76 52.6811 189.73 58.3911ZM196.55 69.2111C197.34 73.3811 199.14 74.7511 202.41 74.7711C205.67 74.7911 207.4 73.4411 208.33 69.2811C206.7 69.8111 204.7 70.0711 202.44 70.0611C200.18 70.0511 198.18 69.7611 196.56 69.2111H196.55ZM196.77 47.2911C198.4 46.6711 200.4 46.4111 202.57 46.4211C204.83 46.4311 206.73 46.7211 208.36 47.3611C207.48 43.2811 205.77 41.8211 202.6 41.8011C199.43 41.7811 197.61 43.2211 196.77 47.2911ZM208.37 47.3611C208.99 49.9011 209.15 53.5311 209.12 58.5111C209.09 63.3111 208.89 66.8411 208.33 69.2911C212.87 67.8711 215.24 64.3511 215.28 58.5511C215.32 52.7511 212.98 48.9311 208.37 47.3711V47.3611Z" fill="black"/>
</g>
<defs>
<clipPath id="clip0_5899_13217">
<rect width="223.26" height="82.38" fill="white" transform="translate(0 0.371094)"/>
</clipPath>
</defs>
</svg>
