<svg width="280" height="76" viewBox="0 0 280 76" fill="none" xmlns="http://www.w3.org/2000/svg">
<g clip-path="url(#clip0_5899_13219)">
<path d="M279.259 60.2623C279.259 56.796 277.084 53.8438 274.036 52.7202C276.134 51.2754 277.514 48.8425 277.514 46.0835V42.5469C277.514 40.5404 276.784 38.7069 275.577 37.2998C274.833 33.8059 271.834 31.1572 268.196 30.9816V16.8329C270.314 15.3907 271.709 12.9452 271.709 10.1712V8.39787C271.709 3.96589 268.152 0.371649 263.765 0.371649H254.996C253.375 0.371649 251.868 0.863255 250.611 1.70601C249.355 0.863255 247.848 0.371649 246.227 0.371649H237.458C236.812 0.371649 236.187 0.451911 235.586 0.597386C234.985 0.451911 234.359 0.371649 233.714 0.371649H219.689C218.023 0.371649 216.476 0.890845 215.2 1.77624C213.924 0.890845 212.377 0.371649 210.712 0.371649H200.187C199.385 0.371649 198.611 0.492042 197.881 0.715271C197.151 0.492042 196.376 0.371649 195.577 0.371649H183.297C181.634 0.371649 180.09 0.888337 178.814 1.77122C177.538 0.888337 175.993 0.371649 174.33 0.371649H155.039C153.373 0.371649 151.827 0.890845 150.55 1.77624C149.274 0.890845 147.728 0.371649 146.062 0.371649H128.526C125.237 0.371649 122.414 2.39325 121.207 5.27266C120.083 3.80035 118.464 2.73437 116.599 2.32804C115.207 1.11157 113.392 0.371649 111.405 0.371649H93.8701C92.2091 0.371649 90.6674 0.888337 89.3913 1.76871C88.1151 0.888337 86.5734 0.371649 84.9124 0.371649H76.1435C74.1573 0.371649 72.3425 1.10906 70.9496 2.32804C69.0106 2.75192 67.3348 3.88814 66.2077 5.45325C65.9644 5.63133 65.731 5.82446 65.51 6.02763C65.2965 5.82948 65.0706 5.64387 64.8347 5.4683C63.7051 3.89315 62.0268 2.74942 60.0803 2.32553C58.6875 1.10906 56.8727 0.369141 54.8865 0.369141H46.1175C44.1314 0.369141 42.3165 1.10655 40.9237 2.32553C39.9232 2.54374 38.9946 2.95007 38.1728 3.5094C36.7205 1.60066 34.4388 0.369141 31.8717 0.369141H17.8469C15.8607 0.369141 14.0458 1.10655 12.653 2.32553C10.714 2.74691 9.0382 3.88563 7.91104 5.45074C7.23823 5.94485 6.64486 6.54431 6.15577 7.22403C4.60407 8.36526 3.4794 10.0583 3.05982 12.0172C1.86067 13.4218 1.13572 15.2503 1.13572 17.2518V27.884C1.13572 29.8204 1.8135 31.5936 2.94313 32.9807C1.29709 34.4505 0.256836 36.6 0.256836 38.9928V40.7661C0.256836 43.5352 1.64467 45.9781 3.75746 47.4203V58.9229C1.64467 60.3651 0.256836 62.8081 0.256836 65.5772V67.3404C0.256836 71.7724 3.81457 75.3666 8.20152 75.3666H18.7257C19.3688 75.3666 19.9944 75.2864 20.5928 75.1409C21.1911 75.2864 21.8167 75.3666 22.4598 75.3666H36.4945C38.4162 75.3666 40.1814 74.6769 41.5543 73.5281C42.9297 74.6769 44.6925 75.3666 46.6141 75.3666H55.3706C56.2917 75.3666 57.1755 75.2061 57.9998 74.9152C58.8216 75.2061 59.7054 75.3666 60.629 75.3666H71.1532C72.6304 75.3666 74.0133 74.9578 75.1976 74.248C76.3818 74.9578 77.7647 75.3666 79.2419 75.3666H93.2668C95.5186 75.3666 97.547 74.4185 98.9944 72.9011C99.4984 73.1293 100.027 73.3074 100.581 73.4253C101.971 74.6342 103.779 75.3666 105.757 75.3666H119.782C120.428 75.3666 121.053 75.2864 121.654 75.1409C122.255 75.2864 122.881 75.3666 123.526 75.3666H144.575C145.533 75.3666 146.451 75.1961 147.303 74.88C148.155 75.1936 149.073 75.3666 150.032 75.3666H164.066C165.375 75.3666 166.606 75.0456 167.694 74.4812C168.781 75.0456 170.012 75.3666 171.321 75.3666H185.356C186.158 75.3666 186.932 75.2462 187.662 75.023C188.392 75.2462 189.167 75.3666 189.966 75.3666H200.49C200.828 75.3666 201.158 75.3441 201.483 75.3014C201.809 75.3416 202.141 75.3666 202.476 75.3666H220.012C220.814 75.3666 221.588 75.2462 222.316 75.023C223.046 75.2462 223.82 75.3666 224.62 75.3666H245.668C246.155 75.3666 246.631 75.319 247.096 75.2337C247.56 75.319 248.037 75.3666 248.523 75.3666H269.572C273.383 75.3666 276.566 72.6553 277.338 69.0385C278.537 67.6339 279.262 65.8054 279.262 63.8039V60.2573L279.259 60.2623Z" fill="#0064FF"/>
<path d="M33.6296 14.5773H31.8743V12.814H30.129V11.0407H28.3737V9.26743H17.8494V7.49414H31.8743V11.0407H33.6296V14.5773ZM17.8494 34.0785H14.3389V32.3052H12.5836V30.5319H10.8283V26.9853H9.08298V16.3531H10.8283V12.8165H12.5836V11.0432H14.3389V9.26994H17.8494V11.0432H16.0942V12.8165H14.3389V16.3531H12.5836V26.9853H14.3389V30.5319H16.0942V32.3052H17.8494V34.0785ZM31.8743 35.8417H17.8494V34.0785H28.3737V32.3052H30.129V25.2095H25.7395V23.4463H35.3849V25.2095H33.6296V34.0785H31.8743V35.8417ZM54.8866 9.26743H46.1176V7.49414H54.8866V9.26743ZM46.1176 34.0785H42.6071V32.3052H40.8518V30.5319H39.0965V26.9853H37.3512V16.3531H39.0965V12.8165H40.8518V11.0432H42.6071V9.26994H46.1176V11.0432H44.3624V12.8165H42.6071V16.3531H40.8518V26.9853H42.6071V30.5319H44.3624V32.3052H46.1176V34.0785ZM58.3971 34.0785H54.8866V32.3052H56.6419V30.5319H58.3971V26.9853H60.1425V16.3531H58.3971V12.8165H56.6419V11.0432H54.8866V9.26994H58.3971V11.0432H60.1425V12.8165H61.8978V16.3531H63.653V26.9853H61.8978V30.5319H60.1425V32.3052H58.3971V34.0785ZM54.8866 36.7447H46.1176V34.9814H54.8866V36.7447ZM84.9125 9.26743H76.1436V7.49414H84.9125V9.26743ZM76.1436 34.0785H72.633V32.3052H70.8777V30.5319H69.1225V26.9853H67.3771V16.3531H69.1225V12.8165H70.8777V11.0432H72.633V9.26994H76.1436V11.0432H74.3883V12.8165H72.633V16.3531H70.8777V26.9853H72.633V30.5319H74.3883V32.3052H76.1436V34.0785ZM88.4231 34.0785H84.9125V32.3052H86.6678V30.5319H88.4231V26.9853H90.1684V16.3531H88.4231V12.8165H86.6678V11.0432H84.9125V9.26994H88.4231V11.0432H90.1684V12.8165H91.9237V16.3531H93.679V26.9853H91.9237V30.5319H90.1684V32.3052H88.4231V34.0785ZM84.9125 36.7447H76.1436V34.9814H84.9125V36.7447ZM111.406 35.8417H93.8702V34.0785H97.3708V9.26743H93.8702V7.49414H111.406V9.26743H100.881V34.0785H111.406V35.8417ZM114.916 34.0785H111.406V32.3052H113.161V30.5319H114.916V26.9853H116.661V16.3531H114.916V12.8165H113.161V11.0432H111.406V9.26994H114.916V11.0432H116.661V12.8165H118.417V16.3531H120.172V26.9853H118.417V30.5319H116.661V32.3052H114.916V34.0785ZM146.062 35.8417H128.526V34.0785H132.027V9.26743H128.526V7.49414H146.062V9.26743H135.538V34.0785H146.062V35.8417ZM149.572 34.0785H146.062V32.3052H147.817V30.5319H149.572V26.9853H151.318V16.3531H149.572V12.8165H147.817V11.0432H146.062V9.26994H149.572V11.0432H151.318V12.8165H153.073V16.3531H154.828V26.9853H153.073V30.5319H151.318V32.3052H149.572V34.0785ZM176.085 35.8417H155.037V34.0785H158.537V9.26743H155.037V7.49414H174.327V11.0407H176.083V14.5773H174.327V12.814H172.572V11.0407H170.817V9.26743H162.048V19.8997H170.817V16.3531H172.572V25.212H170.817V21.6755H162.048V34.081H172.572V32.3077H174.327V30.5344H176.083V28.7611H177.828V32.3077H176.083V35.8443L176.085 35.8417ZM195.577 35.8417H181.542V32.3052H179.797V28.7586H181.542V30.5319H183.298V32.3052H185.053V34.0785H193.822V32.3052H195.577V26.0974H193.822V24.3342H190.321V22.5609H186.811V20.7876H183.3V19.0143H181.545V17.241H179.799V11.0432H181.545V9.26994H183.3V7.49665H195.58V9.26994H197.335V12.8165H195.58V11.0432H193.824V9.26994H185.055V11.0432H183.3V15.4677H185.055V17.241H188.566V19.0143H192.066V20.7876H195.577V22.5609H197.332V24.3342H199.088V32.3052H197.332V34.0785H195.577V35.8417ZM210.712 35.8417H200.187V34.0785H203.688V9.26743H200.187V7.49414H210.712V9.26743H207.201V34.0785H210.712V35.8417ZM235.469 14.5773H233.714V12.814H231.969V11.0407H230.213V9.26743H219.689V7.49414H233.714V11.0407H235.469V14.5773ZM219.689 34.0785H216.179V32.3052H214.423V30.5319H212.668V26.9853H210.923V16.3531H212.668V12.8165H214.423V11.0432H216.179V9.26994H219.689V11.0432H217.934V12.8165H216.179V16.3531H214.423V26.9853H216.179V30.5319H217.934V32.3052H219.689V34.0785ZM233.714 35.8417H219.689V34.0785H230.213V32.3052H231.969V25.2095H227.579V23.4463H237.225V25.2095H235.469V34.0785H233.714V35.8417ZM246.224 35.8417H237.455V34.0785H240.956V9.26743H237.455V7.49414H246.224V11.0407H247.98V14.5773H249.725V18.1239H251.48V21.6704H253.236V25.207H254.991V28.7536H256.746V32.3002H258.501V9.26743H254.991V7.49414H263.76V9.26743H260.247V35.8417H254.991V32.3052H253.236V28.7586H251.48V25.212H249.725V21.6755H247.98V18.1289H246.224V14.5823H244.469V11.0457H242.714V34.0835H246.224V35.8468V35.8417ZM18.7283 68.3479H8.2041V66.5847H11.7047V41.7736H8.2041V40.0003H18.7283V41.7736H15.2178V66.5847H18.7283V68.3479ZM36.4971 68.3479H22.4623V64.8114H20.717V61.2648H22.4623V63.0381H24.2176V64.8114H25.9729V66.5847H34.7418V64.8114H36.4971V58.6036H34.7418V56.8403H31.2412V55.0671H27.7307V53.2938H24.2201V51.5205H22.4648V49.7472H20.7195V43.5494H22.4648V41.7761H24.2201V40.0028H36.4996V41.7761H38.2549V45.3227H36.4996V43.5494H34.7443V41.7761H25.9754V43.5494H24.2201V47.9739H25.9754V49.7472H29.4859V51.5205H32.9866V53.2938H36.4971V55.0671H38.2524V56.8403H40.0077V64.8114H38.2524V66.5847H36.4971V68.3479ZM71.1533 68.3479H60.6291V66.5847H64.1397V61.2623H62.3844V59.489H53.6154V61.2623H51.8601V55.9524H53.6154V57.7157H62.3844V55.9524H60.6291V50.6301H58.8838V45.3202H57.1285V39.9978H58.8838V38.2245H60.6291V45.3202H62.3844V50.6301H64.1397V55.9524H65.8949V61.2623H67.6502V66.5847H71.1508V68.3479H71.1533ZM57.1285 50.6326H55.3732V45.3227H57.1285V50.6326ZM55.3732 55.9549H53.6179V50.6326H55.3732V55.9549ZM55.3732 68.3504H46.6167V66.5872H50.1074V61.2648H51.8626V66.5872H55.3732V68.3504ZM95.0221 46.0827H93.2669V44.3194H91.5215V42.5461H89.7662V40.7729H79.242V38.9996H93.2669V42.5461H95.0221V46.0827ZM79.242 66.5872H75.7314V64.8139H73.9762V63.0406H72.2209V59.494H70.4755V48.8618H72.2209V45.3252H73.9762V43.5519H75.7314V41.7786H79.242V43.5519H77.4867V45.3252H75.7314V48.8618H73.9762V59.494H75.7314V63.0406H77.4867V64.8139H79.242V66.5872ZM93.2669 68.3504H79.242V66.5872H89.7662V64.8139H91.5215V63.0406H93.2669V61.2673H95.0221V64.8139H93.2669V68.3504ZM121.538 46.0827H119.782V44.3194H118.037V42.5461H116.282V40.7729H105.757V38.9996H119.782V42.5461H121.538V46.0827ZM105.757 66.5872H102.247V64.8139H100.492V63.0406H98.7363V59.494H96.9909V48.8618H98.7363V45.3252H100.492V43.5519H102.247V41.7786H105.757V43.5519H104.002V45.3252H102.247V48.8618H100.492V59.494H102.247V63.0406H104.002V64.8139H105.757V66.5872ZM119.782 68.3504H105.757V66.5872H116.282V64.8139H118.037V63.0406H119.782V61.2673H121.538V64.8139H119.782V68.3504ZM144.572 68.3504H123.524V66.5872H127.024V41.7761H123.524V40.0028H142.814V43.5494H144.57V47.086H142.814V45.3227H141.059V43.5494H139.304V41.7761H130.535V52.4084H139.304V48.8618H141.059V57.7207H139.304V54.1842H130.535V66.5897H141.059V64.8164H142.814V63.0431H144.57V61.2698H146.315V64.8164H144.57V68.353L144.572 68.3504ZM164.064 68.3504H150.029V64.8139H148.284V61.2673H150.029V63.0406H151.784V64.8139H153.54V66.5872H162.309V64.8139H164.064V58.6061H162.309V56.8428H158.808V55.0696H155.297V53.2963H151.787V51.523H150.032V49.7497H148.286V43.5519H150.032V41.7786H151.787V40.0053H164.066V41.7786H165.822V45.3252H164.066V43.5519H162.311V41.7786H153.542V43.5519H151.787V47.9764H153.542V49.7497H157.053V51.523H160.553V53.2963H164.064V55.0696H165.819V56.8428H167.574V64.8139H165.819V66.5872H164.064V68.3504ZM185.353 68.3504H171.318V64.8139H169.573V61.2673H171.318V63.0406H173.074V64.8139H174.829V66.5872H183.598V64.8139H185.353V58.6061H183.598V56.8428H180.097V55.0696H176.587V53.2963H173.076V51.523H171.321V49.7497H169.576V43.5519H171.321V41.7786H173.076V40.0053H185.356V41.7786H187.111V45.3252H185.356V43.5519H183.6V41.7786H174.831V43.5519H173.076V47.9764H174.831V49.7497H178.342V51.523H181.843V53.2963H185.353V55.0696H187.108V56.8428H188.864V64.8139H187.108V66.5872H185.353V68.3504ZM200.488 68.3504H189.964V66.5872H193.464V41.7761H189.964V40.0028H200.488V41.7761H196.977V66.5872H200.488V68.3504ZM220.012 68.3504H202.476V66.5872H205.977V41.7761H202.476V40.0028H218.257V41.7761H220.012V43.5494H221.767V50.6326H220.012V54.1791H221.767V55.9524H223.522V64.8114H221.767V66.5847H220.012V68.3479V68.3504ZM209.488 52.4084H216.499V50.6351H218.254V43.5519H216.499V41.7786H209.488V52.4109V52.4084ZM209.488 66.5872H218.257V64.8139H220.012V55.9549H218.257V54.1817H209.488V66.5872ZM245.668 68.3504H224.62V66.5872H228.12V41.7761H224.62V40.0028H235.144V41.7761H231.633V66.5872H242.158V64.8139H243.913V63.0406H245.668V61.2673H247.414V64.8139H245.668V68.3504ZM269.569 68.3504H248.521V66.5872H252.022V41.7761H248.521V40.0028H267.814V43.5494H269.569V47.086H267.814V45.3227H266.059V43.5494H264.301V41.7761H255.535V52.4084H264.301V48.8618H266.059V57.7207H264.301V54.1842H255.535V66.5897H266.059V64.8164H267.814V63.0431H269.569V61.2698H271.315V64.8164H269.569V68.353V68.3504Z" fill="black"/>
</g>
<defs>
<clipPath id="clip0_5899_13219">
<rect width="279" height="75" fill="white" transform="translate(0.259766 0.371094)"/>
</clipPath>
</defs>
</svg>
