<svg width="302" height="69" viewBox="0 0 302 69" fill="none" xmlns="http://www.w3.org/2000/svg">
<g clip-path="url(#clip0_5899_13215)">
<path d="M295.78 47.9303V47.5003C295.78 44.8603 294.63 42.4903 292.82 40.8403V38.6403C292.82 36.0003 291.68 33.6303 289.86 31.9803V29.7603C289.86 27.1203 288.71 24.7503 286.9 23.1003V20.9003C286.9 18.2603 285.75 15.8903 283.94 14.2403V9.07031C283.94 4.10031 279.91 0.0703125 274.94 0.0703125H272C268.76 0.0703125 265.92 1.79031 264.34 4.37031C261.77 5.95031 260.04 8.79031 260.04 12.0303V14.2503C258.23 15.9003 257.08 18.2603 257.08 20.9103V23.1103C256.55 23.5903 256.07 24.1303 255.66 24.7303C255.23 22.9203 254.25 21.3203 252.91 20.1203C252.65 17.2103 251.01 14.7103 248.65 13.2503C247.92 12.0603 246.91 11.0503 245.72 10.3103C244.27 7.93031 241.75 6.29031 238.82 6.04031C237.17 4.20031 234.79 3.04031 232.13 3.04031H202.59C201.27 3.04031 200.02 3.33031 198.89 3.84031C197.76 3.33031 196.51 3.04031 195.19 3.04031H180.42C177.36 3.04031 174.66 4.57031 173.04 6.90031C171.41 4.57031 168.71 3.04031 165.65 3.04031H150.88C148.26 3.04031 145.91 4.17031 144.26 5.95031C142.62 4.16031 140.26 3.04031 137.64 3.04031H105.14C102.87 3.04031 100.8 3.89031 99.2204 5.27031C97.6404 3.88031 95.5704 3.04031 93.3004 3.04031H69.6804C67.0204 3.04031 64.6404 4.20031 62.9904 6.04031C60.0704 6.29031 57.5604 7.93031 56.1004 10.3003C54.9004 11.0403 53.8804 12.0503 53.1404 13.2603C50.7704 14.7203 49.1304 17.2303 48.8804 20.1403C47.5504 21.3403 46.5804 22.9303 46.1504 24.7403C45.7504 24.1403 45.2604 23.6003 44.7304 23.1203V20.9203C44.7304 18.2803 43.5804 15.9103 41.7704 14.2603V9.09031C41.7704 4.12031 37.7404 0.0903125 32.7704 0.0903125H29.8304C26.5904 0.0903125 23.7504 1.81031 22.1704 4.39031C19.6004 5.97031 17.8704 8.81031 17.8704 12.0503V14.2703C16.0604 15.9203 14.9104 18.2803 14.9104 20.9303V23.1303C13.1004 24.7803 11.9504 27.1403 11.9504 29.7903V32.0103C10.1404 33.6603 8.99039 36.0203 8.99039 38.6703V40.8703C7.18039 42.5203 6.03039 44.8803 6.03039 47.5303V47.9703C2.60039 49.2403 0.150391 52.5303 0.150391 56.4003V59.3403C0.150391 64.3103 4.18039 68.3403 9.15039 68.3403H23.9004C25.5104 68.3403 27.0204 67.9103 28.3304 67.1703C29.6404 67.9103 31.1504 68.3403 32.7604 68.3403H50.4904C53.9104 68.3403 56.8804 66.4403 58.4004 63.6303C59.7004 64.5903 61.2704 65.2203 62.9804 65.3603C64.6304 67.1803 67.0004 68.3403 69.6504 68.3403H93.2704C95.5404 68.3403 97.6104 67.4903 99.1904 66.1103C100.77 67.5003 102.84 68.3403 105.11 68.3403H140.56C142.47 68.3403 144.24 67.7403 145.7 66.7203C147.16 67.7403 148.93 68.3403 150.84 68.3403H165.61C168.67 68.3403 171.37 66.8103 173 64.4803C174.63 66.8103 177.33 68.3403 180.38 68.3403H189.23C191.87 68.3403 194.25 67.1903 195.89 65.3803C197.54 67.2003 199.91 68.3403 202.55 68.3403H232.09C234.74 68.3403 237.12 67.1903 238.76 65.3603C240.47 65.2203 242.05 64.5903 243.35 63.6203C244.87 66.4303 247.85 68.3403 251.27 68.3403H266.02C267.63 68.3403 269.14 67.9103 270.45 67.1703C271.76 67.9103 273.27 68.3403 274.88 68.3403H292.61C297.58 68.3403 301.61 64.3103 301.61 59.3403V56.4003C301.61 52.5203 299.15 49.2303 295.71 47.9603L295.78 47.9303Z" fill="#A23EF1"/>
<path d="M50.5302 59.2998H32.8002V56.3598H38.7202V47.4898H35.7602V44.5298H20.9902V47.4898H18.0302V38.6398H20.9902V41.5798H35.7602V38.6398H32.8002V29.7698H29.8602V20.9198H26.9002V12.0498H29.8602V9.08984H32.8002V20.9198H35.7602V29.7698H38.7202V38.6398H41.6802V47.4898H44.6402V56.3598H50.5402V59.2998H50.5302ZM26.9102 29.7598H23.9502V20.9098H26.9102V29.7598ZM23.9502 38.6298H20.9902V29.7598H23.9502V38.6298ZM23.9502 59.2998H9.2002V56.3598H15.0802V47.4898H18.0402V56.3598H23.9602V59.2998H23.9502ZM96.2802 23.8498H93.3202V20.9098H90.3802V17.9498H87.4202V14.9898H69.6902V12.0298H93.3102V17.9498H96.2702V23.8498H96.2802ZM69.7002 56.3698H63.7802V53.4098H60.8202V50.4498H57.8602V44.5298H54.9202V26.7998H57.8602V20.8998H60.8202V17.9398H63.7802V14.9798H69.7002V17.9398H66.7402V20.8998H63.7802V26.7998H60.8202V44.5298H63.7802V50.4498H66.7402V53.4098H69.7002V56.3698ZM93.3202 59.3098H69.7002V56.3698H87.4302V53.4098H90.3902V41.5798H83.0002V38.6398H99.2502V41.5798H96.2902V56.3698H93.3302V59.3098H93.3202ZM140.62 59.3098H105.17V56.3698H111.07V14.9998H105.17V12.0398H137.67V17.9598H140.63V23.8598H137.67V20.9198H134.71V17.9598H131.75V14.9998H116.98V32.7298H131.75V26.8098H134.71V41.5798H131.75V35.6798H116.98V56.3598H134.71V53.3998H137.67V50.4398H140.63V47.4798H143.57V53.3998H140.63V59.2998L140.62 59.3098ZM165.67 59.3098H150.9V56.3698H156.8V14.9998H150.9V12.0398H165.67V17.9598H168.63V23.8598H171.57V29.7798H174.53V35.6998H177.49V41.5998H180.45V47.5198H183.41V53.4398H186.37V14.9998H180.46V12.0398H195.23V14.9998H189.31V59.3098H180.46V53.4098H177.5V47.4898H174.54V41.5698H171.58V35.6698H168.64V29.7498H165.68V23.8298H162.72V17.9298H159.76V56.3398H165.67V59.2798V59.3098ZM232.16 59.3098H202.62V56.3698H208.52V14.9998H202.62V12.0398H232.16V14.9998H214.43V56.3698H232.16V59.3098ZM238.08 56.3698H232.16V53.4098H235.12V50.4498H238.08V44.5298H241.02V26.7998H238.08V20.8998H235.12V17.9398H232.16V14.9798H238.08V17.9398H241.02V20.8998H243.98V26.7998H246.94V44.5298H243.98V50.4498H241.02V53.4098H238.08V56.3698ZM292.68 59.3098H274.95V56.3698H280.87V47.4998H277.91V44.5398H263.14V47.4998H260.18V38.6498H263.14V41.5898H277.91V38.6498H274.95V29.7798H272.01V20.9298H269.05V12.0598H272.01V9.09984H274.95V20.9298H277.91V29.7798H280.87V38.6498H283.83V47.4998H286.79V56.3698H292.69V59.3098H292.68ZM269.06 29.7698H266.1V20.9198H269.06V29.7698ZM266.1 38.6398H263.14V29.7698H266.1V38.6398ZM266.1 59.3098H251.35V56.3698H257.23V47.4998H260.19V56.3698H266.11V59.3098H266.1Z" fill="black"/>
</g>
<defs>
<clipPath id="clip0_5899_13215">
<rect width="301.48" height="68.22" fill="white" transform="translate(0.200195 0.0800781)"/>
</clipPath>
</defs>
</svg>
