<svg width="199" height="163" viewBox="0 0 199 163" fill="none" xmlns="http://www.w3.org/2000/svg">
<g clip-path="url(#clip0_5899_13207)">
<path d="M151.93 23.3693L153.51 19.0093C153.37 18.9593 153.29 18.9193 153.23 18.8893C153.23 18.8793 153.22 18.8693 153.21 18.8493C153.05 18.4693 153.01 18.2793 152.68 17.3093C152.55 16.9293 152.38 16.4793 152.17 15.9893C152.17 15.8093 152.19 15.6393 152.19 15.4493C152.19 7.9593 146.21 1.8593 138.6 1.8593C135.99 1.8593 134.21 2.5993 133.06 3.0793C132.05 3.5093 131.98 3.5093 131.72 3.5093C131.54 3.5093 131.39 3.4993 129.64 2.5893C128.08 1.7793 125.62 0.539297 122.2 0.539297C118.18 0.539297 114.66 2.0793 112.05 4.5093C110.35 2.1093 107.56 0.539297 104.42 0.539297C99.2802 0.539297 95.0602 4.7593 95.0602 9.8993V12.8393C92.4002 10.5593 89.2102 9.4093 86.0002 9.2793C85.6802 4.4193 81.6002 0.529297 76.6702 0.529297C74.1502 0.529297 71.8502 1.5493 70.1602 3.1893C68.5702 1.9393 66.5702 1.1893 64.4102 1.1893H50.0702C49.9602 1.1893 49.8602 1.1893 49.7602 1.1993C48.7402 0.789297 47.6102 0.529297 46.3702 0.529297C41.2302 0.529297 37.0102 4.7493 37.0102 9.8893V48.7393C37.0102 50.0893 37.3102 51.3793 37.8302 52.5393C37.7402 52.5393 37.6502 52.5293 37.5502 52.5293C35.7102 52.5293 34.0502 52.9593 32.5802 53.8093C31.1802 54.6193 30.2302 55.6693 29.5902 56.4493C29.2802 56.8393 28.9802 57.2293 28.7702 57.5093C28.5302 57.8293 28.3702 58.0493 28.2002 58.2493C28.0102 58.4793 27.8802 58.6093 27.7802 58.7093C27.7502 58.7093 27.7402 58.7093 27.7102 58.7193C27.2902 58.7893 26.8802 58.8093 25.9802 58.8893C24.5602 59.0093 21.7102 59.2493 19.2302 61.1193C16.1702 63.4293 15.2602 66.4293 15.2602 69.0093C15.2602 71.1393 15.9202 72.9893 16.2502 73.9593C16.6602 75.1793 16.7202 75.4793 16.7202 75.6793C16.7202 75.7693 16.7202 75.8893 16.5402 76.5093C16.4102 76.9693 15.9902 78.2893 15.9902 79.7793C15.9902 82.8993 17.3202 85.2893 19.2102 86.9393C20.8402 88.3593 22.7902 89.1193 23.8902 89.5393C23.9302 89.5593 23.9802 89.5693 24.0202 89.5893C24.4202 89.7293 24.6502 89.8093 24.9202 89.9093C25.0202 89.9493 25.1002 89.9793 25.1702 90.0093C25.2002 90.1893 25.2402 90.4693 25.2402 90.8893C25.2402 90.6493 24.9102 93.3293 26.0802 96.0893C26.0502 96.4393 26.0302 96.7893 26.0302 97.0993C26.0302 102.919 29.7602 107.729 34.9102 109.429C32.9102 110.139 31.0102 111.289 29.3702 112.929C26.9802 115.319 26.1002 117.919 25.5702 119.599L19.7402 112.079C19.6802 111.999 19.6202 111.919 19.5502 111.849C19.2702 111.529 18.9502 111.219 18.6102 110.919C17.3602 107.299 13.9902 104.519 9.77016 104.519C4.63016 104.519 0.410156 108.739 0.410156 113.879V152.729C0.410156 157.869 4.63016 162.089 9.77016 162.089C14.9102 162.089 19.1302 157.869 19.1302 152.729V145.209C21.5602 147.449 24.8802 148.679 28.1402 148.679C31.1802 148.679 34.6502 147.649 37.3502 145.199V152.729C37.3502 157.869 41.5702 162.089 46.7102 162.089C49.3802 162.089 51.8002 160.939 53.5102 159.129C55.2202 160.949 57.6402 162.089 60.3102 162.089C64.9902 162.089 68.8902 158.589 69.5602 154.089H75.3102C77.4402 159.289 82.7502 162.089 87.3302 162.089C92.2302 162.089 96.4102 159.439 98.6202 155.539C99.7302 156.449 100.96 157.159 102.23 157.659C104 160.229 106.96 162.099 110.36 162.099C113.76 162.099 116.04 160.329 117.04 159.659C117.57 159.299 117.89 159.109 118.06 159.009C118.23 159.109 118.55 159.289 119.11 159.669C120.1 160.329 122.42 162.009 125.59 162.089C125.59 162.089 125.66 162.089 125.69 162.089C125.73 162.089 125.77 162.089 125.82 162.089C129.12 162.149 132.04 160.509 134.13 157.689C134.41 157.309 134.64 157.149 134.89 157.019C135.27 156.819 135.75 156.659 136.84 156.349C136.84 156.349 136.85 156.349 136.86 156.349C137.65 156.119 138.53 155.759 139.41 155.249C140.52 159.179 144.14 162.099 148.42 162.099C153.56 162.099 157.78 157.879 157.78 152.739V150.989C158.28 154.719 161.05 158.019 165.01 158.869C166.69 160.439 168.94 161.449 171.41 161.449H188.39C193.53 161.449 197.75 157.229 197.75 152.089C197.75 146.949 193.53 142.729 188.39 142.729H176.41V132.519C177.97 133.319 180.3 134.359 183.43 134.359C192.07 134.359 198.41 127.299 198.41 119.449C198.41 111.599 192.07 104.539 183.43 104.539C181.2 104.539 179.38 105.069 177.95 105.659C178.84 104.229 179.37 102.549 179.37 100.749V61.8993C179.37 56.7593 175.15 52.5393 170.01 52.5393C164.87 52.5393 160.65 56.7593 160.65 61.8993V68.4693C160.3 68.5893 159.97 68.7093 159.67 68.8393C158.34 69.3793 158.31 69.3893 157.99 69.3893C157.81 69.3893 157.66 69.3793 155.91 68.4693C154.82 67.8993 153.28 67.1393 151.29 66.7193V61.9093C151.29 57.7793 148.57 54.2493 144.83 53.0193C145.39 51.9793 145.75 50.9593 145.98 50.1293L141.96 48.9793L145.98 50.1193C146.06 49.8393 146.14 49.6293 146.2 49.4893C146.2 49.4893 146.2 49.4893 146.22 49.4893C146.29 49.4893 146.36 49.4693 146.42 49.4593C146.84 49.3893 147.23 49.3793 148.14 49.3393C148.9 49.3093 150.15 49.2493 151.47 48.8693C151.54 48.8493 151.61 48.8293 151.68 48.8093C153.18 48.3093 155 47.3693 156.44 45.5893C157.93 43.7493 158.67 41.4393 158.67 38.8393C158.67 38.1993 158.78 37.9393 158.82 37.8393C158.89 37.6893 159 37.4993 159.43 36.9793C160.28 35.9393 162.44 33.6293 162.44 29.5893C162.44 26.3293 161.01 23.8193 159.04 22.0693C157.27 20.4993 155.13 19.5893 153.53 19.0093M134.54 146.509C134.54 146.499 134.55 146.479 134.56 146.469C134.56 146.479 134.56 146.489 134.56 146.499L134.54 146.509ZM119.92 146.039L120.35 145.679L120.38 145.649L119.92 146.039Z" fill="#FFC852"/>
<path d="M46.3802 53.1091C47.3002 53.1091 48.1602 52.7791 48.8902 52.2491C47.0402 51.7191 45.7202 49.9991 45.7202 48.0891C45.7202 45.7091 47.7002 43.7291 50.0802 43.7291H50.7402V36.9891C48.1002 35.4691 46.3802 32.6291 46.3802 29.3291C46.3802 26.0291 48.1002 23.2491 50.7402 21.6691V14.9291H50.0802C47.7002 14.9291 45.7202 12.9491 45.7202 10.5691C45.7202 8.64906 47.0402 6.93906 48.8902 6.40906C48.1602 5.87906 47.3002 5.54906 46.3802 5.54906C44.0002 5.54906 42.0202 7.52906 42.0202 9.90906V48.7591C42.0202 51.1391 44.0002 53.1191 46.3802 53.1191V53.1091ZM48.8902 52.2491C48.8902 52.2491 49.5502 52.4491 50.0802 52.4491H64.4202C66.8002 52.4491 68.7802 50.4691 68.7802 48.0891C68.7802 45.7091 66.8002 43.7291 64.4202 43.7291H50.7402V48.7491C50.7402 50.1991 50.0102 51.4591 48.8902 52.2491ZM48.8902 6.39906C50.0102 7.18906 50.7402 8.44906 50.7402 9.89906V14.9191H64.4202C66.8002 14.9191 68.7802 12.9391 68.7802 10.5591C68.7802 8.17906 66.8002 6.19906 64.4202 6.19906H50.0802C49.5502 6.19906 48.8902 6.39906 48.8902 6.39906ZM50.7402 36.9891C52.0602 37.7791 53.6502 38.2491 55.3602 38.2491C60.3202 38.2491 64.2802 34.2891 64.2802 29.3291C64.2802 24.3691 60.3202 20.3391 55.3602 20.3391C53.6402 20.3391 52.1202 20.7991 50.7402 21.6591V36.9891ZM97.0302 44.3891C98.0902 44.3891 99.0802 44.1891 100.07 43.7991V27.8091C99.0102 27.4091 98.0202 27.0791 97.0302 26.0291C94.7202 23.7191 95.4402 20.2191 92.4102 17.1791C90.4302 15.1991 87.9202 14.2691 85.4102 14.2691C83.8202 14.2691 82.4402 14.5991 81.0502 15.3291V33.0391C83.3002 34.0991 85.6102 34.1591 87.2602 35.8091C89.2402 37.7891 88.7102 39.6391 90.9602 41.8891C92.6102 43.6091 94.8602 44.3991 97.0402 44.3991L97.0302 44.3891ZM72.3202 48.7491C72.3202 51.1291 74.3002 53.1091 76.6802 53.1091C79.0602 53.1091 81.0402 51.1291 81.0402 48.7491V33.0291C77.6002 31.3791 75.4902 27.8791 75.4902 24.1791C75.4902 20.2791 77.8002 16.9791 81.0402 15.3291V9.90906C81.0402 7.52906 79.0602 5.54906 76.6802 5.54906C74.3002 5.54906 72.3202 7.52906 72.3202 9.90906V48.7591V48.7491ZM100.07 48.7491C100.07 51.1291 102.05 53.1091 104.43 53.1091C106.81 53.1091 108.79 51.1291 108.79 48.7491V9.89906C108.79 7.51906 106.81 5.53906 104.43 5.53906C102.05 5.53906 100.07 7.51906 100.07 9.89906V27.8091C100.99 28.2091 101.99 28.6691 103.11 29.7291C104.83 31.3791 105.62 33.6291 105.62 35.8091C105.62 39.5091 103.24 42.5491 100.07 43.7991V48.7591V48.7491ZM136.09 53.1091C139.33 53.1091 140.52 51.0591 141.18 48.7491C142.3 44.7891 144.55 44.6491 145.61 44.5191C147.19 44.2591 148.71 44.4491 150.1 44.0591C151.88 43.4691 153.67 42.0791 153.67 38.8391C153.67 33.6891 157.44 33.6891 157.44 29.5891C157.44 26.2891 154.73 24.7691 151.82 23.7091C147.99 22.3191 148.71 19.6091 147.06 16.9691C146.47 20.4691 143.76 23.1791 140.32 23.9091C141.71 24.8291 143.42 25.4291 144.75 26.2191C146.73 27.4791 147.72 29.7191 147.72 31.8391C147.72 33.9591 146.73 37.1291 143.62 37.5891C141.7 37.8491 140.51 37.1291 139.46 37.1291C135.76 37.1291 136.09 40.4991 134.57 42.7491C134.31 43.1491 133.98 43.5391 133.58 43.8691C135.5 44.3291 137.02 46.0491 137.02 48.0991C137.02 50.1491 135.43 51.9991 133.45 52.3891C134.24 52.8491 135.17 53.1191 136.09 53.1191V53.1091ZM112.24 15.4491C112.24 20.1391 115.61 24.4391 120.5 25.2291V19.8091C120.5 17.4291 122.48 15.4491 124.86 15.4491C127.24 15.4491 129.22 17.4291 129.22 19.8091V22.9791C130.01 22.6491 130.81 22.3891 131.73 22.3891C134.5 22.3891 135.43 24.0391 138.6 24.0391C139.19 24.0391 139.72 23.9691 140.32 23.9091C138.87 22.9191 137.81 21.6591 137.81 19.4191C137.88 16.9791 139.79 14.5291 142.7 14.5291C144.48 14.5291 146.13 15.3891 147.06 16.9691C147.13 16.4391 147.19 15.9791 147.19 15.4491C147.19 10.6891 143.42 6.85906 138.6 6.85906C135.43 6.85906 134.5 8.50906 131.73 8.50906C128.43 8.50906 126.51 5.53906 122.22 5.53906C116.47 5.53906 112.24 10.2291 112.24 15.4491ZM113.1 48.0891C113.1 50.4691 115.08 52.4491 117.46 52.4491H132.66C132.92 52.4491 133.19 52.4491 133.45 52.3791C132.13 51.5891 131.14 50.1991 131.14 48.4791C131.01 46.1691 132.46 44.9791 133.58 43.8591C133.58 43.8591 133.12 43.7291 132.65 43.7291H129.21C129.21 46.1091 127.23 48.0891 124.85 48.0891C122.47 48.0891 120.49 46.1091 120.49 43.7291H117.45C115.07 43.7291 113.09 45.7091 113.09 48.0891H113.1ZM120.5 43.7291H129.22V22.9791C127.17 23.8391 125.32 25.3591 122.22 25.3591C121.43 25.3591 120.5 25.2291 120.5 25.2291V43.7291ZM31.2902 95.1991C32.0802 92.0891 34.7902 89.0591 39.2802 89.1191C38.9502 88.4591 38.6202 87.8591 38.4902 87.1391C38.0302 85.2891 38.4902 83.3091 37.3702 81.7891C36.4502 80.5291 35.0602 80.1391 33.4102 80.1391C30.6402 80.1391 28.7902 77.6991 28.7902 75.1791C28.7902 72.9291 29.9802 70.6191 31.7602 69.2991C34.2702 67.3791 37.9002 68.6391 40.4802 66.7191C41.7402 65.7291 42.4602 64.0791 42.4602 62.4891C42.4602 59.7191 40.1502 57.5291 37.5702 57.5291C33.4702 57.5291 33.2102 61.2291 30.3002 63.0791C28.2502 64.3391 24.6802 63.2791 22.2402 65.1291C20.6502 66.3191 20.2602 67.7091 20.2602 69.0291C20.2602 71.4091 21.7102 73.3891 21.7102 75.6991C21.7102 77.3491 20.9802 78.4791 20.9802 79.7991C20.9802 82.9091 23.4202 84.0291 25.6702 84.8891C26.9902 85.3491 28.3102 85.7491 29.1702 86.8691C29.7602 87.6591 30.2302 88.9191 30.2302 90.8991C30.2302 91.4891 29.9702 93.6091 31.2902 95.1891V95.1991ZM31.0302 97.1191C31.0302 101.609 34.6002 105.109 39.0202 105.109C41.3302 105.109 43.4502 104.179 45.0302 102.399C46.6802 100.619 48.2002 98.4391 51.2402 98.4391C54.2802 98.4391 55.8002 100.619 57.4502 102.399C59.0402 104.179 61.1502 105.109 63.4602 105.109C67.8902 105.109 71.4502 101.609 71.4502 97.1191C71.4502 96.2591 71.2502 95.3991 70.9902 94.5391C70.2002 95.1291 69.2702 95.4691 68.2802 95.4691C65.9002 95.4691 63.9202 93.4891 63.9202 91.1091V89.1291H59.8202C59.9502 94.4191 55.9902 98.1791 51.2302 98.1791C46.4702 98.1791 42.5102 94.4091 42.6402 89.1291H39.2702C39.7302 90.0591 40.1902 91.0491 40.1902 92.1691C40.1202 94.7491 37.8802 96.9891 35.1002 96.9891C33.0502 96.9891 31.9302 95.9991 31.2702 95.2091C31.0702 95.8691 31.0102 96.5291 31.0102 97.1291L31.0302 97.1191ZM41.3402 73.1991C41.3402 77.4891 44.3102 79.4091 44.3102 82.7091C44.3102 85.3491 42.7902 86.3391 42.6602 89.1191H59.8402C59.6402 86.3391 58.1902 85.3491 58.1902 82.7091C58.1902 79.4091 61.1602 77.4891 61.1602 73.1991C61.1602 67.4491 56.4702 63.2191 51.2502 63.2191C46.0302 63.2191 41.3402 67.4491 41.3402 73.1991ZM63.9402 89.1191C67.5702 89.2491 70.0202 91.7591 71.0102 94.5391C72.0002 93.7491 72.6602 92.4891 72.6602 91.0991V61.8991C72.6602 59.5191 70.6802 57.5391 68.3002 57.5391C65.9202 57.5391 63.9402 59.5191 63.9402 61.8991V89.1191ZM80.2202 74.3191V70.9491C80.2202 68.5691 82.2002 66.5891 84.5802 66.5891C86.9602 66.5891 88.9402 68.5691 88.9402 70.9491V74.3191C91.6502 72.7991 93.5002 69.8891 93.5002 66.5191C93.5002 61.5591 89.5402 57.5291 84.5802 57.5291C79.6202 57.5291 75.5902 61.5591 75.5902 66.5191C75.5902 69.8891 77.4402 72.7991 80.2102 74.3191H80.2202ZM80.2202 100.749C80.2202 103.129 82.2002 105.109 84.5802 105.109C86.9602 105.109 88.9402 103.129 88.9402 100.749V74.3191C87.6202 75.0491 86.1702 75.4391 84.5802 75.4391C82.9902 75.4391 81.4702 75.0391 80.2202 74.3191V100.749ZM102.48 74.1891C103.74 74.1891 104.86 73.9291 105.98 73.3991V67.5191C105.98 65.1391 107.96 63.1591 110.34 63.1591C112.72 63.1591 114.7 65.1391 114.7 67.5191C117.74 67.5191 119.26 69.6991 120.91 71.4791C122.5 73.2591 124.61 74.1891 126.92 74.1891C131.35 74.1891 134.91 70.6891 134.91 66.1991C134.91 62.4991 132 58.2091 126.92 58.2091H102.47C97.3802 58.2091 94.4802 62.4991 94.4802 66.1991C94.4802 70.6891 98.0502 74.1891 102.47 74.1891H102.48ZM105.98 100.749C105.98 103.129 107.96 105.109 110.34 105.109C111.79 105.109 113.05 104.379 113.84 103.329C111.73 101.679 110.34 99.0991 110.34 96.1891C110.34 92.9491 112.06 90.1091 114.7 88.5291V67.5191C111.66 67.5191 110.14 69.6991 108.49 71.4791C107.76 72.3391 106.9 72.9291 105.98 73.3991V100.749ZM113.84 103.329C115.36 104.449 117.28 105.109 119.32 105.109C124.28 105.109 128.24 101.149 128.24 96.1891C128.24 91.2291 124.28 87.1991 119.32 87.1991C117.6 87.1991 116.02 87.7291 114.7 88.5191V100.739C114.7 101.669 114.37 102.589 113.84 103.319V103.329ZM170.01 105.109C172.39 105.109 174.37 103.129 174.37 100.749V61.8991C174.37 59.5191 172.39 57.5391 170.01 57.5391C167.63 57.5391 165.65 59.5191 165.65 61.8991V72.7991C170.08 73.1991 173.45 76.8291 173.45 81.3191C173.45 85.8091 170.08 89.4491 165.65 89.8391V100.739C165.65 103.119 167.63 105.099 170.01 105.099V105.109ZM137.57 100.749C137.57 103.129 139.55 105.109 141.93 105.109C144.31 105.109 146.29 103.129 146.29 100.749V90.9691C141.67 89.9791 138.49 85.8191 138.49 81.3191C138.49 76.8191 141.66 72.6591 146.29 71.6691V61.8891C146.29 59.5091 144.31 57.5291 141.93 57.5291C139.55 57.5291 137.57 59.5091 137.57 61.8891V100.739V100.749ZM146.29 90.9691C146.29 90.9691 147.35 91.2291 148.47 91.2291C152.76 91.2291 154.68 88.2591 157.98 88.2591C160.95 88.2591 161.94 90.1791 165.64 89.8491V72.7991C161.94 72.4691 160.95 74.3891 157.98 74.3891C154.68 74.3891 152.76 71.4191 148.47 71.4191C147.35 71.4191 146.29 71.6791 146.29 71.6791V90.9691ZM28.1402 143.699C30.3202 143.699 32.7002 142.909 34.3502 141.189C36.6002 138.939 36.0702 137.089 38.0502 135.109C39.2402 133.919 40.7602 133.519 42.3402 133.059V113.899C41.5502 113.699 40.6902 113.569 39.9002 113.569C37.3902 113.569 34.8802 114.499 32.9002 116.479C29.8602 119.519 30.5902 123.019 28.2802 125.329C27.2202 126.389 26.1702 126.719 25.1102 127.179L27.9502 130.809C28.5402 131.539 28.8802 132.399 28.8802 133.319C29.0102 135.569 27.1002 137.809 24.6502 137.809C23.3302 137.809 21.9402 137.279 21.0802 136.159L19.6902 134.439C19.5602 137.019 20.4802 139.459 22.2002 141.249C23.6502 142.769 25.9002 143.689 28.1502 143.689L28.1402 143.699ZM5.41016 152.749C5.41016 155.129 7.39016 157.109 9.77016 157.109C12.1502 157.109 14.1302 155.129 14.1302 152.749V127.249L8.91016 120.509C8.32016 119.719 7.99016 118.789 7.99016 117.869C7.99016 115.619 9.77016 113.509 12.3502 113.509C12.9402 113.509 13.5402 113.639 14.1302 113.909C14.0602 111.529 12.1502 109.549 9.77016 109.549C7.39016 109.549 5.41016 111.529 5.41016 113.909V152.759V152.749ZM14.1302 127.249L19.6802 134.449C19.8802 132.469 20.6702 130.619 22.1902 129.029C23.2502 127.969 24.1702 127.509 25.1002 127.179L15.7802 115.159C15.3202 114.629 14.7202 114.169 14.1302 113.899V127.249ZM42.3402 152.749C42.3402 155.129 44.3202 157.109 46.7002 157.109C49.0802 157.109 51.0602 155.129 51.0602 152.749V113.899C51.0602 111.519 49.0802 109.539 46.7002 109.539C44.3202 109.539 42.3402 111.519 42.3402 113.899C46.5002 114.959 49.8102 118.789 49.8102 123.479C49.8102 125.989 48.8902 128.499 46.9002 130.479C45.3802 131.999 43.8602 132.589 42.3402 133.059V152.749ZM55.9402 137.029C55.9402 134.589 57.9202 132.669 60.3002 132.669C62.0802 132.669 63.6702 133.789 64.3302 135.379C64.5902 134.979 64.9202 134.649 65.2502 134.319C67.0302 132.669 69.9402 132.599 69.9402 129.099C69.9402 126.919 68.6802 126.719 68.8202 124.479C69.0802 120.849 72.5202 119.519 74.7002 119.519C76.1502 119.519 78.3302 119.719 79.9202 121.569C80.8402 119.259 82.8902 117.669 85.0102 117.009C84.3502 116.879 83.6902 116.679 83.0302 116.219C80.4502 114.629 80.1902 109.549 75.3002 109.549C70.7402 109.549 70.9402 113.979 65.9802 114.769C62.8102 115.229 61.6902 117.279 61.4202 119.129C61.2202 120.519 61.6802 122.039 61.6802 123.619C61.6802 124.679 61.8802 126.859 58.1802 128.639C56.2602 129.559 54.5502 130.949 54.5502 133.329C54.5502 134.779 55.0102 136.039 55.9402 137.029ZM55.9402 152.749C55.9402 155.129 57.9202 157.109 60.3002 157.109C62.6802 157.109 64.6602 155.129 64.6602 152.749V149.119C62.2802 149.119 60.3002 147.139 60.3002 144.759C60.3002 142.379 62.2802 140.399 64.6602 140.399V137.029C64.6602 136.429 64.5302 135.909 64.3302 135.379C63.2702 136.829 62.4102 138.619 59.5102 138.619C58.0602 138.619 56.8002 137.959 55.9402 137.029V152.749ZM64.6602 149.119H79.3302V140.399H64.6602V149.119ZM79.3302 149.119C79.3302 154.209 83.6202 157.119 87.3202 157.119C91.8102 157.119 95.3102 153.549 95.3102 149.119C95.3102 146.809 94.3802 144.689 92.6002 143.109C90.8202 141.459 88.6402 139.939 88.6402 136.899C88.6402 133.859 90.8202 132.339 92.6002 130.689C94.3802 129.109 95.3102 126.989 95.3102 124.679C95.3102 120.249 91.8102 116.689 87.3202 116.689C86.5302 116.689 85.8002 116.819 85.0102 117.019C86.2702 117.279 87.5202 117.279 88.7102 117.809C90.6302 118.599 91.7502 120.249 91.7502 122.429C91.7502 125.069 89.5702 127.389 86.7902 127.389C83.0202 127.389 82.3002 124.349 79.9202 121.579C79.5202 122.499 79.3302 123.559 79.3302 124.689V140.419H81.1102C83.4902 140.419 85.4702 142.399 85.4702 144.779C85.4702 147.159 83.4902 149.139 81.1102 149.139H79.3302V149.119ZM110.35 157.119C113.39 157.119 115.11 153.949 118.01 153.949C120.91 153.949 122.7 157.119 125.81 157.119C127.26 157.189 128.78 156.519 130.1 154.739C131.62 152.689 133.4 152.159 135.45 151.569C137.3 151.039 139.55 149.449 139.55 146.279C139.55 143.109 136.64 141.189 136.44 138.749C136.24 136.499 137.43 134.979 137.56 132.939C137.76 129.829 135.31 127.719 132.6 127.719C130.62 127.719 128.97 128.839 128.17 130.359C129.89 130.029 131.74 130.489 132.93 131.749C133.79 132.609 134.25 133.799 134.25 135.119C134.25 137.429 132.6 139.409 130.42 139.879C130.55 140.409 130.68 140.939 130.68 141.469C130.68 144.769 127.9 148.279 124.54 148.279C122.49 148.279 121.43 147.019 120.31 145.699C119.98 145.299 118.92 144.309 117.4 144.309C116.34 144.309 115.55 144.709 114.89 145.099C114.96 147.279 114.43 148.929 113.37 150.389C111.92 152.369 109.67 153.629 106.9 153.629C106.24 153.629 105.64 153.499 105.64 153.499C105.51 153.169 105.38 152.569 105.38 152.049C105.38 150.529 106.24 148.679 107.69 147.819C109.21 146.889 110.93 147.159 112.31 146.629C113.3 146.299 114.03 145.639 114.89 145.109C114.76 142.999 113.83 141.079 112.18 139.629C110.4 137.979 108.22 136.459 108.22 133.419C108.22 130.379 110.4 128.859 112.18 127.209C112.64 126.809 113.1 126.279 113.44 125.759C111.19 124.169 109.81 121.529 109.81 118.559C109.81 117.039 110.21 115.589 110.87 114.269C109.75 113.609 108.36 113.209 106.91 113.209C103.21 113.209 98.9202 116.119 98.9202 121.199V145.649C98.9202 150.139 102.36 152.979 105.66 153.509C106.32 155.559 108.3 157.139 110.35 157.139V157.119ZM110.88 114.239C113.32 115.629 114.91 118.199 114.91 121.179C114.91 122.829 114.38 124.419 113.46 125.739C114.98 126.859 116.83 127.459 118.81 127.459C123.77 127.459 127.73 123.499 127.73 118.539C127.73 113.579 123.77 109.549 118.81 109.549C115.37 109.549 112.4 111.469 110.88 114.239ZM115.11 135.119C115.11 137.829 117.29 140.009 120.07 140.009C122.58 140.009 123.11 138.759 124.69 138.759C126.27 138.759 126.8 140.009 129.31 140.009C129.84 140.009 130.43 139.879 130.43 139.879C129.77 137.299 127.59 135.449 127.59 132.679C127.59 131.889 127.79 131.029 128.18 130.369C126.59 130.629 126 131.489 124.68 131.489C123.09 131.489 122.57 130.239 120.06 130.239C117.28 130.239 115.1 132.419 115.1 135.129L115.11 135.119ZM144.05 126.329V122.959C144.05 120.579 146.03 118.599 148.41 118.599C150.79 118.599 152.77 120.579 152.77 122.959V126.329C155.48 124.809 157.33 121.899 157.33 118.529C157.33 113.569 153.37 109.539 148.41 109.539C143.45 109.539 139.42 113.569 139.42 118.529C139.42 121.899 141.27 124.809 144.04 126.329H144.05ZM144.05 152.759C144.05 155.139 146.03 157.119 148.41 157.119C150.79 157.119 152.77 155.139 152.77 152.759V126.329C151.45 127.059 149.99 127.449 148.41 127.449C146.83 127.449 145.31 127.049 144.05 126.329V152.759ZM183.43 129.369C189.18 129.369 193.41 124.679 193.41 119.459C193.41 114.239 189.18 109.549 183.43 109.549C179.13 109.549 177.22 112.519 173.92 112.519C171.15 112.519 170.22 110.869 167.05 110.869C162.23 110.869 158.46 114.699 158.46 119.459C158.46 122.629 160.11 125.409 162.69 126.929V123.829C162.69 121.449 164.67 119.469 167.05 119.469C169.43 119.469 171.41 121.449 171.41 123.829V126.929C172.14 126.599 172.86 126.399 173.92 126.399C177.22 126.399 179.14 129.369 183.43 129.369ZM162.68 149.789C162.68 152.169 164.66 154.349 167.5 154.079C167.17 153.489 167.04 152.819 167.04 152.099C167.04 149.719 169.02 147.739 171.4 147.739V126.929C170.15 127.389 169.02 128.049 167.04 128.049C165.46 128.049 163.94 127.649 162.68 126.929V149.789ZM167.5 154.079C168.23 155.469 169.75 156.459 171.4 156.459H188.38C190.76 156.459 192.74 154.479 192.74 152.099C192.74 149.719 190.76 147.739 188.38 147.739H171.4V149.789C171.4 152.039 169.68 153.819 167.5 154.079Z" fill="black"/>
</g>
<defs>
<clipPath id="clip0_5899_13207">
<rect width="197.99" height="161.57" fill="white" transform="translate(0.410156 0.539062)"/>
</clipPath>
</defs>
</svg>
