<svg width="99" height="156" viewBox="0 0 99 156" fill="none" xmlns="http://www.w3.org/2000/svg">
<g clip-path="url(#clip0_5899_13203)">
<path d="M25.0309 89.2793H8.45094C3.90094 89.2793 0.210938 92.9693 0.210938 97.5193V114.099C0.210938 118.649 3.90094 122.339 8.45094 122.339H25.0309C29.5809 122.339 33.2709 118.649 33.2709 114.099V97.5193C33.2709 92.9693 29.5809 89.2793 25.0309 89.2793ZM16.7909 105.859H16.6909V105.759H16.7909V105.859Z" fill="#58C175"/>
<path d="M92.6811 56.5498V47.7098C92.6811 44.1098 90.3611 41.0498 87.1411 39.9298V31.1298C87.1411 27.5298 84.8211 24.4698 81.6011 23.3498V20.0498C81.6011 16.3198 79.1211 13.1698 75.7211 12.1498C74.9311 9.49977 72.8511 7.41977 70.2111 6.61977C69.1911 3.22977 66.0411 0.759766 62.3211 0.759766H56.8211C52.2711 0.759766 48.5811 4.44977 48.5811 8.99977V14.4998C48.5811 18.0898 50.8811 21.1398 54.0811 22.2698V25.5798C54.0811 29.1698 56.3811 32.2198 59.5811 33.3498V42.1998C59.5811 45.7998 61.9011 48.8598 65.1211 49.9798V106.32C61.9011 107.44 59.5811 110.5 59.5811 114.1V122.91C56.3811 124.04 54.0811 127.09 54.0811 130.68V133.99C50.8811 135.12 48.5811 138.17 48.5811 141.76V147.3C48.5811 151.85 52.2711 155.54 56.8211 155.54H62.3211C66.0511 155.54 69.2111 153.05 70.2211 149.65C72.8611 148.85 74.9311 146.76 75.7211 144.12C79.1211 143.11 81.6011 139.96 81.6011 136.22V132.92C84.8211 131.8 87.1411 128.74 87.1411 125.14V116.37C90.3611 115.25 92.6811 112.19 92.6811 108.59V99.7498C95.9011 98.6298 98.2211 95.5698 98.2211 91.9698V64.3098C98.2211 60.7098 95.9011 57.6498 92.6811 56.5298V56.5498Z" fill="#58C175"/>
<path d="M25.0309 45.0098H8.45094C3.90094 45.0098 0.210938 48.6998 0.210938 53.2498V69.8598C0.210938 74.4098 3.90094 78.0998 8.45094 78.0998H25.0309C29.5809 78.0998 33.2709 74.4098 33.2709 69.8598V53.2498C33.2709 48.6998 29.5809 45.0098 25.0309 45.0098ZM16.7909 61.6198H16.6909V61.4898H16.7909V61.6198Z" fill="#58C175"/>
<path d="M62.3212 14.5195H56.8212V9.01953H62.3212V14.5195ZM67.8212 141.76H62.3212V130.68H67.8212V114.1H73.3612V42.2095H67.8212V25.5995H62.3212V14.5195H67.8212V20.0595H73.3612V31.1395H78.9012V47.7195H84.4412V64.3295H89.9812V91.9895H84.4412V108.6H78.9012V125.15H73.3612V136.23H67.8212V141.77V141.76ZM62.3212 147.3H56.8212V141.76H62.3212V147.3ZM25.0312 69.8595H8.45117V53.2495H25.0312V69.8595ZM25.0312 114.1H8.45117V97.5195H25.0312V114.1Z" fill="black"/>
</g>
<defs>
<clipPath id="clip0_5899_13203">
<rect width="98.01" height="154.77" fill="white" transform="translate(0.210938 0.769531)"/>
</clipPath>
</defs>
</svg>
