<svg width="214" height="136" viewBox="0 0 214 136" fill="none" xmlns="http://www.w3.org/2000/svg">
<g clip-path="url(#clip0_5899_13214)">
<path d="M213.2 25.4903V18.7003C213.2 16.3103 212.35 13.8203 210.43 11.9003C209.63 11.1003 208.72 10.4903 207.76 10.0403C207.32 9.08031 206.71 8.17031 205.9 7.37031C205.13 6.59031 204.25 6.00031 203.33 5.56031C202.88 4.59031 202.27 3.66031 201.45 2.84031C199.53 0.920313 197.04 0.0703125 194.65 0.0703125H172.02C169.63 0.0703125 167.14 0.920313 165.22 2.84031C164.4 3.66031 163.79 4.58031 163.34 5.56031C162.53 2.41031 159.68 0.0703125 156.27 0.0703125H147.22C145.51 0.0703125 143.94 0.660312 142.7 1.64031C141.46 0.660312 139.89 0.0703125 138.18 0.0703125H122.5C120.12 0.0703125 117.63 0.920313 115.71 2.83031C113.8 0.920313 111.3 0.0703125 108.92 0.0703125H93.16C92.37 0.0703125 91.61 0.200312 90.89 0.430312C90.18 0.200312 89.42 0.0703125 88.62 0.0703125H54.75C52.36 0.0703125 49.87 0.920313 47.95 2.84031C47.15 3.64031 46.54 4.55031 46.09 5.51031C45.13 5.95031 44.22 6.56031 43.42 7.37031C41.5 9.29031 40.65 11.7803 40.65 14.1703V27.6703C40.65 30.0503 41.5 32.5403 43.41 34.4603C41.5 36.3803 40.65 38.8703 40.65 41.2503V49.7103H23.62V7.38031C23.62 3.35031 20.35 0.0803125 16.32 0.0803125H7.3C3.27 0.0803125 0 3.35031 0 7.38031V59.2703C0 61.6603 0.85 64.1503 2.77 66.0703C3.57 66.8703 4.48 67.4803 5.44 67.9303C5.88 68.8903 6.49 69.8003 7.3 70.6003C9.06 72.3603 11.31 73.2103 13.51 73.3403V78.4403C13.51 82.4703 16.78 85.7403 20.81 85.7403H31.53V128.06C31.53 132.09 34.8 135.36 38.83 135.36H47.88C48.64 135.36 49.37 135.24 50.06 135.03C50.75 135.25 51.48 135.36 52.24 135.36H61.29C65.32 135.36 68.59 132.09 68.59 128.06V124.91C69.21 124.53 69.81 124.08 70.35 123.54C70.88 123.01 71.32 122.43 71.7 121.82C72 121.85 72.31 121.86 72.61 121.86H86.11C86.41 121.86 86.72 121.85 87.02 121.82C87.39 122.43 87.83 123.01 88.37 123.54C88.91 124.08 89.51 124.53 90.13 124.91V128.06C90.13 132.09 93.4 135.36 97.43 135.36H106.48C108.51 135.36 110.35 134.53 111.67 133.19C113.48 134.69 115.69 135.36 117.81 135.36H147.15C147.95 135.36 148.71 135.23 149.43 134.99C150.15 135.23 150.91 135.36 151.71 135.36H160.76C164.79 135.36 168.06 132.09 168.06 128.06V121.28C168.48 122.09 169.03 122.85 169.72 123.54C170.52 124.34 171.43 124.95 172.39 125.4C172.84 126.36 173.44 127.27 174.25 128.07C174.84 128.66 175.48 129.13 176.16 129.52C176.84 132.85 179.78 135.36 183.32 135.36H192.37C196.4 135.36 199.67 132.09 199.67 128.06V121.27C199.67 118.88 198.82 116.39 196.9 114.47C196.1 113.67 195.19 113.06 194.23 112.62C193.79 111.66 193.18 110.75 192.37 109.95C191.89 109.47 191.36 109.05 190.82 108.7V88.7503C191.37 88.4003 191.89 87.9803 192.37 87.5003C193.17 86.7003 193.78 85.7903 194.23 84.8303C195.19 84.3903 196.1 83.7803 196.9 82.9703C198.82 81.0503 199.67 78.5603 199.67 76.1703V71.9803C200.3 71.6003 200.91 71.1403 201.46 70.5903C202.28 69.7703 202.89 68.8503 203.34 67.8703C204.26 67.4303 205.13 66.8403 205.91 66.0603C206.71 65.2603 207.32 64.3503 207.77 63.3903C208.73 62.9503 209.64 62.3403 210.44 61.5303C212.36 59.6103 213.21 57.1203 213.21 54.7303V41.2303C213.21 38.8403 212.36 36.3503 210.44 34.4303C209.64 33.6303 208.73 33.0203 207.77 32.5703C207.77 32.5503 207.76 32.5403 207.75 32.5203C210.89 31.7003 213.21 28.8603 213.21 25.4603L213.2 25.4903Z" fill="#F3A0D6"/>
<path d="M9.56957 61.5409C8.22957 61.5409 7.30957 60.6209 7.30957 59.2809V7.38086H16.3596V57.0109H43.4396V66.0609H14.0896C12.7496 66.0609 11.8296 65.1409 11.8296 63.8009V61.5409H9.56957ZM50.2496 11.9109H52.5096V9.65086C52.5096 8.31086 53.4296 7.39086 54.7696 7.39086H88.6396V16.4409H57.0396V29.9409H84.1196V38.9909H57.0396V57.0109H88.6396V66.0609H54.7696C53.4296 66.0609 52.5096 65.1409 52.5096 63.8009V61.5409H50.2496C48.9096 61.5409 47.9896 60.6209 47.9896 59.2809V41.2609C47.9896 39.9209 48.9096 39.0009 50.2496 39.0009H52.5096V29.9509H50.2496C48.9096 29.9509 47.9896 29.0309 47.9896 27.6909V14.1909C47.9896 12.8509 48.9096 11.9309 50.2496 11.9309V11.9109ZM111.2 9.65086V11.9109H120.25V9.65086C120.25 8.31086 121.17 7.39086 122.51 7.39086H138.19V16.4409H120.25V66.0709H111.2V16.4409H93.1796V7.38086H108.94C110.28 7.38086 111.2 8.30086 111.2 9.64086V9.65086ZM142.7 20.9709V16.4409H147.23V7.38086H156.28V14.1709C156.28 15.5109 155.36 16.4309 154.02 16.4309H151.76V18.6909C151.76 20.0309 150.84 20.9509 149.5 20.9509H142.71L142.7 20.9709ZM165.32 29.9409H163.06C161.72 29.9409 160.8 29.0209 160.8 27.6809V18.7109C160.8 17.3709 161.72 16.4509 163.06 16.4509H165.32V14.1909C165.32 12.8509 166.24 11.9309 167.58 11.9309H169.76V9.67086C169.76 8.33086 170.68 7.41086 172.02 7.41086H194.65C195.99 7.41086 196.91 8.33086 196.91 9.67086V11.9309H199.09C200.43 11.9309 201.35 12.8509 201.35 14.1909V16.4509H203.61C204.95 16.4509 205.87 17.3709 205.87 18.7109V25.5009H196.82V20.9709H194.64C193.3 20.9709 192.38 20.0509 192.38 18.7109V16.4509H174.27V18.7109C174.27 20.0509 173.35 20.9709 172.01 20.9709H169.75V25.4109H172.01C173.35 25.4109 174.27 26.3309 174.27 27.6709V29.9309H194.64C195.98 29.9309 196.9 30.8509 196.9 32.1909V34.4509H199.08C200.42 34.4509 201.34 35.3709 201.34 36.7109V38.9709H203.6C204.94 38.9709 205.86 39.8909 205.86 41.2309V54.7309C205.86 56.0709 204.94 56.9909 203.6 56.9909H201.34V59.2509C201.34 60.5909 200.42 61.5109 199.08 61.5109H196.9V63.7709C196.9 65.1109 195.98 66.0309 194.64 66.0309H172.01C170.67 66.0309 169.75 65.1109 169.75 63.7709V61.5109H167.57C166.23 61.5109 165.31 60.5909 165.31 59.2509V56.9909H163.05C161.71 56.9909 160.79 56.0709 160.79 54.7309V48.0209H169.76V52.4609H172.02C173.36 52.4609 174.28 53.3809 174.28 54.7209V56.9809H192.39V54.7209C192.39 53.3809 193.31 52.4609 194.65 52.4609H196.91V43.4909H194.73C193.39 43.4909 192.47 42.5709 192.47 41.2309V38.9709H172.02C170.68 38.9709 169.76 38.0509 169.76 36.7109V34.4509H167.58C166.24 34.4509 165.32 33.5309 165.32 32.1909V29.9309V29.9409ZM38.8296 71.6509V73.9109H47.8796V71.6509C47.8796 70.3109 48.7996 69.3909 50.1396 69.3909H65.8196V78.4409H47.8796V128.071H38.8296V78.4409H20.8096V69.3909H36.5696C37.9096 69.3909 38.8296 70.3109 38.8296 71.6509ZM52.2396 128.071V116.751C52.2396 115.411 53.1596 114.491 54.4996 114.491H56.7596V107.781C56.7596 106.441 57.6796 105.521 59.0196 105.521H61.2796V98.7309C61.2796 97.3909 62.1996 96.4709 63.5396 96.4709H65.7996V85.2409C65.7996 83.9009 66.7196 82.9809 68.0596 82.9809H70.3196V76.1909C70.3196 74.8509 71.2396 73.9309 72.5796 73.9309H74.8396V71.6709C74.8396 70.3309 75.7596 69.4109 77.0996 69.4109H81.6296C82.9696 69.4109 83.8896 70.3309 83.8896 71.6709V73.9309H86.0696C87.4096 73.9309 88.3296 74.8509 88.3296 76.1909V82.9809H90.5896C91.9296 82.9809 92.8496 83.9009 92.8496 85.2409V96.4709H95.1096C96.4496 96.4709 97.3696 97.3909 97.3696 98.7309V105.521H99.6296C100.97 105.521 101.89 106.441 101.89 107.781V114.491H104.15C105.49 114.491 106.41 115.411 106.41 116.751V128.071H97.3596V119.021H95.0996C93.7596 119.021 92.8396 118.101 92.8396 116.761V110.051H88.3096V112.311C88.3096 113.651 87.3896 114.571 86.0496 114.571H72.5496C71.2096 114.571 70.2896 113.651 70.2896 112.311V110.051H65.7596V116.761C65.7596 118.101 64.8396 119.021 63.4996 119.021H61.2396V128.071H52.1896H52.2396ZM88.3696 96.4709H86.1096C84.7696 96.4709 83.8496 95.5509 83.8496 94.2109V82.9809H74.8796V94.2109C74.8796 95.5509 73.9596 96.4709 72.6196 96.4709H70.3596V105.521H88.3796V96.4709H88.3696ZM113.28 123.551C111.94 123.551 111.02 122.631 111.02 121.291V69.4009H120.07V119.031H147.15V128.081H117.81C116.47 128.081 115.55 127.161 115.55 125.821V123.561H113.29L113.28 123.551ZM151.7 94.2109V69.4009H160.75V91.9509H165.28V89.6909C165.28 88.3509 166.2 87.4309 167.54 87.4309H169.72V85.2509C169.72 83.9109 170.64 82.9909 171.98 82.9909H174.24V80.7309C174.24 79.3909 175.16 78.4709 176.5 78.4709H178.76V76.2109C178.76 74.8709 179.68 73.9509 181.02 73.9509H183.28V69.4209H192.33V76.2109C192.33 77.5509 191.41 78.4709 190.07 78.4709H187.81V80.7309C187.81 82.0709 186.89 82.9909 185.55 82.9909H183.29V85.2509C183.29 86.5909 182.37 87.5109 181.03 87.5109H178.77V89.6909C178.77 91.0309 177.85 91.9509 176.51 91.9509H174.25V94.2109C174.25 95.5509 173.33 96.4709 171.99 96.4709H169.81V101.001H171.99C173.33 101.001 174.25 101.921 174.25 103.261V105.521H176.51C177.85 105.521 178.77 106.441 178.77 107.781V109.961H181.03C182.37 109.961 183.29 110.881 183.29 112.221V114.481H185.55C186.89 114.481 187.81 115.401 187.81 116.741V119.001H190.07C191.41 119.001 192.33 119.921 192.33 121.261V128.051H183.28V123.521H181.02C179.68 123.521 178.76 122.601 178.76 121.261V119.001H176.5C175.16 119.001 174.24 118.081 174.24 116.741V114.481H171.98C170.64 114.481 169.72 113.561 169.72 112.221V110.041H167.54C166.2 110.041 165.28 109.121 165.28 107.781V105.521H160.75V128.071H151.7V107.781C151.7 106.441 152.62 105.521 153.96 105.521H156.22V96.4709H153.96C152.62 96.4709 151.7 95.5509 151.7 94.2109Z" fill="black"/>
</g>
<defs>
<clipPath id="clip0_5899_13214">
<rect width="213.2" height="135.29" fill="white" transform="translate(0 0.0800781)"/>
</clipPath>
</defs>
</svg>
