<svg width="303" height="71" viewBox="0 0 303 71" fill="none" xmlns="http://www.w3.org/2000/svg">
<g clip-path="url(#clip0_5899_13200)">
<path d="M292.35 39.7992H291.45V31.0992C295.25 29.9992 298.05 26.5992 298.05 22.3992V15.7992C298.05 12.9992 296.75 10.4992 294.75 8.79922C294.55 3.99922 290.65 0.199219 285.75 0.199219H249.55C248.35 0.199219 247.25 0.399219 246.25 0.799219C245.25 0.399219 244.15 0.199219 242.95 0.199219H223.15C220.05 0.199219 217.35 1.69922 215.75 4.09922C214.15 1.69922 211.45 0.199219 208.35 0.199219H178.75C178.15 0.199219 177.65 0.299219 177.15 0.299219C176.65 0.199219 176.05 0.199219 175.55 0.199219H159.05C157.85 0.199219 156.75 0.399219 155.75 0.799219C154.75 0.399219 153.65 0.199219 152.45 0.199219H106.35C105.25 0.199219 104.15 0.399219 103.05 0.799219C102.05 0.399219 100.95 0.199219 99.75 0.199219H63.55C62.65 0.199219 61.85 0.299219 61.05 0.499219C60.25 0.299219 59.45 0.199219 58.55 0.199219H42.15C38.45 0.199219 35.35 2.39922 33.95 5.59922C32.55 2.39922 29.35 0.199219 25.75 0.199219H9.25C4.25 0.199219 0.25 4.19922 0.25 9.19922V12.4992C0.25 16.5992 3.05 20.0992 6.85 21.1992V49.9992C3.05 51.0992 0.25 54.4992 0.25 58.6992V61.9992C0.25 66.9992 4.25 70.9992 9.25 70.9992H25.75C29.05 70.9992 32.05 69.1992 33.55 66.4992H34.45C36.05 69.1992 38.95 70.9992 42.25 70.9992H52.15C54.35 70.9992 56.35 70.1992 57.95 68.8992C59.55 70.1992 61.55 70.9992 63.75 70.9992H103.15C106.55 70.9992 109.45 69.1992 110.95 66.4992H118.25C119.75 69.1992 122.75 70.9992 126.05 70.9992H132.65C135.95 70.9992 138.95 69.1992 140.45 66.4992H141.35C142.95 69.1992 145.85 70.9992 149.15 70.9992H155.75C159.15 70.9992 162.05 69.1992 163.55 66.4992H170.95C172.45 69.1992 175.45 70.9992 178.75 70.9992H211.65C213.85 70.9992 215.85 70.1992 217.45 68.8992C219.05 70.1992 221.05 70.9992 223.25 70.9992H243.05C244.25 70.9992 245.35 70.7992 246.35 70.3992C247.35 70.7992 248.45 70.9992 249.65 70.9992H289.15C293.95 70.9992 297.95 67.1992 298.15 62.3992C300.15 60.6992 301.45 58.1992 301.45 55.3992V48.7992C301.35 43.8992 297.35 39.7992 292.35 39.7992Z" fill="#0064FF"/>
<path d="M25.65 62.0008H9.25V58.7008H15.85V12.6008H9.25V9.30078H25.75V15.9008H29.05V22.5008H32.35V29.1008H35.65V35.7008H38.95V42.3008H42.15V48.9008H45.45V55.5008H48.75V12.6008H42.15V9.30078H58.65V12.6008H52.05V62.0008H42.15V55.4008H38.85V48.8008H35.55V42.2008H32.25V35.6008H28.95V29.0008H25.65V22.4008H22.35V15.8008H19.05V58.6008H25.65V62.0008Z" fill="black"/>
<path d="M103.151 62.0008H63.5508V58.7008H70.1508V12.6008H63.5508V9.30078H99.7508V15.9008H103.051V22.5008H99.7508V19.2008H96.4508V15.9008H93.1508V12.6008H76.7508V32.4008H93.2508V25.8008H96.5508V42.3008H93.2508V35.7008H76.7508V58.8008H96.5508V55.5008H99.8508V52.2008H103.151V48.9008H106.451V55.5008H103.151V62.0008Z" fill="black"/>
<path d="M132.65 62.0008H126.05V52.1008H122.75V42.2008H119.45V32.3008H116.15V22.4008H112.85V12.5008H106.25V9.30078H152.35V12.6008H142.45V22.5008H145.75V32.4008H149.05V42.3008H152.35V52.2008H155.65V62.0008H149.15V52.1008H145.85V42.2008H142.55V32.3008H139.25V22.4008H135.95V12.5008H119.45V22.4008H122.75V32.3008H126.05V42.2008H129.35V52.1008H132.65V62.0008ZM168.85 22.5008H165.55V12.6008H158.95V9.30078H175.45V12.6008H168.85V22.5008ZM165.55 32.4008H162.25V22.5008H165.55V32.4008ZM139.25 42.2008H135.95V32.3008H139.25V42.2008ZM162.25 42.2008H158.95V32.3008H162.25V42.2008ZM135.95 52.1008H132.65V42.2008H135.95V52.1008ZM158.95 52.1008H155.65V42.2008H158.95V52.1008Z" fill="black"/>
<path d="M211.65 62.0008H178.75V58.7008H185.35V12.6008H178.75V9.30078H208.35V12.6008H211.65V15.9008H214.95V29.1008H211.65V35.7008H214.95V39.0008H218.25V55.5008H214.95V58.8008H211.65V62.0008ZM191.95 32.4008H205.15V29.1008H208.45V15.9008H205.15V12.6008H191.95V32.4008ZM191.95 58.7008H208.45V55.4008H211.75V39.0008H208.45V35.7008H191.95V58.7008Z" fill="black"/>
<path d="M242.95 62.0008H223.15V58.7008H229.75V12.6008H223.15V9.30078H242.95V12.6008H236.35V58.7008H242.95V62.0008Z" fill="black"/>
<path d="M289.15 62.0008H249.65V58.7008H256.25V12.6008H249.65V9.30078H285.85V15.9008H289.15V22.5008H285.85V19.2008H282.55V15.9008H279.25V12.6008H262.75V32.4008H279.25V25.8008H282.55V42.3008H279.25V35.7008H262.75V58.8008H282.55V55.5008H285.85V52.2008H289.15V48.9008H292.45V55.5008H289.15V62.0008Z" fill="black"/>
</g>
<defs>
<clipPath id="clip0_5899_13200">
<rect width="302" height="71" fill="white" transform="translate(0.150391)"/>
</clipPath>
</defs>
</svg>
