<svg width="181" height="157" viewBox="0 0 181 157" fill="none" xmlns="http://www.w3.org/2000/svg">
<g clip-path="url(#clip0_5899_13206)">
<path d="M24.1998 0.539062C19.1598 0.539062 13.6398 1.69906 9.1098 4.90906C4.2398 8.35906 1.0998 13.8091 1.0998 20.5691C1.0998 23.9591 1.8798 26.9591 3.2898 29.5291C3.0398 29.7391 2.7898 29.9591 2.5598 30.1991C0.869804 31.9291 -0.060196 34.2691 -0.000195981 36.6991C0.169804 43.5691 2.8398 49.5491 8.1198 53.5391C8.0498 53.6191 7.9798 53.6891 7.9198 53.7791C6.2198 56.0291 5.6698 58.9491 6.4398 61.6691L17.1098 99.2091H11.7298C6.7598 99.2091 2.7298 103.239 2.7298 108.209V146.619C2.7298 151.589 6.7598 155.619 11.7298 155.619H37.8998C40.2698 155.619 42.4298 154.689 44.0398 153.189C47.9398 155.289 52.4598 156.389 57.3898 156.389C65.6498 156.389 72.7898 153.309 77.7498 147.589C77.7998 147.529 77.8498 147.469 77.8998 147.409C82.6498 153.069 89.5698 156.339 97.7198 156.339C100.94 156.339 103.9 155.809 106.53 154.869C107.63 155.349 108.84 155.619 110.12 155.619H115C116.43 155.619 117.78 155.279 118.98 154.679C120.18 155.279 121.53 155.619 122.96 155.619H129.05C132.54 155.619 135.55 153.629 137.05 150.739C141.61 154.359 147.4 156.339 153.93 156.339C160.46 156.339 166.11 154.389 170.73 150.409C175.33 146.449 178.1 140.999 179.15 134.999C179.61 132.379 178.88 129.699 177.17 127.659C176.89 127.329 176.58 127.029 176.26 126.739C176.42 126.579 176.58 126.429 176.72 126.259C178.43 124.309 179.21 121.709 178.87 119.139C178.02 112.809 174.95 107.439 170.19 103.739C166.5 100.879 162.11 99.2891 157.54 98.7391V57.6191H158.93C163.9 57.6191 167.93 53.5891 167.93 48.6191V24.0991H171.39C176.36 24.0991 180.39 20.0691 180.39 15.0991V10.2191C180.39 5.24906 176.529 0.539062 171.559 0.539062" fill="black"/>
<path d="M41.3402 1.19906C39.3602 1.19906 37.5302 1.84906 36.0402 2.92906C32.2002 1.13906 28.0202 0.539062 24.2002 0.539062" fill="black"/>
<path d="M82.8101 1.19922C80.8801 1.19922 79.0701 1.81922 77.5701 2.88922C76.0901 1.82922 74.2901 1.19922 72.3301 1.19922" fill="black"/>
<path d="M108.13 1.19945C103.16 1.19945 99.1301 5.22945 99.1301 10.1995V11.2795L97.5501 7.04945C96.2401 3.52945 92.8701 1.18945 89.1201 1.18945" fill="black"/>
<path d="M9.00047 36.4788C9.22047 45.5888 15.6905 49.4288 24.8005 49.4288C33.9105 49.4288 39.9405 45.4188 39.9405 37.6888C39.9405 29.9588 33.3605 28.1988 28.2505 26.9388L24.2405 25.9488C18.2005 24.5188 16.0605 23.2588 16.0605 19.9688C16.0605 16.4588 19.1305 14.3188 24.1805 14.3188C29.2305 14.3188 32.4705 16.2988 32.9605 21.1788H38.6105C38.2305 12.8388 32.0305 9.54883 24.1805 9.54883C16.3305 9.54883 10.0805 13.1188 10.0805 20.5788C10.0805 27.5488 15.4005 29.5788 22.2105 31.2188L25.3405 31.9888C30.3905 33.1988 33.9005 34.4588 33.9005 38.2988C33.9005 42.3588 30.4405 44.6088 24.7905 44.6088C19.4705 44.6088 15.0805 42.1988 14.8005 36.4888H8.98047L9.00047 36.4788ZM72.3405 15.0788V10.1988H41.3405V15.0788H53.8005V48.5988H59.8905V15.0788H72.3405ZM68.3905 48.5988H74.3205C75.5805 45.1388 76.7905 41.6288 78.0505 38.1188H93.5205C94.7805 41.6288 95.9905 45.1388 97.2505 48.5988H103.45L89.1305 10.1888H82.8205L68.3905 48.5988ZM83.1505 23.4188C84.3005 19.9588 85.1305 17.3788 85.7305 15.6788H85.8405C86.2805 17.2688 87.0505 19.6888 88.4205 23.4688L91.8805 33.2388H79.8105L83.1605 23.4188H83.1505ZM108.14 48.5988H114.18V32.5788H121.26C128.83 32.5788 130.48 34.8288 130.81 41.1888L130.86 42.3388C130.97 44.8588 131.19 47.3288 131.96 48.5988H138.05V48.4388C136.73 46.7388 136.84 43.0588 136.57 40.0988L136.46 38.8888C136.02 33.8988 134.43 30.9288 130.48 30.1688V30.0588C134.82 28.9088 137.56 25.7288 137.56 20.4588C137.56 16.2388 135.86 13.0488 131.91 11.4088C129.93 10.5888 127.36 10.1988 124.17 10.1988H108.15V48.6088L108.14 48.5988ZM114.18 15.0188H124.06C128.34 15.0188 131.63 16.3888 131.63 21.3288C131.63 26.2688 128.34 27.8588 124.11 27.8588H114.18V15.0188ZM171.42 15.0688V10.1888H140.42V15.0688H152.87V48.5888H158.96V15.0788H171.42V15.0688ZM53.7905 97.6088L64.9305 59.1988H58.7305L53.1305 80.3788C52.2005 83.8888 51.5405 86.6888 50.8305 89.7088H50.6705C50.0105 86.8588 49.3005 83.4588 48.5905 80.4388L43.3205 59.2088H36.6805L31.5805 80.1088C30.8705 83.0188 29.9905 86.7488 29.3905 89.7688H29.2305C28.4605 86.4188 27.6905 83.4588 26.8205 79.9988L21.4405 59.1988H15.1305L26.0505 97.6088H32.3605L37.5705 76.9788C38.2805 74.2388 39.2705 69.6788 39.9305 66.6588H40.0905C40.6405 69.6788 41.6805 74.0688 42.3905 76.8688L47.7705 97.6088H53.8105H53.7905ZM75.8405 59.1988H69.7505V97.6088H75.8405V59.1988ZM112.02 64.0788V59.1988H81.0205V64.0788H93.4805V97.5988H99.5705V64.0788H112.03H112.02ZM148 59.1988H141.91V74.8888H123.26V59.1988H117.17V97.6088H123.26V79.8288H141.91V97.6088H148V59.1988ZM17.8305 108.199H11.7405V146.609H37.9105V141.779H17.8305V108.199ZM57.3905 147.379C69.2405 147.379 75.6105 138.819 75.6105 127.519C75.6105 116.219 68.9705 107.549 57.3905 107.549C45.8105 107.549 39.1705 116.269 39.1705 127.519C39.1705 138.769 45.5305 147.379 57.3905 147.379ZM57.3905 112.319C65.7805 112.319 69.5205 119.559 69.5205 127.519C69.5205 135.479 65.7905 142.719 57.3905 142.719C48.9905 142.719 45.2605 135.529 45.2605 127.519C45.2605 119.509 48.9905 112.319 57.3905 112.319ZM98.5405 142.719C90.2505 142.719 86.3005 135.969 86.3005 127.519C86.3005 119.069 90.2005 112.319 98.5405 112.319C104.9 112.319 108.47 116.489 109.02 120.609H114.73C113.47 112.319 107.05 107.549 98.5405 107.549C86.6305 107.549 80.2105 116.489 80.2105 127.519C80.2105 138.549 86.4705 147.329 97.7105 147.329C103.75 147.329 107.7 144.699 109.62 141.899H109.78L110.11 146.619H114.99V126.479H98.9105V131.199H109.77C109.55 137.999 105.71 142.719 98.5205 142.719H98.5405ZM129.06 108.209H122.97V146.619H129.06V108.209ZM164.48 133.449C163.49 138.659 159.87 142.609 153.94 142.609C145.77 142.609 141.87 135.809 141.87 127.519C141.87 119.229 145.82 112.269 153.94 112.269C159.59 112.269 163.38 115.619 164.26 120.339H169.97C168.87 112.169 162.34 107.499 153.95 107.499C142.37 107.499 135.79 116.549 135.79 127.529C135.79 138.509 142.16 147.339 153.95 147.339C162.78 147.339 168.82 141.959 170.3 133.459H164.48V133.449Z" fill="white"/>
</g>
<defs>
<clipPath id="clip0_5899_13206">
<rect width="180.41" height="155.83" fill="white" transform="translate(0 0.539062)"/>
</clipPath>
</defs>
</svg>
