<svg width="156" height="150" viewBox="0 0 156 150" fill="none" xmlns="http://www.w3.org/2000/svg">
<path d="M80.8897 149.05H80.7397C76.5597 149.02 72.6597 147.95 69.1397 145.86C65.6897 143.77 62.9597 140.96 60.9497 137.49C58.9097 134.05 57.8697 130.13 57.8997 125.93C57.9197 121.73 59.0097 117.83 61.1297 114.34C62.9397 111.29 65.3697 108.74 68.3397 106.79C70.0497 104.26 72.2197 102.11 74.7897 100.41C75.4097 99.4995 76.0897 98.6495 76.8097 97.8495C75.5597 97.7995 74.3397 97.6495 73.1397 97.4095C71.6697 97.6895 70.1597 97.8195 68.6097 97.8195C67.0597 97.8195 65.5497 97.6595 64.0797 97.3595C62.6197 97.6395 61.0797 97.7595 59.5497 97.7695C57.9997 97.7695 56.4897 97.6095 55.0197 97.3095C53.5597 97.5895 52.0397 97.7195 50.4897 97.7195C48.9397 97.7195 47.4297 97.5595 45.9597 97.2595C44.4897 97.5395 42.9897 97.6695 41.4297 97.6695C39.8797 97.6695 38.3697 97.5095 36.8997 97.2095C35.4297 97.4895 33.9197 97.6195 32.3697 97.6195C30.8197 97.6195 29.3097 97.4595 27.8397 97.1595C26.3797 97.4395 24.8497 97.5695 23.3097 97.5695C19.1297 97.5395 15.2297 96.4695 11.7097 94.3795C8.27974 92.2995 5.55974 89.5395 3.54974 86.1495C1.43974 82.5195 0.419742 78.6095 0.439742 74.4395C0.459742 70.2395 1.54974 66.3395 3.66974 62.8495C5.67974 59.4695 8.44974 56.6995 11.8597 54.6895C15.4697 52.5995 19.3597 51.6195 23.5597 51.5995C25.1097 51.5995 26.6197 51.7595 28.0897 52.0595C29.5597 51.7795 31.0697 51.6595 32.6297 51.6495C34.1797 51.6495 35.6897 51.8095 37.1597 52.1095C38.6297 51.8295 40.1397 51.7095 41.6997 51.6995C43.2497 51.6995 44.7597 51.8595 46.2297 52.1595C47.6997 51.8795 49.1997 51.7495 50.7597 51.7495C52.3097 51.7495 53.8197 51.9095 55.2897 52.2095C56.7597 51.9295 58.2897 51.8095 59.8297 51.7995C61.3797 51.7995 62.8897 51.9595 64.3597 52.2595C65.8397 51.9795 67.3397 51.8495 68.8997 51.8495C70.4497 51.8495 71.9597 52.0095 73.4297 52.3095C74.6197 52.0795 75.8397 51.9495 77.0797 51.9095C76.3397 51.0795 75.6497 50.1995 75.0297 49.2695C72.4797 47.5195 70.3497 45.3695 68.6697 42.8195C65.7597 40.8295 63.3997 38.3195 61.6197 35.3095C59.5297 31.6995 58.4997 27.7895 58.5297 23.6095C58.5497 19.4095 59.6397 15.5095 61.7597 12.0195C63.7697 8.63953 66.5397 5.86953 69.9497 3.85953C73.5197 1.78953 77.3797 0.769531 81.4997 0.769531C81.5497 0.769531 81.5997 0.769531 81.6497 0.769531C85.8497 0.789531 89.7497 1.87953 93.2397 3.99953C96.2497 5.78953 98.7797 8.20953 100.72 11.1595C103.22 12.8395 105.34 14.9695 107.04 17.5095C109.6 19.2195 111.78 21.3995 113.5 23.9995C116.08 25.7395 118.26 27.9695 119.98 30.6295C122.39 32.2995 124.44 34.3995 126.09 36.8795C128.53 38.5295 130.61 40.6095 132.28 43.0795C134.9 44.8395 137.1 47.0795 138.84 49.7495C141.35 51.4595 143.48 53.6395 145.17 56.2295C148.02 58.1695 150.38 60.7195 152.16 63.7795C154.2 67.2195 155.24 71.1295 155.21 75.3395C155.19 79.5195 154.11 83.4195 152.02 86.9395C150.2 89.9295 147.86 92.3795 145.01 94.2895C143.29 96.8495 141.15 98.9895 138.62 100.69C136.87 103.32 134.64 105.54 131.97 107.3C130.27 109.74 128.17 111.79 125.71 113.42C124.04 115.88 121.97 117.94 119.53 119.6C117.78 122.24 115.58 124.43 112.97 126.16C111.21 128.74 109.03 130.88 106.43 132.58C104.69 135.11 102.54 137.21 99.9797 138.89C98.0297 141.8 95.4497 144.21 92.3397 146.01C88.9297 148.03 85.0697 149.07 80.9297 149.07L80.8897 149.05Z" fill="#FF7A41"/>
<path d="M47.5103 74.7303C47.5303 71.9803 46.8703 69.4804 45.5303 67.2304C44.2003 64.9204 42.3803 63.0903 40.0903 61.7303C37.8503 60.3703 35.3603 59.6803 32.6103 59.6603C29.8603 59.6403 27.3403 60.3003 25.0303 61.6403C22.7703 62.9703 20.9703 64.7903 19.6003 67.0803C18.2403 69.3203 17.5503 71.8103 17.5303 74.5603C17.5103 77.3103 18.1703 79.8303 19.5103 82.1403C20.8503 84.4003 22.6303 86.2003 24.8703 87.5603C27.1603 88.9203 29.6803 89.6103 32.4203 89.6303C35.1703 89.6503 37.6703 88.9903 39.9203 87.6503C42.2303 86.3203 44.0603 84.5303 45.4203 82.2903C46.7803 80.0003 47.4703 77.4803 47.4903 74.7403L47.5103 74.7303ZM56.5703 74.7803C56.5503 77.5303 55.8603 80.0403 54.5003 82.3303C53.1403 84.5703 51.3103 86.3603 49.0003 87.6903C46.7403 89.0203 44.2403 89.6803 41.5003 89.6703C38.7503 89.6503 36.2403 88.9603 33.9503 87.6003C31.7103 86.2403 29.9203 84.4303 28.5903 82.1703C27.2603 79.8603 26.6003 77.3403 26.6103 74.5903C26.6303 71.8403 27.3103 69.3503 28.6803 67.1103C30.0403 64.8203 31.8503 63.0103 34.1103 61.6703C36.4203 60.3403 38.9403 59.6803 41.6903 59.6903C44.4403 59.7103 46.9303 60.4003 49.1703 61.7603C51.4603 63.1203 53.2703 64.9603 54.6103 67.2603C55.9503 69.5203 56.6003 72.0203 56.5903 74.7603L56.5703 74.7803ZM65.6303 74.8303C65.6503 72.0803 64.9903 69.5803 63.6503 67.3303C62.3203 65.0203 60.5003 63.1903 58.2103 61.8303C55.9703 60.4703 53.4803 59.7803 50.7303 59.7603C47.9803 59.7403 45.4603 60.4003 43.1503 61.7403C40.8903 63.0803 39.0903 64.8903 37.7203 67.1803C36.3603 69.4203 35.6703 71.9103 35.6503 74.6603C35.6303 77.4103 36.2903 79.9303 37.6303 82.2403C38.9703 84.5003 40.7503 86.3003 42.9903 87.6703C45.2803 89.0303 47.8003 89.7203 50.5403 89.7403C53.2903 89.7603 55.7903 89.1003 58.0403 87.7603C60.3503 86.4303 62.1803 84.6403 63.5403 82.4003C64.9003 80.1103 65.5903 77.5903 65.6103 74.8503L65.6303 74.8303ZM92.8203 74.9903C92.8003 77.7403 92.1103 80.2503 90.7503 82.5403C89.3903 84.7803 87.5603 86.5703 85.2503 87.9003C82.9903 89.2403 80.4903 89.8903 77.7503 89.8803C75.0003 89.8603 72.4903 89.1703 70.2003 87.8103C67.9603 86.4503 66.1703 84.6403 64.8403 82.3903C63.5103 80.0803 62.8503 77.5603 62.8603 74.8103C62.8803 72.0603 63.5703 69.5703 64.9303 67.3303C66.2903 65.0403 68.1003 63.2303 70.3603 61.8903C72.6703 60.5603 75.1903 59.9003 77.9403 59.9103C80.6903 59.9303 83.1803 60.6203 85.4203 61.9803C87.7103 63.3403 89.5203 65.1804 90.8603 67.4804C92.2003 69.7404 92.8503 72.2403 92.8403 74.9803L92.8203 74.9903ZM101.88 75.0403C101.9 72.2903 101.24 69.7903 99.9003 67.5403C98.5703 65.2303 96.7503 63.4003 94.4604 62.0403C92.2204 60.6803 89.7303 59.9903 86.9803 59.9703C84.2303 59.9503 81.7103 60.6103 79.4003 61.9503C77.1403 63.2903 75.3403 65.1003 73.9703 67.3903C72.6103 69.6303 71.9203 72.1203 71.9003 74.8703C71.8803 77.6203 72.5403 80.1403 73.8803 82.4503C75.2203 84.7103 77.0003 86.5103 79.2403 87.8803C81.5303 89.2403 84.0503 89.9303 86.7903 89.9503C89.5403 89.9703 92.0403 89.3103 94.2903 87.9703C96.6003 86.6403 98.4303 84.8503 99.7903 82.6103C101.15 80.3203 101.84 77.8003 101.86 75.0603L101.88 75.0403ZM74.6903 74.8803C74.6703 77.6303 73.9803 80.1403 72.6203 82.4303C71.2603 84.6703 69.4303 86.4603 67.1203 87.7903C64.8603 89.1303 62.3603 89.7803 59.6203 89.7703C56.8703 89.7503 54.3603 89.0603 52.0703 87.7003C49.8303 86.3403 48.0403 84.5303 46.7103 82.2703C45.3803 79.9603 44.7203 77.4403 44.7303 74.6903C44.7503 71.9403 45.4403 69.4503 46.8003 67.2103C48.1603 64.9203 49.9703 63.1103 52.2303 61.7703C54.5303 60.4403 57.0603 59.7803 59.8103 59.7903C62.5603 59.8103 65.0503 60.5003 67.2903 61.8603C69.5803 63.2203 71.3903 65.0603 72.7303 67.3603C74.0603 69.6203 74.7204 72.1203 74.7104 74.8603L74.6903 74.8803ZM83.7503 74.9303C83.7703 72.1803 83.1103 69.6803 81.7703 67.4303C80.4403 65.1203 78.6203 63.2903 76.3303 61.9303C74.0903 60.5703 71.6003 59.8803 68.8503 59.8603C66.1003 59.8403 63.5803 60.5003 61.2703 61.8403C59.0103 63.1703 57.2103 64.9903 55.8403 67.2803C54.4803 69.5203 53.7903 72.0103 53.7703 74.7603C53.7503 77.5103 54.4103 80.0303 55.7503 82.3403C57.0903 84.6003 58.8703 86.4003 61.1103 87.7703C63.4003 89.1303 65.9203 89.8203 68.6603 89.8403C71.4103 89.8603 73.9103 89.2003 76.1603 87.8603C78.4703 86.5303 80.3003 84.7403 81.6603 82.5003C83.0203 80.2103 83.7103 77.6903 83.7303 74.9503L83.7503 74.9303ZM129.07 75.2003C129.05 77.9503 128.36 80.4603 127 82.7503C125.64 84.9903 123.81 86.7803 121.5 88.1103C119.25 89.4403 116.74 90.1003 114 90.0903C111.25 90.0703 108.74 89.3803 106.45 88.0203C104.21 86.6603 102.42 84.8503 101.09 82.6003C99.7603 80.2903 99.1003 77.7703 99.1103 75.0203C99.1303 72.2703 99.8203 69.7803 101.18 67.5403C102.54 65.2503 104.35 63.4403 106.61 62.1003C108.92 60.7703 111.44 60.1103 114.19 60.1203C116.94 60.1403 119.43 60.8303 121.67 62.1903C123.96 63.5503 125.77 65.3903 127.11 67.6903C128.44 69.9503 129.1 72.4503 129.09 75.1903L129.07 75.2003ZM138.13 75.2503C138.15 72.5003 137.49 70.0003 136.15 67.7503C134.82 65.4403 133 63.6103 130.71 62.2503C128.47 60.8903 125.98 60.2003 123.23 60.1803C120.48 60.1603 117.96 60.8203 115.65 62.1603C113.39 63.5003 111.59 65.3103 110.22 67.6003C108.86 69.8403 108.17 72.3303 108.15 75.0803C108.13 77.8303 108.79 80.3503 110.13 82.6603C111.46 84.9203 113.25 86.7203 115.49 88.0903C117.78 89.4503 120.3 90.1403 123.04 90.1603C125.79 90.1803 128.29 89.5203 130.54 88.1803C132.85 86.8503 134.68 85.0603 136.04 82.8203C137.4 80.5303 138.09 78.0103 138.11 75.2703L138.13 75.2503ZM110.94 75.0903C110.92 77.8403 110.23 80.3503 108.87 82.6403C107.51 84.8803 105.68 86.6703 103.37 88.0003C101.12 89.3403 98.6103 89.9903 95.8703 89.9803C93.1203 89.9603 90.6103 89.2703 88.3203 87.9103C86.0803 86.5503 84.2904 84.7403 82.9604 82.4803C81.6303 80.1703 80.9703 77.6503 80.9803 74.9003C81.0003 72.1503 81.6903 69.6603 83.0503 67.4203C84.4103 65.1303 86.2203 63.3203 88.4803 61.9803C90.7903 60.6503 93.3103 59.9903 96.0603 60.0003C98.8103 60.0203 101.3 60.7103 103.54 62.0703C105.83 63.4303 107.64 65.2703 108.97 67.5703C110.31 69.8303 110.97 72.3303 110.95 75.0703L110.94 75.0903ZM120 75.1403C120.02 72.3903 119.36 69.8903 118.02 67.6403C116.69 65.3303 114.87 63.5003 112.58 62.1403C110.34 60.7803 107.85 60.0903 105.1 60.0703C102.35 60.0503 99.8303 60.7103 97.5203 62.0503C95.2603 63.3803 93.4603 65.2003 92.0903 67.4903C90.7303 69.7303 90.0403 72.2203 90.0203 74.9703C90.0003 77.7203 90.6603 80.2403 92.0003 82.5503C93.3403 84.8103 95.1203 86.6103 97.3603 87.9803C99.6503 89.3403 102.17 90.0303 104.91 90.0503C107.66 90.0703 110.16 89.4103 112.41 88.0703C114.72 86.7403 116.55 84.9503 117.91 82.7103C119.27 80.4203 119.96 77.9003 119.98 75.1603L120 75.1403ZM147.19 75.3003C147.17 78.0503 146.48 80.5603 145.12 82.8503C143.76 85.0903 141.93 86.8803 139.62 88.2103C137.37 89.5503 134.86 90.2003 132.12 90.1903C129.37 90.1703 126.86 89.4803 124.57 88.1203C122.33 86.7603 120.54 84.9503 119.21 82.6903C117.88 80.3803 117.22 77.8603 117.23 75.1103C117.25 72.3603 117.94 69.8703 119.3 67.6303C120.66 65.3403 122.47 63.5303 124.72 62.1903C127.03 60.8603 129.55 60.2003 132.3 60.2103C135.05 60.2303 137.54 60.9203 139.78 62.2803C142.07 63.6403 143.88 65.4803 145.22 67.7803C146.55 70.0403 147.21 72.5403 147.2 75.2803L147.19 75.3003ZM95.8803 126.16C95.8603 128.91 95.1703 131.4 93.8103 133.64C92.4503 135.93 90.6103 137.74 88.3103 139.08C86.0503 140.42 83.5503 141.07 80.8103 141.06C78.0603 141.04 75.5503 140.35 73.2603 138.99C71.0203 137.63 69.2303 135.8 67.9003 133.49C66.5703 131.24 65.9103 128.73 65.9203 125.99C65.9403 123.24 66.6303 120.75 67.9903 118.51C69.3503 116.22 71.1603 114.41 73.4203 113.07C75.7303 111.73 78.2503 111.08 81.0003 111.09C83.7503 111.11 86.2403 111.8 88.4803 113.16C90.7703 114.52 92.5803 116.35 93.9203 118.66C95.2603 120.91 95.9103 123.42 95.9003 126.16H95.8803ZM140.79 81.7003C140.81 78.9503 140.15 76.4503 138.81 74.2003C137.47 71.8903 135.66 70.0604 133.37 68.7004C131.13 67.3404 128.64 66.6503 125.89 66.6303C123.14 66.6103 120.62 67.2703 118.31 68.6103C116.06 69.9403 114.25 71.7603 112.88 74.0503C111.52 76.2903 110.83 78.7803 110.81 81.5303C110.79 84.2803 111.45 86.8003 112.79 89.1103C114.12 91.3703 115.91 93.1703 118.15 94.5403C120.44 95.9003 122.96 96.5903 125.7 96.6103C128.45 96.6303 130.95 95.9703 133.2 94.6303C135.51 93.3003 137.34 91.5103 138.7 89.2703C140.06 86.9803 140.75 84.4603 140.77 81.7203L140.79 81.7003ZM134.46 88.1003C134.44 90.8503 133.73 93.3603 132.32 95.6503C130.96 97.8903 129.15 99.6803 126.9 101.01C124.64 102.34 122.14 103.01 119.4 102.99C116.65 102.97 114.14 102.28 111.85 100.92C109.61 99.5603 107.82 97.7503 106.49 95.4903C105.15 93.1803 104.49 90.6603 104.51 87.9103C104.53 85.1603 105.22 82.6703 106.58 80.4303C107.94 78.1403 109.75 76.3303 112.01 74.9903C114.31 73.6603 116.84 73.0003 119.59 73.0103C122.34 73.0303 124.83 73.7203 127.07 75.0803C129.31 76.4403 131.1 78.2703 132.43 80.5803C133.81 82.8403 134.5 85.3403 134.48 88.0803L134.46 88.1003ZM127.98 94.3503C128 91.6003 127.34 89.1003 126 86.8503C124.67 84.5403 122.85 82.7103 120.56 81.3503C118.32 79.9903 115.83 79.3003 113.08 79.2803C110.33 79.2603 107.81 79.9203 105.5 81.2603C103.25 82.6003 101.44 84.4103 100.07 86.7003C98.7103 88.9403 98.0203 91.4303 98.0003 94.1803C97.9803 96.9303 98.6403 99.4503 99.9803 101.76C101.32 104.01 103.1 105.82 105.34 107.18C107.63 108.54 110.15 109.23 112.89 109.25C115.64 109.27 118.14 108.61 120.39 107.27C122.7 105.94 124.53 104.15 125.89 101.91C127.25 99.6203 127.94 97.1003 127.96 94.3603L127.98 94.3503ZM121.58 100.68C121.56 103.43 120.87 105.94 119.51 108.23C118.15 110.47 116.32 112.26 114.01 113.59C111.76 114.93 109.25 115.58 106.51 115.57C103.76 115.55 101.25 114.86 98.9604 113.5C96.7204 112.14 94.9303 110.33 93.6003 108.07C92.2703 105.76 91.6103 103.24 91.6203 100.49C91.6403 97.7403 92.3303 95.2503 93.6903 93.0103C95.0503 90.7203 96.8603 88.9103 99.1203 87.5703C101.42 86.2403 103.95 85.5803 106.7 85.5903C109.45 85.6103 111.94 86.3003 114.18 87.6603C116.47 89.0203 118.28 90.8603 119.62 93.1603C120.95 95.4203 121.62 97.9203 121.6 100.66L121.58 100.68ZM115.25 107.08C115.27 104.33 114.61 101.83 113.27 99.5803C111.93 97.2703 110.12 95.4403 107.83 94.0803C105.59 92.7203 103.1 92.0303 100.35 92.0103C97.6003 91.9903 95.0803 92.6503 92.7703 93.9903C90.5103 95.3303 88.7103 97.1403 87.3403 99.4303C85.9803 101.67 85.2903 104.16 85.2703 106.91C85.2503 109.66 85.9103 112.18 87.2503 114.49C88.5803 116.74 90.3703 118.55 92.6103 119.91C94.9003 121.27 97.4203 121.96 100.16 121.98C102.91 122 105.41 121.34 107.66 120C109.97 118.66 111.8 116.88 113.16 114.64C114.52 112.35 115.21 109.83 115.23 107.09L115.25 107.08ZM108.85 113.41C108.83 116.16 108.14 118.67 106.78 120.96C105.42 123.2 103.59 124.99 101.28 126.32C99.0203 127.65 96.5203 128.32 93.7803 128.3C91.0303 128.28 88.5203 127.59 86.2303 126.23C83.9403 124.87 82.1303 123.06 80.7903 120.8C79.5103 118.49 78.8704 115.97 78.8904 113.22C78.9104 110.47 79.5703 107.98 80.8803 105.74C82.2403 103.45 84.0803 101.64 86.3803 100.3C88.6903 98.9703 91.2104 98.3103 93.9604 98.3203C96.7104 98.3403 99.2003 99.0303 101.44 100.39C103.73 101.75 105.54 103.59 106.88 105.89C108.22 108.15 108.87 110.65 108.86 113.39L108.85 113.41ZM102.37 119.74C102.39 116.99 101.73 114.49 100.39 112.24C99.0604 109.93 97.2403 108.1 94.9503 106.74C92.7103 105.38 90.2203 104.69 87.4703 104.67C84.7203 104.65 82.2004 105.31 79.8904 106.65C77.6304 107.98 75.8304 109.8 74.4604 112.09C73.1004 114.33 72.4104 116.82 72.3904 119.57C72.3704 122.32 73.0303 124.84 74.3703 127.15C75.7103 129.41 77.4903 131.21 79.7303 132.58C82.0203 133.94 84.5403 134.63 87.2803 134.65C90.0303 134.67 92.5303 134.01 94.7803 132.67C97.0903 131.34 98.9203 129.55 100.28 127.31C101.64 125.02 102.33 122.5 102.35 119.76L102.37 119.74ZM140.87 68.8004C140.89 66.0504 140.23 63.5503 138.89 61.3003C137.55 58.9903 135.74 57.1603 133.45 55.8003C131.21 54.4403 128.72 53.7503 125.97 53.7303C123.22 53.7103 120.7 54.3703 118.39 55.7103C116.13 57.0503 114.33 58.8603 112.96 61.1503C111.6 63.3903 110.91 65.8803 110.89 68.6303C110.87 71.3803 111.53 73.9003 112.87 76.2103C114.2 78.4703 115.99 80.2703 118.23 81.6303C120.52 82.9903 123.04 83.6803 125.78 83.7003C128.53 83.7203 131.03 83.0603 133.28 81.7203C135.58 80.3903 137.42 78.6003 138.78 76.3603C140.14 74.0703 140.83 71.5503 140.85 68.8103L140.87 68.8004ZM134.62 62.3203C134.6 65.0703 133.89 67.5803 132.48 69.8703C131.12 72.1103 129.31 73.9003 127.05 75.2303C124.8 76.5703 122.29 77.2203 119.55 77.2103C116.8 77.1903 114.29 76.5003 112 75.1403C109.76 73.7803 107.97 71.9703 106.64 69.7103C105.31 67.4003 104.65 64.8803 104.66 62.1303C104.68 59.3803 105.37 56.8903 106.73 54.6503C108.09 52.3603 109.9 50.5503 112.16 49.2103C114.47 47.8803 116.99 47.2203 119.74 47.2303C122.49 47.2503 124.98 47.9403 127.22 49.3003C129.46 50.6603 131.25 52.4903 132.58 54.8003C133.97 57.0603 134.65 59.5603 134.63 62.3003L134.62 62.3203ZM128.21 55.9903C128.23 53.2403 127.57 50.7403 126.23 48.4903C124.9 46.1803 123.08 44.3503 120.79 42.9903C118.55 41.6303 116.06 40.9403 113.31 40.9203C110.56 40.9003 108.04 41.5603 105.73 42.9003C103.48 44.2403 101.67 46.0503 100.3 48.3403C98.9403 50.5803 98.2503 53.0703 98.2303 55.8203C98.2103 58.5703 98.8704 61.0903 100.21 63.4003C101.55 65.6603 103.33 67.4603 105.57 68.8303C107.86 70.1903 110.38 70.8803 113.12 70.9003C115.87 70.9203 118.37 70.2603 120.62 68.9203C122.93 67.5903 124.76 65.8003 126.12 63.5603C127.48 61.2703 128.17 58.7503 128.19 56.0103L128.21 55.9903ZM121.88 49.5903C121.86 52.3403 121.18 54.8503 119.81 57.1403C118.45 59.3803 116.62 61.1703 114.31 62.5003C112.05 63.8403 109.55 64.4903 106.81 64.4803C104.06 64.4603 101.55 63.7703 99.2603 62.4103C97.0203 61.0503 95.2303 59.2403 93.9003 56.9803C92.5703 54.6703 91.9103 52.1503 91.9203 49.4003C91.9403 46.6503 92.6303 44.1603 93.9903 41.9203C95.3503 39.6303 97.1603 37.8203 99.4203 36.4803C101.73 35.1503 104.25 34.4903 107 34.5003C109.75 34.5203 112.24 35.2103 114.48 36.5703C116.77 37.9303 118.58 39.7703 119.92 42.0703C121.25 44.3303 121.91 46.8303 121.9 49.5703L121.88 49.5903ZM115.63 43.1103C115.65 40.3603 114.99 37.8603 113.65 35.6103C112.32 33.3003 110.5 31.4703 108.21 30.1103C105.97 28.7503 103.48 28.0603 100.73 28.0403C97.9803 28.0203 95.4603 28.6803 93.1503 30.0203C90.8903 31.3603 89.0903 33.1703 87.7203 35.4603C86.3603 37.7003 85.6703 40.1903 85.6503 42.9403C85.6303 45.6903 86.2903 48.2103 87.6303 50.5203C88.9703 52.7803 90.7503 54.5803 92.9903 55.9403C95.2803 57.3003 97.8003 57.9903 100.54 58.0103C103.29 58.0303 105.79 57.3703 108.04 56.0303C110.35 54.7003 112.18 52.9103 113.54 50.6703C114.9 48.3803 115.59 45.8603 115.61 43.1203L115.63 43.1103ZM109.3 36.7103C109.28 39.4603 108.6 41.9703 107.23 44.2603C105.87 46.5003 104.04 48.2903 101.73 49.6203C99.4803 50.9503 96.9703 51.6103 94.2303 51.6003C91.4803 51.5803 88.9703 50.8903 86.6803 49.5303C84.3903 48.1703 82.5803 46.3603 81.2403 44.1003C79.9603 41.8003 79.3203 39.2703 79.3403 36.5203C79.3603 33.7703 80.0203 31.2803 81.3303 29.0403C82.6903 26.7503 84.5303 24.9403 86.8303 23.6003C89.1403 22.2703 91.6603 21.6103 94.4103 21.6203C97.1603 21.6403 99.6504 22.3303 101.89 23.6903C104.18 25.0503 105.99 26.8903 107.33 29.1903C108.66 31.4503 109.33 33.9503 109.31 36.6903L109.3 36.7103ZM102.9 30.3103C102.92 27.5603 102.26 25.0603 100.92 22.8103C99.5903 20.5003 97.7703 18.6703 95.4803 17.3103C93.2403 15.9503 90.7503 15.2603 88.0003 15.2403C85.2503 15.2203 82.7303 15.8803 80.4203 17.2203C78.1603 18.5603 76.3603 20.3703 74.9903 22.6603C73.6303 24.9003 72.9403 27.3903 72.9203 30.1403C72.9003 32.8903 73.5603 35.4103 74.9003 37.7203C76.2403 39.9803 78.0203 41.7803 80.2603 43.1403C82.5503 44.5003 85.0703 45.1903 87.8103 45.2103C90.5603 45.2303 93.0603 44.5703 95.3103 43.2303C97.6203 41.9003 99.4503 40.1103 100.81 37.8703C102.17 35.5803 102.86 33.0603 102.88 30.3203L102.9 30.3103ZM96.5003 23.8303C96.4803 26.5803 95.7903 29.0903 94.4303 31.3803C93.0703 33.6203 91.2403 35.4103 88.9303 36.7403C86.6703 38.0803 84.1703 38.7303 81.4303 38.7203C78.6803 38.7003 76.1703 38.0103 73.8803 36.6503C71.6403 35.2903 69.8503 33.4803 68.5203 31.2203C67.1903 28.9103 66.5303 26.3903 66.5403 23.6403C66.5603 20.8903 67.2503 18.4003 68.6103 16.1603C69.9703 13.8703 71.7803 12.0603 74.0403 10.7203C76.3503 9.39035 78.8703 8.73035 81.6203 8.74035C84.3703 8.76035 86.8603 9.45035 89.1003 10.8103C91.3903 12.1703 93.2003 14.0103 94.5403 16.3103C95.8803 18.5703 96.5303 21.0703 96.5203 23.8103L96.5003 23.8303ZM38.4503 74.6503C38.4303 77.4003 37.7403 79.9103 36.3803 82.2003C35.0203 84.4403 33.1903 86.2303 30.8803 87.5603C28.6203 88.9003 26.1203 89.5503 23.3803 89.5403C20.6303 89.5203 18.1203 88.8303 15.8303 87.4703C13.5903 86.1103 11.8003 84.3003 10.4703 82.0403C9.14035 79.7303 8.48035 77.2103 8.49035 74.4603C8.51035 71.7103 9.20035 69.2204 10.5603 66.9804C11.9203 64.6904 13.7303 62.8803 15.9903 61.5403C18.3003 60.2103 20.8203 59.5503 23.5703 59.5603C26.3203 59.5803 28.8103 60.2703 31.0503 61.6303C33.3403 62.9903 35.1503 64.8303 36.4903 67.1303C37.8303 69.3903 38.4803 71.8903 38.4703 74.6303L38.4503 74.6503Z" fill="black"/>
</svg>
