<svg width="263" height="60" viewBox="0 0 263 60" fill="none" xmlns="http://www.w3.org/2000/svg">
<g clip-path="url(#clip0_5899_13211)">
<path d="M253.889 26.2296C253.789 25.8996 253.669 25.5796 253.549 25.2696C258.989 23.7896 262.969 18.8396 262.969 12.9196C262.969 5.82961 257.249 0.109609 250.159 0.109609C248.659 0.109609 247.229 0.379609 245.899 0.849609C244.569 0.379609 243.139 0.109609 241.639 0.109609C240.139 0.109609 238.709 0.379609 237.379 0.849609C236.049 0.379609 234.619 0.109609 233.119 0.109609C227.329 0.109609 222.449 3.92961 220.859 9.18961C218.349 9.94961 216.179 11.4496 214.589 13.4496C212.999 11.4596 210.819 9.94961 208.319 9.18961C206.729 3.92961 201.849 0.109609 196.059 0.109609C194.559 0.109609 193.129 0.379609 191.799 0.849609C190.469 0.379609 189.039 0.109609 187.539 0.109609C186.039 0.109609 184.609 0.379609 183.279 0.849609C181.949 0.379609 180.519 0.109609 179.019 0.109609C174.959 0.109609 171.349 1.98961 169.009 4.92961C166.669 1.98961 163.059 0.109609 158.999 0.109609C157.499 0.109609 156.069 0.379609 154.739 0.849609C153.409 0.379609 151.979 0.109609 150.479 0.109609C148.979 0.109609 147.549 0.379609 146.219 0.849609C144.889 0.379609 143.459 0.109609 141.959 0.109609C137.899 0.109609 134.289 1.98961 131.949 4.92961C129.609 1.98961 125.999 0.109609 121.939 0.109609C120.439 0.109609 119.009 0.379609 117.679 0.849609C116.349 0.379609 114.919 0.109609 113.419 0.109609C111.919 0.109609 110.489 0.379609 109.159 0.849609C107.829 0.379609 106.399 0.109609 104.899 0.109609C100.839 0.109609 97.2394 1.98961 94.8894 4.91961C92.5494 1.98961 88.9394 0.109609 84.8794 0.109609C77.9794 0.109609 72.3894 5.52961 72.0994 12.3596C71.8094 5.52961 66.2194 0.109609 59.3194 0.109609C52.8894 0.109609 47.6094 4.80961 46.6694 10.9596C45.5694 10.1896 44.3494 9.57961 43.0394 9.17961C41.4494 3.91961 36.5694 0.0996094 30.7794 0.0996094C29.2794 0.0996094 27.8494 0.369609 26.5194 0.839609C25.1894 0.369609 23.7594 0.0996094 22.2594 0.0996094C16.4694 0.0996094 11.5894 3.91961 9.99938 9.17961C4.67938 10.7796 0.859375 15.6496 0.859375 21.4496C0.859375 22.9496 1.12938 24.3796 1.59938 25.7096C1.12938 27.0396 0.859375 28.4696 0.859375 29.9696C0.859375 31.4696 1.12938 32.8996 1.59938 34.2296C1.12938 35.5596 0.859375 36.9896 0.859375 38.4896C0.859375 44.2796 4.67937 49.1596 9.93937 50.7496C11.5294 56.0096 16.4094 59.8296 22.1994 59.8296C23.6994 59.8296 25.1294 59.5596 26.4594 59.0896C27.7894 59.5596 29.2194 59.8296 30.7194 59.8296C36.5094 59.8296 41.3894 56.0096 42.9794 50.7496C44.2994 50.3496 45.5194 49.7396 46.6094 48.9696C47.5494 55.1296 52.8294 59.8196 59.2594 59.8196C66.1594 59.8196 71.7494 54.3996 72.0394 47.5696C72.3294 54.3996 77.9194 59.8196 84.8194 59.8196C88.8794 59.8196 92.4794 57.9396 94.8294 55.0096C97.1694 57.9396 100.779 59.8196 104.839 59.8196C106.339 59.8196 107.769 59.5496 109.099 59.0796C110.429 59.5496 111.859 59.8196 113.359 59.8196C114.859 59.8196 116.289 59.5496 117.619 59.0796C118.949 59.5496 120.379 59.8196 121.879 59.8196C125.939 59.8196 129.549 57.9396 131.889 54.9996C134.229 57.9396 137.839 59.8196 141.899 59.8196C143.399 59.8196 144.829 59.5496 146.159 59.0796C147.489 59.5496 148.919 59.8196 150.419 59.8196C151.919 59.8196 153.349 59.5496 154.679 59.0796C156.009 59.5496 157.439 59.8196 158.939 59.8196C162.999 59.8196 166.609 57.9396 168.949 54.9996C171.289 57.9396 174.899 59.8196 178.959 59.8196C185.869 59.8196 191.449 54.3996 191.749 47.5596C192.039 54.3896 197.629 59.8196 204.529 59.8196C208.589 59.8196 212.189 57.9396 214.539 55.0096C216.879 57.9396 220.489 59.8196 224.549 59.8196C226.049 59.8196 227.479 59.5496 228.809 59.0796C230.139 59.5496 231.569 59.8196 233.069 59.8196C234.569 59.8196 235.999 59.5496 237.329 59.0796C238.659 59.5496 240.089 59.8196 241.589 59.8196C247.379 59.8196 252.259 56.0096 253.849 50.7396C259.109 49.1496 262.929 44.2696 262.929 38.4796C262.929 32.6896 259.119 27.8096 253.849 26.2196L253.889 26.2296ZM41.5294 40.1296C40.5194 38.5496 39.1794 37.2096 37.5994 36.1996C38.0594 35.8696 38.6294 35.6696 39.2394 35.6696C40.8094 35.6696 42.0494 36.9096 42.0494 38.4796C42.0494 39.0996 41.8494 39.6596 41.5194 40.1296H41.5294ZM42.0594 21.4396C42.0594 23.0096 40.8194 24.2496 39.2494 24.2496C38.6294 24.2496 38.0694 24.0496 37.6094 23.7196C39.1894 22.7096 40.5294 21.3696 41.5394 19.7896C41.8694 20.2496 42.0694 20.8196 42.0694 21.4396H42.0594ZM207.379 21.4396C207.379 22.0596 207.179 22.6196 206.849 23.0796C206.479 22.4996 206.059 21.9496 205.599 21.4296C206.059 20.9196 206.479 20.3696 206.849 19.7896C207.179 20.2496 207.379 20.8196 207.379 21.4396ZM222.299 19.7996C222.669 20.3796 223.089 20.9296 223.549 21.4396C223.089 21.9496 222.669 22.4996 222.299 23.0796C221.969 22.6196 221.769 22.0496 221.769 21.4396C221.769 20.8296 221.969 20.2596 222.299 19.7996ZM252.439 40.1396C252.069 39.5596 251.649 39.0096 251.189 38.4896C251.649 37.9796 252.069 37.4296 252.439 36.8396C252.769 37.2996 252.969 37.8696 252.969 38.4796C252.969 39.0896 252.769 39.6596 252.439 40.1296V40.1396Z" fill="#FFC852"/>
<path d="M31.4294 21.4501C31.4294 17.1201 34.9094 13.6401 39.2394 13.6401C43.5694 13.6401 47.0494 17.1201 47.0494 21.4501C47.0494 25.7801 43.5694 29.2601 39.2394 29.2601C34.9094 29.2601 31.4294 25.7801 31.4294 21.4501ZM31.4294 38.5001C31.4294 34.1701 34.9094 30.6901 39.2394 30.6901C43.5694 30.6901 47.0494 34.1701 47.0494 38.5001C47.0494 42.8301 43.5694 46.3101 39.2394 46.3101C34.9094 46.3101 31.4294 42.8301 31.4294 38.5001ZM22.9094 12.9301C22.9094 8.60008 26.3894 5.12008 30.7194 5.12008C35.0494 5.12008 38.5294 8.60008 38.5294 12.9301C38.5294 17.2601 35.0494 20.7401 30.7194 20.7401C26.3894 20.7401 22.9094 17.2601 22.9094 12.9301ZM22.9094 47.0201C22.9094 42.6901 26.3894 39.2101 30.7194 39.2101C35.0494 39.2101 38.5294 42.6901 38.5294 47.0201C38.5294 51.3501 35.0494 54.8301 30.7194 54.8301C26.3894 54.8301 22.9094 51.3501 22.9094 47.0201ZM14.3794 12.9201C14.3794 8.59008 17.8594 5.11008 22.1894 5.11008C26.5194 5.11008 29.9994 8.59008 29.9994 12.9201C29.9994 17.2501 26.5194 20.7301 22.1894 20.7301C17.8594 20.7301 14.3794 17.2501 14.3794 12.9201ZM14.3794 47.0101C14.3794 42.6801 17.8594 39.2001 22.1894 39.2001C26.5194 39.2001 29.9994 42.6801 29.9994 47.0101C29.9994 51.3401 26.5194 54.8201 22.1894 54.8201C17.8594 54.8201 14.3794 51.3401 14.3794 47.0101ZM5.85938 21.4501C5.85938 17.1201 9.33938 13.6401 13.6694 13.6401C17.9994 13.6401 21.4794 17.1201 21.4794 21.4501C21.4794 25.7801 17.9994 29.2601 13.6694 29.2601C9.33938 29.2601 5.85938 25.7801 5.85938 21.4501ZM5.85938 29.9701C5.85938 25.6401 9.33938 22.1601 13.6694 22.1601C17.9994 22.1601 21.4794 25.6401 21.4794 29.9701C21.4794 34.3001 17.9994 37.7801 13.6694 37.7801C9.33938 37.7801 5.85938 34.3001 5.85938 29.9701ZM5.85938 38.4901C5.85938 34.1601 9.33938 30.6801 13.6694 30.6801C17.9994 30.6801 21.4794 34.1601 21.4794 38.4901C21.4794 42.8201 17.9994 46.3001 13.6694 46.3001C9.33938 46.3001 5.85938 42.8201 5.85938 38.4901ZM77.0194 12.9201C77.0194 8.59008 80.4994 5.11008 84.8294 5.11008C89.1594 5.11008 92.6394 8.59008 92.6394 12.9201C92.6394 17.2501 89.1594 20.7301 84.8294 20.7301C80.4994 20.7301 77.0194 17.2501 77.0194 12.9201ZM77.0194 21.4401C77.0194 17.1101 80.4994 13.6301 84.8294 13.6301C89.1594 13.6301 92.6394 17.1101 92.6394 21.4401C92.6394 25.7701 89.1594 29.2501 84.8294 29.2501C80.4994 29.2501 77.0194 25.7701 77.0194 21.4401ZM77.0194 29.9601C77.0194 25.6301 80.4994 22.1501 84.8294 22.1501C89.1594 22.1501 92.6394 25.6301 92.6394 29.9601C92.6394 34.2901 89.1594 37.7701 84.8294 37.7701C80.4994 37.7701 77.0194 34.2901 77.0194 29.9601ZM77.0194 38.4801C77.0194 34.1501 80.4994 30.6701 84.8294 30.6701C89.1594 30.6701 92.6394 34.1501 92.6394 38.4801C92.6394 42.8101 89.1594 46.2901 84.8294 46.2901C80.4994 46.2901 77.0194 42.8101 77.0194 38.4801ZM77.0194 47.0001C77.0194 42.6701 80.4994 39.1901 84.8294 39.1901C89.1594 39.1901 92.6394 42.6701 92.6394 47.0001C92.6394 51.3301 89.1594 54.8101 84.8294 54.8101C80.4994 54.8101 77.0194 51.3301 77.0194 47.0001ZM68.4994 29.9501C68.4994 25.6201 71.9794 22.1401 76.3094 22.1401C80.6394 22.1401 84.1194 25.6201 84.1194 29.9501C84.1194 34.2801 80.6394 37.7601 76.3094 37.7601C71.9794 37.7601 68.4994 34.2801 68.4994 29.9501ZM59.9794 29.9501C59.9794 25.6201 63.4594 22.1401 67.7894 22.1401C72.1194 22.1401 75.5994 25.6201 75.5994 29.9501C75.5994 34.2801 72.1194 37.7601 67.7894 37.7601C63.4594 37.7601 59.9794 34.2801 59.9794 29.9501ZM51.4594 12.9001C51.4594 8.57008 54.9394 5.09008 59.2694 5.09008C63.5994 5.09008 67.0794 8.57008 67.0794 12.9001C67.0794 17.2301 63.5994 20.7101 59.2694 20.7101C54.9394 20.7101 51.4594 17.2301 51.4594 12.9001ZM51.4594 21.4201C51.4594 17.0901 54.9394 13.6101 59.2694 13.6101C63.5994 13.6101 67.0794 17.0901 67.0794 21.4201C67.0794 25.7501 63.5994 29.2301 59.2694 29.2301C54.9394 29.2301 51.4594 25.7501 51.4594 21.4201ZM51.4594 29.9401C51.4594 25.6101 54.9394 22.1301 59.2694 22.1301C63.5994 22.1301 67.0794 25.6101 67.0794 29.9401C67.0794 34.2701 63.5994 37.7501 59.2694 37.7501C54.9394 37.7501 51.4594 34.2701 51.4594 29.9401ZM51.4594 38.4601C51.4594 34.1301 54.9394 30.6501 59.2694 30.6501C63.5994 30.6501 67.0794 34.1301 67.0794 38.4601C67.0794 42.7901 63.5994 46.2701 59.2694 46.2701C54.9394 46.2701 51.4594 42.7901 51.4594 38.4601ZM51.4594 46.9801C51.4594 42.6501 54.9394 39.1701 59.2694 39.1701C63.5994 39.1701 67.0794 42.6501 67.0794 46.9801C67.0794 51.3101 63.5994 54.7901 59.2694 54.7901C54.9394 54.7901 51.4594 51.3101 51.4594 46.9801ZM97.0494 46.9801C97.0494 42.6501 100.529 39.1701 104.859 39.1701C109.189 39.1701 112.669 42.6501 112.669 46.9801C112.669 51.3101 109.189 54.7901 104.859 54.7901C100.529 54.7901 97.0494 51.3101 97.0494 46.9801ZM97.0494 12.8901C97.0494 8.56008 100.529 5.08008 104.859 5.08008C109.189 5.08008 112.669 8.56008 112.669 12.8901C112.669 17.2201 109.189 20.7001 104.859 20.7001C100.529 20.7001 97.0494 17.2201 97.0494 12.8901ZM114.099 12.8901C114.099 8.56008 117.579 5.08008 121.909 5.08008C126.239 5.08008 129.719 8.56008 129.719 12.8901C129.719 17.2201 126.239 20.7001 121.909 20.7001C117.579 20.7001 114.099 17.2201 114.099 12.8901ZM114.099 29.9401C114.099 25.6101 117.579 22.1301 121.909 22.1301C126.239 22.1301 129.719 25.6101 129.719 29.9401C129.719 34.2701 126.239 37.7501 121.909 37.7501C117.579 37.7501 114.099 34.2701 114.099 29.9401ZM114.099 46.9901C114.099 42.6601 117.579 39.1801 121.909 39.1801C126.239 39.1801 129.719 42.6601 129.719 46.9901C129.719 51.3201 126.239 54.8001 121.909 54.8001C117.579 54.8001 114.099 51.3201 114.099 46.9901ZM105.579 12.9001C105.579 8.57008 109.059 5.09008 113.389 5.09008C117.719 5.09008 121.199 8.57008 121.199 12.9001C121.199 17.2301 117.719 20.7101 113.389 20.7101C109.059 20.7101 105.579 17.2301 105.579 12.9001ZM105.579 29.9501C105.579 25.6201 109.059 22.1401 113.389 22.1401C117.719 22.1401 121.199 25.6201 121.199 29.9501C121.199 34.2801 117.719 37.7601 113.389 37.7601C109.059 37.7601 105.579 34.2801 105.579 29.9501ZM105.579 47.0001C105.579 42.6701 109.059 39.1901 113.389 39.1901C117.719 39.1901 121.199 42.6701 121.199 47.0001C121.199 51.3301 117.719 54.8101 113.389 54.8101C109.059 54.8101 105.579 51.3301 105.579 47.0001ZM97.0594 21.4301C97.0594 17.1001 100.539 13.6201 104.869 13.6201C109.199 13.6201 112.679 17.1001 112.679 21.4301C112.679 25.7601 109.199 29.2401 104.869 29.2401C100.539 29.2401 97.0594 25.7601 97.0594 21.4301ZM97.0594 29.9501C97.0594 25.6201 100.539 22.1401 104.869 22.1401C109.199 22.1401 112.679 25.6201 112.679 29.9501C112.679 34.2801 109.199 37.7601 104.869 37.7601C100.539 37.7601 97.0594 34.2801 97.0594 29.9501ZM97.0594 38.4701C97.0594 34.1401 100.539 30.6601 104.869 30.6601C109.199 30.6601 112.679 34.1401 112.679 38.4701C112.679 42.8001 109.199 46.2801 104.869 46.2801C100.539 46.2801 97.0594 42.8001 97.0594 38.4701ZM134.129 46.9901C134.129 42.6601 137.609 39.1801 141.939 39.1801C146.269 39.1801 149.749 42.6601 149.749 46.9901C149.749 51.3201 146.269 54.8001 141.939 54.8001C137.609 54.8001 134.129 51.3201 134.129 46.9901ZM134.129 12.9001C134.129 8.57008 137.609 5.09008 141.939 5.09008C146.269 5.09008 149.749 8.57008 149.749 12.9001C149.749 17.2301 146.269 20.7101 141.939 20.7101C137.609 20.7101 134.129 17.2301 134.129 12.9001ZM151.179 12.9001C151.179 8.57008 154.659 5.09008 158.989 5.09008C163.319 5.09008 166.799 8.57008 166.799 12.9001C166.799 17.2301 163.319 20.7101 158.989 20.7101C154.659 20.7101 151.179 17.2301 151.179 12.9001ZM151.179 29.9501C151.179 25.6201 154.659 22.1401 158.989 22.1401C163.319 22.1401 166.799 25.6201 166.799 29.9501C166.799 34.2801 163.319 37.7601 158.989 37.7601C154.659 37.7601 151.179 34.2801 151.179 29.9501ZM151.179 47.0001C151.179 42.6701 154.659 39.1901 158.989 39.1901C163.319 39.1901 166.799 42.6701 166.799 47.0001C166.799 51.3301 163.319 54.8101 158.989 54.8101C154.659 54.8101 151.179 51.3301 151.179 47.0001ZM142.659 12.9101C142.659 8.58008 146.139 5.10008 150.469 5.10008C154.799 5.10008 158.279 8.58008 158.279 12.9101C158.279 17.2401 154.799 20.7201 150.469 20.7201C146.139 20.7201 142.659 17.2401 142.659 12.9101ZM142.659 29.9601C142.659 25.6301 146.139 22.1501 150.469 22.1501C154.799 22.1501 158.279 25.6301 158.279 29.9601C158.279 34.2901 154.799 37.7701 150.469 37.7701C146.139 37.7701 142.659 34.2901 142.659 29.9601ZM142.659 47.0101C142.659 42.6801 146.139 39.2001 150.469 39.2001C154.799 39.2001 158.279 42.6801 158.279 47.0101C158.279 51.3401 154.799 54.8201 150.469 54.8201C146.139 54.8201 142.659 51.3401 142.659 47.0101ZM134.139 21.4401C134.139 17.1101 137.619 13.6301 141.949 13.6301C146.279 13.6301 149.759 17.1101 149.759 21.4401C149.759 25.7701 146.279 29.2501 141.949 29.2501C137.619 29.2501 134.139 25.7701 134.139 21.4401ZM134.139 29.9601C134.139 25.6301 137.619 22.1501 141.949 22.1501C146.279 22.1501 149.759 25.6301 149.759 29.9601C149.759 34.2901 146.279 37.7701 141.949 37.7701C137.619 37.7701 134.139 34.2901 134.139 29.9601ZM134.139 38.4801C134.139 34.1501 137.619 30.6701 141.949 30.6701C146.279 30.6701 149.759 34.1501 149.759 38.4801C149.759 42.8101 146.279 46.2901 141.949 46.2901C137.619 46.2901 134.139 42.8101 134.139 38.4801ZM196.789 21.4301C196.789 17.1001 200.269 13.6201 204.599 13.6201C208.929 13.6201 212.409 17.1001 212.409 21.4301C212.409 25.7601 208.929 29.2401 204.599 29.2401C200.269 29.2401 196.789 25.7601 196.789 21.4301ZM196.789 38.4801C196.789 34.1501 200.269 30.6701 204.599 30.6701C208.929 30.6701 212.409 34.1501 212.409 38.4801C212.409 42.8101 208.929 46.2901 204.599 46.2901C200.269 46.2901 196.789 42.8101 196.789 38.4801ZM196.789 47.0001C196.789 42.6701 200.269 39.1901 204.599 39.1901C208.929 39.1901 212.409 42.6701 212.409 47.0001C212.409 51.3301 208.929 54.8101 204.599 54.8101C200.269 54.8101 196.789 51.3301 196.789 47.0001ZM188.269 12.9101C188.269 8.58008 191.749 5.10008 196.079 5.10008C200.409 5.10008 203.889 8.58008 203.889 12.9101C203.889 17.2401 200.409 20.7201 196.079 20.7201C191.749 20.7201 188.269 17.2401 188.269 12.9101ZM188.269 29.9601C188.269 25.6301 191.749 22.1501 196.079 22.1501C200.409 22.1501 203.889 25.6301 203.889 29.9601C203.889 34.2901 200.409 37.7701 196.079 37.7701C191.749 37.7701 188.269 34.2901 188.269 29.9601ZM179.749 12.9101C179.749 8.58008 183.229 5.10008 187.559 5.10008C191.889 5.10008 195.369 8.58008 195.369 12.9101C195.369 17.2401 191.889 20.7201 187.559 20.7201C183.229 20.7201 179.749 17.2401 179.749 12.9101ZM179.749 29.9601C179.749 25.6301 183.229 22.1501 187.559 22.1501C191.889 22.1501 195.369 25.6301 195.369 29.9601C195.369 34.2901 191.889 37.7701 187.559 37.7701C183.229 37.7701 179.749 34.2901 179.749 29.9601ZM171.229 12.9101C171.229 8.58008 174.709 5.10008 179.039 5.10008C183.369 5.10008 186.849 8.58008 186.849 12.9101C186.849 17.2401 183.369 20.7201 179.039 20.7201C174.709 20.7201 171.229 17.2401 171.229 12.9101ZM171.229 21.4301C171.229 17.1001 174.709 13.6201 179.039 13.6201C183.369 13.6201 186.849 17.1001 186.849 21.4301C186.849 25.7601 183.369 29.2401 179.039 29.2401C174.709 29.2401 171.229 25.7601 171.229 21.4301ZM171.229 29.9501C171.229 25.6201 174.709 22.1401 179.039 22.1401C183.369 22.1401 186.849 25.6201 186.849 29.9501C186.849 34.2801 183.369 37.7601 179.039 37.7601C174.709 37.7601 171.229 34.2801 171.229 29.9501ZM171.229 38.4701C171.229 34.1401 174.709 30.6601 179.039 30.6601C183.369 30.6601 186.849 34.1401 186.849 38.4701C186.849 42.8001 183.369 46.2801 179.039 46.2801C174.709 46.2801 171.229 42.8001 171.229 38.4701ZM171.229 46.9901C171.229 42.6601 174.709 39.1801 179.039 39.1801C183.369 39.1801 186.849 42.6601 186.849 46.9901C186.849 51.3201 183.369 54.8001 179.039 54.8001C174.709 54.8001 171.229 51.3201 171.229 46.9901ZM233.859 46.9901C233.859 42.6601 237.339 39.1801 241.669 39.1801C245.999 39.1801 249.479 42.6601 249.479 46.9901C249.479 51.3201 245.999 54.8001 241.669 54.8001C237.339 54.8001 233.859 51.3201 233.859 46.9901ZM233.859 12.9001C233.859 8.57008 237.339 5.09008 241.669 5.09008C245.999 5.09008 249.479 8.57008 249.479 12.9001C249.479 17.2301 245.999 20.7101 241.669 20.7101C237.339 20.7101 233.859 17.2301 233.859 12.9001ZM233.859 29.9501C233.859 25.6201 237.339 22.1401 241.669 22.1401C245.999 22.1401 249.479 25.6201 249.479 29.9501C249.479 34.2801 245.999 37.7601 241.669 37.7601C237.339 37.7601 233.859 34.2801 233.859 29.9501ZM242.379 38.4701C242.379 34.1401 245.859 30.6601 250.189 30.6601C254.519 30.6601 257.999 34.1401 257.999 38.4701C257.999 42.8001 254.519 46.2801 250.189 46.2801C245.859 46.2801 242.379 42.8001 242.379 38.4701ZM242.379 12.9001C242.379 8.57008 245.859 5.09008 250.189 5.09008C254.519 5.09008 257.999 8.57008 257.999 12.9001C257.999 17.2301 254.519 20.7101 250.189 20.7101C245.859 20.7101 242.379 17.2301 242.379 12.9001ZM225.329 46.9901C225.329 42.6601 228.809 39.1801 233.139 39.1801C237.469 39.1801 240.949 42.6601 240.949 46.9901C240.949 51.3201 237.469 54.8001 233.139 54.8001C228.809 54.8001 225.329 51.3201 225.329 46.9901ZM225.329 12.9001C225.329 8.57008 228.809 5.09008 233.139 5.09008C237.469 5.09008 240.949 8.57008 240.949 12.9001C240.949 17.2301 237.469 20.7101 233.139 20.7101C228.809 20.7101 225.329 17.2301 225.329 12.9001ZM225.329 29.9501C225.329 25.6201 228.809 22.1401 233.139 22.1401C237.469 22.1401 240.949 25.6201 240.949 29.9501C240.949 34.2801 237.469 37.7601 233.139 37.7601C228.809 37.7601 225.329 34.2801 225.329 29.9501ZM216.809 47.0001C216.809 42.6701 220.289 39.1901 224.619 39.1901C228.949 39.1901 232.429 42.6701 232.429 47.0001C232.429 51.3301 228.949 54.8101 224.619 54.8101C220.289 54.8101 216.809 51.3301 216.809 47.0001ZM216.809 21.4301C216.809 17.1001 220.289 13.6201 224.619 13.6201C228.949 13.6201 232.429 17.1001 232.429 21.4301C232.429 25.7601 228.949 29.2401 224.619 29.2401C220.289 29.2401 216.809 25.7601 216.809 21.4301Z" fill="black"/>
</g>
<defs>
<clipPath id="clip0_5899_13211">
<rect width="262.11" height="59.72" fill="white" transform="translate(0.859375 0.109375)"/>
</clipPath>
</defs>
</svg>
