<svg width="309" height="130" viewBox="0 0 309 130" fill="none" xmlns="http://www.w3.org/2000/svg">
<g clip-path="url(#clip0_5899_13208)">
<path d="M300.1 47.3988V46.4488C303.48 45.1588 305.89 41.8888 305.89 38.0488V32.2888C305.89 29.0988 304.22 26.2988 301.71 24.6988C305.25 23.4888 307.81 20.1388 307.81 16.1888V10.4288C307.81 5.45883 303.78 1.42883 298.81 1.42883H263.28C260.94 1.42883 258.81 2.32883 257.21 3.79883C255.61 2.32883 253.48 1.42883 251.14 1.42883H215.61C213.74 1.42883 212.01 1.99883 210.57 2.96883C209.13 1.99883 207.4 1.42883 205.53 1.42883H170.89C169.02 1.42883 167.29 1.99883 165.85 2.96883C164.41 1.99883 162.68 1.42883 160.81 1.42883H126.17C121.2 1.42883 117.17 5.45883 117.17 10.4288V16.2988C115.26 14.1388 113.02 12.3388 110.51 10.8788C108.67 8.16883 106.29 5.77883 103.26 3.96883C99.2904 1.59883 94.7504 0.548828 89.9204 0.548828C85.0904 0.548828 80.4804 1.63883 76.4804 4.06883C73.4204 5.92883 71.0104 8.39883 69.1704 11.1888C66.1704 12.9788 63.6504 15.2188 61.6304 17.8288C59.3804 14.7488 56.4104 12.2588 52.9604 10.3788C51.3304 7.83883 49.2004 5.58883 46.4204 3.86883C42.5804 1.48883 38.2304 0.558828 33.7804 0.558828C29.3304 0.558828 25.1804 1.49883 21.3304 3.76883C18.3804 5.51883 16.0004 7.86883 14.1204 10.6188C10.1904 12.8488 6.88039 15.9388 4.50039 19.9188C1.62039 24.7188 0.400391 30.2788 0.400391 36.1288C0.400391 47.2088 5.10039 56.2088 13.7504 61.4288C15.6304 64.3088 18.0304 66.7888 21.0604 68.6388C24.9604 71.0188 29.3304 72.0188 33.7804 72.0188C38.2304 72.0188 42.5304 71.1088 46.4504 68.7488C49.0304 67.1888 51.1404 65.1688 52.8304 62.7988V66.1488C52.7704 66.5688 52.7304 66.9888 52.7304 67.4188V73.0288C52.7304 77.9988 56.7604 82.0288 61.7304 82.0288H70.3804V119.119C70.3804 124.089 74.4104 128.119 79.3804 128.119H86.3204C91.2904 128.119 95.3204 124.089 95.3204 119.119V82.0288H103.97C104.42 82.0288 104.85 81.9888 105.28 81.9188V119.119C105.28 124.089 109.31 128.119 114.28 128.119H121.22C124.39 128.119 127.17 126.479 128.78 123.999C130.38 126.479 133.17 128.119 136.34 128.119H142.84C147.81 128.119 151.84 124.089 151.84 119.119V117.799C152.36 118.219 152.9 118.609 153.45 118.959C153.75 121.139 154.61 123.939 156.94 126.269C159.56 128.889 162.85 129.749 165.66 129.749C168.47 129.749 171.79 128.929 174.46 126.219C176.8 123.839 177.6 121.019 177.87 118.959C178.39 118.619 178.91 118.259 179.41 117.859V119.119C179.41 124.089 183.44 128.119 188.41 128.119H194.98C197.8 128.119 200.32 126.819 201.97 124.789C203.62 126.819 206.14 128.119 208.96 128.119H245.16C250.13 128.119 254.16 124.089 254.16 119.119V113.359C254.16 108.389 250.13 104.359 245.16 104.359H244.49V103.829C248.54 102.949 251.57 99.3488 251.57 95.0388V89.2788C251.57 86.0888 249.9 83.2888 247.39 81.6888C250.03 80.7888 252.12 78.6988 253.01 76.0588H272.62V71.1188H299.46C304.43 71.1188 308.46 67.0888 308.46 62.1188V56.3588C308.46 51.5988 304.76 47.7088 300.09 47.3888L300.1 47.3988Z" fill="#0064FF"/>
<path d="M20.2604 54.7488C13.3904 51.4988 9.40039 45.2188 9.40039 36.1388C9.40039 27.0588 13.2404 20.6288 20.4804 17.4488C18.1204 21.8788 16.9304 28.0888 16.9304 36.1388C16.9304 44.1888 18.0404 50.3188 20.2504 54.7488H20.2604ZM20.2604 54.7488C24.0304 56.5188 28.5304 57.4088 33.7804 57.4088C39.0304 57.4088 43.4604 56.5188 47.0004 54.9688C44.4904 60.4388 40.0604 63.0188 33.7804 63.0188C27.5004 63.0188 23.0704 60.2888 20.2604 54.7488ZM20.4804 17.4488C23.2904 12.1288 27.7204 9.54883 33.7804 9.54883C40.2104 9.54883 44.2004 12.2088 46.4904 17.2288C43.0204 15.8288 38.8104 15.0888 33.7804 15.0888C28.7504 15.0888 24.0304 15.8988 20.4804 17.4488ZM46.4804 17.2288C51.5004 19.2988 54.8304 22.6188 56.3004 26.8288H48.7704C48.4004 23.0588 47.6604 19.8088 46.4804 17.2288ZM47.0004 54.9788C48.3304 51.9488 49.0704 48.1088 49.2204 43.3788H56.8304C55.6504 48.3988 52.3204 52.5388 47.0104 54.9788H47.0004ZM76.1704 54.8288C68.9304 51.5088 64.7904 45.2288 64.7904 36.1388C64.7904 27.0488 68.7104 21.1488 75.6504 17.8888C73.2904 22.4688 72.3304 28.8188 72.3304 36.1388C72.3304 43.4588 73.5904 50.0988 76.1704 54.8288ZM75.6504 17.8988C78.3104 12.6588 82.8904 9.54883 89.9104 9.54883C96.9304 9.54883 101.43 12.5788 104.09 17.6788C100.32 15.9788 95.5204 15.0888 89.9104 15.0888C84.3004 15.0888 79.4904 16.0488 75.6504 17.8988ZM76.1704 54.8288C79.9404 56.5288 84.5904 57.4188 89.9104 57.4188C95.5204 57.4188 100.33 56.5288 104.09 54.7588C101.43 59.9988 96.9204 63.0288 89.9104 63.0288C83.5604 63.0288 79.0504 59.9988 76.1704 54.8288ZM104.09 54.7588C106.53 50.1088 107.49 43.6088 107.49 36.1488C107.49 28.6888 106.53 22.3388 104.09 17.6788C111.25 20.9288 115.02 27.1388 115.02 36.1488C115.02 45.1588 111.25 51.5088 104.09 54.7588ZM132.95 32.2288C127.71 31.8588 126.16 30.0088 126.16 25.1388V10.4388H160.8V16.1988H132.95V32.2288ZM126.16 62.1488V45.8288C126.16 41.7688 127.71 38.8088 132.95 38.2188V62.1488H126.16ZM132.95 38.2188V32.2388C133.62 32.3088 134.43 32.3088 135.24 32.3088H158.73V38.0688H135.24C134.43 38.0688 133.62 38.1388 132.95 38.2188ZM177.67 32.2388C172.43 31.8688 170.87 30.0188 170.87 25.1488V10.4488H205.51V16.2088H177.66V32.2388H177.67ZM170.87 62.1588V45.8388C170.87 41.7788 172.42 38.8188 177.67 38.2288V62.1588H170.87ZM177.67 38.2288V32.2488C178.34 32.3188 179.15 32.3188 179.96 32.3188H203.45V38.0788H179.96C179.15 38.0788 178.34 38.1488 177.67 38.2288ZM215.6 45.8388C215.6 41.7788 217.08 38.8188 222.4 38.2288V56.3988H251.8V62.1588H215.6V45.8388ZM215.6 25.1588V10.4588H251.13V16.2188H222.4V32.2488C217.08 31.8788 215.6 30.0288 215.6 25.1588ZM222.4 38.2288V32.2488C223.06 32.3188 223.88 32.3188 224.69 32.3188H249.21V38.0788H224.69C223.88 38.0788 223.07 38.1488 222.4 38.2288ZM263.28 45.8388C263.28 41.7788 264.76 38.8188 270.08 38.2288V56.3988H299.48V62.1588H263.29V45.8388H263.28ZM263.28 25.1588V10.4588H298.81V16.2188H270.08V32.2488C264.76 31.8788 263.28 30.0288 263.28 25.1588ZM270.08 38.2288V32.2488C270.75 32.3188 271.56 32.3188 272.37 32.3188H296.89V38.0788H272.37C271.56 38.0788 270.75 38.1488 270.08 38.2288ZM79.3804 75.8788C79.3804 74.8488 79.3104 73.8888 79.0804 73.0688H86.6104C86.3904 73.8788 86.3104 74.8388 86.3104 75.8788V119.169H79.3704V75.8788H79.3804ZM61.7304 73.0688V67.4588H71.7004C75.7604 67.4588 78.3504 69.3788 79.0904 73.0688H61.7304ZM86.6204 73.0688C87.3604 69.3788 89.9404 67.4588 94.0104 67.4588H103.98V73.0688H86.6204ZM114.29 119.159V67.4488H121.23V119.159H114.29ZM172.99 82.5188C173.51 77.8688 176.09 74.5388 180.75 73.5088L177.35 103.649C176.76 108.889 173.95 111.849 169.52 112.879L172.99 82.5188ZM136.35 119.159V82.1488C136.35 78.1588 138.79 75.1288 142.85 73.8788V119.159H136.35ZM142.85 73.8788V69.7388C142.85 67.2288 144.47 65.8188 146.54 65.8188C148.46 65.8188 149.86 66.9988 150.16 69.5888L150.6 73.5088C149.64 73.2888 148.61 73.2088 147.5 73.2088C145.8 73.2088 144.25 73.4288 142.85 73.8688V73.8788ZM150.61 73.5088C155.26 74.5388 157.85 77.8688 158.37 82.5188L161.84 112.879C157.41 111.849 154.6 108.889 154.01 103.649L150.61 73.5088ZM161.84 112.879C163.02 113.099 164.28 113.249 165.68 113.249C167.08 113.249 168.34 113.099 169.52 112.879L169 117.609C168.78 119.599 167.82 120.789 165.68 120.789C163.54 120.789 162.58 119.609 162.36 117.609L161.84 112.879ZM180.75 73.5088L181.19 69.5888C181.48 66.9988 183.04 65.8188 184.81 65.8188C187.03 65.8188 188.43 67.2188 188.43 69.7388V73.8788C187.1 73.4388 185.55 73.2188 183.85 73.2188C182.74 73.2188 181.71 73.2888 180.75 73.5188V73.5088ZM188.43 119.159V73.8788C192.57 75.1388 195 78.1588 195 82.1488V119.159H188.43ZM208.98 102.839C208.98 98.7788 210.46 95.8188 215.78 95.2288V113.399H245.18V119.159H208.98V102.839ZM208.98 82.1588V67.4588H244.51V73.2188H215.78V89.2488C210.46 88.8788 208.98 87.0288 208.98 82.1588ZM215.78 95.2288V89.2488C216.44 89.3188 217.26 89.3188 218.07 89.3188H242.59V95.0788H218.07C217.26 95.0788 216.45 95.1488 215.78 95.2288Z" fill="black"/>
</g>
<defs>
<clipPath id="clip0_5899_13208">
<rect width="308.08" height="129.22" fill="white" transform="translate(0.400391 0.539062)"/>
</clipPath>
</defs>
</svg>
