<svg width="269" height="98" viewBox="0 0 269 98" fill="none" xmlns="http://www.w3.org/2000/svg">
<g clip-path="url(#clip0_5899_13210)">
<path d="M261.2 29.8596C260.85 28.8596 260.37 27.9196 259.77 27.0696V26.3596C260.38 25.5096 260.88 24.5796 261.24 23.5796C265.66 22.0596 268.83 17.8896 268.86 12.9496C268.9 6.67961 263.87 1.58961 257.6 1.54961C253.33 1.51961 249.63 3.84961 247.67 7.30961H246.74C244.83 3.81961 241.15 1.44961 236.88 1.42961C232.56 1.39961 228.82 3.77961 226.88 7.30961H225.48C223.59 3.74961 219.87 1.32961 215.55 1.29961C214.34 1.29961 213.17 1.48961 212.08 1.83961C211.03 1.48961 209.88 1.26961 208.64 1.25961C204.26 1.22961 200.47 3.68961 198.56 7.30961H197.32C195.46 3.65961 191.7 1.15961 187.31 1.12961C186.09 1.12961 184.93 1.31961 183.84 1.66961C182.79 1.31961 181.64 1.09961 180.4 1.08961C175.95 1.05961 172.11 3.59961 170.24 7.30961H155.39C153.58 3.52961 149.74 0.909612 145.26 0.889612C144.04 0.889612 142.88 1.07961 141.79 1.42961C140.74 1.07961 139.59 0.859612 138.35 0.849612C137.14 0.849612 135.97 1.03961 134.88 1.38961C133.83 1.03961 132.68 0.819612 131.44 0.809612C126.87 0.779612 122.95 3.44961 121.13 7.30961H120.34C118.57 3.41961 114.68 0.709612 110.11 0.679612C108.9 0.679612 107.73 0.869612 106.64 1.21961C105.59 0.869612 104.44 0.649612 103.2 0.639612C101.99 0.639612 100.82 0.829612 99.7302 1.17961C98.6802 0.829612 97.5302 0.609612 96.2902 0.599612C93.5402 0.579612 91.0302 1.53961 89.0602 3.13961C87.1102 1.50961 84.6002 0.529612 81.8602 0.509612C80.6402 0.509612 79.4802 0.699612 78.3902 1.04961C77.3402 0.699612 76.1902 0.479612 74.9502 0.469612C73.7402 0.469612 72.5702 0.659612 71.4802 1.00961C70.4302 0.659612 69.2802 0.439612 68.0402 0.429612C65.2902 0.409612 62.7802 1.36961 60.8102 2.96961C58.8602 1.33961 56.3502 0.359612 53.6102 0.339612C52.3902 0.339612 51.2302 0.529612 50.1402 0.879612C49.0902 0.529612 47.9402 0.309612 46.7002 0.299612C45.4802 0.299612 44.3202 0.489612 43.2302 0.839612C42.1802 0.489612 41.0302 0.269612 39.7902 0.259612C37.0402 0.239612 34.5302 1.19961 32.5602 2.79961C30.6302 1.18961 28.1202 0.209612 25.3702 0.189612C24.1602 0.189612 22.9902 0.379612 21.9002 0.729612C20.8502 0.379612 19.7002 0.159612 18.4602 0.149612C17.2402 0.149612 16.0802 0.339612 14.9902 0.689612C13.9502 0.339612 12.8002 0.109612 11.5602 0.109612C5.29024 0.0696119 0.200237 5.09961 0.160237 11.3696C0.160237 12.5996 0.360237 13.7696 0.690237 14.8396C0.350237 15.8696 0.130237 17.0196 0.120237 18.2796C0.120237 19.5096 0.320237 20.6796 0.650237 21.7496C0.310237 22.7796 0.0902369 23.9296 0.0802369 25.1896C0.0802369 26.4196 0.280237 27.5896 0.610237 28.6596C0.270237 29.6896 0.0502369 30.8396 0.0402369 32.0996C0.0402369 33.3296 0.240237 34.4996 0.570237 35.5696C0.230237 36.5896 0.000236922 37.7396 0.000236922 38.9996C-0.0397631 45.2696 4.99024 50.3596 11.2602 50.3996C14.6402 50.4196 17.6602 48.9596 19.7502 46.6396H31.0002C32.6802 48.5796 35.0002 49.9396 37.6502 50.3896C36.0302 52.3396 35.0502 54.8396 35.0302 57.5796C35.0302 58.8096 35.2302 59.9796 35.5602 61.0496C35.2202 62.0796 35.0002 63.2296 34.9902 64.4896C34.9902 65.7196 35.1902 66.8896 35.5202 67.9596C35.1802 68.9896 34.9602 70.1396 34.9502 71.3996C34.9502 72.6296 35.1502 73.7996 35.4802 74.8696C35.1402 75.8996 34.9202 77.0496 34.9102 78.3096C34.9102 79.5396 35.1102 80.7096 35.4402 81.7796C35.1002 82.8096 34.8802 83.9596 34.8702 85.2196C34.8302 91.4896 39.8602 96.5796 46.1302 96.6196C49.8002 96.6396 53.0502 94.9196 55.1302 92.2496H72.2402C74.2902 95.0096 77.5602 96.8096 81.2702 96.8296C82.5302 96.8296 83.6802 96.6296 84.7202 96.2996C85.7802 96.6396 86.9502 96.8596 88.1802 96.8696C89.4402 96.8696 90.5902 96.6696 91.6302 96.3396C92.6902 96.6796 93.8602 96.8996 95.0902 96.9096C97.8402 96.9296 100.35 95.9696 102.32 94.3696C104.27 95.9996 106.78 96.9796 109.52 96.9996C110.78 96.9996 111.93 96.7996 112.97 96.4696C114.03 96.8096 115.2 97.0296 116.43 97.0396C117.69 97.0396 118.84 96.8396 119.88 96.5096C120.94 96.8496 122.11 97.0696 123.34 97.0796C126.09 97.0996 128.6 96.1396 130.57 94.5396C132.52 96.1696 135.03 97.1496 137.77 97.1696C141.68 97.1896 145.12 95.2396 147.17 92.2596H149.15C151.17 95.2796 154.58 97.2696 158.5 97.2996C161.24 97.3196 163.76 96.3596 165.73 94.7596C167.68 96.3896 170.18 97.3696 172.93 97.3796C174.19 97.3796 175.34 97.1796 176.38 96.8496C177.44 97.1896 178.61 97.4096 179.84 97.4196C181.1 97.4196 182.25 97.2196 183.29 96.8896C184.35 97.2296 185.52 97.4496 186.75 97.4596C190.78 97.4796 194.32 95.4096 196.34 92.2596H198.55C200.53 95.4396 204.05 97.5596 208.08 97.5896C209.34 97.5896 210.49 97.3896 211.53 97.0596C212.59 97.3996 213.76 97.6196 214.99 97.6296C216.25 97.6296 217.4 97.4296 218.44 97.0996C219.5 97.4396 220.67 97.6596 221.9 97.6696C228.17 97.7096 233.26 92.6796 233.3 86.4096C233.32 83.7996 232.45 81.4096 230.99 79.4896C232.47 77.5896 233.37 75.1996 233.38 72.5996C233.4 69.9896 232.53 67.5996 231.07 65.6796C232.55 63.7796 233.45 61.3896 233.46 58.7896C233.48 55.0696 231.71 51.7796 228.97 49.7096V48.7396C230.97 50.5996 233.64 51.7496 236.6 51.7696C240.58 51.7896 244.08 49.7696 246.12 46.6796H247.86C249.86 49.7996 253.34 51.8696 257.32 51.8896C263.59 51.9296 268.68 46.8996 268.72 40.6296C268.75 35.6796 265.62 31.4796 261.22 29.9096L261.2 29.8596Z" fill="#FF7A41"/>
<path d="M10.3403 11.429C10.3403 10.799 10.8603 10.279 11.5003 10.289C12.1303 10.289 12.6503 10.809 12.6403 11.449C12.6403 12.079 12.1203 12.599 11.4803 12.589C10.8503 12.589 10.3303 12.069 10.3403 11.429ZM24.1503 11.509C24.1503 10.879 24.6703 10.359 25.3103 10.369C25.9403 10.369 26.4603 10.889 26.4503 11.529C26.4503 12.159 25.9303 12.679 25.2903 12.669C24.6603 12.669 24.1403 12.149 24.1503 11.509ZM24.0703 25.319C24.0703 24.689 24.5903 24.169 25.2303 24.179C25.8603 24.179 26.3803 24.699 26.3703 25.339C26.3703 25.969 25.8503 26.489 25.2103 26.479C24.5803 26.479 24.0603 25.959 24.0703 25.319ZM17.2403 11.469C17.2403 10.839 17.7603 10.319 18.4003 10.329C19.0303 10.329 19.5503 10.849 19.5403 11.489C19.5403 12.119 19.0203 12.639 18.3803 12.629C17.7503 12.629 17.2303 12.109 17.2403 11.469ZM17.1603 25.279C17.1603 24.649 17.6803 24.129 18.3203 24.139C18.9503 24.139 19.4703 24.659 19.4603 25.299C19.4603 25.929 18.9403 26.449 18.3003 26.439C17.6703 26.439 17.1503 25.919 17.1603 25.279ZM10.2903 18.329C10.2903 17.699 10.8103 17.179 11.4503 17.189C12.0803 17.189 12.6003 17.709 12.5903 18.349C12.5903 18.979 12.0703 19.499 11.4303 19.489C10.8003 19.489 10.2803 18.969 10.2903 18.329ZM10.2503 25.239C10.2503 24.609 10.7703 24.089 11.4103 24.099C12.0403 24.099 12.5603 24.619 12.5503 25.259C12.5503 25.889 12.0303 26.409 11.3903 26.399C10.7603 26.399 10.2403 25.879 10.2503 25.239ZM10.2103 32.149C10.2103 31.519 10.7303 30.999 11.3703 31.009C12.0003 31.009 12.5203 31.529 12.5103 32.169C12.5003 32.809 11.9903 33.319 11.3503 33.309C10.7203 33.309 10.2003 32.789 10.2103 32.149ZM10.1703 39.059C10.1703 38.429 10.6903 37.909 11.3303 37.919C11.9603 37.919 12.4803 38.439 12.4703 39.079C12.4703 39.709 11.9503 40.229 11.3103 40.219C10.6803 40.219 10.1603 39.699 10.1703 39.059ZM5.11034 18.309C5.11034 19.579 5.50034 20.789 6.07034 21.769C5.49034 22.799 5.08034 23.949 5.07034 25.219C5.07034 26.489 5.46034 27.699 6.03034 28.679C5.45034 29.709 5.04034 30.859 5.03034 32.129C5.03034 33.399 5.42034 34.609 5.99034 35.589C5.41034 36.619 5.00034 37.769 4.99034 39.039C4.97034 42.549 7.77034 45.389 11.2803 45.409C14.7903 45.429 17.6303 42.629 17.6503 39.119C17.6503 37.849 17.2603 36.699 16.6303 35.659C17.2703 34.689 17.6803 33.479 17.6903 32.209C17.6903 32.039 17.6903 31.809 17.6403 31.629H18.2703C19.5403 31.639 20.6903 31.299 21.7303 30.679C22.7003 31.319 23.9103 31.669 25.1803 31.679C28.6903 31.699 31.5303 28.899 31.5503 25.389C31.5703 21.879 28.7703 19.039 25.2603 19.019C23.9903 19.019 22.7803 19.409 21.8003 20.039C20.7703 19.399 19.6203 18.989 18.3503 18.979C18.1203 18.979 17.9503 18.979 17.7203 19.029C17.7803 18.799 17.7803 18.629 17.7803 18.399C17.7803 18.229 17.7803 17.999 17.7303 17.819H18.3603C19.6303 17.829 20.7803 17.489 21.8203 16.869C22.7903 17.509 24.0003 17.859 25.2703 17.869C28.7803 17.889 31.6203 15.089 31.6403 11.579C31.6603 8.06901 28.8603 5.22901 25.3503 5.20901C24.0803 5.20901 22.8703 5.59901 21.8903 6.22901C20.8603 5.58901 19.7103 5.17901 18.4403 5.16901C17.1703 5.16901 15.9603 5.55901 14.9803 6.18901C13.9503 5.54901 12.8003 5.13901 11.5303 5.12901C8.02034 5.10901 5.18034 7.90901 5.16034 11.419C5.16034 12.689 5.55034 13.899 6.12034 14.879C5.54034 15.909 5.13034 17.059 5.12034 18.329L5.11034 18.309ZM38.5803 11.599C38.5803 10.969 39.1003 10.449 39.7403 10.459C40.3703 10.459 40.8903 10.979 40.8803 11.619C40.8803 12.249 40.3603 12.769 39.7203 12.759C39.0903 12.759 38.5703 12.239 38.5803 11.599ZM38.4203 39.229C38.4203 38.599 38.9403 38.079 39.5803 38.089C40.2103 38.089 40.7303 38.609 40.7203 39.249C40.7203 39.879 40.2003 40.399 39.5603 40.389C38.9303 40.389 38.4103 39.869 38.4203 39.229ZM52.4003 11.689C52.4003 11.059 52.9203 10.539 53.5603 10.549C54.1903 10.549 54.7103 11.069 54.7003 11.709C54.6903 12.349 54.1803 12.859 53.5403 12.849C52.9103 12.849 52.3903 12.329 52.4003 11.689ZM52.3203 25.499C52.3203 24.869 52.8403 24.349 53.4803 24.359C54.1103 24.359 54.6303 24.879 54.6203 25.519C54.6203 26.149 54.1003 26.669 53.4603 26.659C52.8303 26.659 52.3103 26.139 52.3203 25.499ZM52.2403 39.309C52.2403 38.679 52.7603 38.159 53.4003 38.169C54.0303 38.169 54.5503 38.689 54.5403 39.329C54.5403 39.959 54.0203 40.479 53.3803 40.469C52.7403 40.459 52.2303 39.949 52.2403 39.309ZM45.5003 11.639C45.5003 11.009 46.0203 10.489 46.6603 10.499C47.2903 10.499 47.8103 11.019 47.8003 11.659C47.7903 12.299 47.2803 12.809 46.6403 12.799C46.0103 12.799 45.4903 12.279 45.5003 11.639ZM45.4203 25.449C45.4203 24.819 45.9403 24.299 46.5803 24.309C47.2103 24.309 47.7303 24.829 47.7203 25.469C47.7203 26.099 47.2003 26.619 46.5603 26.609C45.9303 26.609 45.4103 26.089 45.4203 25.449ZM45.3403 39.259C45.3403 38.629 45.8603 38.109 46.5003 38.119C47.1303 38.119 47.6503 38.639 47.6403 39.279C47.6403 39.909 47.1203 40.429 46.4803 40.419C45.8503 40.419 45.3303 39.899 45.3403 39.259ZM38.5603 18.499C38.5603 17.869 39.0803 17.349 39.7203 17.359C40.3503 17.359 40.8703 17.879 40.8603 18.519C40.8603 19.149 40.3403 19.669 39.7003 19.659C39.0703 19.659 38.5503 19.139 38.5603 18.499ZM38.5203 25.409C38.5203 24.779 39.0403 24.259 39.6803 24.269C40.3103 24.269 40.8303 24.789 40.8203 25.429C40.8203 26.059 40.3003 26.579 39.6603 26.569C39.0303 26.569 38.5103 26.049 38.5203 25.409ZM38.4803 32.319C38.4803 31.689 39.0003 31.169 39.6403 31.179C40.2803 31.189 40.7903 31.699 40.7803 32.339C40.7803 32.969 40.2603 33.489 39.6203 33.479C38.9903 33.479 38.4703 32.959 38.4803 32.319ZM33.3803 18.479C33.3803 19.749 33.7703 20.959 34.3403 21.939C33.7603 22.969 33.3503 24.119 33.3403 25.389C33.3403 26.659 33.7303 27.869 34.3003 28.849C33.7203 29.879 33.3103 31.029 33.3003 32.299C33.3003 33.569 33.6903 34.779 34.2603 35.759C33.6803 36.789 33.2703 37.939 33.2603 39.209C33.2403 42.719 36.0403 45.559 39.5503 45.579C40.8203 45.579 41.9703 45.189 43.0103 44.619C43.9803 45.199 45.1903 45.609 46.4603 45.619C47.7303 45.619 48.8803 45.229 49.9203 44.659C50.9003 45.239 52.1003 45.649 53.3703 45.659C56.8803 45.679 59.7203 42.879 59.7403 39.369C59.7603 35.859 56.9603 33.019 53.4503 32.999C52.1803 32.999 50.9703 33.389 49.9903 34.019C48.9603 33.379 47.8103 32.969 46.5403 32.959C46.3103 32.959 46.1403 32.959 45.9103 33.009C45.9703 32.779 45.9703 32.609 45.9703 32.379C45.9703 32.209 45.9703 31.979 45.9203 31.799H46.5503C47.8203 31.809 48.9703 31.469 50.0103 30.849C50.9803 31.489 52.1903 31.839 53.4603 31.849C56.9703 31.869 59.8103 29.069 59.8303 25.559C59.8503 22.049 57.0503 19.209 53.5403 19.189C52.2703 19.189 51.0603 19.579 50.0803 20.209C49.0503 19.569 47.9003 19.159 46.6303 19.149C46.4003 19.149 46.2303 19.149 46.0003 19.199C46.0603 18.969 46.0603 18.799 46.0603 18.569C46.0603 18.399 46.0603 18.169 46.0103 17.989H46.6403C47.9103 17.999 49.0603 17.659 50.1003 17.039C51.0703 17.679 52.2803 18.029 53.5503 18.039C57.0603 18.059 59.9003 15.259 59.9203 11.749C59.9403 8.23901 57.1403 5.39901 53.6303 5.37901C52.3603 5.37901 51.1503 5.76901 50.1703 6.39901C49.1403 5.75901 47.9903 5.34901 46.7203 5.33901C45.4503 5.33901 44.2403 5.72901 43.2603 6.35901C42.2303 5.71901 41.0803 5.30901 39.8103 5.29901C36.3003 5.27901 33.4603 8.07901 33.4403 11.589C33.4403 12.859 33.8303 14.069 34.4003 15.049C33.8203 16.079 33.4103 17.229 33.4003 18.499L33.3803 18.479ZM66.8503 11.769C66.8503 11.139 67.3703 10.619 68.0103 10.629C68.6403 10.629 69.1603 11.149 69.1503 11.789C69.1503 12.419 68.6303 12.939 67.9903 12.929C67.3603 12.929 66.8403 12.409 66.8503 11.769ZM66.6903 39.399C66.6903 38.769 67.2103 38.249 67.8503 38.259C68.4803 38.259 69.0003 38.779 68.9903 39.419C68.9903 40.049 68.4703 40.569 67.8303 40.559C67.2003 40.559 66.6803 40.039 66.6903 39.399ZM80.6703 11.859C80.6703 11.229 81.2003 10.709 81.8303 10.719C82.4603 10.719 82.9803 11.239 82.9703 11.879C82.9703 12.509 82.4403 13.029 81.8103 13.019C81.1803 13.019 80.6603 12.499 80.6703 11.859ZM80.5903 25.669C80.5903 25.039 81.1203 24.519 81.7503 24.529C82.3803 24.529 82.9003 25.049 82.9003 25.689C82.9003 26.319 82.3703 26.839 81.7403 26.829C81.1103 26.829 80.5903 26.309 80.5903 25.669ZM80.5103 39.479C80.5103 38.849 81.0403 38.329 81.6703 38.339C82.3003 38.339 82.8203 38.859 82.8103 39.499C82.8003 40.139 82.2803 40.649 81.6503 40.639C81.0203 40.639 80.5003 40.119 80.5103 39.479ZM73.7703 11.809C73.7703 11.179 74.2903 10.659 74.9303 10.669C75.5603 10.669 76.0803 11.189 76.0703 11.829C76.0703 12.459 75.5503 12.979 74.9103 12.969C74.2803 12.969 73.7603 12.449 73.7703 11.809ZM73.6903 25.619C73.6903 24.989 74.2103 24.469 74.8503 24.479C75.4903 24.489 76.0003 24.999 75.9903 25.639C75.9903 26.269 75.4703 26.789 74.8303 26.779C74.2003 26.779 73.6803 26.259 73.6903 25.619ZM73.6103 39.429C73.6103 38.799 74.1303 38.279 74.7703 38.289C75.4003 38.289 75.9203 38.809 75.9103 39.449C75.9103 40.079 75.3903 40.599 74.7503 40.589C74.1103 40.579 73.6003 40.069 73.6103 39.429ZM66.8303 18.669C66.8303 18.039 67.3503 17.519 67.9903 17.529C68.6203 17.529 69.1403 18.049 69.1303 18.689C69.1303 19.319 68.6103 19.839 67.9703 19.829C67.3403 19.829 66.8203 19.309 66.8303 18.669ZM66.7903 25.579C66.7903 24.949 67.3103 24.429 67.9503 24.439C68.5803 24.439 69.1003 24.959 69.0903 25.599C69.0803 26.239 68.5703 26.749 67.9303 26.739C67.3003 26.739 66.7803 26.219 66.7903 25.579ZM66.7503 32.489C66.7503 31.859 67.2703 31.339 67.9103 31.349C68.5403 31.349 69.0603 31.869 69.0503 32.509C69.0503 33.139 68.5303 33.659 67.8903 33.649C67.2603 33.649 66.7403 33.129 66.7503 32.489ZM61.6503 18.649C61.6503 19.919 62.0403 21.129 62.6103 22.109C62.0303 23.139 61.6203 24.289 61.6103 25.559C61.6103 26.829 62.0003 28.039 62.5703 29.019C61.9903 30.049 61.5803 31.199 61.5703 32.469C61.5703 33.739 61.9603 34.949 62.5303 35.929C61.9503 36.959 61.5403 38.109 61.5303 39.379C61.5103 42.889 64.3103 45.729 67.8203 45.749C69.0903 45.749 70.2403 45.359 71.2803 44.789C72.2503 45.369 73.4603 45.779 74.7303 45.789C76.0003 45.789 77.1503 45.399 78.1903 44.829C79.1603 45.409 80.3703 45.819 81.6403 45.829C85.1503 45.849 87.9903 43.049 88.0103 39.539C88.0303 36.029 85.2303 33.189 81.7203 33.169C80.4503 33.169 79.2403 33.559 78.2603 34.189C77.2303 33.549 76.0803 33.139 74.8103 33.129C74.5803 33.129 74.4103 33.129 74.1803 33.179C74.2403 32.949 74.2403 32.779 74.2403 32.549C74.2403 32.379 74.2403 32.149 74.1903 31.969H74.8203C76.0903 31.979 77.2403 31.639 78.2803 31.019C79.2503 31.659 80.4603 32.009 81.7303 32.019C85.2403 32.039 88.0803 29.239 88.1003 25.729C88.1203 22.219 85.3203 19.379 81.8103 19.359C80.5403 19.359 79.3303 19.749 78.3503 20.379C77.3203 19.739 76.1703 19.329 74.9003 19.319C74.6703 19.319 74.5003 19.319 74.2703 19.369C74.3303 19.139 74.3303 18.969 74.3303 18.739C74.3303 18.569 74.3303 18.339 74.2803 18.159H74.9103C76.1803 18.169 77.3303 17.829 78.3703 17.209C79.3403 17.849 80.5503 18.199 81.8203 18.209C85.3303 18.229 88.1703 15.429 88.1903 11.919C88.2103 8.40901 85.4103 5.56901 81.9003 5.54901C80.6303 5.54901 79.4203 5.93901 78.4403 6.56901C77.4103 5.92901 76.2603 5.51901 74.9903 5.50901C73.7203 5.50901 72.5103 5.89901 71.5303 6.52901C70.5003 5.88901 69.3503 5.47901 68.0803 5.46901C64.5703 5.44901 61.7303 8.24901 61.7103 11.759C61.7103 13.029 62.1003 14.239 62.6703 15.219C62.0903 16.249 61.6803 17.399 61.6703 18.669L61.6503 18.649ZM115.8 18.969C115.8 18.339 116.32 17.819 116.96 17.829C117.59 17.829 118.11 18.349 118.1 18.989C118.1 19.619 117.58 20.139 116.94 20.129C116.31 20.129 115.79 19.609 115.8 18.969ZM115.76 25.879C115.76 25.249 116.28 24.729 116.92 24.739C117.55 24.739 118.07 25.259 118.06 25.899C118.06 26.529 117.54 27.049 116.9 27.039C116.27 27.039 115.75 26.519 115.76 25.879ZM115.72 32.789C115.72 32.159 116.24 31.639 116.88 31.649C117.51 31.649 118.03 32.169 118.02 32.809C118.02 33.439 117.5 33.959 116.86 33.949C116.23 33.949 115.71 33.429 115.72 32.789ZM108.94 12.029C108.94 11.399 109.47 10.879 110.1 10.889C110.73 10.889 111.25 11.409 111.24 12.049C111.23 12.689 110.72 13.199 110.08 13.189C109.45 13.189 108.93 12.669 108.94 12.029ZM108.78 39.659C108.78 39.029 109.3 38.509 109.94 38.519C110.57 38.519 111.09 39.039 111.08 39.679C111.08 40.309 110.55 40.829 109.92 40.819C109.29 40.819 108.77 40.299 108.78 39.659ZM102.04 11.989C102.04 11.359 102.57 10.839 103.2 10.849C103.83 10.849 104.35 11.369 104.34 12.009C104.34 12.639 103.81 13.159 103.18 13.149C102.55 13.149 102.03 12.629 102.03 11.989H102.04ZM101.88 39.619C101.88 38.989 102.41 38.469 103.04 38.479C103.67 38.479 104.19 38.999 104.19 39.639C104.19 40.269 103.66 40.789 103.03 40.779C102.4 40.779 101.88 40.259 101.89 39.619H101.88ZM95.1403 11.949C95.1403 11.319 95.6703 10.799 96.3003 10.809C96.9303 10.809 97.4503 11.329 97.4403 11.969C97.4403 12.599 96.9103 13.119 96.2803 13.109C95.6503 13.109 95.1303 12.589 95.1403 11.949ZM95.1003 18.859C95.1003 18.229 95.6303 17.709 96.2603 17.719C96.8903 17.719 97.4103 18.239 97.4003 18.879C97.4003 19.509 96.8803 20.029 96.2403 20.019C95.6103 20.019 95.0903 19.499 95.1003 18.859ZM95.0603 25.769C95.0603 25.139 95.5903 24.619 96.2203 24.629C96.8503 24.629 97.3703 25.149 97.3603 25.789C97.3603 26.419 96.8303 26.939 96.2003 26.929C95.5703 26.929 95.0503 26.409 95.0503 25.769H95.0603ZM95.0203 32.679C95.0203 32.049 95.5403 31.529 96.1803 31.539C96.8103 31.539 97.3303 32.059 97.3203 32.699C97.3103 33.339 96.7903 33.849 96.1603 33.839C95.5303 33.839 95.0103 33.319 95.0203 32.679ZM94.9803 39.589C94.9803 38.959 95.5003 38.439 96.1403 38.449C96.7703 38.449 97.2903 38.969 97.2803 39.609C97.2803 40.239 96.7503 40.759 96.1203 40.749C95.4903 40.749 94.9703 40.229 94.9803 39.589ZM89.9603 11.929C89.9603 13.199 90.3503 14.409 90.9203 15.389C90.3403 16.419 89.9303 17.569 89.9203 18.839C89.9203 20.109 90.3103 21.319 90.8803 22.299C90.3003 23.329 89.8903 24.479 89.8803 25.749C89.8803 27.019 90.2703 28.229 90.8403 29.209C90.2603 30.239 89.8503 31.389 89.8403 32.659C89.8403 33.929 90.2303 35.139 90.8003 36.119C90.2203 37.149 89.8103 38.299 89.8003 39.569C89.7803 43.079 92.5803 45.919 96.0903 45.939C97.3603 45.939 98.5103 45.549 99.5503 44.979C100.52 45.559 101.73 45.969 103 45.979C104.27 45.979 105.42 45.589 106.46 45.019C107.44 45.599 108.64 46.009 109.91 46.019C113.42 46.039 116.26 43.239 116.28 39.729C116.28 39.559 116.28 39.329 116.23 39.149H116.86C120.37 39.169 123.21 36.369 123.23 32.859C123.23 31.589 122.84 30.439 122.22 29.399C122.86 28.429 123.27 27.219 123.28 25.949C123.28 24.679 122.89 23.529 122.26 22.489C122.9 21.519 123.31 20.309 123.32 19.039C123.34 15.529 120.54 12.689 117.03 12.669C116.8 12.669 116.63 12.669 116.4 12.719C116.46 12.489 116.46 12.319 116.46 12.089C116.48 8.57901 113.68 5.73901 110.17 5.71901C108.9 5.71901 107.69 6.10901 106.71 6.73901C105.68 6.09901 104.53 5.68901 103.26 5.67901C101.99 5.67901 100.78 6.06901 99.8003 6.69901C98.7703 6.05901 97.6203 5.64901 96.3503 5.63901C92.8403 5.61901 90.0003 8.41901 89.9803 11.929H89.9603ZM110.6 25.869C110.6 27.139 110.93 28.349 111.56 29.329C110.92 30.359 110.57 31.509 110.56 32.779V33.409C110.38 33.349 110.15 33.349 109.98 33.349C108.71 33.349 107.5 33.739 106.52 34.369C105.49 33.729 104.34 33.319 103.07 33.309C102.84 33.309 102.67 33.309 102.44 33.359C102.5 33.129 102.5 32.959 102.5 32.729C102.5 31.459 102.11 30.309 101.48 29.269C102.12 28.299 102.53 27.089 102.54 25.819C102.54 24.549 102.15 23.399 101.52 22.359C102.16 21.389 102.57 20.179 102.58 18.909C102.58 18.739 102.58 18.509 102.53 18.329H103.16C104.43 18.339 105.58 17.999 106.62 17.379C107.59 18.019 108.8 18.369 110.07 18.379H110.65V18.959C110.65 20.229 110.98 21.439 111.61 22.419C110.97 23.449 110.62 24.599 110.61 25.869H110.6ZM150.97 19.199C150.97 18.569 151.49 18.049 152.13 18.059C152.76 18.059 153.28 18.579 153.28 19.219C153.28 19.849 152.76 20.369 152.12 20.359C151.49 20.359 150.97 19.839 150.98 19.199H150.97ZM150.89 33.009C150.89 32.379 151.42 31.859 152.05 31.869C152.68 31.869 153.2 32.389 153.19 33.029C153.19 33.659 152.67 34.179 152.03 34.169C151.4 34.169 150.88 33.649 150.89 33.009ZM144.11 12.249C144.11 11.619 144.63 11.099 145.27 11.109C145.9 11.109 146.42 11.629 146.41 12.269C146.4 12.909 145.89 13.419 145.25 13.409C144.62 13.409 144.1 12.889 144.11 12.249ZM144.03 26.059C144.03 25.429 144.56 24.909 145.19 24.919C145.82 24.919 146.34 25.439 146.33 26.079C146.33 26.709 145.81 27.229 145.17 27.219C144.54 27.219 144.02 26.699 144.03 26.059ZM143.95 39.869C143.95 39.239 144.47 38.719 145.11 38.729C145.74 38.729 146.26 39.249 146.25 39.889C146.25 40.519 145.72 41.039 145.09 41.029C144.46 41.019 143.94 40.509 143.95 39.869ZM137.21 12.199C137.21 11.569 137.73 11.049 138.37 11.059C139 11.059 139.52 11.579 139.51 12.219C139.51 12.849 138.99 13.369 138.35 13.359C137.72 13.359 137.2 12.839 137.21 12.199ZM137.13 26.009C137.13 25.379 137.65 24.859 138.29 24.869C138.92 24.869 139.44 25.389 139.43 26.029C139.43 26.659 138.91 27.179 138.27 27.169C137.64 27.169 137.12 26.649 137.13 26.009ZM137.05 39.819C137.05 39.189 137.57 38.669 138.21 38.679C138.84 38.679 139.36 39.199 139.35 39.839C139.35 40.469 138.83 40.989 138.19 40.979C137.56 40.979 137.04 40.459 137.05 39.819ZM130.31 12.149C130.31 11.519 130.83 10.999 131.47 11.009C132.1 11.009 132.62 11.529 132.62 12.169C132.62 12.799 132.1 13.319 131.46 13.309C130.83 13.309 130.31 12.789 130.32 12.149H130.31ZM130.27 19.059C130.27 18.429 130.8 17.909 131.43 17.919C132.06 17.919 132.58 18.439 132.57 19.079C132.57 19.709 132.05 20.229 131.41 20.219C130.78 20.219 130.26 19.699 130.27 19.059ZM130.23 25.969C130.23 25.339 130.76 24.819 131.39 24.829C132.02 24.829 132.54 25.349 132.53 25.989C132.53 26.619 132.01 27.139 131.37 27.129C130.74 27.129 130.22 26.609 130.23 25.969ZM130.19 32.879C130.19 32.249 130.72 31.729 131.35 31.739C131.98 31.749 132.5 32.259 132.5 32.899C132.5 33.529 131.97 34.049 131.34 34.039C130.71 34.039 130.19 33.519 130.19 32.879ZM130.15 39.789C130.15 39.159 130.67 38.639 131.31 38.649C131.94 38.649 132.46 39.169 132.46 39.809C132.46 40.439 131.93 40.959 131.3 40.949C130.67 40.939 130.15 40.429 130.16 39.789H130.15ZM125.13 12.129C125.13 13.399 125.52 14.609 126.09 15.589C125.51 16.619 125.1 17.769 125.09 19.039C125.09 20.309 125.48 21.519 126.05 22.499C125.47 23.529 125.06 24.679 125.05 25.949C125.05 27.219 125.44 28.429 126.01 29.409C125.43 30.439 125.02 31.589 125.01 32.859C125.01 34.129 125.4 35.339 125.97 36.319C125.39 37.349 124.98 38.499 124.97 39.769C124.95 43.279 127.75 46.119 131.26 46.139C132.53 46.139 133.68 45.749 134.72 45.179C135.69 45.759 136.9 46.169 138.17 46.179C139.44 46.179 140.59 45.789 141.63 45.219C142.6 45.799 143.81 46.209 145.08 46.219C148.59 46.239 151.43 43.439 151.45 39.929C151.45 39.759 151.45 39.529 151.4 39.349H152.03C155.54 39.369 158.38 36.569 158.4 33.059C158.42 29.549 155.62 26.709 152.11 26.689C151.88 26.689 151.71 26.689 151.48 26.739C151.54 26.509 151.54 26.339 151.54 26.109C151.54 25.939 151.54 25.709 151.49 25.529H152.12C155.63 25.549 158.47 22.749 158.49 19.239C158.51 15.729 155.71 12.889 152.2 12.869C151.97 12.869 151.8 12.869 151.57 12.919C151.63 12.689 151.63 12.519 151.63 12.289C151.65 8.77901 148.85 5.93901 145.34 5.91901C144.07 5.91901 142.86 6.30901 141.88 6.93901C140.85 6.29901 139.7 5.88901 138.43 5.87901C137.16 5.87901 135.95 6.26901 134.97 6.89901C133.94 6.25901 132.79 5.84901 131.52 5.83901C128.01 5.81901 125.17 8.61901 125.15 12.129H125.13ZM145.81 19.159V19.789C145.63 19.729 145.4 19.729 145.23 19.729C143.96 19.729 142.75 20.119 141.77 20.749C140.74 20.109 139.59 19.699 138.32 19.689C138.09 19.689 137.92 19.689 137.69 19.739C137.75 19.509 137.75 19.339 137.75 19.109C137.75 18.939 137.75 18.709 137.7 18.529H138.33C139.6 18.539 140.75 18.199 141.79 17.579C142.77 18.219 143.97 18.569 145.24 18.579H145.82V19.159H145.81ZM145.73 32.969V33.599C145.55 33.539 145.32 33.539 145.15 33.539C143.88 33.539 142.67 33.929 141.69 34.559C140.66 33.919 139.51 33.509 138.24 33.499C138.01 33.499 137.84 33.499 137.61 33.549C137.67 33.319 137.67 33.149 137.67 32.919C137.67 32.749 137.67 32.519 137.62 32.339H138.25C139.52 32.349 140.67 32.009 141.71 31.389C142.69 32.029 143.89 32.379 145.16 32.389H145.73V32.969ZM186.18 12.489C186.18 11.859 186.71 11.339 187.34 11.349C187.97 11.349 188.49 11.869 188.48 12.509C188.48 13.139 187.96 13.659 187.32 13.649C186.69 13.649 186.17 13.129 186.18 12.489ZM186.14 19.399C186.14 18.769 186.67 18.249 187.3 18.259C187.93 18.259 188.45 18.779 188.44 19.419C188.44 20.049 187.92 20.569 187.28 20.559C186.65 20.559 186.13 20.039 186.14 19.399ZM186.1 26.309C186.1 25.679 186.63 25.159 187.26 25.169C187.89 25.169 188.41 25.689 188.4 26.329C188.4 26.959 187.88 27.479 187.24 27.469C186.61 27.469 186.09 26.949 186.09 26.309H186.1ZM186.06 33.219C186.06 32.589 186.58 32.069 187.22 32.079C187.85 32.079 188.37 32.599 188.37 33.239C188.37 33.869 187.85 34.389 187.21 34.379C186.58 34.379 186.06 33.859 186.07 33.219H186.06ZM186.02 40.129C186.02 39.499 186.54 38.979 187.18 38.989C187.81 38.989 188.33 39.509 188.32 40.149C188.31 40.789 187.8 41.299 187.16 41.289C186.53 41.289 186.01 40.769 186.02 40.129ZM179.28 12.459C179.28 11.829 179.81 11.309 180.44 11.319C181.07 11.319 181.59 11.839 181.58 12.479C181.58 13.109 181.06 13.629 180.42 13.619C179.79 13.619 179.27 13.099 179.27 12.459H179.28ZM179.16 33.179C179.16 32.549 179.68 32.029 180.32 32.039C180.95 32.039 181.47 32.559 181.46 33.199C181.46 33.829 180.93 34.349 180.3 34.339C179.67 34.339 179.15 33.819 179.16 33.179ZM172.34 19.329C172.34 18.699 172.86 18.179 173.5 18.189C174.13 18.189 174.65 18.709 174.64 19.349C174.64 19.979 174.11 20.499 173.48 20.489C172.85 20.489 172.33 19.969 172.34 19.329ZM172.26 33.139C172.26 32.509 172.78 31.989 173.42 31.999C174.05 31.999 174.57 32.519 174.57 33.159C174.57 33.789 174.05 34.309 173.41 34.299C172.78 34.299 172.26 33.779 172.27 33.139H172.26ZM165.39 26.189C165.39 25.559 165.92 25.039 166.55 25.049C167.18 25.049 167.7 25.569 167.69 26.209C167.68 26.849 167.17 27.359 166.53 27.349C165.9 27.349 165.38 26.829 165.39 26.189ZM165.35 33.099C165.35 32.469 165.88 31.949 166.51 31.959C167.14 31.959 167.66 32.479 167.65 33.119C167.65 33.749 167.13 34.269 166.49 34.259C165.86 34.259 165.34 33.739 165.35 33.099ZM165.31 40.009C165.31 39.379 165.84 38.859 166.47 38.869C167.1 38.869 167.62 39.389 167.61 40.029C167.61 40.659 167.09 41.179 166.45 41.169C165.82 41.169 165.3 40.649 165.3 40.009H165.31ZM174.11 12.429V13.059C173.93 12.999 173.7 12.999 173.53 12.999C170.02 12.979 167.18 15.779 167.16 19.289V19.919C166.98 19.859 166.75 19.859 166.58 19.859C163.07 19.839 160.23 22.639 160.21 26.149C160.21 27.419 160.6 28.629 161.17 29.609C160.59 30.639 160.18 31.789 160.17 33.059C160.17 34.329 160.56 35.539 161.13 36.519C160.55 37.549 160.14 38.699 160.13 39.969C160.11 43.479 162.91 46.319 166.42 46.339C169.93 46.359 172.77 43.559 172.79 40.049C172.79 39.879 172.79 39.649 172.74 39.469H173.37C174.64 39.479 175.79 39.139 176.83 38.519C177.8 39.159 179.01 39.509 180.28 39.519H180.85V40.099C180.83 43.609 183.63 46.449 187.14 46.469C190.65 46.489 193.49 43.689 193.51 40.179C193.51 38.909 193.12 37.759 192.49 36.719C193.13 35.749 193.54 34.539 193.55 33.269C193.55 31.999 193.16 30.849 192.53 29.809C193.17 28.839 193.58 27.629 193.59 26.359C193.59 25.089 193.2 23.939 192.58 22.899C193.22 21.929 193.63 20.719 193.64 19.449C193.64 18.179 193.25 17.029 192.63 15.989C193.27 15.019 193.68 13.809 193.69 12.539C193.71 9.02901 190.91 6.18901 187.4 6.16901C186.13 6.16901 184.92 6.55901 183.94 7.18901C182.91 6.54901 181.76 6.13901 180.49 6.12901C176.98 6.10901 174.14 8.90901 174.12 12.419L174.11 12.429ZM180.93 26.279V26.909C180.75 26.849 180.52 26.849 180.35 26.849C179.08 26.849 177.87 27.239 176.89 27.869C175.86 27.229 174.71 26.819 173.44 26.809C173.21 26.809 173.04 26.809 172.81 26.859C172.87 26.629 172.87 26.459 172.87 26.229C172.87 26.059 172.87 25.829 172.82 25.649H173.45C176.96 25.669 179.8 22.869 179.82 19.359C179.82 19.189 179.82 18.959 179.77 18.779H180.4H180.98V19.359C180.97 20.629 181.31 21.839 181.93 22.819C181.29 23.849 180.94 24.999 180.93 26.269V26.279ZM221.3 19.609C221.3 18.979 221.82 18.459 222.46 18.469C223.09 18.469 223.61 18.989 223.6 19.629C223.6 20.259 223.08 20.779 222.44 20.769C221.81 20.769 221.29 20.249 221.3 19.609ZM221.22 33.419C221.22 32.789 221.75 32.269 222.38 32.279C223.01 32.279 223.53 32.799 223.52 33.439C223.52 34.069 223 34.589 222.36 34.579C221.73 34.579 221.21 34.059 221.21 33.419H221.22ZM214.44 12.659C214.44 12.029 214.96 11.509 215.6 11.519C216.23 11.519 216.75 12.039 216.74 12.679C216.73 13.319 216.21 13.829 215.58 13.819C214.95 13.819 214.43 13.299 214.44 12.659ZM214.28 40.289C214.28 39.659 214.8 39.139 215.44 39.149C216.07 39.149 216.59 39.669 216.58 40.309C216.58 40.939 216.05 41.459 215.42 41.449C214.79 41.449 214.27 40.929 214.28 40.289ZM207.54 12.619C207.54 11.989 208.06 11.469 208.7 11.479C209.33 11.479 209.85 11.999 209.84 12.639C209.84 13.269 209.32 13.789 208.68 13.779C208.05 13.779 207.53 13.259 207.53 12.619H207.54ZM207.38 40.249C207.38 39.619 207.91 39.099 208.54 39.109C209.17 39.119 209.69 39.629 209.69 40.269C209.69 40.899 209.17 41.419 208.53 41.409C207.9 41.409 207.38 40.889 207.38 40.249ZM200.6 19.489C200.6 18.859 201.13 18.339 201.76 18.349C202.39 18.359 202.91 18.869 202.9 19.509C202.9 20.139 202.38 20.659 201.74 20.649C201.11 20.649 200.59 20.129 200.6 19.489ZM200.56 26.399C200.56 25.769 201.09 25.249 201.72 25.259C202.35 25.259 202.87 25.779 202.87 26.419C202.87 27.049 202.34 27.569 201.71 27.559C201.08 27.559 200.56 27.039 200.56 26.399ZM200.52 33.309C200.52 32.679 201.04 32.159 201.68 32.169C202.31 32.169 202.83 32.689 202.82 33.329C202.82 33.959 202.29 34.479 201.66 34.469C201.03 34.469 200.51 33.949 200.52 33.309ZM202.37 12.599V13.229C202.19 13.169 201.96 13.169 201.79 13.169C198.28 13.149 195.44 15.949 195.42 19.459C195.42 20.729 195.81 21.939 196.38 22.919C195.8 23.949 195.39 25.099 195.38 26.369C195.38 27.639 195.77 28.849 196.34 29.829C195.76 30.859 195.35 32.009 195.34 33.279C195.32 36.789 198.12 39.629 201.63 39.649H202.21V40.229C202.19 43.739 204.99 46.579 208.5 46.599C209.77 46.599 210.92 46.209 211.96 45.639C212.93 46.219 214.14 46.629 215.41 46.639C218.92 46.659 221.76 43.859 221.78 40.349C221.78 40.179 221.78 39.949 221.73 39.769H222.36C225.87 39.789 228.71 36.989 228.73 33.479C228.75 29.969 225.95 27.129 222.44 27.109C218.93 27.089 216.09 29.889 216.07 33.399V34.029C215.89 33.969 215.66 33.969 215.49 33.969C214.22 33.969 213.01 34.359 212.03 34.989C211 34.349 209.85 33.939 208.58 33.929C208.35 33.929 208.18 33.929 207.95 33.979C208.01 33.749 208.01 33.579 208.01 33.349C208.01 32.079 207.62 30.929 206.99 29.889C207.63 28.919 208.04 27.709 208.05 26.439C208.05 25.169 207.66 24.019 207.04 22.979C207.68 22.009 208.09 20.799 208.1 19.529C208.1 19.359 208.1 19.129 208.05 18.949H208.68C209.95 18.959 211.1 18.619 212.14 17.999C213.12 18.639 214.32 18.989 215.59 18.999H216.16V19.579C216.14 23.089 218.94 25.929 222.45 25.949C225.96 25.969 228.8 23.169 228.82 19.659C228.84 16.149 226.04 13.309 222.53 13.289C222.3 13.289 222.13 13.289 221.9 13.339C221.96 13.109 221.96 12.939 221.96 12.709C221.98 9.19901 219.18 6.35901 215.67 6.33901C214.4 6.33901 213.19 6.72901 212.21 7.35901C211.18 6.71901 210.03 6.30901 208.76 6.29901C205.25 6.27901 202.41 9.07901 202.39 12.589L202.37 12.599ZM256.51 12.919C256.51 12.289 257.03 11.769 257.67 11.779C258.3 11.779 258.82 12.299 258.81 12.939C258.81 13.569 258.29 14.089 257.65 14.079C257.02 14.079 256.5 13.559 256.51 12.919ZM256.35 40.549C256.35 39.919 256.87 39.399 257.51 39.409C258.14 39.409 258.66 39.929 258.65 40.569C258.65 41.199 258.13 41.719 257.49 41.709C256.86 41.709 256.34 41.189 256.35 40.549ZM249.57 19.789C249.57 19.159 250.09 18.639 250.73 18.649C251.36 18.649 251.88 19.169 251.87 19.809C251.87 20.439 251.35 20.959 250.71 20.949C250.08 20.949 249.56 20.429 249.57 19.789ZM249.49 33.599C249.49 32.969 250.01 32.449 250.65 32.459C251.29 32.469 251.8 32.979 251.8 33.619C251.8 34.249 251.27 34.769 250.64 34.759C250.01 34.759 249.49 34.239 249.5 33.599H249.49ZM242.63 26.649C242.63 26.019 243.15 25.499 243.79 25.509C244.42 25.509 244.94 26.029 244.94 26.669C244.94 27.299 244.41 27.819 243.78 27.809C243.15 27.799 242.63 27.289 242.64 26.649H242.63ZM235.8 12.799C235.8 12.169 236.32 11.649 236.96 11.659C237.59 11.659 238.11 12.179 238.1 12.819C238.1 13.449 237.58 13.969 236.94 13.959C236.31 13.959 235.79 13.439 235.8 12.799ZM235.76 19.709C235.76 19.079 236.29 18.559 236.92 18.569C237.55 18.569 238.07 19.089 238.06 19.729C238.06 20.359 237.54 20.879 236.9 20.869C236.27 20.869 235.75 20.349 235.76 19.709ZM235.72 26.619C235.72 25.989 236.24 25.469 236.88 25.479C237.51 25.479 238.03 25.999 238.02 26.639C238.02 27.269 237.5 27.789 236.86 27.779C236.23 27.779 235.71 27.259 235.72 26.619ZM235.68 33.529C235.68 32.899 236.2 32.379 236.84 32.389C237.48 32.399 237.99 32.909 237.98 33.549C237.98 34.179 237.46 34.699 236.82 34.689C236.19 34.689 235.67 34.169 235.68 33.529ZM235.64 40.439C235.64 39.809 236.16 39.289 236.8 39.299C237.43 39.299 237.95 39.819 237.95 40.459C237.95 41.089 237.43 41.609 236.79 41.599C236.16 41.599 235.64 41.079 235.65 40.439H235.64ZM244.4 19.769V20.399C244.22 20.339 243.99 20.339 243.82 20.339C243.59 20.339 243.42 20.339 243.19 20.389C243.25 20.159 243.25 19.989 243.25 19.759C243.25 18.489 242.86 17.339 242.23 16.299C242.87 15.329 243.28 14.119 243.29 12.849C243.31 9.33901 240.51 6.49901 237 6.47901C233.49 6.45901 230.65 9.25901 230.63 12.769C230.63 14.039 231.02 15.249 231.59 16.229C231.01 17.259 230.6 18.409 230.59 19.679C230.59 20.949 230.98 22.159 231.55 23.139C230.97 24.169 230.56 25.319 230.55 26.589C230.55 27.859 230.94 29.069 231.51 30.049C230.93 31.079 230.52 32.229 230.51 33.499C230.51 34.769 230.9 35.979 231.47 36.959C230.89 37.989 230.48 39.139 230.47 40.409C230.45 43.919 233.25 46.759 236.76 46.779C240.27 46.799 243.11 43.999 243.13 40.489C243.13 39.219 242.74 38.069 242.11 37.029C242.75 36.059 243.16 34.849 243.17 33.579C243.17 33.409 243.17 33.179 243.12 32.999H243.75H244.33V33.579C244.31 37.089 247.11 39.929 250.62 39.949H251.2V40.529C251.18 44.039 253.98 46.879 257.49 46.899C261 46.919 263.84 44.119 263.86 40.609C263.88 37.099 261.08 34.259 257.57 34.239C257.34 34.239 257.17 34.239 256.94 34.289C257 34.059 257 33.889 257 33.659C257.02 30.149 254.22 27.309 250.71 27.289C250.48 27.289 250.31 27.289 250.08 27.339C250.14 27.109 250.14 26.939 250.14 26.709C250.14 26.539 250.14 26.309 250.09 26.129H250.72C254.23 26.149 257.07 23.349 257.09 19.839C257.09 19.669 257.09 19.439 257.04 19.259H257.67C261.18 19.279 264.02 16.479 264.04 12.969C264.06 9.45901 261.26 6.61901 257.75 6.59901C254.24 6.57901 251.4 9.37901 251.38 12.889V13.519C251.2 13.459 250.97 13.459 250.8 13.459C247.29 13.439 244.45 16.239 244.43 19.749L244.4 19.769ZM66.0403 64.719C66.0403 64.089 66.5603 63.569 67.2003 63.579C67.8303 63.579 68.3503 64.099 68.3403 64.739C68.3303 65.379 67.8203 65.889 67.1803 65.879C66.5503 65.879 66.0303 65.359 66.0403 64.719ZM59.1703 57.769C59.1703 57.139 59.6903 56.619 60.3303 56.629C60.9603 56.629 61.4803 57.149 61.4703 57.789C61.4703 58.419 60.9503 58.939 60.3103 58.929C59.6803 58.929 59.1603 58.409 59.1703 57.769ZM59.0903 71.579C59.0903 70.949 59.6103 70.429 60.2503 70.439C60.8803 70.439 61.4003 70.959 61.3903 71.599C61.3903 72.229 60.8703 72.749 60.2303 72.739C59.6003 72.739 59.0803 72.219 59.0903 71.579ZM52.2603 57.729C52.2603 57.099 52.7803 56.579 53.4203 56.589C54.0503 56.589 54.5703 57.109 54.5603 57.749C54.5603 58.379 54.0403 58.899 53.4003 58.889C52.7703 58.889 52.2503 58.369 52.2603 57.729ZM52.1803 71.539C52.1803 70.909 52.7003 70.389 53.3403 70.399C53.9703 70.399 54.4903 70.919 54.4803 71.559C54.4703 72.199 53.9603 72.709 53.3203 72.699C52.6903 72.699 52.1703 72.179 52.1803 71.539ZM45.3603 57.689C45.3603 57.059 45.8803 56.539 46.5203 56.549C47.1503 56.549 47.6703 57.069 47.6603 57.709C47.6603 58.339 47.1403 58.859 46.5003 58.849C45.8703 58.849 45.3503 58.329 45.3603 57.689ZM45.3203 64.599C45.3203 63.969 45.8403 63.449 46.4803 63.459C47.1103 63.459 47.6303 63.979 47.6203 64.619C47.6203 65.249 47.1003 65.769 46.4603 65.759C45.8303 65.759 45.3103 65.239 45.3203 64.599ZM45.2803 71.509C45.2803 70.879 45.8003 70.359 46.4403 70.369C47.0703 70.369 47.5903 70.889 47.5803 71.529C47.5803 72.159 47.0603 72.679 46.4203 72.669C45.7903 72.669 45.2703 72.149 45.2803 71.509ZM45.2403 78.419C45.2403 77.789 45.7603 77.269 46.4003 77.279C47.0303 77.279 47.5503 77.799 47.5403 78.439C47.5403 79.069 47.0203 79.589 46.3803 79.579C45.7503 79.579 45.2303 79.059 45.2403 78.419ZM45.2003 85.329C45.2003 84.699 45.7203 84.179 46.3603 84.189C46.9903 84.189 47.5103 84.709 47.5003 85.349C47.5003 85.979 46.9803 86.499 46.3403 86.489C45.7103 86.489 45.1903 85.969 45.2003 85.329ZM40.1803 57.669C40.1803 58.939 40.5703 60.149 41.1403 61.129C40.5603 62.159 40.1503 63.309 40.1403 64.579C40.1403 65.849 40.5303 67.059 41.1003 68.039C40.5203 69.069 40.1103 70.219 40.1003 71.489C40.1003 72.759 40.4903 73.969 41.0603 74.949C40.4803 75.979 40.0703 77.129 40.0603 78.399C40.0603 79.669 40.4503 80.879 41.0203 81.859C40.4403 82.889 40.0303 84.039 40.0203 85.309C40.0003 88.819 42.8003 91.659 46.3103 91.679C49.8203 91.699 52.6603 88.899 52.6803 85.389C52.6803 84.119 52.2903 82.969 51.6603 81.929C52.3003 80.959 52.7103 79.749 52.7203 78.479C52.7203 78.309 52.7203 78.079 52.6703 77.899H53.3003C54.5703 77.909 55.7203 77.569 56.7603 76.949C57.7303 77.589 58.9403 77.939 60.2103 77.949C63.7203 77.969 66.5603 75.169 66.5803 71.659C66.5803 71.489 66.5803 71.259 66.5303 71.079H67.1603C70.6703 71.099 73.5103 68.299 73.5303 64.789C73.5503 61.279 70.7503 58.439 67.2403 58.419C67.0103 58.419 66.8403 58.419 66.6103 58.469C66.6703 58.239 66.6703 58.069 66.6703 57.839C66.6903 54.329 63.8903 51.489 60.3803 51.469C59.1103 51.469 57.9003 51.859 56.9203 52.489C55.8903 51.849 54.7403 51.439 53.4703 51.429C52.2003 51.429 50.9903 51.819 50.0103 52.449C48.9803 51.809 47.8303 51.399 46.5603 51.389C43.0503 51.369 40.2103 54.169 40.1903 57.679L40.1803 57.669ZM60.8603 64.699V65.329C60.6803 65.269 60.4503 65.269 60.2803 65.269C59.0103 65.269 57.8003 65.659 56.8203 66.289C55.7903 65.649 54.6403 65.239 53.3703 65.229C53.1403 65.229 52.9703 65.229 52.7403 65.279C52.8003 65.049 52.8003 64.879 52.8003 64.649C52.8003 64.479 52.8003 64.249 52.7503 64.069H53.3803C54.6503 64.079 55.8003 63.739 56.8403 63.119C57.8103 63.759 59.0203 64.109 60.2903 64.119H60.8703V64.699H60.8603ZM94.1603 85.619C94.1603 84.989 94.6903 84.469 95.3203 84.479C95.9503 84.479 96.4703 84.999 96.4703 85.639C96.4703 86.269 95.9403 86.789 95.3103 86.779C94.6803 86.779 94.1603 86.259 94.1703 85.619H94.1603ZM87.2503 85.579C87.2503 84.949 87.7703 84.429 88.4103 84.439C89.0403 84.439 89.5603 84.959 89.5503 85.599C89.5503 86.229 89.0303 86.749 88.3903 86.739C87.7503 86.729 87.2403 86.219 87.2503 85.579ZM80.5103 57.909C80.5103 57.279 81.0403 56.759 81.6703 56.769C82.3003 56.769 82.8203 57.289 82.8203 57.929C82.8203 58.559 82.2903 59.079 81.6603 59.069C81.0303 59.069 80.5103 58.549 80.5103 57.909ZM80.4703 64.819C80.4703 64.189 80.9903 63.669 81.6303 63.679C82.2603 63.679 82.7803 64.199 82.7703 64.839C82.7703 65.469 82.2403 65.989 81.6103 65.979C80.9803 65.979 80.4603 65.459 80.4703 64.819ZM80.4303 71.729C80.4303 71.099 80.9603 70.579 81.5903 70.589C82.2203 70.589 82.7403 71.109 82.7303 71.749C82.7303 72.379 82.2003 72.899 81.5703 72.889C80.9403 72.889 80.4203 72.369 80.4303 71.729ZM80.3903 78.639C80.3903 78.009 80.9203 77.489 81.5503 77.499C82.1803 77.499 82.7003 78.019 82.6903 78.659C82.6903 79.289 82.1703 79.809 81.5303 79.799C80.9003 79.799 80.3803 79.279 80.3803 78.639H80.3903ZM80.3503 85.549C80.3503 84.919 80.8803 84.399 81.5103 84.409C82.1403 84.409 82.6603 84.929 82.6503 85.569C82.6503 86.199 82.1203 86.719 81.4903 86.709C80.8603 86.709 80.3403 86.189 80.3403 85.549H80.3503ZM75.3303 57.889C75.3303 59.159 75.7203 60.369 76.2903 61.349C75.7103 62.379 75.3003 63.529 75.2903 64.799C75.2903 66.069 75.6803 67.279 76.2503 68.259C75.6703 69.289 75.2603 70.439 75.2503 71.709C75.2503 72.979 75.6403 74.189 76.2103 75.169C75.6303 76.199 75.2203 77.349 75.2103 78.619C75.2003 79.889 75.6003 81.099 76.1703 82.079C75.5903 83.109 75.1803 84.259 75.1703 85.529C75.1503 89.039 77.9503 91.879 81.4603 91.899C82.7303 91.899 83.8803 91.509 84.9203 90.939C85.8903 91.519 87.1003 91.929 88.3703 91.939C89.6403 91.949 90.7903 91.549 91.8303 90.979C92.8003 91.559 94.0103 91.969 95.2803 91.979C98.7903 91.999 101.63 89.199 101.65 85.689C101.67 82.179 98.8703 79.339 95.3603 79.319C94.0903 79.319 92.8803 79.709 91.9003 80.339C90.8703 79.699 89.7203 79.289 88.4503 79.279C88.2203 79.279 88.0503 79.279 87.8203 79.329C87.8803 79.099 87.8803 78.929 87.8803 78.699C87.8803 77.429 87.4903 76.279 86.8703 75.239C87.5103 74.269 87.9203 73.059 87.9303 71.789C87.9303 70.519 87.5403 69.369 86.9103 68.329C87.5503 67.359 87.9603 66.149 87.9703 64.879C87.9703 63.609 87.5803 62.459 86.9503 61.419C87.5903 60.449 88.0003 59.239 88.0103 57.969C88.0303 54.459 85.2303 51.619 81.7203 51.599C78.2103 51.579 75.3703 54.379 75.3503 57.889H75.3303ZM108.76 58.089C108.76 57.459 109.28 56.939 109.92 56.949C110.55 56.949 111.07 57.469 111.06 58.109C111.06 58.739 110.54 59.259 109.9 59.249C109.27 59.249 108.75 58.729 108.76 58.089ZM108.6 85.719C108.6 85.089 109.12 84.569 109.76 84.579C110.39 84.579 110.91 85.099 110.91 85.739C110.91 86.369 110.39 86.889 109.75 86.879C109.12 86.879 108.6 86.359 108.61 85.719H108.6ZM122.58 58.179C122.58 57.549 123.1 57.029 123.74 57.039C124.37 57.039 124.89 57.559 124.88 58.199C124.88 58.829 124.36 59.349 123.72 59.339C123.09 59.339 122.57 58.819 122.58 58.179ZM122.5 71.989C122.5 71.359 123.03 70.839 123.66 70.849C124.29 70.859 124.81 71.369 124.8 72.009C124.8 72.639 124.28 73.159 123.64 73.149C123.01 73.149 122.49 72.629 122.5 71.989ZM122.42 85.799C122.42 85.169 122.94 84.649 123.58 84.659C124.21 84.659 124.73 85.179 124.72 85.819C124.71 86.459 124.19 86.969 123.56 86.959C122.93 86.959 122.41 86.439 122.42 85.799ZM115.68 58.129C115.68 57.499 116.21 56.979 116.84 56.989C117.47 56.989 117.99 57.509 117.98 58.149C117.98 58.779 117.46 59.299 116.82 59.289C116.19 59.289 115.67 58.769 115.68 58.129ZM115.6 71.939C115.6 71.309 116.12 70.789 116.76 70.799C117.39 70.799 117.91 71.319 117.91 71.959C117.91 72.589 117.38 73.109 116.75 73.099C116.12 73.099 115.6 72.579 115.61 71.939H115.6ZM115.52 85.749C115.52 85.119 116.04 84.599 116.68 84.609C117.31 84.609 117.83 85.129 117.82 85.769C117.82 86.399 117.29 86.919 116.66 86.909C116.03 86.909 115.51 86.389 115.52 85.749ZM108.74 64.989C108.74 64.359 109.26 63.839 109.9 63.849C110.54 63.859 111.05 64.369 111.04 65.009C111.04 65.639 110.52 66.159 109.88 66.149C109.25 66.149 108.73 65.629 108.74 64.989ZM108.7 71.899C108.7 71.269 109.22 70.749 109.86 70.759C110.49 70.759 111.01 71.279 111 71.919C111 72.549 110.48 73.069 109.84 73.059C109.21 73.059 108.69 72.539 108.7 71.899ZM108.66 78.809C108.66 78.179 109.18 77.659 109.82 77.669C110.45 77.669 110.97 78.189 110.97 78.829C110.97 79.459 110.45 79.979 109.81 79.969C109.18 79.969 108.66 79.449 108.67 78.809H108.66ZM103.56 64.969C103.56 66.239 103.95 67.449 104.52 68.429C103.94 69.459 103.53 70.609 103.52 71.879C103.52 73.149 103.91 74.359 104.48 75.339C103.9 76.369 103.49 77.519 103.48 78.789C103.48 80.059 103.87 81.269 104.44 82.249C103.86 83.279 103.45 84.429 103.44 85.699C103.42 89.209 106.22 92.049 109.73 92.069C111 92.069 112.15 91.679 113.19 91.109C114.16 91.689 115.37 92.099 116.64 92.109C117.91 92.109 119.06 91.719 120.1 91.149C121.07 91.729 122.28 92.139 123.55 92.149C127.06 92.169 129.9 89.369 129.92 85.859C129.94 82.349 127.14 79.509 123.63 79.489C122.36 79.489 121.15 79.879 120.17 80.509C119.14 79.869 117.99 79.459 116.72 79.449C116.49 79.449 116.32 79.449 116.09 79.499C116.15 79.269 116.15 79.099 116.15 78.869C116.15 78.699 116.15 78.469 116.1 78.289H116.73C118 78.299 119.15 77.959 120.19 77.339C121.17 77.979 122.37 78.329 123.64 78.339C127.15 78.359 129.99 75.559 130.01 72.049C130.03 68.539 127.23 65.699 123.72 65.679C122.45 65.679 121.24 66.069 120.26 66.699C119.23 66.059 118.08 65.649 116.81 65.639C116.58 65.639 116.41 65.639 116.18 65.689C116.24 65.459 116.24 65.289 116.24 65.059C116.24 64.889 116.24 64.659 116.19 64.479H116.82C118.09 64.489 119.24 64.149 120.28 63.529C121.26 64.169 122.46 64.519 123.73 64.529C127.24 64.549 130.08 61.749 130.1 58.239C130.12 54.729 127.32 51.889 123.81 51.869C122.54 51.869 121.33 52.259 120.35 52.889C119.32 52.249 118.17 51.839 116.9 51.829C115.63 51.829 114.42 52.219 113.44 52.849C112.41 52.209 111.26 51.799 109.99 51.789C106.48 51.769 103.64 54.569 103.62 58.079C103.62 59.349 104.01 60.559 104.58 61.539C104 62.569 103.59 63.719 103.58 64.989L103.56 64.969ZM157.75 58.379C157.75 57.749 158.28 57.229 158.91 57.239C159.54 57.249 160.06 57.759 160.05 58.399C160.05 59.029 159.53 59.549 158.89 59.539C158.26 59.539 157.74 59.019 157.74 58.379H157.75ZM157.71 65.289C157.71 64.659 158.23 64.139 158.87 64.149C159.5 64.149 160.02 64.669 160.02 65.309C160.02 65.939 159.49 66.459 158.86 66.449C158.23 66.449 157.71 65.929 157.72 65.289H157.71ZM157.67 72.199C157.67 71.569 158.19 71.049 158.83 71.059C159.46 71.059 159.98 71.579 159.97 72.219C159.96 72.859 159.44 73.369 158.81 73.359C158.18 73.349 157.66 72.839 157.67 72.199ZM157.63 79.109C157.63 78.479 158.15 77.959 158.79 77.969C159.42 77.969 159.94 78.489 159.93 79.129C159.93 79.759 159.4 80.279 158.77 80.269C158.14 80.269 157.62 79.749 157.63 79.109ZM157.59 86.019C157.59 85.389 158.11 84.869 158.75 84.879C159.38 84.879 159.9 85.399 159.89 86.039C159.89 86.669 159.37 87.189 158.73 87.179C158.1 87.179 157.58 86.659 157.58 86.019H157.59ZM150.85 58.349C150.85 57.719 151.37 57.199 152.01 57.209C152.64 57.209 153.16 57.729 153.15 58.369C153.15 58.999 152.62 59.519 151.99 59.509C151.36 59.509 150.84 58.989 150.85 58.349ZM150.73 79.069C150.73 78.439 151.25 77.919 151.89 77.929C152.52 77.929 153.04 78.449 153.04 79.089C153.04 79.719 152.52 80.239 151.88 80.229C151.25 80.229 150.73 79.709 150.74 79.069H150.73ZM143.9 65.219C143.9 64.589 144.42 64.069 145.06 64.079C145.7 64.089 146.21 64.599 146.21 65.239C146.21 65.869 145.69 66.389 145.05 66.379C144.42 66.379 143.9 65.859 143.91 65.219H143.9ZM143.82 79.029C143.82 78.399 144.35 77.879 144.98 77.889C145.61 77.889 146.13 78.409 146.12 79.049C146.12 79.679 145.6 80.199 144.96 80.189C144.33 80.189 143.81 79.669 143.82 79.029ZM136.95 72.079C136.95 71.449 137.47 70.929 138.11 70.939C138.74 70.939 139.26 71.459 139.25 72.099C139.25 72.729 138.73 73.249 138.09 73.239C137.46 73.239 136.94 72.719 136.94 72.079H136.95ZM136.91 78.989C136.91 78.359 137.43 77.839 138.07 77.849C138.7 77.849 139.22 78.369 139.21 79.009C139.21 79.639 138.69 80.159 138.05 80.149C137.42 80.149 136.9 79.629 136.9 78.989H136.91ZM136.87 85.899C136.87 85.269 137.39 84.749 138.03 84.759C138.66 84.759 139.18 85.279 139.17 85.919C139.17 86.549 138.65 87.069 138.01 87.059C137.38 87.059 136.86 86.539 136.87 85.899ZM145.67 58.319V58.949C145.49 58.889 145.26 58.889 145.09 58.889C141.58 58.869 138.74 61.669 138.72 65.179V65.809C138.54 65.749 138.31 65.749 138.14 65.749C134.63 65.729 131.79 68.529 131.77 72.039C131.77 73.309 132.16 74.519 132.73 75.499C132.15 76.529 131.74 77.679 131.73 78.949C131.73 80.219 132.12 81.429 132.69 82.409C132.11 83.439 131.7 84.589 131.69 85.859C131.67 89.369 134.47 92.209 137.98 92.229C141.49 92.249 144.33 89.449 144.35 85.939C144.35 85.769 144.35 85.539 144.3 85.359H144.93C146.2 85.369 147.35 85.029 148.39 84.409C149.36 85.049 150.57 85.399 151.84 85.409H152.42V85.989C152.4 89.499 155.2 92.339 158.71 92.359C162.22 92.379 165.06 89.579 165.08 86.069C165.08 84.799 164.69 83.649 164.07 82.609C164.71 81.639 165.12 80.429 165.13 79.159C165.13 77.889 164.74 76.739 164.11 75.699C164.75 74.729 165.16 73.519 165.17 72.249C165.17 70.979 164.78 69.829 164.15 68.789C164.79 67.819 165.2 66.609 165.21 65.339C165.21 64.069 164.82 62.919 164.19 61.879C164.83 60.909 165.24 59.699 165.25 58.429C165.27 54.919 162.47 52.079 158.96 52.059C157.69 52.059 156.48 52.449 155.5 53.079C154.47 52.439 153.32 52.029 152.05 52.019C148.54 51.999 145.7 54.799 145.68 58.309L145.67 58.319ZM152.49 72.169V72.799C152.31 72.739 152.08 72.739 151.91 72.739C150.64 72.739 149.43 73.129 148.45 73.759C147.42 73.119 146.27 72.709 145 72.699C144.77 72.699 144.6 72.699 144.37 72.749C144.43 72.519 144.43 72.349 144.43 72.119C144.43 71.949 144.43 71.719 144.38 71.539H145.01C148.52 71.559 151.36 68.759 151.38 65.249C151.38 65.079 151.38 64.849 151.33 64.669H151.96H152.54V65.249C152.53 66.519 152.87 67.729 153.5 68.709C152.86 69.739 152.51 70.889 152.5 72.159L152.49 72.169ZM192.9 58.589C192.9 57.959 193.42 57.439 194.06 57.449C194.69 57.449 195.21 57.969 195.2 58.609C195.19 59.249 194.67 59.759 194.04 59.749C193.41 59.749 192.89 59.229 192.9 58.589ZM192.78 79.309C192.78 78.679 193.3 78.159 193.94 78.169C194.57 78.169 195.09 78.689 195.08 79.329C195.08 79.959 194.56 80.479 193.92 80.469C193.29 80.469 192.77 79.949 192.78 79.309ZM185.99 58.549C185.99 57.919 186.51 57.399 187.15 57.409C187.78 57.409 188.3 57.929 188.29 58.569C188.29 59.199 187.77 59.719 187.13 59.709C186.5 59.709 185.98 59.189 185.98 58.549H185.99ZM185.91 72.359C185.91 71.729 186.44 71.209 187.07 71.219C187.7 71.219 188.22 71.739 188.21 72.379C188.21 73.009 187.69 73.529 187.05 73.519C186.42 73.519 185.9 72.999 185.91 72.359ZM185.83 86.169C185.83 85.539 186.36 85.019 186.99 85.029C187.62 85.029 188.14 85.549 188.14 86.189C188.14 86.819 187.61 87.339 186.98 87.329C186.35 87.329 185.83 86.809 185.83 86.169ZM179.09 58.499C179.09 57.869 179.62 57.349 180.25 57.359C180.88 57.359 181.4 57.879 181.39 58.519C181.39 59.149 180.87 59.669 180.23 59.659C179.6 59.659 179.08 59.139 179.09 58.499ZM179.01 72.309C179.01 71.679 179.54 71.159 180.17 71.169C180.8 71.179 181.32 71.689 181.32 72.329C181.32 72.959 180.79 73.479 180.16 73.469C179.53 73.469 179.01 72.949 179.01 72.309ZM178.93 86.119C178.93 85.489 179.45 84.969 180.09 84.979C180.72 84.979 181.24 85.499 181.23 86.139C181.23 86.769 180.7 87.289 180.07 87.279C179.44 87.269 178.92 86.759 178.93 86.119ZM172.15 65.359C172.15 64.729 172.67 64.209 173.31 64.219C173.94 64.219 174.46 64.739 174.45 65.379C174.45 66.009 173.93 66.529 173.29 66.519C172.65 66.509 172.14 65.999 172.15 65.359ZM172.03 86.079C172.03 85.449 172.55 84.929 173.19 84.939C173.82 84.939 174.34 85.459 174.34 86.099C174.34 86.729 173.82 87.249 173.18 87.239C172.55 87.239 172.03 86.719 172.04 86.079H172.03ZM173.92 58.459V59.089C173.74 59.029 173.51 59.029 173.34 59.029C169.83 59.009 166.99 61.809 166.97 65.319C166.95 68.829 169.75 71.669 173.26 71.689H173.84V72.269C173.82 75.779 176.62 78.619 180.13 78.639C181.4 78.639 182.55 78.309 183.59 77.679C184.57 78.319 185.77 78.669 187.04 78.679H187.61V79.259V79.889C187.43 79.829 187.2 79.829 187.03 79.829C185.76 79.829 184.55 80.219 183.57 80.849C182.54 80.209 181.39 79.799 180.12 79.789C178.85 79.789 177.64 80.179 176.66 80.809C175.63 80.169 174.48 79.759 173.21 79.749C169.7 79.729 166.86 82.529 166.84 86.039C166.82 89.549 169.62 92.389 173.13 92.409C174.4 92.409 175.55 92.019 176.59 91.449C177.56 92.029 178.77 92.439 180.04 92.449C181.31 92.449 182.46 92.059 183.5 91.489C184.48 92.069 185.68 92.479 186.95 92.489C190.46 92.509 193.3 89.709 193.32 86.199C193.32 86.029 193.32 85.799 193.27 85.619H193.9C197.41 85.639 200.25 82.839 200.27 79.329C200.29 75.819 197.49 72.979 193.98 72.959C193.75 72.959 193.58 72.959 193.35 73.009C193.41 72.779 193.41 72.609 193.41 72.379C193.43 68.869 190.63 66.029 187.12 66.009C185.85 66.009 184.64 66.399 183.66 67.029C182.63 66.389 181.48 65.979 180.21 65.969C179.98 65.969 179.81 65.969 179.58 66.019C179.64 65.789 179.64 65.619 179.64 65.389C179.64 65.219 179.64 64.989 179.59 64.809H180.22C181.49 64.819 182.64 64.479 183.68 63.859C184.65 64.499 185.86 64.849 187.13 64.859C188.4 64.859 189.55 64.529 190.59 63.899C191.57 64.539 192.77 64.889 194.04 64.899C197.55 64.919 200.39 62.119 200.41 58.609C200.43 55.099 197.63 52.259 194.12 52.239C192.85 52.239 191.64 52.629 190.66 53.259C189.63 52.619 188.48 52.209 187.21 52.199C185.94 52.199 184.73 52.589 183.75 53.219C182.72 52.579 181.57 52.169 180.3 52.159C176.79 52.139 173.95 54.939 173.93 58.449L173.92 58.459ZM207.34 58.659C207.34 58.029 207.86 57.509 208.5 57.519C209.13 57.519 209.65 58.039 209.64 58.679C209.64 59.309 209.11 59.829 208.48 59.819C207.85 59.819 207.33 59.299 207.34 58.659ZM207.18 86.289C207.18 85.659 207.71 85.139 208.34 85.149C208.97 85.149 209.49 85.669 209.48 86.309C209.47 86.949 208.96 87.459 208.32 87.449C207.69 87.449 207.17 86.929 207.18 86.289ZM221.16 58.749C221.16 58.119 221.68 57.599 222.32 57.609C222.95 57.609 223.47 58.129 223.46 58.769C223.46 59.399 222.94 59.919 222.3 59.909C221.67 59.909 221.15 59.389 221.16 58.749ZM221.08 72.559C221.08 71.929 221.6 71.409 222.24 71.419C222.87 71.419 223.39 71.939 223.39 72.579C223.39 73.209 222.87 73.729 222.23 73.719C221.6 73.719 221.08 73.199 221.09 72.559H221.08ZM221 86.369C221 85.739 221.53 85.219 222.16 85.229C222.79 85.229 223.31 85.749 223.3 86.389C223.3 87.019 222.78 87.539 222.14 87.529C221.51 87.529 220.99 87.009 221 86.369ZM214.26 58.699C214.26 58.069 214.78 57.549 215.42 57.559C216.05 57.559 216.57 58.079 216.57 58.719C216.57 59.349 216.04 59.869 215.41 59.859C214.78 59.849 214.26 59.339 214.27 58.699H214.26ZM214.18 72.509C214.18 71.879 214.7 71.359 215.34 71.369C215.97 71.369 216.49 71.889 216.48 72.529C216.47 73.169 215.95 73.679 215.32 73.669C214.69 73.669 214.17 73.149 214.18 72.509ZM214.1 86.319C214.1 85.689 214.62 85.169 215.26 85.179C215.89 85.179 216.41 85.699 216.4 86.339C216.4 86.969 215.88 87.489 215.24 87.479C214.61 87.479 214.09 86.959 214.1 86.319ZM207.31 65.559C207.31 64.929 207.83 64.409 208.47 64.419C209.1 64.419 209.62 64.939 209.61 65.579C209.61 66.209 209.09 66.729 208.45 66.719C207.82 66.719 207.3 66.199 207.3 65.559H207.31ZM207.27 72.469C207.27 71.839 207.79 71.319 208.43 71.329C209.06 71.329 209.58 71.849 209.57 72.489C209.57 73.119 209.05 73.639 208.41 73.629C207.78 73.629 207.26 73.109 207.27 72.469ZM207.23 79.379C207.23 78.749 207.76 78.229 208.39 78.239C209.02 78.239 209.54 78.759 209.53 79.399C209.52 80.039 209.01 80.549 208.37 80.539C207.74 80.539 207.22 80.019 207.23 79.379ZM202.13 65.539C202.13 66.809 202.52 68.019 203.09 68.999C202.51 70.029 202.1 71.179 202.09 72.449C202.09 73.719 202.48 74.929 203.05 75.909C202.47 76.939 202.06 78.089 202.05 79.359C202.05 80.629 202.44 81.839 203.01 82.819C202.43 83.849 202.02 84.999 202.01 86.269C201.99 89.779 204.79 92.619 208.3 92.639C209.57 92.639 210.72 92.249 211.76 91.679C212.73 92.259 213.94 92.669 215.21 92.679C216.48 92.679 217.63 92.289 218.67 91.719C219.65 92.299 220.85 92.709 222.12 92.719C225.63 92.739 228.47 89.939 228.49 86.429C228.51 82.919 225.71 80.079 222.2 80.059C220.93 80.059 219.72 80.449 218.74 81.079C217.71 80.439 216.56 80.029 215.29 80.019C215.06 80.019 214.89 80.019 214.66 80.069C214.72 79.839 214.72 79.669 214.72 79.439C214.72 79.269 214.72 79.039 214.67 78.859H215.3C216.57 78.869 217.72 78.529 218.76 77.909C219.73 78.549 220.94 78.899 222.21 78.909C225.72 78.929 228.56 76.129 228.58 72.619C228.6 69.109 225.8 66.269 222.29 66.249C221.02 66.249 219.81 66.639 218.83 67.269C217.8 66.629 216.65 66.219 215.38 66.209C215.15 66.209 214.98 66.209 214.75 66.259C214.81 66.029 214.81 65.859 214.81 65.629C214.81 65.459 214.81 65.229 214.76 65.049H215.39C216.66 65.059 217.81 64.719 218.85 64.099C219.82 64.739 221.03 65.089 222.3 65.099C225.81 65.119 228.65 62.319 228.67 58.809C228.69 55.299 225.89 52.459 222.38 52.439C221.11 52.439 219.9 52.829 218.92 53.459C217.89 52.819 216.74 52.409 215.47 52.399C214.2 52.399 212.99 52.789 212.01 53.419C210.98 52.779 209.83 52.369 208.56 52.359C205.05 52.339 202.21 55.139 202.19 58.649C202.19 59.919 202.58 61.129 203.15 62.109C202.57 63.139 202.16 64.289 202.15 65.559L202.13 65.539Z" fill="black"/>
</g>
<defs>
<clipPath id="clip0_5899_13210">
<rect width="268.86" height="97.53" fill="white" transform="translate(0 0.109375)"/>
</clipPath>
</defs>
</svg>
