<svg width="151" height="126" viewBox="0 0 151 126" fill="none" xmlns="http://www.w3.org/2000/svg">
<g clip-path="url(#clip0_5899_13201)">
<path d="M143.44 26.7693L140.39 26.7493C141.43 24.9793 141.94 22.9793 141.95 20.9793L142.03 8.1993L142.07 1.1993L135.07 1.1593L118.03 1.0593L111.03 1.0193L110.99 8.0193L110.93 18.3893C108.99 18.8293 107.14 19.7693 105.63 21.2693C103.71 23.1693 102.67 25.5993 102.42 28.0993C101.03 27.2693 99.4903 26.7693 97.9103 26.5893C98.9803 24.7993 99.5103 22.7693 99.5203 20.7393L99.6003 7.9593L99.6403 0.959297L92.6403 0.919297L75.6003 0.819297L68.6003 0.779297L68.5603 7.7793L68.5003 18.1493C66.5603 18.5893 64.7103 19.5293 63.2003 21.0293C61.2803 22.9293 60.2403 25.3593 59.9903 27.8593C58.2103 26.7993 56.1803 26.2793 54.1603 26.2593L24.5003 26.0893L17.5003 26.0493L17.4603 33.0493L17.3603 49.7693L17.3203 56.7693L24.3203 56.8093L42.7203 56.9193L42.7003 60.4493C40.7603 60.8893 38.9103 61.8293 37.4003 63.3293C35.4403 65.2593 34.4003 67.7493 34.1703 70.3093C32.3903 69.2593 30.3703 68.7293 28.3503 68.7193L7.21027 68.5993L0.210273 68.5593L0.170273 75.5593L0.0702734 92.2793L0.0302734 99.2793L7.03027 99.3193L18.6003 99.3893C17.5603 101.159 17.0503 103.159 17.0403 105.159L16.9603 117.939L16.9203 124.939L23.9203 124.979L40.9603 125.079L47.9603 125.119L48.0003 118.119L48.0603 107.719C49.9403 107.259 51.7303 106.339 53.2103 104.879C54.7303 103.379 55.6803 101.549 56.1503 99.6093L61.0503 99.6393C60.0103 101.409 59.5003 103.409 59.4903 105.409L59.4103 118.189L59.3703 125.189L66.3703 125.229L83.4103 125.329L90.4103 125.369L90.4503 118.369L90.5103 107.999C92.4503 107.559 94.3003 106.619 95.8103 105.119C97.3303 103.619 98.2803 101.789 98.7503 99.8493L126 100.009L133 100.049L133.04 93.0493L133.14 76.3193L133.18 69.3193L126.18 69.2793L114.52 69.2093C115.18 68.1293 115.63 66.9593 115.89 65.7493C117.93 65.3293 119.88 64.3793 121.46 62.8093C123.02 61.2693 123.98 59.3793 124.44 57.3793L143.29 57.4893L150.29 57.5293L150.33 50.5293L150.43 33.7993L150.47 26.7993L143.47 26.7593L143.44 26.7693Z" fill="#58C175"/>
<path d="M75.0998 84.3403L75.1198 80.2403C75.1298 77.7203 73.4098 75.9703 70.8798 75.9503L58.0998 75.8703L58.1498 67.1903L62.4098 67.2203C64.9298 67.2303 66.6798 65.5103 66.6998 62.9803L66.7298 58.7203L70.9898 58.7503C73.5098 58.7603 75.2598 57.0403 75.2798 54.5103L75.3098 50.0903L92.3498 50.1903L92.2498 67.3903L87.9898 67.3603C85.4698 67.3503 83.7198 69.0703 83.6998 71.5903L83.6198 84.3703L75.0998 84.3203V84.3403ZM41.0198 84.1403L32.4998 84.0903L32.5198 79.9903C32.5298 77.4703 30.8098 75.7203 28.2898 75.7003L7.1498 75.5803L7.0498 92.3103L32.6098 92.4603L32.5598 100.98L28.2998 100.95C25.7798 100.94 24.0298 102.66 24.0098 105.19L23.9298 117.97L40.9698 118.07L41.0698 101.03L45.1698 101.05C47.6898 101.06 49.4398 99.3403 49.4598 96.8103L49.4898 92.5503L75.0498 92.7003L74.9998 101.22L70.7398 101.19C68.2198 101.18 66.4698 102.9 66.4498 105.43L66.3698 118.21L83.4098 118.31L83.5098 101.27L87.7698 101.3C90.2898 101.31 92.0398 99.5903 92.0598 97.0603L92.0898 92.8003L126.01 93.0003L126.11 76.2803L100.71 76.1303L100.76 67.4503L104.86 67.4703C107.39 67.4803 109.13 65.7603 109.14 63.2403L109.17 58.9803L113.43 59.0103C115.95 59.0203 117.7 57.3003 117.71 54.7703L117.74 50.3503L143.3 50.5003L143.4 33.7803L126.36 33.6803L126.41 25.1603L130.67 25.1903C133.2 25.2003 134.94 23.4803 134.96 20.9503L135.03 8.17031L117.99 8.07031L117.89 25.1103L113.63 25.0803C111.1 25.0703 109.36 26.7903 109.34 29.3203L109.27 41.9403L100.75 41.8903L100.77 37.7903C100.78 35.2703 99.0598 33.5203 96.5398 33.5003L83.9198 33.4303L83.9698 24.9103L88.2298 24.9403C90.7498 24.9503 92.4998 23.2303 92.5198 20.7003L92.5998 7.92031L75.5598 7.82031L75.4598 24.8603L71.1998 24.8303C68.6798 24.8203 66.9298 26.5403 66.9098 29.0603L66.8398 41.6803L58.3198 41.6303L58.3398 37.5303C58.3498 35.0103 56.6298 33.2603 54.0998 33.2403L24.4398 33.0703L24.3398 49.7903L49.7398 49.9403L49.6398 67.1403L45.3798 67.1103C42.8598 67.1003 41.1098 68.8203 41.0898 71.3503L41.0098 84.1303L41.0198 84.1403Z" fill="black"/>
</g>
<defs>
<clipPath id="clip0_5899_13201">
<rect width="150.44" height="124.58" fill="white" transform="translate(0 0.769531)"/>
</clipPath>
</defs>
</svg>
