<svg width="151" height="178" viewBox="0 0 151 178" fill="none" xmlns="http://www.w3.org/2000/svg">
<g clip-path="url(#clip0_5899_13212)">
<path d="M145.31 133.35C148.07 133.35 150.31 131.11 150.31 128.35V120.37C150.31 117.61 148.07 117.77 145.31 117.77V114.98C147 114.18 148.18 112.47 148.18 110.47V90.1896C148.18 88.4196 147.55 86.5996 146.16 85.2096C145.89 84.9396 145.6 84.7196 145.31 84.5096V83.8996C145.61 83.6896 145.89 83.4596 146.16 83.1996C147.55 81.8096 148.18 79.9896 148.18 78.2196V5.10961C148.18 2.34961 145.94 0.109609 143.18 0.109609H135.2C132.44 0.109609 130.2 2.34961 130.2 5.10961V13.7796H120.26V5.10961C120.26 2.34961 118.02 0.109609 115.26 0.109609H107.43C104.67 0.109609 102.43 2.34961 102.43 5.10961V6.07961C101.74 5.39961 100.96 4.90961 100.12 4.57961C99.79 3.68961 99.28 2.84961 98.55 2.11961C97.16 0.729609 95.34 0.0996094 93.57 0.0996094H69.78C68.01 0.0996094 66.19 0.729609 64.8 2.11961C64.08 2.83961 63.57 3.66961 63.24 4.54961C62.36 4.87961 61.53 5.38961 60.81 6.10961V5.09961C60.81 2.33961 58.57 0.0996094 55.81 0.0996094H47.83C47.12 0.0996094 46.44 0.249609 45.83 0.519609C45.22 0.249609 44.54 0.0996094 43.83 0.0996094H35.85C33.09 0.0996094 30.85 2.33961 30.85 5.09961V23.9596H20.91V5.10961C20.91 2.34961 18.67 0.109609 15.91 0.109609H8.07996C5.33996 0.109609 3.09996 2.34961 3.09996 5.10961V78.2296C3.09996 79.9996 3.72996 81.8196 5.11996 83.2096C5.51996 83.6096 5.95996 83.9396 6.41996 84.2196C5.95996 84.4996 5.51996 84.8296 5.11996 85.2296C3.72996 86.6196 3.09996 88.4396 3.09996 90.2096V110.49C3.09996 113.25 5.33996 115.49 8.09996 115.49H11.16V117.83C9.64996 117.99 8.15996 118.62 6.96996 119.8C6.24996 120.52 5.73996 118.95 5.40996 119.83C4.52996 120.16 3.69996 120.67 2.97996 121.39C1.58996 122.78 0.959961 124.6 0.959961 126.37V142.25C0.959961 144.02 1.58996 145.84 2.97996 147.23C3.37996 147.63 3.81996 147.96 4.27996 148.24C3.81996 148.52 3.37996 148.85 2.97996 149.25C1.58996 150.64 0.959961 152.46 0.959961 154.23V172.11C0.959961 174.87 3.19996 177.11 5.95996 177.11H13.94C16.7 177.11 18.94 174.87 18.94 172.11V157.24H37.8C38.92 157.24 39.95 156.86 40.78 156.23V172.11C40.78 174.87 43.02 177.11 45.78 177.11H53.76C56.52 177.11 58.76 174.87 58.76 172.11V143.25C59.33 143.82 59.98 144.26 60.66 144.58V150.24C60.66 152.01 61.29 153.83 62.68 155.22C63.27 155.81 63.94 156.26 64.65 156.58V158.15C64.65 159.92 65.28 161.74 66.67 163.13C67.26 163.72 67.93 164.17 68.64 164.49V166.13C68.64 167.9 69.27 169.72 70.66 171.11C71.26 171.71 71.95 172.16 72.67 172.49C72.86 175.08 75 177.12 77.63 177.12H85.61C88.24 177.12 90.38 175.08 90.57 172.49C91.29 172.16 91.98 171.71 92.58 171.11C93.97 169.72 94.6 167.9 94.6 166.13V164.46C95.28 164.14 95.93 163.7 96.5 163.13C97.89 161.74 98.52 159.92 98.52 158.15V156.58C99.23 156.25 99.9 155.81 100.49 155.22C101.88 153.83 102.51 152.01 102.51 150.24V144.61C103.22 144.28 103.89 143.84 104.48 143.25C104.88 142.85 105.22 142.4 105.49 141.94C105.77 142.4 106.1 142.85 106.5 143.25C106.9 143.65 107.34 143.98 107.8 144.26C107.34 144.54 106.9 144.87 106.5 145.27C105.11 146.66 104.48 148.48 104.48 150.25V166.13C104.48 167.9 105.11 169.72 106.5 171.11C107.22 171.83 108.05 172.34 108.93 172.67C109.26 173.55 109.77 174.38 110.49 175.1C111.88 176.49 113.7 177.12 115.47 177.12H145.31C148.07 177.12 150.31 174.88 150.31 172.12V164.14C150.31 161.38 148.07 159.14 145.31 159.14H122.46V153.26H141.32C144.08 153.26 146.32 151.02 146.32 148.26V140.28C146.32 137.52 144.08 135.28 141.32 135.28H122.46V133.39H145.31V133.35Z" fill="#FFC852"/>
<path d="M8.09973 79.0293V5.9093H15.9297V81.0293H35.8697V5.9093H43.8497V79.0293C43.8497 80.2093 43.0397 81.0193 41.8597 81.0193H39.8697V88.9993H41.8597C43.0397 88.9993 43.8497 89.8093 43.8497 90.9893V113.269H35.8697V88.9993H15.9297V113.269H8.09973V90.9893C8.09973 89.8093 8.90973 88.9993 10.0897 88.9993H12.0097V81.0193H10.0897C8.90973 81.0193 8.09973 80.2093 8.09973 79.0293ZM47.8497 113.269V5.9093H55.8297V113.279H47.8497V113.269ZM63.8097 13.4893V11.4993C63.8097 10.3193 64.6197 9.5093 65.7997 9.5093L67.7897 12.7093V7.5193C67.7897 6.3393 68.5997 5.5293 69.7797 5.5293H93.5697C94.7497 5.5293 95.5597 6.3393 95.5597 7.5193V9.5093H97.4797C98.6597 9.5093 99.4697 10.3193 99.4697 11.4993V13.4893H101.46C102.64 13.4893 103.45 14.2993 103.45 15.4793V25.3793H95.5497V17.4793H93.6297C92.4497 17.4793 91.6397 16.6693 91.6397 15.4893V13.4993H71.7697V15.4893C71.7697 16.6693 70.9597 17.4793 69.7797 17.4793H67.7897V98.9093H69.7797C70.9597 98.9093 71.7697 99.7193 71.7697 100.899V102.889H83.6597V100.899C83.6597 99.7193 84.4697 98.9093 85.6497 98.9093H87.6397V96.9893C87.6397 95.8093 88.4497 94.9993 89.6297 94.9993H95.5397V91.0093H83.5697V83.0293H97.4597C98.6397 83.0293 99.4497 83.8393 99.4497 85.0193V87.0093H101.44C102.62 87.0093 103.43 87.8193 103.43 88.9993V96.8993C103.43 98.0793 102.62 98.8893 101.44 98.8893H99.5197V102.879H101.44C102.62 102.879 103.43 106.089 103.43 107.269V113.249H95.5297V102.949H91.6097V107.339C91.6097 108.519 90.7997 109.329 89.6197 109.329H87.6297V111.249C87.6297 112.429 86.8197 113.239 85.6397 113.239H69.7597C68.5797 113.239 67.7697 112.429 67.7697 111.249V109.259H65.7797C64.5997 109.259 63.7897 108.449 63.7897 107.269V102.949H61.7997C60.6197 102.949 59.8097 102.139 59.8097 100.959V17.8793C59.8097 16.6993 60.6197 13.4893 61.7997 13.4893H63.7897H63.8097ZM107.43 79.0393V5.9093H115.26V81.0293H135.2V5.9093H143.18V79.0293C143.18 80.2093 142.37 81.0193 141.19 81.0193H139.2V88.9993H141.19C142.37 88.9993 143.18 89.8093 143.18 90.9893V113.269H135.2V88.9993H115.26V113.269H107.43V90.9893C107.43 89.8093 108.24 88.9993 109.42 88.9993H111.34V81.0193H109.42C108.24 81.0193 107.43 80.2093 107.43 79.0293V79.0393ZM7.95973 124.359H9.94973V122.369C9.94973 121.189 10.7597 120.379 11.9397 120.379H41.7797V128.359H13.9497V144.239H37.8097V152.219H13.9497V172.089H5.96973V154.209C5.96973 153.029 6.77973 152.219 7.95973 152.219H9.94973V144.239H7.95973C6.77973 144.239 5.96973 143.429 5.96973 142.249V126.369C5.96973 125.189 6.77973 124.379 7.95973 124.379V124.359ZM45.7797 172.079V120.369H53.7597V172.079H45.7797ZM57.7497 130.349V120.379H65.7297V132.349H67.6497C68.8297 132.349 69.6397 133.159 69.6397 134.339V140.249H71.6297C72.8097 140.249 73.6197 141.059 73.6197 142.239V152.209H75.6097C76.7897 152.209 77.5997 153.019 77.5997 154.199V160.109H85.5797V154.199C85.5797 153.019 86.3897 152.209 87.5697 152.209H89.4897V142.239C89.4897 141.059 90.2997 140.249 91.4797 140.249H93.4697V134.339C93.4697 133.159 94.2797 132.349 95.4597 132.349H97.4497V120.379H105.43V130.349C105.43 131.529 104.62 132.339 103.44 132.339H101.45V138.249C101.45 139.429 100.64 140.239 99.4597 140.239H97.4697V150.209C97.4697 151.389 96.6597 152.199 95.4797 152.199H93.4897V158.109C93.4897 159.289 92.6797 160.109 91.4997 160.109H89.5797V166.089C89.5797 167.269 88.7697 168.079 87.5897 168.079H85.5997V172.069H77.6197V168.079H75.6297C74.4497 168.079 73.6397 167.269 73.6397 166.089V160.109H71.6497C70.4697 160.109 69.6597 159.299 69.6597 158.109V152.199H67.6697C66.4897 152.199 65.6797 151.389 65.6797 150.209V140.239H63.7597C62.5797 140.239 61.7697 139.429 61.7697 138.249V132.339H59.7797C58.5997 132.339 57.7897 131.529 57.7897 130.349H57.7497ZM111.47 124.369H113.47V122.379C113.47 121.199 114.28 120.389 115.46 120.389H145.3V128.369H117.45V140.259H141.31V148.239H117.45V164.119H145.3V172.099H115.46C114.28 172.099 113.47 171.289 113.47 170.109V168.109H111.47C110.29 168.109 109.48 167.299 109.48 166.119V150.239C109.48 149.059 110.29 148.249 111.47 148.249H113.47V140.269H111.47C110.29 140.269 109.48 139.459 109.48 138.279V126.389C109.48 125.209 110.29 124.399 111.47 124.399V124.369Z" fill="black"/>
</g>
<defs>
<clipPath id="clip0_5899_13212">
<rect width="149.34" height="176.97" fill="white" transform="translate(0.969727 0.109375)"/>
</clipPath>
</defs>
</svg>
