<svg width="209" height="144" viewBox="0 0 209 144" fill="none" xmlns="http://www.w3.org/2000/svg">
<g clip-path="url(#clip0_5899_13209)">
<path d="M209 106.439C209 102.619 207.62 98.8891 204.5 96.0991C204.5 96.0991 204.43 96.0391 204.4 96.0091C204.38 95.9991 204.37 95.9791 204.35 95.9591C202.26 94.0991 199.79 92.7591 197.21 91.7791C197.18 91.6891 197.15 91.6091 197.12 91.5091C196.89 90.7491 196.58 89.9991 196.39 89.5591C196.35 89.4591 196.3 89.3591 196.26 89.2591C196.26 89.1291 196.27 88.9891 196.27 88.8591C196.27 85.5891 195.45 82.4291 193.75 79.5791C193.72 79.5291 193.69 79.4791 193.66 79.4291C193.63 79.3891 193.61 79.3391 193.59 79.2991C192.17 76.8891 190.26 74.8691 187.94 73.3391C189.11 72.7191 190.2 71.9191 191.18 70.9491C193.7 68.4291 195.17 65.1391 195.17 61.4291C195.17 57.7191 193.78 54.6291 191.32 52.1491C191.27 52.0891 191.22 52.0491 191.17 51.9991C191.12 51.9491 191.08 51.8991 191.03 51.8491C189.66 50.4991 188.07 49.4791 186.32 48.8291C186.57 48.4591 186.8 48.0891 187.03 47.7091C188.75 44.7491 189.59 41.4991 189.59 38.1091C189.59 34.7191 188.75 31.4691 187.03 28.5091C186.81 28.1291 186.58 27.7591 186.33 27.3991C188.13 26.7491 189.77 25.7191 191.19 24.2991C193.71 21.7791 195.18 18.4891 195.18 14.7791C195.18 11.0691 193.79 7.97906 191.33 5.49906C191.28 5.43906 191.23 5.39906 191.18 5.34906C191.13 5.29906 191.09 5.24906 191.04 5.19906C188.56 2.74906 185.34 1.35906 181.76 1.35906H163.94C163.94 1.35906 163.89 1.35906 163.86 1.35906C162.46 0.839063 160.95 0.539062 159.34 0.539062C155.63 0.539062 152.34 2.00906 149.82 4.52906C147.27 7.07906 145.92 10.3791 145.92 13.9691V17.2091C145.44 17.0591 144.95 16.9191 144.47 16.7991C144.41 16.6891 144.34 16.5691 144.27 16.4291C143.6 14.7791 142.69 13.2291 141.52 11.8191C141.48 11.7691 141.44 11.7291 141.41 11.6891C141.36 11.6291 141.31 11.5591 141.25 11.4891H141.24C138.29 7.96906 134.21 6.45906 130.06 6.45906C127.53 6.45906 125.13 7.10906 123.04 8.36906C121.42 6.30906 119.44 4.59906 117.11 3.29906C117.11 3.29906 117.03 3.24906 116.99 3.22906C116.95 3.20906 116.91 3.17906 116.87 3.15906C113.86 1.43906 110.55 0.549062 107.06 0.549062C103.57 0.549062 100.14 1.46906 97.0803 3.20906C97.0803 3.20906 97.0603 3.21906 97.0503 3.22906C97.0403 3.22906 97.0303 3.23906 97.0203 3.24906C96.0403 3.79906 95.1303 4.43906 94.2703 5.12906C93.4703 4.45906 92.6103 3.83906 91.7003 3.29906C91.7003 3.29906 91.6503 3.26906 91.6303 3.25906C91.6003 3.23906 91.5703 3.21906 91.5403 3.19906C88.6003 1.43906 85.3503 0.559062 81.9403 0.559062C78.5303 0.559062 75.2803 1.44906 72.3403 3.20906C72.3403 3.20906 72.2803 3.23906 72.2503 3.25906C72.2303 3.26906 72.2003 3.28906 72.1803 3.29906C71.6603 3.60906 71.1703 3.93906 70.6903 4.28906C68.2303 1.90906 65.0603 0.559062 61.5403 0.559062C57.8303 0.559062 54.5403 2.02906 52.0203 4.54906C49.4703 7.09906 48.1203 10.3991 48.1203 13.9891V20.9191C47.9603 20.9791 47.8003 21.0391 47.6503 21.0991C47.5403 21.1491 47.4203 21.1891 47.3103 21.2391C47.1603 21.3091 46.9603 21.3891 46.7503 21.4591C46.3303 21.2891 45.7703 21.0291 45.0303 20.6791C43.6003 19.9191 42.1503 19.2491 40.7103 18.7591C40.7103 18.7591 40.6803 18.7491 40.6703 18.7391C40.6403 18.7391 40.6103 18.7191 40.5803 18.7091C40.4103 18.6591 40.2303 18.6091 40.0603 18.5591V13.9791C40.0603 10.3991 38.6703 7.17906 36.2103 4.69906C36.1603 4.63906 36.1103 4.59906 36.0603 4.54906C36.0103 4.49906 35.9703 4.44906 35.9203 4.39906C33.4403 1.94906 30.2203 0.559062 26.6403 0.559062C23.0603 0.559062 19.6403 2.02906 17.1203 4.54906C14.6003 7.06906 13.2203 10.3991 13.2203 13.9891V62.2891C13.2203 64.5591 13.7703 66.6991 14.7803 68.6091C14.5003 68.5891 14.2303 68.5691 13.9503 68.5691C10.2403 68.5691 6.95027 70.0391 4.43027 72.5591C1.88027 75.1091 0.530273 78.4091 0.530273 81.9991V130.299C0.530273 133.879 1.87027 137.119 4.29027 139.669C4.38027 139.769 4.48027 139.869 4.58027 139.959C7.13027 142.379 10.3703 143.719 13.9503 143.719C17.5303 143.719 20.8403 142.369 23.3903 139.819C25.9103 137.299 27.3803 134.009 27.3803 130.299V124.439C28.1303 124.879 28.8903 125.279 29.6903 125.609C31.9403 126.549 34.3203 127.049 36.7903 127.049C39.2603 127.049 41.4703 126.639 43.6903 125.839C43.7803 125.809 43.8603 125.769 43.9503 125.739C44.8203 125.389 45.6503 124.959 46.4503 124.479V130.299C46.4503 133.879 47.7903 137.119 50.2103 139.669C50.3003 139.769 50.4003 139.869 50.5003 139.959C53.0503 142.379 56.2903 143.719 59.8703 143.719C63.4503 143.719 66.7603 142.369 69.3103 139.819C69.5703 139.559 69.8203 139.279 70.0603 138.999C70.2503 139.229 70.4403 139.459 70.6503 139.679C70.7403 139.779 70.8403 139.879 70.9403 139.969C73.4903 142.389 76.7303 143.729 80.3103 143.729C83.8903 143.729 87.2003 142.379 89.7403 139.829C89.9903 139.579 90.2303 139.309 90.4603 139.039C90.6403 139.249 90.8203 139.469 91.0103 139.679C91.1103 139.779 91.2003 139.879 91.3003 139.969C93.8503 142.389 97.0903 143.729 100.67 143.729C104.25 143.729 107.56 142.379 110.1 139.829C112.64 137.279 114.09 134.019 114.09 130.309V128.669C115.49 129.859 117.06 130.819 118.78 131.539C118.87 131.579 118.96 131.609 119.05 131.649C119.99 131.999 120.95 132.259 121.92 132.469C122.35 135.199 123.58 137.669 125.5 139.689C125.59 139.789 125.69 139.889 125.79 139.979C128.34 142.399 131.58 143.739 135.16 143.739C138.37 143.739 141.35 142.649 143.77 140.589C145.98 142.099 148.56 142.919 151.35 142.919H169.73C171.24 143.449 172.85 143.739 174.51 143.739C177.6 143.739 181.4 142.959 184.36 139.999C184.41 139.949 184.47 139.889 184.52 139.839C186.47 137.779 187.67 135.319 188.42 132.869C188.45 132.869 188.47 132.869 188.5 132.869C188.68 132.849 188.82 132.839 188.9 132.829C188.95 132.829 188.97 132.829 188.97 132.829C188.97 132.829 188.94 132.829 188.88 132.829C190.52 132.829 192.2 132.679 193.86 132.259C194.06 132.209 194.25 132.149 194.45 132.089C197.26 131.149 199.95 129.439 201.85 126.649C203.72 123.919 204.36 120.849 204.36 118.009C204.36 117.839 204.36 117.699 204.37 117.599C204.37 117.589 204.37 117.579 204.37 117.579C204.5 117.359 204.7 117.059 205.05 116.639L198.9 111.519L198.92 111.539L205.04 116.639C205.04 116.639 205.08 116.589 205.1 116.559C205.97 115.489 206.82 114.269 207.49 112.919C207.54 112.839 207.57 112.749 207.62 112.669C207.65 112.609 207.69 112.549 207.71 112.479C208.7 110.449 209.02 108.359 209.02 106.499L209 106.439ZM145.03 42.8291L144.89 42.8491ZM182.88 79.7291L182.92 79.6691L182.89 79.7291H182.88ZM187.3 132.109H187.25L183.5 131.039L187.25 132.099L186.28 125.019L187.24 132.099H187.29L188.11 132.349L187.29 132.119L187.3 132.109Z" fill="#FFC852"/>
<path d="M61.5005 67.6791C60.0205 67.6791 58.7305 67.1591 57.6405 66.1191C56.6005 65.0191 56.0805 63.7391 56.0805 62.2591V48.7091C58.8205 48.4391 61.1205 47.3091 62.9805 45.3391C64.8405 43.3091 65.7705 40.8991 65.7705 38.1091C65.7705 35.3191 64.8405 32.9391 62.9805 30.9591C61.1205 28.9291 58.8205 27.7791 56.0805 27.5091V13.9591C56.0805 12.4791 56.6005 11.2191 57.6405 10.1791C58.7405 9.07906 60.0205 8.53906 61.5005 8.53906C62.9805 8.53906 64.2405 9.08906 65.2805 10.1791C66.3805 11.2191 66.9205 12.4791 66.9205 13.9591V62.2591C66.9205 63.7391 66.3705 65.0291 65.2805 66.1191C64.2405 67.1591 62.9805 67.6791 61.5005 67.6791ZM21.1705 13.9591C21.1705 12.4791 21.6905 11.2191 22.7305 10.1791C23.8305 9.07906 25.1105 8.53906 26.5905 8.53906C28.0705 8.53906 29.3305 9.08906 30.3705 10.1791C31.4705 11.2191 32.0105 12.4791 32.0105 13.9591V26.1191C29.1605 26.7191 26.8405 28.1691 25.0305 30.4691C23.2205 32.7191 22.3205 35.2591 22.3205 38.1091C22.3205 40.9591 23.2205 43.5291 25.0305 45.8291C26.8405 48.0791 29.1605 49.4991 32.0105 50.0991V62.2591C32.0105 63.7391 31.4605 65.0291 30.3705 66.1191C29.3305 67.1591 28.0705 67.6791 26.5905 67.6791C25.1105 67.6791 23.8205 67.1591 22.7305 66.1191C21.6905 65.0191 21.1705 63.7391 21.1705 62.2591V13.9591ZM32.0105 26.1191C32.9405 25.8991 33.8405 25.7891 34.7205 25.7891C35.9805 25.7891 37.0705 25.9491 38.0105 26.2791C39.0005 26.6091 40.1505 27.1291 41.4605 27.8391C42.6105 28.3891 43.5405 28.7991 44.2505 29.0691C44.9605 29.3391 45.7305 29.4791 46.5505 29.4791C47.2605 29.4791 47.9505 29.3991 48.6005 29.2291C49.3105 29.0091 49.9705 28.7591 50.5705 28.4891C51.6705 28.0491 52.5705 27.7491 53.2805 27.5891C54.0505 27.4291 54.9805 27.3991 56.0705 27.5091V48.6991C54.9705 48.8091 54.0405 48.7791 53.2805 48.6191C52.5705 48.4591 51.6605 48.1491 50.5705 47.7191C49.9705 47.4491 49.3105 47.2291 48.6005 47.0591C47.9405 46.8391 47.2605 46.7291 46.5505 46.7291C45.7305 46.7291 44.9605 46.8691 44.2505 47.1391C43.5405 47.4091 42.6105 47.8191 41.4605 48.3691C40.1505 49.0791 39.0005 49.5991 38.0105 49.9291C37.0805 50.2591 35.9805 50.4191 34.7205 50.4191C33.8405 50.4191 32.9405 50.3091 32.0105 50.0891V26.1091V26.1191ZM76.4905 29.4091C74.7405 28.4191 73.3405 27.0791 72.3005 25.3891C71.2605 23.6891 70.7405 21.7991 70.7405 19.7191C70.7405 17.6391 71.2305 15.8291 72.2205 14.1291C73.2605 12.4291 74.6305 11.0891 76.3305 10.1091C78.0305 9.06906 79.8905 8.54906 81.9105 8.54906C83.9305 8.54906 85.8005 9.06906 87.5005 10.1091C89.2005 11.0991 90.5405 12.4391 91.5205 14.1291C92.5105 15.8291 93.0005 17.6891 93.0005 19.7191C93.0005 21.7491 92.4805 23.6891 91.4405 25.3891C90.4005 27.0891 89.0305 28.4291 87.3305 29.4091V25.2191C87.3305 23.7391 86.7805 22.4791 85.6905 21.4391C84.6505 20.3391 83.3905 19.7991 81.9105 19.7991C80.4305 19.7991 79.1505 20.3491 78.0505 21.4391C77.0105 22.4791 76.4905 23.7391 76.4905 25.2191V29.4091ZM76.4905 29.4091C78.0805 30.3391 79.8805 30.8091 81.9105 30.8091C83.8305 30.8091 85.6305 30.3391 87.3305 29.4091V62.2591C87.3305 63.7391 86.7805 65.0291 85.6905 66.1191C84.6505 67.1591 83.3905 67.6791 81.9105 67.6791C80.4305 67.6791 79.1505 67.1591 78.0505 66.1191C77.0105 65.0191 76.4905 63.7391 76.4905 62.2591V29.3991V29.4091ZM126.92 63.1691C126.59 64.4791 125.88 65.5791 124.78 66.4591C123.74 67.2791 122.51 67.6891 121.08 67.6891C120.15 67.6891 119.25 67.4691 118.37 67.0291C117.55 66.6491 116.86 66.0991 116.32 65.3891C115.83 64.7291 115.47 64.1591 115.25 63.6691C115.03 63.1791 114.84 62.5991 114.68 61.9491C114.46 61.0691 114.19 60.3891 113.86 59.8991C113.59 59.5191 113.23 59.2391 112.79 59.0791C112.41 58.8591 112.16 58.7191 112.05 58.6691C110.85 58.1191 109.83 57.3591 109.01 56.3691C108.08 55.1691 107.64 53.7091 107.7 52.0191C109.45 51.9691 111.07 51.4991 112.55 50.6191C114.03 49.6891 115.23 48.4791 116.16 47.0091C117.09 47.3391 117.94 47.9391 118.71 48.8191C119.2 49.4191 119.53 49.9691 119.7 50.4591C119.92 50.9491 120.08 51.5291 120.19 52.1791C120.19 52.2891 120.24 52.5591 120.35 52.9991C120.46 53.3791 120.65 53.7691 120.93 54.1491C120.44 55.1391 120.19 56.0691 120.19 56.9391C120.19 58.7491 120.79 60.2491 122 61.4591C123.2 62.6591 124.85 63.2391 126.93 63.1791L126.92 63.1691ZM94.7205 20.9491C94.7205 18.6491 95.2905 16.5391 96.4405 14.6291C97.5905 12.7091 99.1005 11.2391 100.96 10.1891C102.88 9.08906 104.9 8.54906 107.04 8.54906C109.18 8.54906 111.17 9.09906 113.04 10.1891C114.96 11.2291 116.49 12.7091 117.64 14.6291C118.79 16.5491 119.37 18.6491 119.37 20.9491C119.37 22.2091 119.21 23.3291 118.88 24.3191C118.55 25.2491 118.03 26.3691 117.32 27.6891C116.77 28.8391 116.36 29.7691 116.09 30.4791C115.82 31.1891 115.68 31.9591 115.68 32.7791C115.68 33.4891 115.76 34.1491 115.93 34.7491C116.09 35.2991 116.34 35.9491 116.67 36.7191C117.05 37.5991 117.33 38.3591 117.49 39.0191C117.65 39.6791 117.74 40.4391 117.74 41.3191C117.74 43.3491 117.22 45.2391 116.18 46.9891C115.36 46.6591 114.56 46.4991 113.8 46.4991C112.16 46.4991 110.76 47.0491 109.61 48.1391C108.46 49.2391 107.83 50.5191 107.72 51.9991C105.58 52.0491 103.64 51.6191 101.89 50.6891C100.19 49.7591 98.8505 48.4691 97.8705 46.8291C96.8805 45.1291 96.3905 43.2991 96.3905 41.3291C96.3905 40.4491 96.4705 39.6891 96.6405 39.0291C96.8005 38.3691 97.0805 37.6091 97.4605 36.7291C97.7905 35.9591 98.0305 35.3091 98.2005 34.7591C98.3605 34.1591 98.4505 33.4991 98.4505 32.7891C98.4505 31.9691 98.3105 31.1991 98.0405 30.4891C97.7705 29.7791 97.3605 28.8491 96.8105 27.6991C96.1005 26.3891 95.5805 25.2591 95.2505 24.3291C94.9205 23.3391 94.7605 22.2191 94.7605 20.9591L94.7205 20.9491ZM120.92 54.1291C121.08 53.7991 121.33 53.4491 121.66 53.0591C121.99 52.6791 122.23 52.3791 122.4 52.1591C123 51.5591 123.44 51.0091 123.72 50.5191C123.99 49.9691 124.29 49.0391 124.62 47.7291C125.06 46.0891 125.58 44.8791 126.18 44.1191C126.78 43.2991 127.88 42.8891 129.47 42.8891C129.8 42.8891 130.18 42.9191 130.62 42.9691C131.06 43.0191 131.55 43.0491 132.1 43.0491C134.13 43.0491 135.66 42.3891 136.7 41.0791C137.8 39.7691 138.34 37.9891 138.34 35.7391C138.34 34.3691 137.9 32.9691 137.03 31.5491C136.21 30.1291 135.14 29.1691 133.83 28.6791L131.86 27.9391C129.4 27.1191 127.48 26.2391 126.11 25.3091C124.79 24.3791 124.14 22.9291 124.14 20.9591C124.14 19.3191 124.66 17.8391 125.7 16.5191C126.8 15.1491 128.25 14.4691 130.05 14.4691C132.3 14.4691 134.02 15.2391 135.23 16.7691C136 17.6491 136.6 18.6891 137.04 19.8891C137.7 21.1991 138.35 22.2191 139.01 22.9291C139.67 23.6391 140.74 24.1591 142.21 24.4891C147.41 25.7491 150.01 28.1891 150.01 31.7991C150.01 32.6191 149.87 33.3291 149.6 33.9391C149.38 34.5391 149 35.2791 148.45 36.1591C147.9 36.9791 147.46 37.7791 147.14 38.5391C146.81 39.3091 146.62 40.2391 146.57 41.3291C146.57 41.7691 146.6 42.2091 146.65 42.6391C146.7 43.0791 146.73 43.5391 146.73 44.0391C146.73 46.7191 145.52 48.6691 143.12 49.8691C142.24 50.2491 141.15 50.5291 139.83 50.6891C139.34 50.7391 138.6 50.8791 137.61 51.0991C136.4 51.4291 135.36 51.9491 134.49 52.6591C133.61 53.3691 133.01 54.8191 132.68 57.0091C132.35 58.8691 131.75 60.3491 130.87 61.4491C129.99 62.4891 128.68 63.0691 126.93 63.1691C127.09 62.5691 127.18 62.0191 127.18 61.5291C127.18 60.1091 126.74 58.8491 125.87 57.7491C125.32 57.0891 124.77 56.6291 124.23 56.3491C123.68 56.0191 123.38 55.8291 123.33 55.7791C123.28 55.7291 122.95 55.5591 122.34 55.2891C121.74 55.0191 121.27 54.6291 120.94 54.1391L120.92 54.1291ZM159.31 67.6791C157.83 67.6791 156.55 67.1591 155.45 66.1191C154.41 65.0191 153.89 63.7391 153.89 62.2591V13.9591C153.89 12.4791 154.41 11.2191 155.45 10.1791C156.55 9.07906 157.83 8.53906 159.31 8.53906C160.41 8.53906 161.45 8.89906 162.43 9.60906C161.28 9.93906 160.32 10.5991 159.55 11.5791C158.84 12.5091 158.48 13.5791 158.48 14.7791C158.48 16.2591 159 17.5491 160.04 18.6391C161.14 19.6791 162.42 20.1991 163.9 20.1991H164.72V28.5791C163.08 29.5691 161.76 30.9091 160.78 32.5991C159.79 34.2991 159.3 36.1291 159.3 38.0991C159.3 40.0691 159.79 41.9891 160.78 43.6891C161.77 45.3891 163.08 46.6991 164.72 47.6291V56.0091H163.9C162.42 56.0091 161.14 56.5591 160.04 57.6491C159 58.6891 158.48 59.9491 158.48 61.4291C158.48 62.6291 158.84 63.7291 159.55 64.7191C160.32 65.6491 161.28 66.2791 162.43 66.6091C161.44 67.3191 160.4 67.6791 159.31 67.6791ZM162.43 66.6091C163.14 66.1191 163.69 65.4891 164.07 64.7191C164.51 63.9491 164.73 63.1291 164.73 62.2591V56.0191H181.73C183.21 56.0191 184.47 56.5691 185.51 57.6591C186.61 58.6991 187.15 59.9591 187.15 61.4391C187.15 62.9191 186.6 64.2091 185.51 65.2991C184.47 66.3391 183.21 66.8591 181.73 66.8591H163.91C163.47 66.8591 162.98 66.7791 162.43 66.6091ZM162.43 9.60906C162.98 9.44906 163.47 9.35906 163.91 9.35906H181.73C183.21 9.35906 184.47 9.90906 185.51 10.9991C186.61 12.0391 187.15 13.2991 187.15 14.7791C187.15 16.2591 186.6 17.5491 185.51 18.6391C184.47 19.6791 183.21 20.1991 181.73 20.1991H164.73V13.9591C164.73 13.0791 164.51 12.2591 164.07 11.4991C163.69 10.7291 163.14 10.0991 162.43 9.60906ZM164.73 28.5791C166.48 27.4791 168.4 26.9391 170.48 26.9391C172.56 26.9391 174.37 27.4591 176.06 28.4991C177.76 29.4891 179.1 30.8291 180.09 32.5191C181.08 34.2191 181.57 36.0791 181.57 38.1091C181.57 40.1391 181.08 41.9991 180.09 43.6991C179.1 45.3991 177.76 46.7391 176.06 47.7191C174.36 48.7091 172.5 49.1991 170.48 49.1991C168.46 49.1991 166.48 48.6791 164.73 47.6391V28.5791ZM36.7405 118.999C35.3705 118.999 34.0305 118.729 32.7205 118.179C31.4105 117.629 30.2805 116.889 29.3505 115.959C28.2505 114.859 27.4305 113.579 26.8905 112.099C26.4005 110.619 26.1805 109.089 26.2305 107.499L27.9505 109.639C28.4405 110.299 29.0705 110.819 29.8405 111.199C30.6605 111.529 31.5105 111.689 32.3905 111.689C33.8105 111.689 35.0505 111.139 36.0905 110.049C37.1305 108.949 37.6505 107.719 37.6505 106.349C37.6505 104.979 37.2705 103.909 36.5005 102.979L32.9705 98.4591C33.1905 98.3491 33.7105 98.1291 34.5305 97.7991C35.3505 97.4691 36.1505 96.9191 36.9105 96.1591C37.5105 95.5591 37.9805 94.8991 38.3105 94.1891C38.6405 93.4191 38.9705 92.4891 39.3005 91.3991C39.7405 89.9791 40.1805 88.8291 40.6105 87.9491C41.0505 87.0191 41.7305 86.0891 42.6605 85.1591C45.0705 82.7491 47.9705 81.5491 51.3705 81.5491C52.3005 81.5491 53.3105 81.6891 54.4105 81.9591V105.779C53.0405 106.159 51.9705 106.519 51.2105 106.849C50.4405 107.179 49.7305 107.669 49.0705 108.329C48.5205 108.879 48.0805 109.449 47.7605 110.059C47.4305 110.659 47.1605 111.259 46.9405 111.869C46.6105 112.689 46.2805 113.399 45.9505 114.009C45.6205 114.609 45.1305 115.239 44.4705 115.899C43.4805 116.939 42.3105 117.729 40.9405 118.279C39.5705 118.769 38.1705 119.019 36.7505 119.019L36.7405 118.999ZM8.48047 81.9591C8.48047 80.4791 9.00047 79.2191 10.0405 78.1791C11.1405 77.0791 12.4205 76.5391 13.9005 76.5391C15.3805 76.5391 16.6405 77.0891 17.6805 78.1791C18.7205 79.2191 19.2705 80.4791 19.3205 81.9591C18.6105 81.6291 17.8705 81.4691 17.1005 81.4691C15.5705 81.4691 14.2805 82.0191 13.2405 83.1091C12.2005 84.2091 11.6805 85.4591 11.6805 86.8891C11.6805 88.0391 12.0605 89.1391 12.8305 90.1791L19.3205 98.5591V130.269C19.3205 131.749 18.7705 133.029 17.6805 134.129C16.6405 135.169 15.3805 135.689 13.9005 135.689C12.4205 135.689 11.1305 135.169 10.0405 134.129C9.00047 133.029 8.48047 131.749 8.48047 130.269V81.9691V81.9591ZM19.3205 81.9591C20.0905 82.2891 20.7705 82.8091 21.3705 83.5191L32.9505 98.4691C31.5805 98.9591 30.3805 99.7291 29.3405 100.769C27.5305 102.689 26.4905 104.929 26.2205 107.509L19.3205 98.5591V81.9691V81.9591ZM54.3905 105.779C55.5405 105.449 56.5505 105.069 57.4305 104.629C58.3105 104.139 59.1805 103.449 60.0605 102.579C62.4705 100.169 63.6705 97.2691 63.6705 93.8691C63.6705 91.0191 62.7705 88.4991 60.9605 86.3091C59.2105 84.0591 57.0205 82.6091 54.3905 81.9591C54.3905 80.4791 54.9105 79.2191 55.9505 78.1791C57.0505 77.0791 58.3305 76.5391 59.8105 76.5391C61.2905 76.5391 62.5505 77.0891 63.5905 78.1791C64.6905 79.2191 65.2305 80.4791 65.2305 81.9591V130.259C65.2305 131.739 64.6805 133.019 63.5905 134.119C62.5505 135.159 61.2905 135.679 59.8105 135.679C58.3305 135.679 57.0405 135.159 55.9505 134.119C54.9105 133.019 54.3905 131.739 54.3905 130.259V105.779ZM74.8305 97.3991C73.0805 96.4091 71.6805 95.0691 70.6405 93.3791C69.6005 91.6791 69.0805 89.7891 69.0805 87.7091C69.0805 85.6291 69.5705 83.8191 70.5605 82.1191C71.6005 80.4191 72.9705 79.0791 74.6705 78.0991C76.3705 77.0591 78.2305 76.5391 80.2505 76.5391C82.2705 76.5391 84.1405 77.0591 85.8405 78.0991C87.5405 79.0891 88.8805 80.4291 89.8605 82.1191C90.8505 83.8191 91.3405 85.6791 91.3405 87.7091C91.3405 89.7391 90.8205 91.6791 89.7805 93.3791C88.7405 95.0791 87.3705 96.4191 85.6705 97.3991V93.2091C85.6705 91.7291 85.1205 90.4691 84.0305 89.4291C82.9905 88.3291 81.7305 87.7891 80.2505 87.7891C78.7705 87.7891 77.4905 88.3391 76.3905 89.4291C75.3505 90.4691 74.8305 91.7291 74.8305 93.2091V97.3991ZM74.8305 97.3991C76.4205 98.3291 78.2305 98.7991 80.2505 98.7991C82.1705 98.7991 83.9705 98.3291 85.6705 97.3991V130.259C85.6705 131.739 85.1205 133.019 84.0305 134.119C82.9405 135.219 81.7305 135.679 80.2505 135.679C78.7705 135.679 77.4905 135.159 76.3905 134.119C75.3505 133.019 74.8305 131.739 74.8305 130.259V97.3991ZM125.92 124.829C124.5 124.829 123.13 124.579 121.81 124.089C120.5 123.539 119.35 122.749 118.36 121.709C117.7 121.049 117.21 120.419 116.88 119.819C116.55 119.219 116.22 118.509 115.89 117.689C115.67 117.089 115.4 116.479 115.07 115.879C114.74 115.279 114.3 114.699 113.76 114.149C113.16 113.549 112.53 113.109 111.87 112.839C111.21 112.509 110.28 112.149 109.08 111.769C107.87 111.439 106.86 111.089 106.04 110.699V88.6891C107.74 87.8091 109.54 87.3791 111.46 87.3791C114.86 87.3791 117.76 88.5791 120.17 90.9891C121.1 91.9191 121.79 92.8491 122.22 93.7791C122.66 94.6591 123.1 95.8091 123.53 97.2291C123.86 98.3291 124.19 99.2591 124.52 100.019C124.85 100.729 125.31 101.389 125.92 101.989C126.47 102.589 126.99 103.029 127.48 103.299C128.03 103.569 128.77 103.879 129.7 104.199V124.079C128.5 124.569 127.24 124.819 125.92 124.819V124.829ZM95.2005 81.9491C95.2005 80.4691 95.7205 79.2091 96.7605 78.1691C97.8605 77.0691 99.1405 76.5291 100.62 76.5291C102.1 76.5291 103.36 77.0791 104.4 78.1691C105.5 79.2091 106.04 80.4691 106.04 81.9491V88.6891C103.96 89.7291 102.29 91.2391 101.03 93.2091C99.7705 95.1791 99.1405 97.3391 99.1405 99.6991C99.1405 102.059 99.7405 104.159 100.95 106.189C102.21 108.159 103.91 109.669 106.04 110.709V130.259C106.04 131.739 105.49 133.019 104.4 134.119C103.36 135.159 102.1 135.679 100.62 135.679C99.1405 135.679 97.8505 135.159 96.7605 134.119C95.7205 133.019 95.2005 131.739 95.2005 130.259V81.9591V81.9491ZM129.7 124.089C131.73 123.269 133.37 121.979 134.63 120.229C135.94 118.419 136.6 116.399 136.6 114.149C136.6 112.729 136.33 111.359 135.78 110.039C135.29 108.729 134.52 107.579 133.48 106.589C132.49 105.659 131.24 104.869 129.7 104.209V81.9491C129.7 80.4691 130.22 79.2091 131.26 78.1691C132.36 77.0691 133.64 76.5291 135.12 76.5291C136.6 76.5291 137.86 77.0791 138.9 78.1691C139.99 79.2091 140.54 80.4691 140.54 81.9491V130.249C140.54 131.729 139.99 133.009 138.9 134.109C137.86 135.149 136.6 135.669 135.12 135.669C133.64 135.669 132.36 135.149 131.26 134.109C130.22 133.009 129.7 131.729 129.7 130.249V124.089ZM174.48 135.669C173.33 135.669 172.23 135.369 171.19 134.769C172.45 134.499 173.49 133.869 174.31 132.879C175.19 131.889 175.62 130.739 175.62 129.429C175.62 128.119 175.21 127.049 174.39 126.059C173.57 125.069 172.56 124.439 171.35 124.169C171.79 123.789 172.2 123.319 172.58 122.769C172.85 122.389 173.1 121.889 173.32 121.289C173.59 120.689 173.79 120.279 173.9 120.059C174.39 118.639 174.94 117.569 175.54 116.859C176.2 116.149 177.24 115.789 178.66 115.789C178.99 115.789 179.29 115.819 179.56 115.869C179.83 115.919 180.08 115.979 180.3 116.029C181.12 116.299 181.94 116.439 182.76 116.439C184.9 116.439 186.46 115.699 187.44 114.219C188.43 112.689 188.92 111.019 188.92 109.209C188.92 107.839 188.59 106.529 187.93 105.269C187.33 104.009 186.42 102.999 185.22 102.229L182.84 100.999C181.42 100.339 180.38 99.7991 179.72 99.3591C181.86 98.9191 183.69 97.9091 185.22 96.3191C186.75 94.7291 187.71 92.8691 188.1 90.7291C188.43 91.2791 188.73 91.9091 189 92.6191C189.27 93.2791 189.44 93.7191 189.49 93.9291C189.93 95.2991 190.42 96.3891 190.97 97.2191C191.57 97.9891 192.59 98.6191 194.01 99.1091C196.14 99.8791 197.84 100.829 199.1 101.979C200.36 103.079 200.99 104.549 200.99 106.419C200.99 107.459 200.8 108.339 200.42 109.049C200.09 109.759 199.57 110.559 198.86 111.429C198.04 112.419 197.41 113.369 196.97 114.309C196.53 115.249 196.31 116.449 196.31 117.919C196.31 121.259 194.83 123.419 191.87 124.409C190.99 124.629 189.98 124.739 188.83 124.739C188.56 124.739 188.15 124.769 187.6 124.819C187.11 124.869 186.67 124.929 186.29 124.979C185.08 125.139 184.02 125.529 183.09 126.129C182.16 126.729 181.39 128.099 180.79 130.239C180.3 131.939 179.58 133.279 178.65 134.259C177.72 135.189 176.32 135.659 174.46 135.659L174.48 135.669ZM144.83 88.8491C144.83 86.7091 145.35 84.7191 146.39 82.8491C147.49 80.9291 148.99 79.3991 150.91 78.2491C152.83 77.0991 154.93 76.5291 157.23 76.5291C158.49 76.5291 159.58 76.6891 160.52 77.0191C161.51 77.3491 162.66 77.8691 163.97 78.5791C165.12 79.1291 166.05 79.5391 166.76 79.8091C167.47 80.0791 168.24 80.2191 169.06 80.2191C169.77 80.2191 170.4 80.1391 170.95 79.9691C171.55 79.8091 172.24 79.5591 173 79.2291C173.88 78.8491 174.64 78.5691 175.3 78.4091C175.96 78.2491 176.72 78.1591 177.6 78.1591C179.57 78.1591 181.35 78.6491 182.94 79.6391C184.58 80.5691 185.87 81.8591 186.8 83.4991C187.79 85.0891 188.28 86.8691 188.28 88.8391C188.28 89.2191 188.23 89.8491 188.12 90.7291C187.57 89.7391 186.81 89.0091 185.82 88.5091C184.89 87.9591 183.85 87.6891 182.7 87.6891C180.95 87.6891 179.5 88.3191 178.35 89.5791C177.25 90.7791 176.68 92.1791 176.63 93.7691C176.63 95.0791 176.9 96.1791 177.45 97.0591C178 97.9391 178.76 98.6991 179.75 99.3591C178.76 99.4691 178.05 99.5191 177.61 99.5191C176.73 99.5191 175.97 99.4391 175.31 99.2691C174.65 99.1091 173.89 98.8291 173.01 98.4491C172.24 98.1191 171.56 97.8791 170.96 97.7091C170.41 97.5491 169.78 97.4591 169.07 97.4591C168.19 97.4591 167.15 97.7091 165.95 98.1991V94.2591C165.95 92.7791 165.4 91.5191 164.31 90.4791C163.27 89.3791 162.01 88.8391 160.53 88.8391C159.05 88.8391 157.77 89.3891 156.67 90.4791C155.63 91.5191 155.11 92.7791 155.11 94.2591V100.999C152.1 100.509 149.63 99.1091 147.72 96.8091C145.8 94.4591 144.84 91.7991 144.84 88.8391L144.83 88.8491ZM145.9 129.429C145.9 127.949 146.42 126.689 147.46 125.649C148.56 124.549 149.84 124.009 151.32 124.009H155.1C155.1 125.489 155.62 126.779 156.66 127.869C157.76 128.909 159.04 129.429 160.52 129.429C162 129.429 163.26 128.909 164.3 127.869C165.4 126.769 165.94 125.489 165.94 124.009H170.21C170.59 124.009 170.98 124.069 171.36 124.179C170.26 125.279 169.47 126.179 168.98 126.889C168.54 127.549 168.32 128.449 168.32 129.599C168.32 130.749 168.57 131.709 169.06 132.639C169.61 133.519 170.32 134.229 171.2 134.769C170.98 134.829 170.65 134.849 170.21 134.849H151.32C149.84 134.849 148.55 134.329 147.46 133.289C146.42 132.189 145.9 130.909 145.9 129.429ZM155.1 101.009C155.92 101.119 156.63 101.169 157.24 101.169C158.5 101.169 159.57 101.029 160.44 100.759C161.37 100.429 162.55 99.9091 163.97 99.1991C164.63 98.7591 165.28 98.4291 165.94 98.2091V123.999H155.1V100.999V101.009Z" fill="black"/>
</g>
<defs>
<clipPath id="clip0_5899_13209">
<rect width="208.52" height="143.14" fill="white" transform="translate(0.480469 0.539062)"/>
</clipPath>
</defs>
</svg>
