<svg width="226" height="126" viewBox="0 0 226 126" fill="none" xmlns="http://www.w3.org/2000/svg">
<g clip-path="url(#clip0_5899_13213)">
<path d="M212.531 65.6294C211.031 65.6294 209.601 65.8994 208.271 66.3694C206.941 65.8994 205.511 65.6294 204.011 65.6294C202.511 65.6294 201.081 65.8994 199.751 66.3694C198.421 65.8994 196.991 65.6294 195.491 65.6294C193.991 65.6294 192.561 65.8994 191.231 66.3694C190.481 66.1094 189.701 65.9094 188.891 65.7894C191.041 64.1794 192.681 61.9094 193.481 59.2694C198.741 57.6794 202.561 52.7994 202.561 47.0094C202.561 41.2194 198.741 36.3394 193.481 34.7494C193.381 34.4194 193.261 34.0994 193.141 33.7894C198.581 32.3094 202.561 27.3594 202.561 21.4394C202.561 14.3494 196.841 8.62938 189.751 8.62938C188.251 8.62938 186.821 8.89938 185.491 9.36938C184.161 8.89938 182.731 8.62938 181.231 8.62938C179.731 8.62938 178.301 8.89938 176.971 9.36938C175.641 8.89938 174.211 8.62938 172.711 8.62938C166.921 8.62938 162.041 12.4494 160.451 17.7094C157.061 18.7394 154.271 21.1294 152.721 24.2594H150.191C154.261 22.1194 157.041 17.8594 157.041 12.9194C157.041 5.82938 151.321 0.109375 144.231 0.109375C138.441 0.109375 133.561 3.92937 131.971 9.18937C129.461 9.94937 127.291 11.4494 125.701 13.4494C123.361 10.5194 119.751 8.63937 115.691 8.63937C114.191 8.63937 112.761 8.90938 111.431 9.37938C110.101 8.90938 108.671 8.63937 107.171 8.63937C105.671 8.63937 104.241 8.90938 102.911 9.37938C101.581 8.90938 100.151 8.63937 98.6508 8.63937C97.1508 8.63937 95.7208 8.90938 94.3908 9.37938C93.0608 8.90938 91.6308 8.63937 90.1308 8.63937C86.0708 8.63937 82.4608 10.5194 80.1208 13.4594C77.7808 10.5194 74.1708 8.63937 70.1108 8.63937C68.6108 8.63937 67.1808 8.90938 65.8508 9.37938C64.5208 8.90938 63.0908 8.63937 61.5908 8.63937C60.0908 8.63937 58.6608 8.90938 57.3308 9.37938C56.0008 8.90938 54.5708 8.63937 53.0708 8.63937C45.9808 8.63937 40.2608 14.3594 40.2608 21.4494C40.2608 22.9494 40.5308 24.3794 41.0008 25.7094C40.5308 27.0394 40.2608 28.4694 40.2608 29.9694C40.2608 31.4694 40.5308 32.8994 41.0008 34.2294C40.5308 35.5594 40.2608 36.9894 40.2608 38.4894C40.2608 39.9894 40.5308 41.4194 41.0008 42.7494C40.7408 43.4894 40.5508 44.2594 40.4308 45.0594C38.3408 43.5894 35.8008 42.7194 33.0508 42.7194C31.5508 42.7194 30.1208 42.9894 28.7908 43.4594C28.6108 43.3994 28.4408 43.3294 28.2608 43.2794C28.2108 43.0994 28.1408 42.9294 28.0808 42.7494C28.5508 41.4194 28.8208 39.9894 28.8208 38.4894C28.8208 36.9894 28.5508 35.5594 28.0808 34.2294C28.5508 32.8994 28.8208 31.4694 28.8208 29.9694C28.8208 28.4694 28.5508 27.0394 28.0808 25.7094C28.5508 24.3794 28.8208 22.9494 28.8208 21.4494C28.8208 14.3594 23.1008 8.63937 16.0108 8.63937C8.92078 8.63937 3.12078 14.3494 3.12078 21.4494C3.12078 22.9494 3.39078 24.3794 3.86078 25.7094C3.39078 27.0394 3.12078 28.4694 3.12078 29.9694C3.12078 31.4694 3.39078 32.8994 3.86078 34.2294C3.39078 35.5594 3.12078 36.9894 3.12078 38.4894C3.12078 39.9894 3.39078 41.4194 3.86078 42.7494C3.39078 44.0794 3.12078 45.5094 3.12078 47.0094C3.12078 48.5094 3.39078 49.9394 3.86078 51.2694C3.39078 52.5994 3.12078 54.0294 3.12078 55.5294C3.12078 61.9594 7.82078 67.2394 13.9708 68.1794C11.8108 69.7894 10.1808 72.0594 9.38078 74.6994C4.12078 76.2894 0.300781 81.1694 0.300781 86.9594C0.300781 92.7494 4.12078 97.6294 9.38078 99.2194C9.48078 99.5494 9.60078 99.8694 9.72078 100.179C4.28078 101.659 0.300781 106.609 0.300781 112.529C0.300781 119.619 6.02078 125.339 13.1108 125.339C14.6108 125.339 16.0408 125.069 17.3708 124.599C18.7008 125.069 20.1308 125.339 21.6308 125.339C23.1308 125.339 24.5608 125.069 25.8908 124.599C27.2208 125.069 28.6508 125.339 30.1508 125.339C35.9408 125.339 40.8208 121.519 42.4108 116.259C47.6708 114.669 51.4908 109.789 51.4908 103.999C51.4908 98.2094 47.6708 93.3294 42.4108 91.7394C42.3108 91.4094 42.1908 91.0894 42.0708 90.7794C44.7208 90.0594 47.0208 88.5194 48.6908 86.4394C50.2808 88.4294 52.4608 89.9394 54.9608 90.6994C55.0108 90.8794 55.0808 91.0494 55.1408 91.2294C54.6708 92.5594 54.4008 93.9894 54.4008 95.4894C54.4008 96.9894 54.6708 98.4194 55.1408 99.7494C54.6708 101.079 54.4008 102.509 54.4008 104.009C54.4008 105.509 54.6708 106.939 55.1408 108.269C54.6708 109.599 54.4008 111.029 54.4008 112.529C54.4008 119.619 60.1208 125.339 67.2108 125.339C74.3008 125.339 80.0208 119.619 80.0208 112.529C80.0208 111.029 79.7508 109.599 79.2808 108.269C79.7508 106.939 80.0208 105.509 80.0208 104.009C80.0208 102.509 79.7508 101.079 79.2808 99.7494C79.7508 98.4194 80.0208 96.9894 80.0208 95.4894C80.0208 93.9894 79.7508 92.5594 79.2808 91.2294C79.3408 91.0494 79.4108 90.8794 79.4608 90.6994C79.6408 90.6494 79.8108 90.5794 79.9908 90.5194C81.1508 90.9294 82.3908 91.1694 83.6808 91.2294C83.2108 92.5594 82.9408 93.9894 82.9408 95.4894C82.9408 96.9894 83.2108 98.4194 83.6808 99.7494C83.2108 101.079 82.9408 102.509 82.9408 104.009C82.9408 105.509 83.2108 106.939 83.6808 108.269C83.2108 109.599 82.9408 111.029 82.9408 112.529C82.9408 119.619 88.6608 125.339 95.7508 125.339C101.541 125.339 106.421 121.519 108.011 116.259C108.191 116.209 108.361 116.139 108.541 116.079C108.711 116.139 108.891 116.209 109.071 116.259C110.661 121.519 115.541 125.339 121.331 125.339C125.391 125.339 128.991 123.459 131.341 120.529C133.681 123.459 137.291 125.339 141.351 125.339C148.261 125.339 153.841 119.919 154.141 113.079C154.431 119.909 160.021 125.339 166.921 125.339C173.821 125.339 179.731 119.619 179.731 112.529C179.731 111.029 179.461 109.599 178.991 108.269C179.461 106.939 179.731 105.509 179.731 104.009C179.731 100.729 178.501 97.7494 176.481 95.4894C178.091 93.6894 179.191 91.4294 179.571 88.9294C180.671 89.6994 181.891 90.3094 183.201 90.7094C183.251 90.8894 183.321 91.0594 183.381 91.2394C182.911 92.5694 182.641 93.9994 182.641 95.4994C182.641 96.9994 182.911 98.4294 183.381 99.7594C182.911 101.089 182.641 102.519 182.641 104.019C182.641 105.519 182.911 106.949 183.381 108.279C182.911 109.609 182.641 111.039 182.641 112.539C182.641 119.629 188.361 125.349 195.451 125.349C202.541 125.349 208.261 119.629 208.261 112.539C208.261 111.039 207.991 109.609 207.521 108.279C207.991 106.949 208.261 105.519 208.261 104.019C208.261 102.519 207.991 101.089 207.521 99.7594C207.991 98.4294 208.261 96.9994 208.261 95.4994C208.261 93.9994 207.991 92.5694 207.521 91.2394C207.581 91.0594 207.651 90.8894 207.701 90.7094C207.881 90.6594 208.051 90.5894 208.231 90.5294C209.561 90.9994 210.991 91.2694 212.491 91.2694C219.581 91.2694 225.301 85.5494 225.301 78.4594C225.301 71.3694 219.581 65.6494 212.491 65.6494L212.531 65.6294Z" fill="#FF7A41"/>
<path d="M25.9103 84.9987C27.1303 85.7987 28.5903 86.2587 30.1703 86.2587C31.7503 86.2587 33.2103 85.7887 34.4303 84.9987C35.6503 85.7987 37.1103 86.2587 38.6903 86.2587C43.0203 86.2587 46.5003 82.7787 46.5003 78.4487C46.5003 74.1187 43.0203 70.6387 38.6903 70.6387C37.1103 70.6387 35.6503 71.1087 34.4303 71.8987C33.2103 71.0987 31.7503 70.6387 30.1703 70.6387C28.5903 70.6387 27.1303 71.1087 25.9103 71.8987C24.6903 71.0987 23.2303 70.6387 21.6503 70.6387C17.3203 70.6387 13.8403 74.1187 13.8403 78.4487C13.8403 78.6987 13.8503 78.9487 13.8803 79.1987C13.6303 79.1787 13.3803 79.1587 13.1303 79.1587C8.80031 79.1587 5.32031 82.6387 5.32031 86.9687C5.32031 91.2987 8.80031 94.7787 13.1303 94.7787C13.3803 94.7787 13.6303 94.7687 13.8803 94.7387C13.8603 94.9887 13.8403 95.2387 13.8403 95.4887C13.8403 99.8187 17.3203 103.299 21.6503 103.299C23.2303 103.299 24.6903 102.829 25.9103 102.039C27.1303 102.839 28.5903 103.299 30.1703 103.299C30.4203 103.299 30.6703 103.289 30.9203 103.259C30.9003 103.509 30.8803 103.759 30.8803 104.009C30.8803 104.259 30.8903 104.509 30.9203 104.759C30.6703 104.739 30.4203 104.719 30.1703 104.719C28.5903 104.719 27.1303 105.189 25.9103 105.979C24.6903 105.179 23.2303 104.719 21.6503 104.719C20.0703 104.719 18.6103 105.189 17.3903 105.979C16.1703 105.179 14.7103 104.719 13.1303 104.719C8.80031 104.719 5.32031 108.199 5.32031 112.529C5.32031 116.859 8.80031 120.339 13.1303 120.339C14.7103 120.339 16.1703 119.869 17.3903 119.079C18.6103 119.879 20.0703 120.339 21.6503 120.339C23.2303 120.339 24.6903 119.869 25.9103 119.079C27.1303 119.879 28.5903 120.339 30.1703 120.339C34.5003 120.339 37.9803 116.859 37.9803 112.529C37.9803 112.279 37.9703 112.029 37.9403 111.779C38.1903 111.799 38.4403 111.819 38.6903 111.819C43.0203 111.819 46.5003 108.339 46.5003 104.009C46.5003 99.6787 43.0203 96.1987 38.6903 96.1987C38.4403 96.1987 38.1903 96.2087 37.9403 96.2387C37.9603 95.9887 37.9803 95.7387 37.9803 95.4887C37.9803 91.1587 34.5003 87.6787 30.1703 87.6787C28.5903 87.6787 27.1303 88.1487 25.9103 88.9387C24.6903 88.1387 23.2303 87.6787 21.6503 87.6787C21.4003 87.6787 21.1503 87.6887 20.9003 87.7187C20.9203 87.4687 20.9403 87.2187 20.9403 86.9687C20.9403 86.7187 20.9303 86.4687 20.9003 86.2187C21.1503 86.2387 21.4003 86.2587 21.6503 86.2587C23.2303 86.2587 24.6903 85.7887 25.9103 84.9987Z" fill="black"/>
<path d="M57.2702 62.0884C58.4902 62.8884 59.9502 63.3484 61.5302 63.3484C63.1102 63.3484 64.5702 62.8784 65.7902 62.0884C67.0102 62.8884 68.4702 63.3484 70.0502 63.3484C74.3802 63.3484 77.8602 59.8684 77.8602 55.5384C77.8602 51.2084 74.3802 47.7284 70.0502 47.7284C68.4702 47.7284 67.0102 48.1984 65.7902 48.9884C64.5702 48.1884 63.1102 47.7284 61.5302 47.7284C61.2802 47.7284 61.0302 47.7384 60.7802 47.7684C60.8002 47.5184 60.8202 47.2684 60.8202 47.0184C60.8202 46.7684 60.8102 46.5184 60.7802 46.2684C61.0302 46.2884 61.2802 46.3084 61.5302 46.3084C63.1102 46.3084 64.5702 45.8384 65.7902 45.0484C67.0102 45.8484 68.4702 46.3084 70.0502 46.3084C74.3802 46.3084 77.8602 42.8284 77.8602 38.4984C77.8602 34.1684 74.3802 30.6884 70.0502 30.6884C68.4702 30.6884 67.0102 31.1584 65.7902 31.9484C64.5702 31.1484 63.1102 30.6884 61.5302 30.6884C61.2802 30.6884 61.0302 30.6984 60.7802 30.7284C60.8002 30.4784 60.8202 30.2284 60.8202 29.9784C60.8202 29.7284 60.8102 29.4784 60.7802 29.2284C61.0302 29.2484 61.2802 29.2684 61.5302 29.2684C63.1102 29.2684 64.5702 28.7984 65.7902 28.0084C67.0102 28.8084 68.4702 29.2684 70.0502 29.2684C74.3802 29.2684 77.8602 25.7884 77.8602 21.4584C77.8602 17.1284 74.3802 13.6484 70.0502 13.6484C68.4702 13.6484 67.0102 14.1184 65.7902 14.9084C64.5702 14.1084 63.1102 13.6484 61.5302 13.6484C59.9502 13.6484 58.4902 14.1184 57.2702 14.9084C56.0502 14.1084 54.5902 13.6484 53.0102 13.6484C48.6802 13.6484 45.2002 17.1284 45.2002 21.4584C45.2002 23.0384 45.6702 24.4984 46.4602 25.7184C45.6602 26.9384 45.2002 28.3984 45.2002 29.9784C45.2002 31.5584 45.6702 33.0184 46.4602 34.2384C45.6602 35.4584 45.2002 36.9184 45.2002 38.4984C45.2002 40.0784 45.6702 41.5384 46.4602 42.7584C45.6602 43.9784 45.2002 45.4384 45.2002 47.0184C45.2002 48.5984 45.6702 50.0584 46.4602 51.2784C45.6602 52.4984 45.2002 53.9584 45.2002 55.5384C45.2002 59.8684 48.6802 63.3484 53.0102 63.3484C54.5902 63.3484 56.0502 62.8784 57.2702 62.0884Z" fill="black"/>
<path d="M90.0903 29.2587C90.3403 29.2587 90.5903 29.2487 90.8403 29.2187C90.8203 29.4687 90.8003 29.7187 90.8003 29.9687C90.8003 31.5487 91.2703 33.0087 92.0603 34.2287C91.2603 35.4487 90.8003 36.9087 90.8003 38.4887C90.8003 40.0687 91.2703 41.5287 92.0603 42.7487C91.2603 43.9687 90.8003 45.4287 90.8003 47.0087C90.8003 48.5887 91.2703 50.0487 92.0603 51.2687C91.2603 52.4887 90.8003 53.9487 90.8003 55.5287C90.8003 59.8587 94.2803 63.3387 98.6103 63.3387C102.94 63.3387 106.42 59.8587 106.42 55.5287C106.42 53.9487 105.95 52.4887 105.16 51.2687C105.96 50.0487 106.42 48.5887 106.42 47.0087C106.42 45.4287 105.95 43.9687 105.16 42.7487C105.96 41.5287 106.42 40.0687 106.42 38.4887C106.42 36.9087 105.95 35.4487 105.16 34.2287C105.96 33.0087 106.42 31.5487 106.42 29.9687C106.42 29.7187 106.41 29.4687 106.38 29.2187C106.63 29.2387 106.88 29.2587 107.13 29.2587C108.71 29.2587 110.17 28.7887 111.39 27.9987C112.61 28.7987 114.08 29.2587 115.65 29.2587C119.98 29.2587 123.46 25.7787 123.46 21.4487C123.46 17.1187 119.98 13.6387 115.65 13.6387C114.07 13.6387 112.61 14.1087 111.39 14.8987C110.17 14.0987 108.7 13.6387 107.13 13.6387C105.56 13.6387 104.09 14.1087 102.87 14.8987C101.65 14.0987 100.19 13.6387 98.6103 13.6387C97.0303 13.6387 95.5703 14.1087 94.3503 14.8987C93.1303 14.0987 91.6703 13.6387 90.0903 13.6387C85.7603 13.6387 82.2803 17.1187 82.2803 21.4487C82.2803 25.7787 85.7603 29.2587 90.0903 29.2587Z" fill="black"/>
<path d="M176.95 48.9884C175.73 48.1884 174.27 47.7284 172.69 47.7284C171.11 47.7284 169.65 48.1984 168.43 48.9884C167.21 48.1884 165.75 47.7284 164.17 47.7284C159.84 47.7284 156.36 51.2084 156.36 55.5384C156.36 59.8684 159.84 63.3484 164.17 63.3484C165.75 63.3484 167.21 62.8784 168.43 62.0884C169.65 62.8884 171.11 63.3484 172.69 63.3484C174.27 63.3484 175.73 62.8784 176.95 62.0884C178.17 62.8884 179.63 63.3484 181.21 63.3484C185.54 63.3484 189.02 59.8684 189.02 55.5384C189.02 55.2884 189.01 55.0384 188.98 54.7884C189.23 54.8084 189.48 54.8284 189.73 54.8284C194.06 54.8284 197.54 51.3484 197.54 47.0184C197.54 42.6884 194.06 39.2084 189.73 39.2084C189.48 39.2084 189.23 39.2184 188.98 39.2484C189 38.9984 189.02 38.7484 189.02 38.4984C189.02 34.1684 185.54 30.6884 181.21 30.6884C179.63 30.6884 178.17 31.1584 176.95 31.9484C175.73 31.1484 174.27 30.6884 172.69 30.6884C172.44 30.6884 172.19 30.6984 171.94 30.7284C171.96 30.4784 171.98 30.2284 171.98 29.9784C171.98 29.7284 171.97 29.4784 171.94 29.2284C172.19 29.2484 172.43 29.2684 172.69 29.2684C174.27 29.2684 175.73 28.7984 176.95 28.0084C178.17 28.8084 179.63 29.2684 181.21 29.2684C182.79 29.2684 184.25 28.7984 185.47 28.0084C186.69 28.8084 188.15 29.2684 189.73 29.2684C194.06 29.2684 197.54 25.7884 197.54 21.4584C197.54 17.1284 194.06 13.6484 189.73 13.6484C188.15 13.6484 186.69 14.1184 185.47 14.9084C184.25 14.1084 182.79 13.6484 181.21 13.6484C179.63 13.6484 178.17 14.1184 176.95 14.9084C175.73 14.1084 174.27 13.6484 172.69 13.6484C168.36 13.6484 164.88 17.1284 164.88 21.4584C164.88 21.7084 164.89 21.9584 164.92 22.2084C164.67 22.1884 164.42 22.1684 164.17 22.1684C159.84 22.1684 156.36 25.6484 156.36 29.9784C156.36 34.3084 159.84 37.7884 164.17 37.7884C164.42 37.7884 164.67 37.7784 164.92 37.7484C164.9 37.9984 164.88 38.2484 164.88 38.4984C164.88 42.8284 168.36 46.3084 172.69 46.3084C174.27 46.3084 175.73 45.8384 176.95 45.0484C178.17 45.8484 179.63 46.3084 181.21 46.3084C181.46 46.3084 181.71 46.2984 181.96 46.2684C181.94 46.5184 181.92 46.7684 181.92 47.0184C181.92 47.2684 181.93 47.5184 181.96 47.7684C181.71 47.7484 181.46 47.7284 181.21 47.7284C179.63 47.7284 178.17 48.1984 176.95 48.9884Z" fill="black"/>
<path d="M15.9409 63.3484C17.5209 63.3484 18.9809 62.8784 20.2009 62.0884C21.4209 62.8884 22.8809 63.3484 24.4609 63.3484C26.0409 63.3484 27.5009 62.8784 28.7209 62.0884C29.9409 62.8884 31.4009 63.3484 32.9809 63.3484C37.3109 63.3484 40.7909 59.8684 40.7909 55.5384C40.7909 51.2084 37.3109 47.7284 32.9809 47.7284C31.4009 47.7284 29.9409 48.1984 28.7209 48.9884C27.5009 48.1884 26.0409 47.7284 24.4609 47.7284C24.2109 47.7284 23.9609 47.7384 23.7109 47.7684C23.7309 47.5184 23.7509 47.2684 23.7509 47.0184C23.7509 45.4384 23.2809 43.9784 22.4909 42.7584C23.2909 41.5384 23.7509 40.0784 23.7509 38.4984C23.7509 36.9184 23.2809 35.4584 22.4909 34.2384C23.2909 33.0184 23.7509 31.5584 23.7509 29.9784C23.7509 28.3984 23.2809 26.9384 22.4909 25.7184C23.2909 24.4984 23.7509 23.0384 23.7509 21.4584C23.7509 17.1284 20.2709 13.6484 15.9409 13.6484C11.6109 13.6484 8.13086 17.1284 8.13086 21.4584C8.13086 23.0384 8.60086 24.4984 9.39086 25.7184C8.59086 26.9384 8.13086 28.3984 8.13086 29.9784C8.13086 31.5584 8.60086 33.0184 9.39086 34.2384C8.59086 35.4584 8.13086 36.9184 8.13086 38.4984C8.13086 40.0784 8.60086 41.5384 9.39086 42.7584C8.59086 43.9784 8.13086 45.4384 8.13086 47.0184C8.13086 48.5984 8.60086 50.0584 9.39086 51.2784C8.59086 52.4984 8.13086 53.9584 8.13086 55.5384C8.13086 59.8684 11.6109 63.3484 15.9409 63.3484Z" fill="black"/>
<path d="M143.49 21.4491C143.49 21.1991 143.48 20.9491 143.45 20.6991C143.7 20.7191 143.95 20.7391 144.2 20.7391C148.53 20.7391 152.01 17.2591 152.01 12.9291C152.01 8.59914 148.53 5.11914 144.2 5.11914C139.87 5.11914 136.39 8.59914 136.39 12.9291C136.39 13.1791 136.4 13.4291 136.43 13.6791C136.18 13.6591 135.94 13.6391 135.68 13.6391C131.35 13.6391 127.87 17.1191 127.87 21.4491C127.87 25.7791 131.35 29.2591 135.68 29.2591C140.01 29.2591 143.49 25.7791 143.49 21.4491Z" fill="black"/>
<path d="M92.0902 78.4487C92.0902 74.1187 88.6102 70.6387 84.2802 70.6387C82.7002 70.6387 81.2402 71.1087 80.0202 71.8987C78.8002 71.0987 77.3402 70.6387 75.7602 70.6387C74.1802 70.6387 72.7202 71.1087 71.5002 71.8987C70.2802 71.0987 68.8202 70.6387 67.2402 70.6387C65.6602 70.6387 64.2002 71.1087 62.9802 71.8987C61.7602 71.0987 60.3002 70.6387 58.7202 70.6387C54.3902 70.6387 50.9102 74.1187 50.9102 78.4487C50.9102 82.7787 54.3902 86.2587 58.7202 86.2587C58.9702 86.2587 59.2202 86.2487 59.4702 86.2187C59.4502 86.4687 59.4302 86.7187 59.4302 86.9687C59.4302 88.5487 59.9002 90.0087 60.6902 91.2287C59.8902 92.4487 59.4302 93.9087 59.4302 95.4887C59.4302 97.0687 59.9002 98.5287 60.6902 99.7487C59.8902 100.969 59.4302 102.429 59.4302 104.009C59.4302 105.589 59.9002 107.049 60.6902 108.269C59.8902 109.489 59.4302 110.959 59.4302 112.529C59.4302 116.859 62.9102 120.339 67.2402 120.339C71.5702 120.339 75.0502 116.859 75.0502 112.529C75.0502 110.949 74.5802 109.489 73.7902 108.269C74.5902 107.049 75.0502 105.589 75.0502 104.009C75.0502 102.429 74.5802 100.969 73.7902 99.7487C74.5902 98.5287 75.0502 97.0687 75.0502 95.4887C75.0502 93.9087 74.5802 92.4487 73.7902 91.2287C74.5902 90.0087 75.0502 88.5487 75.0502 86.9687C75.0502 86.7187 75.0402 86.4687 75.0102 86.2187C75.2602 86.2387 75.5102 86.2587 75.7602 86.2587C77.3402 86.2587 78.8002 85.7887 80.0202 84.9987C81.2402 85.7987 82.7002 86.2587 84.2802 86.2587C88.6102 86.2587 92.0902 82.7787 92.0902 78.4487Z" fill="black"/>
<path d="M212.53 70.6289C210.95 70.6289 209.49 71.0989 208.27 71.8889C207.05 71.0889 205.59 70.6289 204.01 70.6289C202.43 70.6289 200.97 71.0989 199.75 71.8889C198.53 71.0889 197.07 70.6289 195.49 70.6289C193.91 70.6289 192.45 71.0989 191.23 71.8889C190.01 71.0889 188.54 70.6289 186.97 70.6289C182.64 70.6289 179.16 74.1089 179.16 78.4389C179.16 82.7689 182.64 86.2489 186.97 86.2489C187.22 86.2489 187.47 86.2389 187.72 86.2089C187.7 86.4589 187.68 86.7089 187.68 86.9589C187.68 88.5389 188.15 89.9989 188.94 91.2189C188.14 92.4389 187.68 93.8989 187.68 95.4789C187.68 97.0589 188.15 98.5189 188.94 99.7389C188.14 100.959 187.68 102.419 187.68 103.999C187.68 105.579 188.15 107.039 188.94 108.259C188.14 109.479 187.68 110.949 187.68 112.519C187.68 116.849 191.16 120.329 195.49 120.329C199.82 120.329 203.3 116.849 203.3 112.519C203.3 110.939 202.83 109.479 202.04 108.259C202.84 107.039 203.3 105.579 203.3 103.999C203.3 102.419 202.83 100.959 202.04 99.7389C202.83 98.5189 203.3 97.0589 203.3 95.4789C203.3 93.8989 202.83 92.4389 202.04 91.2189C202.84 89.9989 203.3 88.5389 203.3 86.9589C203.3 86.7089 203.29 86.4589 203.26 86.2089C203.51 86.2289 203.76 86.2489 204.01 86.2489C205.59 86.2489 207.05 85.7789 208.27 84.9889C209.49 85.7889 210.95 86.2489 212.53 86.2489C216.86 86.2489 220.34 82.7689 220.34 78.4389C220.34 74.1089 216.86 70.6289 212.53 70.6289Z" fill="black"/>
<path d="M174.75 86.9687C174.75 82.6387 171.27 79.1587 166.94 79.1587C166.69 79.1587 166.44 79.1687 166.19 79.1987C166.21 78.9487 166.23 78.6987 166.23 78.4487C166.23 74.1187 162.75 70.6387 158.42 70.6387C156.84 70.6387 155.38 71.1087 154.16 71.8987C152.94 71.0987 151.48 70.6387 149.9 70.6387C148.32 70.6387 146.86 71.1087 145.64 71.8987C144.42 71.0987 142.95 70.6387 141.38 70.6387C137.05 70.6387 133.57 74.1187 133.57 78.4487C133.57 80.0287 134.04 81.4887 134.83 82.7087C134.03 83.9287 133.57 85.3887 133.57 86.9687C133.57 88.5487 134.04 90.0087 134.83 91.2287C134.03 92.4487 133.57 93.9087 133.57 95.4887C133.57 97.0687 134.04 98.5287 134.83 99.7487C134.04 100.969 133.57 102.429 133.57 104.009C133.57 105.589 134.04 107.049 134.83 108.269C134.03 109.489 133.57 110.959 133.57 112.529C133.57 116.859 137.05 120.339 141.38 120.339C145.71 120.339 149.19 116.859 149.19 112.529C149.19 110.949 148.72 109.489 147.93 108.269C148.73 107.049 149.19 105.589 149.19 104.009C149.19 103.759 149.18 103.509 149.15 103.259C149.4 103.279 149.65 103.299 149.9 103.299C151.48 103.299 152.94 102.829 154.16 102.039C155.38 102.839 156.85 103.299 158.42 103.299C158.67 103.299 158.92 103.289 159.17 103.259C159.15 103.509 159.13 103.759 159.13 104.009C159.13 105.589 159.6 107.049 160.39 108.269C159.59 109.489 159.13 110.959 159.13 112.529C159.13 116.859 162.61 120.339 166.94 120.339C171.27 120.339 174.75 116.859 174.75 112.529C174.75 110.949 174.28 109.489 173.49 108.269C174.29 107.049 174.75 105.589 174.75 104.009C174.75 99.6787 171.27 96.1987 166.94 96.1987C166.69 96.1987 166.44 96.2087 166.19 96.2387C166.21 95.9887 166.23 95.7387 166.23 95.4887C166.23 95.2387 166.22 94.9887 166.19 94.7387C166.44 94.7587 166.68 94.7787 166.94 94.7787C171.27 94.7787 174.75 91.2987 174.75 86.9687ZM154.15 88.9387C152.93 88.1387 151.47 87.6787 149.89 87.6787C149.64 87.6787 149.39 87.6887 149.14 87.7187C149.16 87.4687 149.18 87.2187 149.18 86.9687C149.18 86.7187 149.17 86.4687 149.14 86.2187C149.39 86.2387 149.64 86.2587 149.89 86.2587C151.47 86.2587 152.93 85.7887 154.15 84.9987C155.37 85.7987 156.84 86.2587 158.41 86.2587C158.66 86.2587 158.91 86.2487 159.16 86.2187C159.14 86.4687 159.12 86.7187 159.12 86.9687C159.12 87.2187 159.13 87.4687 159.16 87.7187C158.91 87.6987 158.66 87.6787 158.41 87.6787C156.83 87.6787 155.37 88.1487 154.15 88.9387Z" fill="black"/>
<path d="M121.35 70.6289C119.77 70.6289 118.31 71.0989 117.09 71.8889C115.87 71.0889 114.41 70.6289 112.83 70.6289C108.5 70.6289 105.02 74.1089 105.02 78.4389C105.02 78.6889 105.03 78.9389 105.06 79.1889C104.81 79.1689 104.56 79.1489 104.31 79.1489C99.9805 79.1489 96.5005 82.6289 96.5005 86.9589C96.5005 87.2089 96.5105 87.4589 96.5405 87.7089C96.2905 87.6889 96.0405 87.6689 95.7905 87.6689C91.4605 87.6689 87.9805 91.1489 87.9805 95.4789C87.9805 97.0589 88.4505 98.5189 89.2405 99.7389C88.4405 100.959 87.9805 102.419 87.9805 103.999C87.9805 105.579 88.4505 107.039 89.2405 108.259C88.4405 109.479 87.9805 110.949 87.9805 112.519C87.9805 116.849 91.4605 120.329 95.7905 120.329C100.12 120.329 103.6 116.849 103.6 112.519C103.6 112.269 103.59 112.019 103.56 111.769C103.81 111.789 104.06 111.809 104.31 111.809C105.89 111.809 107.35 111.339 108.57 110.549C109.79 111.349 111.26 111.809 112.83 111.809C113.08 111.809 113.33 111.799 113.58 111.769C113.56 112.019 113.54 112.269 113.54 112.519C113.54 116.849 117.02 120.329 121.35 120.329C125.68 120.329 129.16 116.849 129.16 112.519C129.16 110.939 128.69 109.479 127.9 108.259C128.7 107.039 129.16 105.579 129.16 103.999C129.16 102.419 128.69 100.959 127.9 99.7389C128.7 98.5189 129.16 97.0589 129.16 95.4789C129.16 93.8989 128.69 92.4389 127.9 91.2189C128.7 89.9989 129.16 88.5389 129.16 86.9589C129.16 85.3789 128.69 83.9189 127.9 82.6989C128.7 81.4789 129.16 80.0189 129.16 78.4389C129.16 74.1089 125.68 70.6289 121.35 70.6289ZM108.57 97.4589C107.35 96.6589 105.89 96.1989 104.31 96.1989C104.06 96.1989 103.81 96.2089 103.56 96.2389C103.58 95.9889 103.6 95.7389 103.6 95.4889C103.6 95.2389 103.59 94.9889 103.56 94.7389C103.81 94.7589 104.06 94.7789 104.31 94.7789C108.64 94.7789 112.12 91.2989 112.12 86.9689C112.12 86.7189 112.11 86.4689 112.08 86.2189C112.33 86.2389 112.58 86.2589 112.83 86.2589C113.08 86.2589 113.33 86.2489 113.58 86.2189C113.56 86.4689 113.54 86.7189 113.54 86.9689C113.54 88.5489 114.01 90.0089 114.8 91.2289C114 92.4489 113.54 93.9089 113.54 95.4889C113.54 95.7389 113.55 95.9889 113.58 96.2389C113.33 96.2189 113.08 96.1989 112.83 96.1989C111.25 96.1989 109.79 96.6689 108.57 97.4589Z" fill="black"/>
</g>
<defs>
<clipPath id="clip0_5899_13213">
<rect width="225.03" height="125.24" fill="white" transform="translate(0.310547 0.109375)"/>
</clipPath>
</defs>
</svg>
