<svg width="195" height="127" viewBox="0 0 195 127" fill="none" xmlns="http://www.w3.org/2000/svg">
<g clip-path="url(#clip0_5899_13198)">
<path d="M187.75 37.12C191.7 34.25 194.27 29.6 194.27 24.34C194.27 15.59 187.21 8.53 178.46 8.53C176.97 8.53 175.54 8.75 174.19 9.14C172.88 8.76 171.46 8.53 169.94 8.53C168.42 8.53 167.02 8.75 165.67 9.14C164.36 8.76 162.94 8.53 161.42 8.53C157.55 8.53 154.01 9.91 151.27 12.21C149.64 5.21 143.39 0 135.88 0C129.29 0 123.65 4.01 121.28 9.73C120.42 10.09 119.6 10.53 118.83 11.02C116.37 9.44 113.45 8.52 110.3 8.52C108.81 8.52 107.38 8.74 106.03 9.13C104.72 8.75 103.3 8.52 101.78 8.52C100.26 8.52 98.8602 8.74 97.5102 9.13C96.2002 8.75 94.7802 8.52 93.2602 8.52C91.7402 8.52 90.3402 8.74 88.9902 9.13C87.6802 8.75 86.2602 8.52 84.7402 8.52C81.5902 8.52 78.6702 9.45 76.2002 11.03C73.7402 9.45 70.8102 8.52 67.6602 8.52C66.1702 8.52 64.7402 8.74 63.3902 9.13C62.0802 8.75 60.6602 8.52 59.1402 8.52C57.6202 8.52 56.2202 8.74 54.8702 9.13C53.5602 8.75 52.1402 8.52 50.6202 8.52C41.8702 8.52 34.8102 15.58 34.8102 24.33C34.8102 25.84 35.0402 27.28 35.4102 28.6C35.0502 29.89 34.8102 31.31 34.8102 32.85C34.8102 34.39 35.0402 35.8 35.4102 37.12C35.0502 38.41 34.8102 39.83 34.8102 41.37C34.8102 41.81 34.8302 42.24 34.8702 42.67C34.4302 42.63 34.0002 42.6 33.5502 42.6C33.1002 42.6 32.6802 42.62 32.2602 42.66C32.3002 42.23 32.3202 41.8 32.3202 41.37C32.3202 39.85 32.0902 38.43 31.7102 37.12C32.0902 35.77 32.3202 34.34 32.3202 32.85C32.3202 31.36 32.0902 29.91 31.7102 28.6C32.0902 27.25 32.3202 25.82 32.3202 24.33C32.3202 15.58 25.2602 8.52 16.5102 8.52C7.76016 8.52 0.660156 15.59 0.660156 24.34C0.660156 25.85 0.890156 27.29 1.26016 28.61C0.900156 29.9 0.660156 31.32 0.660156 32.86C0.660156 34.4 0.890156 35.81 1.26016 37.13C0.900156 38.42 0.660156 39.84 0.660156 41.38C0.660156 42.92 0.890156 44.33 1.26016 45.65C0.900156 46.94 0.660156 48.36 0.660156 49.9C0.660156 51.44 0.890156 52.85 1.26016 54.17C0.900156 55.46 0.660156 56.88 0.660156 58.42C0.660156 64.72 4.33016 70.13 9.65016 72.67C9.37016 73.84 9.21016 75.06 9.21016 76.32C9.21016 77.83 9.44016 79.27 9.81016 80.59C9.45016 81.88 9.21016 83.3 9.21016 84.84C9.21016 86.38 9.44016 87.79 9.81016 89.11C9.45016 90.4 9.21016 91.82 9.21016 93.36C9.21016 94.9 9.44016 96.31 9.81016 97.63C9.45016 98.92 9.21016 100.34 9.21016 101.88C9.21016 103.42 9.44016 104.83 9.81016 106.15C9.45016 107.44 9.21016 108.86 9.21016 110.4C9.21016 119.15 16.2702 126.21 25.0202 126.21C26.5602 126.21 27.9802 125.97 29.2702 125.61C30.6002 125.98 32.0302 126.21 33.5502 126.21C35.0702 126.21 36.5102 125.97 37.8002 125.61C39.1302 125.98 40.5602 126.21 42.0802 126.21C48.2802 126.21 53.6302 122.66 56.2202 117.48H62.0502C64.6402 122.66 69.9902 126.21 76.1902 126.21C77.7302 126.21 79.1502 125.97 80.4402 125.61C81.7702 125.98 83.2002 126.21 84.7202 126.21C90.9202 126.21 96.2702 122.66 98.8602 117.48H113.2C115.79 122.66 121.13 126.21 127.33 126.21C132.59 126.21 137.23 123.65 140.1 119.71C142.97 123.65 147.61 126.21 152.87 126.21C161.62 126.21 168.68 119.15 168.68 110.4C168.68 108.88 168.45 107.46 168.07 106.15C168.45 104.8 168.68 103.37 168.68 101.88C168.68 100.39 168.45 98.94 168.07 97.63C168.45 96.28 168.68 94.85 168.68 93.36C168.68 92.92 168.66 92.49 168.62 92.07C169.05 92.1 169.48 92.13 169.91 92.13C178.66 92.13 185.72 85.07 185.72 76.32C185.72 73 184.7 69.92 182.96 67.38C183.58 66.48 184.11 65.51 184.54 64.49C190.26 62.11 194.27 56.48 194.27 49.89C194.27 44.62 191.7 39.98 187.75 37.11V37.12Z" fill="#A23EF1"/>
<path d="M32.1002 58.43C32.1002 57.65 32.7402 57.01 33.5202 57.01C34.3002 57.01 34.9402 57.65 34.9402 58.43C34.9402 59.21 34.3002 59.85 33.5202 59.85C32.7402 59.85 32.1002 59.21 32.1002 58.43ZM23.5802 58.43C23.5802 57.65 24.2202 57.01 25.0002 57.01C25.7802 57.01 26.4202 57.65 26.4202 58.43C26.4202 59.21 25.7802 59.85 25.0002 59.85C24.2202 59.85 23.5802 59.21 23.5802 58.43ZM15.0502 24.34C15.0502 23.56 15.6902 22.92 16.4702 22.92C17.2502 22.92 17.8902 23.56 17.8902 24.34C17.8902 25.12 17.2502 25.76 16.4702 25.76C15.6902 25.76 15.0502 25.12 15.0502 24.34ZM15.0502 32.86C15.0502 32.08 15.6902 31.44 16.4702 31.44C17.2502 31.44 17.8902 32.08 17.8902 32.86C17.8902 33.64 17.2502 34.28 16.4702 34.28C15.6902 34.28 15.0502 33.64 15.0502 32.86ZM15.0502 41.38C15.0502 40.6 15.6902 39.96 16.4702 39.96C17.2502 39.96 17.8902 40.6 17.8902 41.38C17.8902 42.16 17.2502 42.8 16.4702 42.8C15.6902 42.8 15.0502 42.16 15.0502 41.38ZM15.0502 49.9C15.0502 49.12 15.6902 48.48 16.4702 48.48C17.2502 48.48 17.8902 49.12 17.8902 49.9C17.8902 50.68 17.2502 51.32 16.4702 51.32C15.6902 51.32 15.0502 50.68 15.0502 49.9ZM15.0502 58.42C15.0502 57.64 15.6902 57 16.4702 57C17.2502 57 17.8902 57.64 17.8902 58.42C17.8902 59.2 17.2502 59.84 16.4702 59.84C15.6902 59.84 15.0502 59.2 15.0502 58.42ZM8.66016 24.33C8.66016 25.89 9.16016 27.38 9.87016 28.59C9.16016 29.87 8.66016 31.29 8.66016 32.85C8.66016 34.41 9.16016 35.9 9.87016 37.11C9.16016 38.39 8.66016 39.81 8.66016 41.37C8.66016 42.93 9.16016 44.42 9.87016 45.63C9.16016 46.91 8.66016 48.33 8.66016 49.89C8.66016 51.45 9.16016 52.94 9.87016 54.15C9.16016 55.43 8.66016 56.85 8.66016 58.41C8.66016 62.74 12.1402 66.22 16.4702 66.22C18.0302 66.22 19.4502 65.72 20.7302 65.01C21.9402 65.72 23.4302 66.22 24.9902 66.22C26.5502 66.22 27.9702 65.72 29.2502 65.01C30.4602 65.72 31.9502 66.22 33.5102 66.22C37.8402 66.22 41.3202 62.74 41.3202 58.41C41.3202 54.08 37.8402 50.6 33.5102 50.6C31.9502 50.6 30.4602 51.1 29.2502 51.88C27.9702 51.1 26.5502 50.6 24.9902 50.6C24.7102 50.6 24.4902 50.6 24.2102 50.67C24.2802 50.39 24.2802 50.17 24.2802 49.89C24.2802 48.33 23.7802 46.91 23.0002 45.63C23.7802 44.42 24.2802 42.93 24.2802 41.37C24.2802 39.81 23.7802 38.39 23.0002 37.11C23.7802 35.9 24.2802 34.41 24.2802 32.85C24.2802 31.29 23.7802 29.87 23.0002 28.59C23.7802 27.38 24.2802 25.89 24.2802 24.33C24.2802 20 20.8002 16.52 16.4702 16.52C12.1402 16.52 8.66016 20 8.66016 24.33ZM49.1702 24.33C49.1702 23.55 49.8102 22.91 50.5902 22.91C51.3702 22.91 52.0102 23.55 52.0102 24.33C52.0102 25.11 51.3702 25.75 50.5902 25.75C49.8102 25.75 49.1702 25.11 49.1702 24.33ZM49.1702 58.42C49.1702 57.64 49.8102 57 50.5902 57C51.3702 57 52.0102 57.64 52.0102 58.42C52.0102 59.2 51.3702 59.84 50.5902 59.84C49.8102 59.84 49.1702 59.2 49.1702 58.42ZM66.2202 24.33C66.2202 23.55 66.8602 22.91 67.6402 22.91C68.4202 22.91 69.0602 23.55 69.0602 24.33C69.0602 25.11 68.4202 25.75 67.6402 25.75C66.8602 25.75 66.2202 25.11 66.2202 24.33ZM66.2202 41.38C66.2202 40.6 66.8602 39.96 67.6402 39.96C68.4202 39.96 69.0602 40.6 69.0602 41.38C69.0602 42.16 68.4202 42.8 67.6402 42.8C66.8602 42.8 66.2202 42.16 66.2202 41.38ZM66.2202 58.43C66.2202 57.65 66.8602 57.01 67.6402 57.01C68.4202 57.01 69.0602 57.65 69.0602 58.43C69.0602 59.21 68.4202 59.85 67.6402 59.85C66.8602 59.85 66.2202 59.21 66.2202 58.43ZM57.7002 24.34C57.7002 23.56 58.3402 22.92 59.1202 22.92C59.9002 22.92 60.5402 23.56 60.5402 24.34C60.5402 25.12 59.9002 25.76 59.1202 25.76C58.3402 25.76 57.7002 25.12 57.7002 24.34ZM57.7002 41.39C57.7002 40.61 58.3402 39.97 59.1202 39.97C59.9002 39.97 60.5402 40.61 60.5402 41.39C60.5402 42.17 59.9002 42.81 59.1202 42.81C58.3402 42.81 57.7002 42.17 57.7002 41.39ZM57.7002 58.44C57.7002 57.66 58.3402 57.02 59.1202 57.02C59.9002 57.02 60.5402 57.66 60.5402 58.44C60.5402 59.22 59.9002 59.86 59.1202 59.86C58.3402 59.86 57.7002 59.22 57.7002 58.44ZM49.1802 32.87C49.1802 32.09 49.8202 31.45 50.6002 31.45C51.3802 31.45 52.0202 32.09 52.0202 32.87C52.0202 33.65 51.3802 34.29 50.6002 34.29C49.8202 34.29 49.1802 33.65 49.1802 32.87ZM49.1802 41.39C49.1802 40.61 49.8202 39.97 50.6002 39.97C51.3802 39.97 52.0202 40.61 52.0202 41.39C52.0202 42.17 51.3802 42.81 50.6002 42.81C49.8202 42.81 49.1802 42.17 49.1802 41.39ZM49.1802 49.91C49.1802 49.13 49.8202 48.49 50.6002 48.49C51.3802 48.49 52.0202 49.13 52.0202 49.91C52.0202 50.69 51.3802 51.33 50.6002 51.33C49.8202 51.33 49.1802 50.69 49.1802 49.91ZM42.7902 32.86C42.7902 34.42 43.2902 35.91 44.0002 37.12C43.2902 38.4 42.7902 39.82 42.7902 41.38C42.7902 42.94 43.2902 44.43 44.0002 45.64C43.2902 46.92 42.7902 48.34 42.7902 49.9C42.7902 51.46 43.2902 52.95 44.0002 54.16C43.2902 55.44 42.7902 56.86 42.7902 58.42C42.7902 62.75 46.2702 66.23 50.6002 66.23C52.1602 66.23 53.5802 65.73 54.8602 65.02C56.0702 65.73 57.5602 66.23 59.1202 66.23C60.6802 66.23 62.1002 65.73 63.3802 65.02C64.5902 65.73 66.0802 66.23 67.6402 66.23C71.9702 66.23 75.4502 62.75 75.4502 58.42C75.4502 54.09 71.9702 50.61 67.6402 50.61C66.0802 50.61 64.5902 51.11 63.3802 51.89C62.1002 51.11 60.6802 50.61 59.1202 50.61C58.8402 50.61 58.6202 50.61 58.3402 50.68C58.4102 50.4 58.4102 50.18 58.4102 49.9C58.4102 49.69 58.4102 49.4 58.3402 49.19H59.1202C60.6802 49.19 62.1002 48.76 63.3802 47.98C64.5902 48.76 66.0802 49.19 67.6402 49.19C71.9702 49.19 75.4502 45.71 75.4502 41.38C75.4502 37.05 71.9702 33.57 67.6402 33.57C66.0802 33.57 64.5902 34.07 63.3802 34.85C62.1002 34.07 60.6802 33.57 59.1202 33.57C58.8402 33.57 58.6202 33.57 58.3402 33.64C58.4102 33.36 58.4102 33.14 58.4102 32.86C58.4102 32.65 58.4102 32.36 58.3402 32.15H59.1202C60.6802 32.15 62.1002 31.72 63.3802 30.94C64.5902 31.72 66.0802 32.15 67.6402 32.15C71.9702 32.15 75.4502 28.67 75.4502 24.34C75.4502 20.01 71.9702 16.53 67.6402 16.53C66.0802 16.53 64.5902 17.03 63.3802 17.81C62.1002 17.03 60.6802 16.53 59.1202 16.53C57.5602 16.53 56.0702 17.03 54.8602 17.81C53.5802 17.03 52.1602 16.53 50.6002 16.53C46.2702 16.53 42.7902 20.01 42.7902 24.34C42.7902 25.9 43.2902 27.39 44.0002 28.6C43.2902 29.88 42.7902 31.3 42.7902 32.86ZM108.87 24.34C108.87 23.56 109.51 22.92 110.29 22.92C111.07 22.92 111.71 23.56 111.71 24.34C111.71 25.12 111.07 25.76 110.29 25.76C109.51 25.76 108.87 25.12 108.87 24.34ZM100.35 24.34C100.35 23.56 100.99 22.92 101.77 22.92C102.55 22.92 103.19 23.56 103.19 24.34C103.19 25.12 102.55 25.76 101.77 25.76C100.99 25.76 100.35 25.12 100.35 24.34ZM91.8302 24.34C91.8302 23.56 92.4702 22.92 93.2502 22.92C94.0302 22.92 94.6702 23.56 94.6702 24.34C94.6702 25.12 94.0302 25.76 93.2502 25.76C92.4702 25.76 91.8302 25.12 91.8302 24.34ZM91.8302 32.86C91.8302 32.08 92.4702 31.44 93.2502 31.44C94.0302 31.44 94.6702 32.08 94.6702 32.86C94.6702 33.64 94.0302 34.28 93.2502 34.28C92.4702 34.28 91.8302 33.64 91.8302 32.86ZM91.8302 41.38C91.8302 40.6 92.4702 39.96 93.2502 39.96C94.0302 39.96 94.6702 40.6 94.6702 41.38C94.6702 42.16 94.0302 42.8 93.2502 42.8C92.4702 42.8 91.8302 42.16 91.8302 41.38ZM91.8302 49.9C91.8302 49.12 92.4702 48.48 93.2502 48.48C94.0302 48.48 94.6702 49.12 94.6702 49.9C94.6702 50.68 94.0302 51.32 93.2502 51.32C92.4702 51.32 91.8302 50.68 91.8302 49.9ZM91.8302 58.42C91.8302 57.64 92.4702 57 93.2502 57C94.0302 57 94.6702 57.64 94.6702 58.42C94.6702 59.2 94.0302 59.84 93.2502 59.84C92.4702 59.84 91.8302 59.2 91.8302 58.42ZM83.3102 24.33C83.3102 23.55 83.9502 22.91 84.7302 22.91C85.5102 22.91 86.1502 23.55 86.1502 24.33C86.1502 25.11 85.5102 25.75 84.7302 25.75C83.9502 25.75 83.3102 25.11 83.3102 24.33ZM76.9202 24.33C76.9202 28.66 80.4002 32.14 84.7302 32.14H85.4402V32.85C85.4402 34.41 85.8702 35.9 86.6502 37.11C85.8702 38.39 85.4402 39.81 85.4402 41.37C85.4402 42.93 85.8702 44.42 86.6502 45.63C85.8702 46.91 85.4402 48.33 85.4402 49.89C85.4402 51.45 85.8702 52.94 86.6502 54.15C85.8702 55.43 85.4402 56.85 85.4402 58.41C85.4402 62.74 88.9202 66.22 93.2502 66.22C97.5802 66.22 101.06 62.74 101.06 58.41C101.06 56.85 100.56 55.43 99.7802 54.15C100.56 52.94 101.06 51.45 101.06 49.89C101.06 48.33 100.56 46.91 99.7802 45.63C100.56 44.42 101.06 42.93 101.06 41.37C101.06 39.81 100.56 38.39 99.7802 37.11C100.56 35.9 101.06 34.41 101.06 32.85C101.06 32.64 101.06 32.35 100.99 32.14H101.77C103.33 32.14 104.75 31.71 106.03 30.93C107.24 31.71 108.73 32.14 110.29 32.14C114.62 32.14 118.1 28.66 118.1 24.33C118.1 20 114.62 16.52 110.29 16.52C108.73 16.52 107.24 17.02 106.03 17.8C104.75 17.02 103.33 16.52 101.77 16.52C100.21 16.52 98.7202 17.02 97.5102 17.8C96.2302 17.02 94.8102 16.52 93.2502 16.52C91.6902 16.52 90.2002 17.02 88.9902 17.8C87.7102 17.02 86.2902 16.52 84.7302 16.52C80.4002 16.52 76.9202 20 76.9202 24.33ZM134.47 15.81C134.47 15.03 135.11 14.39 135.89 14.39C136.67 14.39 137.31 15.03 137.31 15.81C137.31 16.59 136.67 17.23 135.89 17.23C135.11 17.23 134.47 16.59 134.47 15.81ZM125.95 24.33C125.95 23.55 126.59 22.91 127.37 22.91C128.15 22.91 128.79 23.55 128.79 24.33C128.79 25.11 128.15 25.75 127.37 25.75C126.59 25.75 125.95 25.11 125.95 24.33ZM119.56 24.33C119.56 28.66 123.04 32.14 127.37 32.14C131.7 32.14 135.18 28.66 135.18 24.33C135.18 24.12 135.18 23.83 135.11 23.62H135.89C140.22 23.62 143.7 20.14 143.7 15.81C143.7 11.48 140.22 8 135.89 8C131.56 8 128.08 11.48 128.08 15.81V16.59C127.87 16.52 127.58 16.52 127.37 16.52C123.04 16.52 119.56 20 119.56 24.33ZM177.06 24.33C177.06 23.55 177.7 22.91 178.48 22.91C179.26 22.91 179.9 23.55 179.9 24.33C179.9 25.11 179.26 25.75 178.48 25.75C177.7 25.75 177.06 25.11 177.06 24.33ZM177.06 49.9C177.06 49.12 177.7 48.48 178.48 48.48C179.26 48.48 179.9 49.12 179.9 49.9C179.9 50.68 179.26 51.32 178.48 51.32C177.7 51.32 177.06 50.68 177.06 49.9ZM168.54 24.33C168.54 23.55 169.18 22.91 169.96 22.91C170.74 22.91 171.38 23.55 171.38 24.33C171.38 25.11 170.74 25.75 169.96 25.75C169.18 25.75 168.54 25.11 168.54 24.33ZM168.54 41.38C168.54 40.6 169.18 39.96 169.96 39.96C170.74 39.96 171.38 40.6 171.38 41.38C171.38 42.16 170.74 42.8 169.96 42.8C169.18 42.8 168.54 42.16 168.54 41.38ZM168.54 58.43C168.54 57.65 169.18 57.01 169.96 57.01C170.74 57.01 171.38 57.65 171.38 58.43C171.38 59.21 170.74 59.85 169.96 59.85C169.18 59.85 168.54 59.21 168.54 58.43ZM160.02 24.34C160.02 23.56 160.66 22.92 161.44 22.92C162.22 22.92 162.86 23.56 162.86 24.34C162.86 25.12 162.22 25.76 161.44 25.76C160.66 25.76 160.02 25.12 160.02 24.34ZM160.02 41.39C160.02 40.61 160.66 39.97 161.44 39.97C162.22 39.97 162.86 40.61 162.86 41.39C162.86 42.17 162.22 42.81 161.44 42.81C160.66 42.81 160.02 42.17 160.02 41.39ZM160.02 58.44C160.02 57.66 160.66 57.02 161.44 57.02C162.22 57.02 162.86 57.66 162.86 58.44C162.86 59.22 162.22 59.86 161.44 59.86C160.66 59.86 160.02 59.22 160.02 58.44ZM151.5 32.87C151.5 32.09 152.14 31.45 152.92 31.45C153.7 31.45 154.34 32.09 154.34 32.87C154.34 33.65 153.7 34.29 152.92 34.29C152.14 34.29 151.5 33.65 151.5 32.87ZM151.5 58.44C151.5 57.66 152.14 57.02 152.92 57.02C153.7 57.02 154.34 57.66 154.34 58.44C154.34 59.22 153.7 59.86 152.92 59.86C152.14 59.86 151.5 59.22 151.5 58.44ZM153.63 24.35V25.13C153.42 25.06 153.13 25.06 152.92 25.06C148.59 25.06 145.11 28.54 145.11 32.87C145.11 37.2 148.59 40.68 152.92 40.68H153.63V41.39C153.63 45.72 157.11 49.2 161.44 49.2C163 49.2 164.42 48.77 165.7 47.99C166.91 48.77 168.4 49.2 169.96 49.2H170.67V50.69C170.46 50.62 170.17 50.62 169.96 50.62C168.4 50.62 166.9 51.12 165.7 51.9C164.42 51.12 163 50.62 161.44 50.62C159.88 50.62 158.39 51.12 157.18 51.9C155.9 51.12 154.48 50.62 152.92 50.62C148.59 50.62 145.11 54.1 145.11 58.43C145.11 62.76 148.59 66.24 152.92 66.24C154.48 66.24 155.9 65.74 157.18 65.03C158.39 65.74 159.88 66.24 161.44 66.24C163 66.24 164.42 65.74 165.7 65.03C166.91 65.74 168.4 66.24 169.96 66.24C174.29 66.24 177.77 62.76 177.77 58.43C177.77 58.22 177.77 57.93 177.7 57.72H178.48C182.81 57.72 186.29 54.24 186.29 49.91C186.29 45.58 182.81 42.1 178.48 42.1C178.2 42.1 177.98 42.1 177.7 42.17C177.77 41.89 177.77 41.67 177.77 41.39C177.77 37.06 174.29 33.58 169.96 33.58C168.4 33.58 166.9 34.08 165.7 34.86C164.42 34.08 163 33.58 161.44 33.58C161.16 33.58 160.94 33.58 160.66 33.65C160.73 33.37 160.73 33.15 160.73 32.87C160.73 32.66 160.73 32.37 160.66 32.16H161.44C163 32.16 164.42 31.73 165.7 30.95C166.91 31.73 168.4 32.16 169.96 32.16C171.52 32.16 172.94 31.73 174.22 30.95C175.43 31.73 176.92 32.16 178.48 32.16C182.81 32.16 186.29 28.68 186.29 24.35C186.29 20.02 182.81 16.54 178.48 16.54C176.92 16.54 175.43 17.04 174.22 17.82C172.94 17.04 171.52 16.54 169.96 16.54C168.4 16.54 166.9 17.04 165.7 17.82C164.42 17.04 163 16.54 161.44 16.54C157.11 16.54 153.63 20.02 153.63 24.35ZM49.2102 84.87C49.2102 84.09 49.8502 83.45 50.6302 83.45C51.4102 83.45 52.0502 84.09 52.0502 84.87C52.0502 85.65 51.4102 86.29 50.6302 86.29C49.8502 86.29 49.2102 85.65 49.2102 84.87ZM49.2102 93.39C49.2102 92.61 49.8502 91.97 50.6302 91.97C51.4102 91.97 52.0502 92.61 52.0502 93.39C52.0502 94.17 51.4102 94.81 50.6302 94.81C49.8502 94.81 49.2102 94.17 49.2102 93.39ZM49.2102 101.91C49.2102 101.13 49.8502 100.49 50.6302 100.49C51.4102 100.49 52.0502 101.13 52.0502 101.91C52.0502 102.69 51.4102 103.33 50.6302 103.33C49.8502 103.33 49.2102 102.69 49.2102 101.91ZM40.6902 76.34C40.6902 75.56 41.3302 74.92 42.1102 74.92C42.8902 74.92 43.5302 75.56 43.5302 76.34C43.5302 77.12 42.8902 77.76 42.1102 77.76C41.3302 77.76 40.6902 77.12 40.6902 76.34ZM40.6902 110.43C40.6902 109.65 41.3302 109.01 42.1102 109.01C42.8902 109.01 43.5302 109.65 43.5302 110.43C43.5302 111.21 42.8902 111.85 42.1102 111.85C41.3302 111.85 40.6902 111.21 40.6902 110.43ZM32.1702 76.34C32.1702 75.56 32.8102 74.92 33.5902 74.92C34.3702 74.92 35.0102 75.56 35.0102 76.34C35.0102 77.12 34.3702 77.76 33.5902 77.76C32.8102 77.76 32.1702 77.12 32.1702 76.34ZM32.1702 110.43C32.1702 109.65 32.8102 109.01 33.5902 109.01C34.3702 109.01 35.0102 109.65 35.0102 110.43C35.0102 111.21 34.3702 111.85 33.5902 111.85C32.8102 111.85 32.1702 111.21 32.1702 110.43ZM23.6502 76.34C23.6502 75.56 24.2902 74.92 25.0702 74.92C25.8502 74.92 26.4902 75.56 26.4902 76.34C26.4902 77.12 25.8502 77.76 25.0702 77.76C24.2902 77.76 23.6502 77.12 23.6502 76.34ZM23.6502 84.86C23.6502 84.08 24.2902 83.44 25.0702 83.44C25.8502 83.44 26.4902 84.08 26.4902 84.86C26.4902 85.64 25.8502 86.28 25.0702 86.28C24.2902 86.28 23.6502 85.64 23.6502 84.86ZM23.6502 93.38C23.6502 92.6 24.2902 91.96 25.0702 91.96C25.8502 91.96 26.4902 92.6 26.4902 93.38C26.4902 94.16 25.8502 94.8 25.0702 94.8C24.2902 94.8 23.6502 94.16 23.6502 93.38ZM23.6502 101.9C23.6502 101.12 24.2902 100.48 25.0702 100.48C25.8502 100.48 26.4902 101.12 26.4902 101.9C26.4902 102.68 25.8502 103.32 25.0702 103.32C24.2902 103.32 23.6502 102.68 23.6502 101.9ZM23.6502 110.42C23.6502 109.64 24.2902 109 25.0702 109C25.8502 109 26.4902 109.64 26.4902 110.42C26.4902 111.2 25.8502 111.84 25.0702 111.84C24.2902 111.84 23.6502 111.2 23.6502 110.42ZM17.2602 76.33C17.2602 77.89 17.7602 79.38 18.4702 80.59C17.7602 81.87 17.2602 83.29 17.2602 84.85C17.2602 86.41 17.7602 87.9 18.4702 89.11C17.7602 90.39 17.2602 91.81 17.2602 93.37C17.2602 94.93 17.7602 96.42 18.4702 97.63C17.7602 98.91 17.2602 100.33 17.2602 101.89C17.2602 103.45 17.7602 104.94 18.4702 106.15C17.7602 107.43 17.2602 108.85 17.2602 110.41C17.2602 114.74 20.7402 118.22 25.0702 118.22C26.6302 118.22 28.0502 117.72 29.3302 117.01C30.5402 117.72 32.0302 118.22 33.5902 118.22C35.1502 118.22 36.5702 117.72 37.8502 117.01C39.0602 117.72 40.5502 118.22 42.1102 118.22C46.4402 118.22 49.9202 114.74 49.9202 110.41C49.9202 110.2 49.9202 109.91 49.8502 109.7H50.6302C54.9602 109.7 58.4402 106.22 58.4402 101.89C58.4402 100.33 57.9402 98.91 57.1602 97.63C57.9402 96.42 58.4402 94.93 58.4402 93.37C58.4402 91.81 57.9402 90.39 57.1602 89.11C57.9402 87.9 58.4402 86.41 58.4402 84.85C58.4402 80.52 54.9602 77.04 50.6302 77.04C50.3502 77.04 50.1302 77.04 49.8502 77.11C49.9202 76.83 49.9202 76.61 49.9202 76.33C49.9202 72 46.4402 68.52 42.1102 68.52C40.5502 68.52 39.0602 69.02 37.8502 69.8C36.5702 69.02 35.1502 68.52 33.5902 68.52C32.0302 68.52 30.5402 69.02 29.3302 69.8C28.0502 69.02 26.6302 68.52 25.0702 68.52C20.7402 68.52 17.2602 72 17.2602 76.33ZM42.8302 93.38C42.8302 94.94 43.2602 96.43 44.0402 97.64C43.2602 98.92 42.8302 100.34 42.8302 101.9V102.68C42.6202 102.61 42.3302 102.61 42.1202 102.61C40.5602 102.61 39.0702 103.11 37.8602 103.89C36.5802 103.11 35.1602 102.61 33.6002 102.61C33.3202 102.61 33.1002 102.61 32.8202 102.68C32.8902 102.4 32.8902 102.18 32.8902 101.9C32.8902 100.34 32.3902 98.92 31.6102 97.64C32.3902 96.43 32.8902 94.94 32.8902 93.38C32.8902 91.82 32.3902 90.4 31.6102 89.12C32.3902 87.91 32.8902 86.42 32.8902 84.86C32.8902 84.65 32.8902 84.36 32.8202 84.15H33.6002C35.1602 84.15 36.5802 83.72 37.8602 82.94C39.0702 83.72 40.5602 84.15 42.1202 84.15H42.8302V84.86C42.8302 86.42 43.2602 87.91 44.0402 89.12C43.2602 90.4 42.8302 91.82 42.8302 93.38ZM91.8502 84.86C91.8502 84.08 92.4902 83.44 93.2702 83.44C94.0502 83.44 94.6902 84.08 94.6902 84.86C94.6902 85.64 94.0502 86.28 93.2702 86.28C92.4902 86.28 91.8502 85.64 91.8502 84.86ZM91.8502 93.38C91.8502 92.6 92.4902 91.96 93.2702 91.96C94.0502 91.96 94.6902 92.6 94.6902 93.38C94.6902 94.16 94.0502 94.8 93.2702 94.8C92.4902 94.8 91.8502 94.16 91.8502 93.38ZM91.8502 101.9C91.8502 101.12 92.4902 100.48 93.2702 100.48C94.0502 100.48 94.6902 101.12 94.6902 101.9C94.6902 102.68 94.0502 103.32 93.2702 103.32C92.4902 103.32 91.8502 102.68 91.8502 101.9ZM83.3302 76.33C83.3302 75.55 83.9702 74.91 84.7502 74.91C85.5302 74.91 86.1702 75.55 86.1702 76.33C86.1702 77.11 85.5302 77.75 84.7502 77.75C83.9702 77.75 83.3302 77.11 83.3302 76.33ZM83.3302 110.42C83.3302 109.64 83.9702 109 84.7502 109C85.5302 109 86.1702 109.64 86.1702 110.42C86.1702 111.2 85.5302 111.84 84.7502 111.84C83.9702 111.84 83.3302 111.2 83.3302 110.42ZM74.8102 76.33C74.8102 75.55 75.4502 74.91 76.2302 74.91C77.0102 74.91 77.6502 75.55 77.6502 76.33C77.6502 77.11 77.0102 77.75 76.2302 77.75C75.4502 77.75 74.8102 77.11 74.8102 76.33ZM74.8102 110.42C74.8102 109.64 75.4502 109 76.2302 109C77.0102 109 77.6502 109.64 77.6502 110.42C77.6502 111.2 77.0102 111.84 76.2302 111.84C75.4502 111.84 74.8102 111.2 74.8102 110.42ZM66.2902 84.85C66.2902 84.07 66.9302 83.43 67.7102 83.43C68.4902 83.43 69.1302 84.07 69.1302 84.85C69.1302 85.63 68.4902 86.27 67.7102 86.27C66.9302 86.27 66.2902 85.63 66.2902 84.85ZM66.2902 93.37C66.2902 92.59 66.9302 91.95 67.7102 91.95C68.4902 91.95 69.1302 92.59 69.1302 93.37C69.1302 94.15 68.4902 94.79 67.7102 94.79C66.9302 94.79 66.2902 94.15 66.2902 93.37ZM66.2902 101.89C66.2902 101.11 66.9302 100.47 67.7102 100.47C68.4902 100.47 69.1302 101.11 69.1302 101.89C69.1302 102.67 68.4902 103.31 67.7102 103.31C66.9302 103.31 66.2902 102.67 66.2902 101.89ZM68.4202 76.32V77.1C68.2102 77.03 67.9202 77.03 67.7102 77.03C63.3802 77.03 59.9002 80.51 59.9002 84.84C59.9002 86.4 60.4002 87.89 61.1102 89.1C60.4002 90.38 59.9002 91.8 59.9002 93.36C59.9002 94.92 60.4002 96.41 61.1102 97.62C60.4002 98.9 59.9002 100.32 59.9002 101.88C59.9002 106.21 63.3802 109.69 67.7102 109.69H68.4202V110.4C68.4202 114.73 71.9002 118.21 76.2302 118.21C77.7902 118.21 79.2102 117.71 80.4902 117C81.7002 117.71 83.1902 118.21 84.7502 118.21C89.0802 118.21 92.5602 114.73 92.5602 110.4C92.5602 110.19 92.5602 109.9 92.4902 109.69H93.2702C97.6002 109.69 101.08 106.21 101.08 101.88C101.08 100.32 100.58 98.9 99.8002 97.62C100.58 96.41 101.08 94.92 101.08 93.36C101.08 91.8 100.58 90.38 99.8002 89.1C100.58 87.89 101.08 86.4 101.08 84.84C101.08 80.51 97.6002 77.03 93.2702 77.03C92.9902 77.03 92.7702 77.03 92.4902 77.1C92.5602 76.82 92.5602 76.6 92.5602 76.32C92.5602 71.99 89.0802 68.51 84.7502 68.51C83.1902 68.51 81.7002 69.01 80.4902 69.79C79.2102 69.01 77.7902 68.51 76.2302 68.51C71.9002 68.51 68.4202 71.99 68.4202 76.32ZM85.4702 93.37C85.4702 94.93 85.9002 96.42 86.6802 97.63C85.9002 98.91 85.4702 100.33 85.4702 101.89V102.67C85.2602 102.6 84.9702 102.6 84.7602 102.6C83.2002 102.6 81.7102 103.1 80.5002 103.88C79.2202 103.1 77.8002 102.6 76.2402 102.6C75.9602 102.6 75.7402 102.6 75.4602 102.67C75.5302 102.39 75.5302 102.17 75.5302 101.89C75.5302 100.33 75.0302 98.91 74.2502 97.63C75.0302 96.42 75.5302 94.93 75.5302 93.37C75.5302 91.81 75.0302 90.39 74.2502 89.11C75.0302 87.9 75.5302 86.41 75.5302 84.85C75.5302 84.64 75.5302 84.35 75.4602 84.14H76.2402C77.8002 84.14 79.2202 83.71 80.5002 82.93C81.7102 83.71 83.2002 84.14 84.7602 84.14H85.4702V84.85C85.4702 86.41 85.9002 87.9 86.6802 89.11C85.9002 90.39 85.4702 91.81 85.4702 93.37ZM125.95 76.32C125.95 75.54 126.59 74.9 127.37 74.9C128.15 74.9 128.79 75.54 128.79 76.32C128.79 77.1 128.15 77.74 127.37 77.74C126.59 77.74 125.95 77.1 125.95 76.32ZM125.95 84.84C125.95 84.06 126.59 83.42 127.37 83.42C128.15 83.42 128.79 84.06 128.79 84.84C128.79 85.62 128.15 86.26 127.37 86.26C126.59 86.26 125.95 85.62 125.95 84.84ZM125.95 93.36C125.95 92.58 126.59 91.94 127.37 91.94C128.15 91.94 128.79 92.58 128.79 93.36C128.79 94.14 128.15 94.78 127.37 94.78C126.59 94.78 125.95 94.14 125.95 93.36ZM125.95 101.88C125.95 101.1 126.59 100.46 127.37 100.46C128.15 100.46 128.79 101.1 128.79 101.88C128.79 102.66 128.15 103.3 127.37 103.3C126.59 103.3 125.95 102.66 125.95 101.88ZM125.95 110.4C125.95 109.62 126.59 108.98 127.37 108.98C128.15 108.98 128.79 109.62 128.79 110.4C128.79 111.18 128.15 111.82 127.37 111.82C126.59 111.82 125.95 111.18 125.95 110.4ZM119.56 84.83C119.56 86.39 120.06 87.88 120.77 89.09C120.06 90.37 119.56 91.79 119.56 93.35C119.56 94.91 120.06 96.4 120.77 97.61C120.06 98.89 119.56 100.31 119.56 101.87C119.56 103.43 120.06 104.92 120.77 106.13C120.06 107.41 119.56 108.83 119.56 110.39C119.56 114.72 123.04 118.2 127.37 118.2C131.7 118.2 135.18 114.72 135.18 110.39C135.18 108.83 134.68 107.41 133.9 106.13C134.68 104.92 135.18 103.43 135.18 101.87C135.18 100.31 134.68 98.89 133.9 97.61C134.68 96.4 135.18 94.91 135.18 93.35C135.18 91.79 134.68 90.37 133.9 89.09C134.68 87.88 135.18 86.39 135.18 84.83C135.18 83.27 134.68 81.85 133.9 80.57C134.68 79.36 135.18 77.87 135.18 76.31C135.18 71.98 131.7 68.5 127.37 68.5C123.04 68.5 119.56 71.98 119.56 76.31C119.56 77.87 120.06 79.36 120.77 80.57C120.06 81.85 119.56 83.27 119.56 84.83ZM168.55 76.31C168.55 75.53 169.19 74.89 169.97 74.89C170.75 74.89 171.39 75.53 171.39 76.31C171.39 77.09 170.75 77.73 169.97 77.73C169.19 77.73 168.55 77.09 168.55 76.31ZM160.03 76.31C160.03 75.53 160.67 74.89 161.45 74.89C162.23 74.89 162.87 75.53 162.87 76.31C162.87 77.09 162.23 77.73 161.45 77.73C160.67 77.73 160.03 77.09 160.03 76.31ZM151.51 76.31C151.51 75.53 152.15 74.89 152.93 74.89C153.71 74.89 154.35 75.53 154.35 76.31C154.35 77.09 153.71 77.73 152.93 77.73C152.15 77.73 151.51 77.09 151.51 76.31ZM151.51 84.83C151.51 84.05 152.15 83.41 152.93 83.41C153.71 83.41 154.35 84.05 154.35 84.83C154.35 85.61 153.71 86.25 152.93 86.25C152.15 86.25 151.51 85.61 151.51 84.83ZM151.51 93.35C151.51 92.57 152.15 91.93 152.93 91.93C153.71 91.93 154.35 92.57 154.35 93.35C154.35 94.13 153.71 94.77 152.93 94.77C152.15 94.77 151.51 94.13 151.51 93.35ZM151.51 101.87C151.51 101.09 152.15 100.45 152.93 100.45C153.71 100.45 154.35 101.09 154.35 101.87C154.35 102.65 153.71 103.29 152.93 103.29C152.15 103.29 151.51 102.65 151.51 101.87ZM151.51 110.39C151.51 109.61 152.15 108.97 152.93 108.97C153.71 108.97 154.35 109.61 154.35 110.39C154.35 111.17 153.71 111.81 152.93 111.81C152.15 111.81 151.51 111.17 151.51 110.39ZM142.99 76.3C142.99 75.52 143.63 74.88 144.41 74.88C145.19 74.88 145.83 75.52 145.83 76.3C145.83 77.08 145.19 77.72 144.41 77.72C143.63 77.72 142.99 77.08 142.99 76.3ZM136.6 76.3C136.6 80.63 140.08 84.11 144.41 84.11H145.12V84.82C145.12 86.38 145.55 87.87 146.33 89.08C145.55 90.36 145.12 91.78 145.12 93.34C145.12 94.9 145.55 96.39 146.33 97.6C145.55 98.88 145.12 100.3 145.12 101.86C145.12 103.42 145.55 104.91 146.33 106.12C145.55 107.4 145.12 108.82 145.12 110.38C145.12 114.71 148.6 118.19 152.93 118.19C157.26 118.19 160.74 114.71 160.74 110.38C160.74 108.82 160.24 107.4 159.46 106.12C160.24 104.91 160.74 103.42 160.74 101.86C160.74 100.3 160.24 98.88 159.46 97.6C160.24 96.39 160.74 94.9 160.74 93.34C160.74 91.78 160.24 90.36 159.46 89.08C160.24 87.87 160.74 86.38 160.74 84.82C160.74 84.61 160.74 84.32 160.67 84.11H161.45C163.01 84.11 164.43 83.68 165.71 82.9C166.92 83.68 168.41 84.11 169.97 84.11C174.3 84.11 177.78 80.63 177.78 76.3C177.78 71.97 174.3 68.49 169.97 68.49C168.41 68.49 166.92 68.99 165.71 69.77C164.43 68.99 163.01 68.49 161.45 68.49C159.89 68.49 158.4 68.99 157.19 69.77C155.91 68.99 154.49 68.49 152.93 68.49C151.37 68.49 149.88 68.99 148.67 69.77C147.39 68.99 145.97 68.49 144.41 68.49C140.08 68.49 136.6 71.97 136.6 76.3Z" fill="black"/>
</g>
<defs>
<clipPath id="clip0_5899_13198">
<rect width="193.6" height="126.24" fill="white" transform="translate(0.660156)"/>
</clipPath>
</defs>
</svg>
