<svg width="99" height="131" viewBox="0 0 99 131" fill="none" xmlns="http://www.w3.org/2000/svg">
<g clip-path="url(#clip0_5899_13205)">
<path d="M7.35102 28.6586L12.591 28.6886L12.621 23.4486L23.111 23.5086L23.171 13.0186L28.411 13.0486L28.441 7.80859L38.931 7.86859L38.901 13.1086L44.141 13.1386L44.171 7.89859L54.661 7.95859L54.631 13.1986L59.871 13.2286L59.901 7.98859L70.391 8.04859L70.361 13.2886L75.601 13.3186L75.541 23.8086L86.031 23.8686L86.001 29.1086L91.241 29.1386L91.181 39.6286L85.941 39.5986L85.911 44.8386L91.151 44.8686L91.091 55.3586L85.851 55.3286L85.821 60.5686L75.331 60.5086L75.271 70.9986L70.031 70.9686L70.001 76.2086L59.511 76.1486L59.451 86.6386L54.211 86.6086L54.181 91.8486L43.691 91.7886L43.721 86.5486L38.481 86.5186L38.541 76.0286L43.781 76.0586L43.811 70.8186L38.571 70.7886L38.631 60.2986L43.871 60.3286L43.901 55.0886L54.391 55.1486L54.361 60.3886L59.601 60.4186L59.631 55.1786L70.121 55.2386L70.181 44.7486L75.421 44.7786L75.451 39.5386L70.211 39.5086L70.271 29.0186L59.781 28.9586L59.811 23.7186L54.571 23.6886L54.541 28.9286L44.051 28.8686L44.081 23.6286L38.841 23.5986L38.811 28.8386L28.321 28.7786L28.261 39.2686L23.021 39.2386L22.991 44.4786L12.501 44.4186L12.531 39.1786L7.29102 39.1486L7.35102 28.6586ZM38.351 107.489L43.591 107.519L43.621 102.279L54.111 102.339L54.081 107.579L59.321 107.609L59.261 118.099L54.021 118.069L53.991 123.309L43.501 123.249L43.531 118.009L38.291 117.979L38.351 107.489ZM44.091 23.6286L54.581 23.6886L54.641 13.1986L44.151 13.1386L44.091 23.6286ZM43.781 76.0586L43.721 86.5486L54.211 86.6086L54.271 76.1186L43.781 76.0586ZM28.361 23.5386L38.851 23.5986L38.911 13.1086L28.421 13.0486L28.361 23.5386ZM12.541 39.1786L23.031 39.2386L23.091 28.7486L12.601 28.6886L12.541 39.1786ZM43.601 107.529L43.541 118.019L54.031 118.079L54.091 107.699L43.601 107.529ZM75.461 39.5486L85.951 39.6086L86.011 29.1186L75.521 29.0586L75.461 39.5486ZM59.891 13.2386L59.831 23.7286L70.321 23.7886L70.381 13.4086L59.891 13.2386ZM75.371 55.2786L85.861 55.3386L85.921 44.8486L75.431 44.7886L75.371 55.2786ZM54.371 60.3986L43.881 60.3386L43.821 70.8286L54.311 70.8886L54.371 60.3986ZM70.101 60.4886L59.611 60.4286L59.551 70.9186L70.041 70.9786L70.101 60.4886ZM23.081 28.7486L28.321 28.7786L28.351 23.5386L23.111 23.5086L23.081 28.7486ZM54.261 76.1186L59.501 76.1486L59.531 70.9086L54.291 70.8786L54.261 76.1186ZM70.081 60.4786L75.321 60.5086L75.351 55.2686L70.111 55.2386L70.081 60.4786ZM70.271 29.0186L75.511 29.0486L75.541 23.8086L70.301 23.7786L70.271 29.0186Z" fill="black"/>
<path fill-rule="evenodd" clip-rule="evenodd" d="M0.390977 21.6195L5.63098 21.6495L5.66098 16.4095L16.151 16.4695L16.211 5.97953L21.451 6.00953L21.481 0.769531L77.431 1.09953L77.401 6.33953L82.641 6.36953L82.581 16.8595L93.071 16.9195L93.041 22.1595L98.281 22.1895L98.041 62.4095L92.801 62.3795L92.771 67.6195L82.281 67.5595L82.221 78.0495L76.981 78.0195L76.951 83.2595L66.461 83.1995L66.401 93.6895L61.161 93.6595L61.121 100.63L66.361 100.66L66.221 125.15L60.981 125.12L60.951 130.36L36.461 130.21L36.491 124.97L31.251 124.94L31.391 100.45L36.631 100.48L36.671 93.5095L31.431 93.4795L31.671 53.2595L36.911 53.2895L36.941 48.0495L63.161 48.1995L63.231 35.9795L35.281 35.8195L35.221 46.3095L29.981 46.2795L29.951 51.5195L5.46098 51.3795L5.49098 46.1395L0.250977 46.1095L0.390977 21.6195ZM38.811 28.8495L38.841 23.6095L44.081 23.6395L44.051 28.8795L54.541 28.9395L54.571 23.6995L59.811 23.7295L59.781 28.9695L70.271 29.0295L70.211 39.5195L75.451 39.5495L75.421 44.7895L70.181 44.7595L70.121 55.2495L59.631 55.1895L59.601 60.4295L54.361 60.3995L54.391 55.1595L43.901 55.0995L43.871 60.3395L38.631 60.3095L38.571 70.7995L43.811 70.8295L43.781 76.0695L38.541 76.0395L38.481 86.5295L43.721 86.5595L43.691 91.7995L54.181 91.8595L54.211 86.6195L59.451 86.6495L59.511 76.1595L70.001 76.2195L70.031 70.9795L75.271 71.0095L75.331 60.5195L85.821 60.5795L85.851 55.3395L91.091 55.3695L91.151 44.8795L85.911 44.8495L85.941 39.6095L91.181 39.6395L91.241 29.1495L86.001 29.1195L86.031 23.8795L75.541 23.8195L75.601 13.3295L70.361 13.2995L70.391 8.05953L59.901 7.99953L59.871 13.2395L54.631 13.2095L54.661 7.96953L44.171 7.90953L44.141 13.1495L38.901 13.1195L38.931 7.87953L28.441 7.81953L28.411 13.0595L23.171 13.0295L23.111 23.5195L12.621 23.4595L12.591 28.6995L7.35098 28.6695L7.29098 39.1595L12.531 39.1895L12.501 44.4295L22.991 44.4895L23.021 39.2495L28.261 39.2795L28.321 28.7895L38.811 28.8495ZM23.081 28.7595L23.111 23.5195L28.351 23.5495L28.321 28.7895L23.081 28.7595ZM23.081 28.7595L12.591 28.6995L12.531 39.1895L23.021 39.2495L23.081 28.7595ZM28.351 23.5495L38.841 23.6095L38.901 13.1195L28.411 13.0595L28.351 23.5495ZM44.141 13.1595L44.081 23.6495L54.571 23.7095L54.631 13.2195L44.141 13.1595ZM59.811 23.7395L70.301 23.7995L70.271 29.0395L75.511 29.0695L75.451 39.5595L85.941 39.6195L86.001 29.1295L75.511 29.0695L75.541 23.8295L70.301 23.7995L70.361 13.4195L59.871 13.2495L59.811 23.7395ZM85.901 44.8695L75.411 44.8095L75.351 55.2995L70.111 55.2695L70.081 60.5095L59.591 60.4495L59.531 70.9395L54.291 70.9095L54.351 60.4195L43.861 60.3595L43.801 70.8495L54.291 70.9095L54.261 76.1495L43.771 76.0895L43.711 86.5795L54.201 86.6395L54.261 76.1495L59.501 76.1795L59.531 70.9395L70.021 70.9995L70.081 60.5095L75.321 60.5395L75.351 55.2995L85.841 55.3595L85.901 44.8695ZM43.581 107.54L54.071 107.71L54.011 118.09L43.521 118.03L43.581 107.54ZM43.491 123.27L43.521 118.03L38.281 118L38.341 107.51L43.581 107.54L43.611 102.3L54.101 102.36L54.071 107.6L59.311 107.63L59.251 118.12L54.011 118.09L53.981 123.33L43.491 123.27Z" fill="#F3A0D6"/>
</g>
<defs>
<clipPath id="clip0_5899_13205">
<rect width="98.04" height="129.59" fill="white" transform="translate(0.250977 0.769531)"/>
</clipPath>
</defs>
</svg>
