<svg width="202" height="96" viewBox="0 0 202 96" fill="none" xmlns="http://www.w3.org/2000/svg">
<g clip-path="url(#clip0_5899_13218)">
<path d="M36.9281 12.9805L31.2126 22.3726C34.8089 24.5791 39.3448 24.5214 42.8838 22.2206L36.9281 12.9805ZM51.9086 22.1472L41.2761 19.4795C40.3418 23.2321 41.4379 27.1996 44.1574 29.9302C46.8821 32.6661 50.8334 33.7615 54.5655 32.8233L51.9086 22.1472ZM61.0379 37.1891L51.8356 31.2091C49.5441 34.7625 49.4867 39.317 51.6842 42.9281L61.0379 37.1891ZM61.0379 47.8705L51.8356 41.8904C49.5441 45.4439 49.4867 49.9984 51.6842 53.6095L61.0379 47.8705ZM51.9086 63.0015V51.9952C48.3854 51.9952 45.0761 53.6933 43.0143 56.5655C40.9525 59.4376 40.394 63.1273 41.5058 66.4816L51.9034 63.0015H51.9086ZM51.9086 64.8726L41.2761 62.2049C40.3418 65.9575 41.4379 69.925 44.1574 72.6556C46.8821 75.3914 50.8334 76.4868 54.5655 75.5487L51.9086 64.8726ZM43.1343 73.5938H54.0957C54.0957 70.056 52.4045 66.7332 49.5441 64.6629C46.6837 62.5927 43.0091 62.0319 39.6685 63.1483L43.1343 73.5885V73.5938ZM36.9281 72.1682L42.4871 62.6818C39.1413 60.7059 35.0021 60.6535 31.604 62.5455L36.9281 72.1682ZM21.8589 63.0015H32.8202C32.8202 56.9218 27.9137 51.9952 21.8589 51.9952V63.0015ZM12.7296 47.8705L22.313 53.2164C24.1973 49.8097 24.1503 45.6535 22.1773 42.2887L12.7296 47.8705ZM12.7296 37.1891L22.313 42.535C24.1973 39.1283 24.1503 34.9722 22.1773 31.6074L12.7296 37.1891ZM21.8589 22.1472L18.393 32.5875C21.7336 33.7038 25.4083 33.143 28.2686 31.0728C31.129 29.0026 32.8202 25.6797 32.8202 22.142H21.8589V22.1472ZM44.6428 37.1891L53.9965 42.9281C56.194 39.317 56.1366 34.7625 53.8452 31.2091L44.6428 37.1891ZM43.1343 30.9575H54.0957C54.0957 24.8778 49.1892 19.9512 43.1343 19.9512V30.9575ZM36.9281 29.4428L42.8838 20.2028C39.3448 17.9019 34.8089 17.8443 31.2126 20.0508L36.9281 29.4428ZM30.6332 30.9575V19.9512C27.1099 19.9512 23.8006 21.6545 21.7388 24.5214C19.677 27.3935 19.1185 31.0833 20.2303 34.4376L30.628 30.9575H30.6332ZM29.1247 37.1891L19.9224 31.2091C17.6309 34.7625 17.5735 39.317 19.771 42.9281L29.1247 37.1891ZM29.1247 47.8705L19.9224 41.8904C17.6309 45.4439 17.5735 49.9984 19.771 53.6095L29.1247 47.8705ZM30.6332 54.1912L20.0007 51.5235C19.0663 55.2761 20.1625 59.2436 22.8819 61.9743C25.6066 64.7101 29.5579 65.8055 33.29 64.8673L30.6332 54.1912ZM36.9281 55.7059L31.2126 65.0979C34.8089 67.3044 39.3448 67.2468 42.8838 64.946L36.9281 55.7059ZM43.1343 54.1912L39.6685 64.6315C43.0091 65.7478 46.6837 65.187 49.5441 63.1168C52.4045 61.0466 54.0957 57.7237 54.0957 54.186H43.1343V54.1912ZM44.6428 47.8705L53.9965 53.6095C56.194 49.9984 56.1366 45.4439 53.8452 41.8904L44.6428 47.8705ZM40.1539 31.8485C40.1539 38.9082 45.859 44.6367 52.89 44.6367V22.6241C57.9687 22.6241 62.0766 26.7489 62.0766 31.8485H40.1539ZM52.89 44.6367C59.9209 44.6367 65.626 38.9082 65.626 31.8485H43.7033C43.7033 26.7489 47.8112 22.6241 52.89 22.6241V44.6367ZM65.626 31.8485C65.626 24.7887 59.9209 19.0602 52.89 19.0602V41.0728C47.8112 41.0728 43.7033 36.948 43.7033 31.8485H65.626ZM52.89 19.0602C45.859 19.0602 40.1539 24.7887 40.1539 31.8485H62.0766C62.0766 36.948 57.9687 41.0728 52.89 41.0728V19.0602ZM40.1539 42.5298C40.1539 49.5896 45.859 55.3181 52.89 55.3181V33.3055C57.9687 33.3055 62.0766 37.4302 62.0766 42.5298H40.1539ZM52.89 55.3181C59.9209 55.3181 65.626 49.5896 65.626 42.5298H43.7033C43.7033 37.4302 47.8112 33.3055 52.89 33.3055V55.3181ZM65.626 42.5298C65.626 35.4701 59.9209 29.7415 52.89 29.7415V51.7541C47.8112 51.7541 43.7033 47.6294 43.7033 42.5298H65.626ZM52.89 29.7415C45.859 29.7415 40.1539 35.4701 40.1539 42.5298H62.0766C62.0766 47.6294 57.9687 51.7541 52.89 51.7541V29.7415ZM40.1539 53.2112C40.1539 60.2709 45.859 65.9994 52.89 65.9994V43.9868C57.9687 43.9868 62.0766 48.1116 62.0766 53.2112H40.1539ZM52.89 65.9994C59.9209 65.9994 65.626 60.2709 65.626 53.2112H43.7033C43.7033 48.1116 47.8112 43.9868 52.89 43.9868V65.9994ZM65.626 53.2112C65.626 46.1514 59.9209 40.4229 52.89 40.4229V62.4355C47.8112 62.4355 43.7033 58.3107 43.7033 53.2112H65.626ZM52.89 40.4229C45.859 40.4229 40.1539 46.1514 40.1539 53.2112H62.0766C62.0766 58.3107 57.9687 62.4355 52.89 62.4355V40.4229ZM40.1539 74.5738C40.1539 81.6336 45.859 87.3621 52.89 87.3621V65.3495C57.9687 65.3495 62.0766 69.4743 62.0766 74.5738H40.1539ZM52.89 87.3621C59.9209 87.3621 65.626 81.6336 65.626 74.5738H43.7033C43.7033 69.4743 47.8112 65.3495 52.89 65.3495V87.3621ZM65.626 74.5738C65.626 67.5141 59.9209 61.7856 52.89 61.7856V83.7981C47.8112 83.7981 43.7033 79.6734 43.7033 74.5738H65.626ZM52.89 61.7856C45.859 61.7856 40.1539 67.5141 40.1539 74.5738H62.0766C62.0766 79.6734 57.9687 83.7981 52.89 83.7981V61.7856ZM29.5109 21.1671C29.5109 28.2269 35.2161 33.9554 42.247 33.9554V11.9428C47.3258 11.9428 51.4337 16.0675 51.4337 21.1671H29.5109ZM42.247 33.9554C49.2779 33.9554 54.983 28.2269 54.983 21.1671H33.0603C33.0603 16.0675 37.1682 11.9428 42.247 11.9428V33.9554ZM54.983 21.1671C54.983 14.1074 49.2779 8.37886 42.247 8.37886V30.3914C37.1682 30.3914 33.0603 26.2667 33.0603 21.1671H54.983ZM42.247 8.37886C35.2161 8.37886 29.5109 14.1074 29.5109 21.1671H51.4337C51.4337 26.2667 47.3258 30.3914 42.247 30.3914V8.37886ZM29.5109 63.8873C29.5109 70.947 35.2161 76.6755 42.247 76.6755V54.6629C47.3258 54.6629 51.4337 58.7877 51.4337 63.8873H29.5109ZM42.247 76.6755C49.2779 76.6755 54.983 70.947 54.983 63.8873H33.0603C33.0603 58.7877 37.1682 54.6629 42.247 54.6629V76.6755ZM54.983 63.8873C54.983 56.8275 49.2779 51.099 42.247 51.099V73.1116C37.1682 73.1116 33.0603 68.9868 33.0603 63.8873H54.983ZM42.247 51.099C35.2161 51.099 29.5109 56.8275 29.5109 63.8873H51.4337C51.4337 68.9868 47.3258 73.1116 42.247 73.1116V51.099ZM18.8732 21.1619C18.8732 28.2216 24.5783 33.9501 31.6093 33.9501V11.9428C36.688 11.9428 40.7959 16.0675 40.7959 21.1671H18.8732V21.1619ZM31.6093 33.9501C38.6402 33.9501 44.3453 28.2216 44.3453 21.1619H22.4226C22.4226 16.0623 26.5305 11.9376 31.6093 11.9376V33.9501ZM44.3453 21.1619C44.3453 14.1021 38.6402 8.37362 31.6093 8.37362V30.3862C26.5305 30.3862 22.4226 26.2615 22.4226 21.1619H44.3453ZM31.6093 8.37362C24.5783 8.37362 18.8732 14.1021 18.8732 21.1619H40.7959C40.7959 26.2615 36.688 30.3862 31.6093 30.3862V8.37886V8.37362ZM18.8732 63.882C18.8732 70.9418 24.5783 76.6703 31.6093 76.6703V54.6577C36.688 54.6577 40.7959 58.7824 40.7959 63.882H18.8732ZM31.6093 76.6703C38.6402 76.6703 44.3453 70.9418 44.3453 63.882H22.4226C22.4226 58.7824 26.5305 54.6577 31.6093 54.6577V76.6703ZM44.3453 63.882C44.3453 56.8223 38.6402 51.0938 31.6093 51.0938V73.1063C26.5305 73.1063 22.4226 68.9816 22.4226 63.882H44.3453ZM31.6093 51.0938C24.5783 51.0938 18.8732 56.8223 18.8732 63.882H40.7959C40.7959 68.9816 36.688 73.1063 31.6093 73.1063V51.0938ZM8.23546 31.8485C8.23546 38.9082 13.9406 44.6367 20.9715 44.6367V22.6241C26.0503 22.6241 30.1582 26.7489 30.1582 31.8485H8.23546ZM20.9715 44.6367C28.0024 44.6367 33.7076 38.9082 33.7076 31.8485H11.7849C11.7849 26.7489 15.8928 22.6241 20.9715 22.6241V44.6367ZM33.7076 31.8485C33.7076 24.7887 28.0024 19.0602 20.9715 19.0602V41.0728C15.8928 41.0728 11.7849 36.948 11.7849 31.8485H33.7076ZM20.9715 19.0602C13.9406 19.0602 8.23546 24.7887 8.23546 31.8485H30.1582C30.1582 36.948 26.0503 41.0728 20.9715 41.0728V19.0602ZM8.23546 42.5298C8.23546 49.5896 13.9406 55.3181 20.9715 55.3181V33.3055C26.0503 33.3055 30.1582 37.4302 30.1582 42.5298H8.23546ZM20.9715 55.3181C28.0024 55.3181 33.7076 49.5896 33.7076 42.5298H11.7849C11.7849 37.4302 15.8928 33.3055 20.9715 33.3055V55.3181ZM33.7076 42.5298C33.7076 35.4701 28.0024 29.7415 20.9715 29.7415V51.7541C15.8928 51.7541 11.7849 47.6294 11.7849 42.5298H33.7076ZM20.9715 29.7415C13.9406 29.7415 8.23546 35.4701 8.23546 42.5298H30.1582C30.1582 47.6294 26.0503 51.7541 20.9715 51.7541V29.7415ZM8.23546 53.2112C8.23546 60.2709 13.9406 65.9994 20.9715 65.9994V43.9868C26.0503 43.9868 30.1582 48.1116 30.1582 53.2112H8.23546ZM20.9715 65.9994C28.0024 65.9994 33.7076 60.2709 33.7076 53.2112H11.7849C11.7849 48.1116 15.8928 43.9868 20.9715 43.9868V65.9994ZM33.7076 53.2112C33.7076 46.1514 28.0024 40.4229 20.9715 40.4229V62.4355C15.8928 62.4355 11.7849 58.3107 11.7849 53.2112H33.7076ZM20.9715 40.4229C13.9406 40.4229 8.23546 46.1514 8.23546 53.2112H30.1582C30.1582 58.3107 26.0503 62.4355 20.9715 62.4355V40.4229ZM32.8202 21.1671C32.8202 21.817 32.2565 22.3831 31.6093 22.3831V0.370475C20.1468 0.370475 10.8975 9.65769 10.8975 21.1671H32.8202ZM31.6093 22.3831C31.5153 22.3831 31.4161 22.3726 31.3326 22.3621C31.2439 22.3464 31.176 22.3306 31.1343 22.3149C31.0455 22.2887 31.0716 22.2835 31.2126 22.3673L42.6437 3.58851C39.7154 1.79081 35.9886 0.370475 31.6093 0.370475V22.3831ZM42.8838 22.2206C42.8055 22.2678 42.7376 22.3044 42.6541 22.3306C42.5706 22.3569 42.4349 22.3883 42.247 22.3883V0.370475C38.0034 0.370475 34.0938 1.71219 30.9725 3.7405L42.8838 22.2206ZM42.247 22.3831C41.5998 22.3831 41.036 21.817 41.036 21.1671H62.9587C62.9587 9.65769 53.7094 0.370475 42.247 0.370475V22.3831ZM41.036 21.1671C41.036 21.2772 41.036 21.2615 41.036 21.23C41.036 21.1828 41.036 21.0518 41.0517 20.8736C41.083 20.4543 41.1509 19.9774 41.2709 19.4795L62.5412 24.8202C62.9901 23.012 62.9587 21.513 62.9587 21.1724H41.036V21.1671ZM54.5655 32.8233C54.0696 32.9491 53.5894 33.0172 53.177 33.0434C52.9996 33.0539 52.8691 33.0592 52.8221 33.0592C52.7908 33.0592 52.7751 33.0592 52.8847 33.0592V11.0518C52.5455 11.0518 51.0526 11.0151 49.2518 11.4711L54.5707 32.8285L54.5655 32.8233ZM52.8795 33.0644C52.2323 33.0644 51.6685 32.4984 51.6685 31.8485H73.5913C73.5913 20.339 64.342 11.0518 52.8795 11.0518V33.0644ZM51.6685 31.8485C51.6685 31.6598 51.6999 31.5235 51.726 31.4397C51.7521 31.3558 51.7834 31.2877 51.8356 31.2091L70.2402 43.1692C72.2602 40.0351 73.5965 36.1147 73.5965 31.8485H51.6738H51.6685ZM51.679 42.9281C51.7677 43.0696 51.7625 43.0958 51.7312 43.0067C51.7155 42.9596 51.6999 42.8967 51.6842 42.8076C51.6685 42.7185 51.6633 42.6242 51.6633 42.5298H73.586C73.586 38.1325 72.1715 34.3904 70.3811 31.4501L51.6738 42.9281H51.679ZM51.6685 42.5298C51.6685 42.3411 51.6999 42.2049 51.726 42.121C51.7521 42.0371 51.7834 41.969 51.8356 41.8904L70.2402 53.8506C72.2602 50.7164 73.5965 46.7961 73.5965 42.5298H51.6738H51.6685ZM51.679 53.6095C51.7677 53.751 51.7625 53.7772 51.7312 53.6881C51.7155 53.6409 51.6999 53.578 51.6842 53.4889C51.6685 53.3998 51.6633 53.3055 51.6633 53.2112H73.586C73.586 48.8139 72.1715 45.0717 70.3811 42.1315L51.6738 53.6095H51.679ZM51.6685 53.2112C51.6685 52.5613 52.2323 51.9952 52.8795 51.9952V74.0078C64.342 74.0078 73.5913 64.7206 73.5913 53.2112H51.6685ZM52.8795 51.9952H51.9034V74.0078H52.8795V51.9952ZM41.5058 66.4816C41.3022 65.8736 41.1978 65.3652 41.1456 65.0246C41.0882 64.6787 41.0621 64.4009 41.0517 64.2279C41.0308 63.9292 41.036 63.7038 41.036 63.8873H62.9587C62.9587 63.8034 62.9587 63.2636 62.9222 62.6556C62.8804 62.1053 62.7708 60.9051 62.3115 59.5162L41.5162 66.4764L41.5058 66.4816ZM41.0308 63.8925C41.0308 64.0026 41.0308 63.9868 41.0308 63.9554C41.0308 63.9082 41.0308 63.7772 41.0465 63.599C41.0778 63.1797 41.1456 62.7028 41.2657 62.2049L62.5359 67.5455C62.9848 65.7374 62.9535 64.2384 62.9535 63.8977H41.0308V63.8925ZM54.5603 75.5487C54.0644 75.6745 53.5842 75.7426 53.1718 75.7688C52.9943 75.7845 52.8639 75.7845 52.8169 75.7845C52.7856 75.7845 52.7699 75.7845 52.8795 75.7845V53.7719C52.5402 53.7719 51.0474 53.7353 49.2466 54.1912L54.5655 75.5487H54.5603ZM52.8743 75.7898C52.2271 75.7898 51.6633 75.2237 51.6633 74.5738H73.586C73.586 63.0644 64.3367 53.7772 52.8743 53.7772V75.7898ZM51.6633 74.5738C51.6633 73.9239 52.2271 73.3579 52.8743 73.3579V95.3705C64.3367 95.3705 73.586 86.0833 73.586 74.5738H51.6633ZM52.8743 73.3579C53.5215 73.3579 54.0853 73.9239 54.0853 74.5738H32.1625C32.1625 86.0833 41.4118 95.3705 52.8743 95.3705V73.3579ZM54.0853 74.5738V73.5938H32.1625V74.5738H54.0853ZM39.658 63.1535C40.2635 62.9491 40.7698 62.8443 41.1091 62.7919C41.4536 62.7342 41.7302 62.708 41.9025 62.6975C42.1948 62.6766 42.4245 62.6818 42.2418 62.6818V84.6944C42.3253 84.6944 42.8629 84.6944 43.4684 84.6577C44.0165 84.6158 45.2118 84.5057 46.595 84.0445L39.6632 63.1587L39.658 63.1535ZM42.2366 62.6766C42.4192 62.6766 42.5184 62.7028 42.5236 62.708C42.5289 62.708 42.5236 62.708 42.5132 62.708C42.4975 62.7028 42.4871 62.6923 42.4767 62.687L31.3639 81.6598C34.2556 83.3684 38.0138 84.6944 42.2418 84.6944V62.6818L42.2366 62.6766ZM31.5936 62.5508C31.4735 62.6189 31.3796 62.6608 31.3222 62.687C31.2595 62.7133 31.2334 62.7185 31.2439 62.7185C31.2491 62.7185 31.2909 62.708 31.3535 62.6975C31.4213 62.687 31.5049 62.6818 31.5988 62.6818V84.6944C35.9416 84.6944 39.5536 83.295 42.2418 81.7961L31.5936 62.556V62.5508ZM31.5936 62.6766C32.2408 62.6766 32.8046 63.2426 32.8046 63.8925H10.8975C10.8975 75.4019 20.1468 84.6891 31.6093 84.6891V62.6766H31.5936ZM32.8046 63.8925V63.0015H10.8975V63.8925H32.8202H32.8046ZM21.8432 51.9952H20.9559V74.0078H21.8432V51.9952ZM20.9559 51.9952C21.6031 51.9952 22.1668 52.5613 22.1668 53.2112H0.259766C0.259766 64.7206 9.50907 74.0078 20.9715 74.0078V51.9952H20.9559ZM22.1668 53.2112C22.1668 53.3055 22.1564 53.3946 22.1512 53.4575C22.1407 53.5256 22.1303 53.5623 22.1303 53.5675C22.1303 53.5728 22.1355 53.5466 22.1616 53.4889C22.1877 53.426 22.2295 53.3369 22.2973 53.2164L3.14626 42.5246C1.65342 45.2237 0.259766 48.8506 0.259766 53.2112H22.1825H22.1668ZM22.1616 42.2887C22.1616 42.2887 22.1512 42.2678 22.1407 42.252C22.1355 42.2363 22.1355 42.2311 22.1355 42.2415C22.1355 42.2468 22.1668 42.3464 22.1668 42.5298H0.259766C0.259766 46.7751 1.58035 50.5487 3.28197 53.4522L22.1773 42.294L22.1616 42.2887ZM22.1668 42.5298C22.1668 42.6242 22.1564 42.7132 22.1512 42.7761C22.1407 42.8443 22.1303 42.881 22.1303 42.8862C22.1303 42.8914 22.1355 42.8652 22.1616 42.8076C22.1877 42.7447 22.2295 42.6556 22.2973 42.535L3.14626 31.8432C1.65342 34.5424 0.259766 38.1692 0.259766 42.5298H22.1825H22.1668ZM22.1616 31.6074C22.1616 31.6074 22.1512 31.5864 22.1407 31.5707C22.1355 31.555 22.1355 31.5497 22.1355 31.5602C22.1355 31.5654 22.1668 31.665 22.1668 31.8485H0.259766C0.259766 36.0937 1.58035 39.8673 3.28197 42.7709L22.1773 31.6126L22.1616 31.6074ZM22.1668 31.8485C22.1668 32.4984 21.6031 33.0644 20.9559 33.0644V11.0518C9.50907 11.0518 0.259766 20.339 0.259766 31.8485H22.1825H22.1668ZM20.9559 33.0644C21.1385 33.0644 20.9141 33.0644 20.6166 33.0487C20.4443 33.0382 20.1729 33.012 19.8232 32.9543C19.4839 32.8967 18.9776 32.7919 18.3721 32.5927L25.3039 11.7122C23.9154 11.2457 22.7253 11.1357 22.1773 11.099C21.5718 11.0571 21.0342 11.0623 20.9506 11.0623V33.0749L20.9559 33.0644ZM32.8046 22.1472V21.1671H10.8975V22.1472H32.8202H32.8046ZM54.08 42.5298C54.08 42.5665 54.0748 42.6556 54.0435 42.7657C54.0122 42.8757 53.9756 42.9334 53.9809 42.9281L35.2735 31.4501C33.29 34.7049 32.1573 38.4627 32.1573 42.5298H54.08ZM53.8295 31.2091C53.9652 31.4187 54.0226 31.5812 54.0539 31.6808C54.08 31.7751 54.0853 31.8327 54.0853 31.8485H32.1625C32.1625 35.7636 33.2221 39.7416 35.4301 43.1692L53.8347 31.2091H53.8295ZM54.08 31.8485V30.9575H32.1573V31.8485H54.08ZM43.1187 19.9512H42.2313V41.9638H43.1187V19.9512ZM42.2313 19.9512C42.2313 19.9512 42.3044 19.9512 42.3984 19.9826C42.4923 20.0088 42.6593 20.0717 42.8681 20.208L30.9568 38.6881C34.3705 40.9051 38.3322 41.969 42.2313 41.969V19.9564V19.9512ZM31.1969 20.0508C31.1969 20.0508 31.2491 20.0193 31.3587 19.9879C31.4735 19.9564 31.5623 19.9512 31.5936 19.9512V41.9638C35.6441 41.9638 39.3866 40.8265 42.628 38.8348L31.1969 20.0508ZM31.5936 19.9512H30.6175V41.9638H31.5936V19.9512ZM20.2199 34.4376C20.0163 33.8296 19.9119 33.3212 19.8597 32.9805C19.8023 32.6346 19.7762 32.3569 19.7658 32.1839C19.7449 31.8904 19.7501 31.6598 19.7501 31.8432H41.6728C41.6728 31.7594 41.6728 31.2195 41.6363 30.6116C41.5945 30.0613 41.4849 28.861 41.0256 27.4722L20.2303 34.4323L20.2199 34.4376ZM19.7449 31.8485C19.7449 31.6598 19.7762 31.5235 19.8023 31.4397C19.8284 31.3558 19.8597 31.2877 19.9119 31.2091L38.3166 43.1692C40.3366 40.0351 41.6728 36.1147 41.6728 31.8485H19.7501H19.7449ZM19.7553 42.9281C19.8441 43.0696 19.8388 43.0958 19.8075 43.0067C19.7919 42.9596 19.7762 42.8967 19.7605 42.8076C19.7449 42.7185 19.7397 42.6242 19.7397 42.5298H41.6624C41.6624 38.1325 40.2478 34.3904 38.4575 31.4501L19.7501 42.9281H19.7553ZM19.7449 42.5298C19.7449 42.3411 19.7762 42.2049 19.8023 42.121C19.8284 42.0371 19.8597 41.969 19.9119 41.8904L38.3166 53.8506C40.3366 50.7164 41.6728 46.7961 41.6728 42.5298H19.7501H19.7449ZM19.7553 53.6095C19.8441 53.751 19.8388 53.7772 19.8075 53.6881C19.7919 53.6409 19.7762 53.578 19.7605 53.4889C19.7449 53.3998 19.7397 53.3055 19.7397 53.2112H41.6624C41.6624 48.8139 40.2478 45.0717 38.4575 42.1315L19.7501 53.6095H19.7553ZM19.7449 53.2112C19.7449 53.3212 19.7449 53.3055 19.7449 53.274C19.7449 53.2269 19.7449 53.0958 19.7605 52.9177C19.7919 52.4984 19.8597 52.0214 19.9798 51.5235L41.25 56.8642C41.6989 55.056 41.6676 53.5571 41.6676 53.2164H19.7449V53.2112ZM33.2743 64.8673C32.7785 64.9931 32.2983 65.0613 31.8859 65.0927C31.7084 65.1032 31.5779 65.1084 31.531 65.1084C31.4996 65.1084 31.484 65.1084 31.5936 65.1084V43.0958C31.2543 43.0958 29.7615 43.0592 27.9607 43.5151L33.2796 64.8726L33.2743 64.8673ZM31.5884 65.1084C31.4944 65.1084 31.3952 65.1032 31.3117 65.0875C31.223 65.0717 31.1551 65.056 31.1134 65.0403C31.0246 65.0141 31.0507 65.0088 31.1917 65.0927L42.6228 46.3086C39.6946 44.5109 35.9677 43.0906 31.5884 43.0906V65.1032V65.1084ZM42.8629 64.946C42.7846 64.9931 42.7168 65.0298 42.6332 65.056C42.5497 65.0822 42.414 65.1137 42.2261 65.1137V43.1011C37.9825 43.1011 34.0729 44.4428 30.9516 46.4711L42.8629 64.9512V64.946ZM42.2261 65.1084C42.4088 65.1084 42.1844 65.1084 41.8868 65.0927C41.7146 65.0822 41.4432 65.056 41.0934 64.9984C40.7542 64.9407 40.2478 64.8359 39.6424 64.6367L46.5741 43.7562C45.1857 43.2898 43.9956 43.1797 43.4475 43.143C42.842 43.1011 42.3044 43.1063 42.2209 43.1063V65.1189L42.2261 65.1084ZM54.0748 54.1912V53.2112H32.1521V54.1912H54.0748ZM54.0748 53.2112C54.0748 53.2478 54.0696 53.3369 54.0383 53.447C54.007 53.5571 53.9704 53.6147 53.9756 53.6095L35.2683 42.1315C33.2848 45.3862 32.1521 49.1441 32.1521 53.2112H54.0748ZM53.8243 41.8904C53.96 42.1 54.0174 42.2625 54.0487 42.3621C54.0748 42.4564 54.08 42.5141 54.08 42.5298H32.1573C32.1573 46.4449 33.2169 50.4229 35.4249 53.8506L53.8295 41.8904H53.8243ZM97.8315 26.5078L107.185 32.2468C109.383 28.6357 109.325 24.0812 107.034 20.5277L97.8315 26.5078ZM114.232 26.5078L105.029 20.5277C102.738 24.0812 102.681 28.6357 104.878 32.2468L114.232 26.5078ZM114.232 37.1891L105.029 31.2091C102.738 34.7625 102.681 39.317 104.878 42.9281L114.232 37.1891ZM114.232 47.8705L105.029 41.8904C102.738 45.4439 102.681 49.9984 104.878 53.6095L114.232 47.8705ZM114.232 58.5518L105.029 52.5717C102.738 56.1252 102.681 60.6797 104.878 64.2908L114.232 58.5518ZM100.76 72.1682L106.319 62.6818C102.973 60.7059 98.8337 60.6535 95.4357 62.5455L100.76 72.1682ZM90.122 72.1682L95.681 62.6818C92.3352 60.7059 88.196 60.6535 84.7979 62.5455L90.122 72.1682ZM75.0528 63.0015H86.0141C86.0141 56.9218 81.1076 51.9952 75.0528 51.9952V63.0015ZM65.9235 47.8705L75.5069 53.2164C77.3912 49.8097 77.3442 45.6535 75.3712 42.2887L65.9235 47.8705ZM65.9235 37.1891L75.5069 42.535C77.3912 39.1283 77.3442 34.9722 75.3712 31.6074L65.9235 37.1891ZM65.9235 26.5078L75.5069 31.8537C77.3912 28.447 77.3442 24.2908 75.3712 20.926L65.9235 26.5078ZM82.3238 26.5078L73.1215 20.5277C70.8353 24.0812 70.7726 28.6357 72.9701 32.2468L82.3238 26.5078ZM82.3238 37.1891L73.1215 31.2091C70.8353 34.7625 70.7726 39.317 72.9701 42.9281L82.3238 37.1891ZM82.3238 47.8705L73.1215 41.8904C70.8353 45.4439 70.7726 49.9984 72.9701 53.6095L82.3238 47.8705ZM83.8323 54.1912L73.1998 51.5235C72.2655 55.2761 73.3616 59.2436 76.0811 61.9743C78.8057 64.7101 82.757 65.8055 86.4891 64.8673L83.8323 54.1912ZM90.1273 55.7059L84.4117 65.0979C88.0081 67.3044 92.544 67.2468 96.0829 64.946L90.1273 55.7059ZM96.3335 54.1912L92.8676 64.6315C96.2082 65.7478 99.8829 65.187 102.743 63.1168C105.604 61.0466 107.295 57.7237 107.295 54.186H96.3335V54.1912ZM97.842 47.8705L107.196 53.6095C109.393 49.9984 109.336 45.4439 107.044 41.8904L97.842 47.8705ZM97.842 37.1891L107.196 42.9281C109.393 39.317 109.336 34.7625 107.044 31.2091L97.842 37.1891ZM93.353 21.1671C93.353 28.2269 99.0582 33.9554 106.089 33.9554V11.9428C111.168 11.9428 115.276 16.0675 115.276 21.1671H93.353ZM106.089 33.9554C113.12 33.9554 118.825 28.2269 118.825 21.1671H96.9024C96.9024 16.0675 101.01 11.9428 106.089 11.9428V33.9554ZM118.825 21.1671C118.825 14.1074 113.12 8.37886 106.089 8.37886V30.3914C101.01 30.3914 96.9024 26.2667 96.9024 21.1671H118.825ZM106.089 8.37886C99.0582 8.37886 93.353 14.1074 93.353 21.1671H115.276C115.276 26.2667 111.168 30.3914 106.089 30.3914V8.37886ZM93.353 31.8485C93.353 38.9082 99.0582 44.6367 106.089 44.6367V22.6241C111.168 22.6241 115.276 26.7489 115.276 31.8485H93.353ZM106.089 44.6367C113.12 44.6367 118.825 38.9082 118.825 31.8485H96.9024C96.9024 26.7489 101.01 22.6241 106.089 22.6241V44.6367ZM118.825 31.8485C118.825 24.7887 113.12 19.0602 106.089 19.0602V41.0728C101.01 41.0728 96.9024 36.948 96.9024 31.8485H118.825ZM106.089 19.0602C99.0582 19.0602 93.353 24.7887 93.353 31.8485H115.276C115.276 36.948 111.168 41.0728 106.089 41.0728V19.0602ZM93.353 42.5298C93.353 49.5896 99.0582 55.3181 106.089 55.3181V33.3055C111.168 33.3055 115.276 37.4302 115.276 42.5298H93.353ZM106.089 55.3181C113.12 55.3181 118.825 49.5896 118.825 42.5298H96.9024C96.9024 37.4302 101.01 33.3055 106.089 33.3055V55.3181ZM118.825 42.5298C118.825 35.4701 113.12 29.7415 106.089 29.7415V51.7541C101.01 51.7541 96.9024 47.6294 96.9024 42.5298H118.825ZM106.089 29.7415C99.0582 29.7415 93.353 35.4701 93.353 42.5298H115.276C115.276 47.6294 111.168 51.7541 106.089 51.7541V29.7415ZM93.353 53.2112C93.353 60.2709 99.0582 65.9994 106.089 65.9994V43.9868C111.168 43.9868 115.276 48.1116 115.276 53.2112H93.353ZM106.089 65.9994C113.12 65.9994 118.825 60.2709 118.825 53.2112H96.9024C96.9024 48.1116 101.01 43.9868 106.089 43.9868V65.9994ZM118.825 53.2112C118.825 46.1514 113.12 40.4229 106.089 40.4229V62.4355C101.01 62.4355 96.9024 58.3107 96.9024 53.2112H118.825ZM106.089 40.4229C99.0582 40.4229 93.353 46.1514 93.353 53.2112H115.276C115.276 58.3107 111.168 62.4355 106.089 62.4355V40.4229ZM93.353 63.8925C93.353 70.9522 99.0582 76.6808 106.089 76.6808V54.6682C111.168 54.6682 115.276 58.7929 115.276 63.8925H93.353ZM106.089 76.6808C113.12 76.6808 118.825 70.9522 118.825 63.8925H96.9024C96.9024 58.7929 101.01 54.6682 106.089 54.6682V76.6808ZM118.825 63.8925C118.825 56.8327 113.12 51.1042 106.089 51.1042V73.1168C101.01 73.1168 96.9024 68.9921 96.9024 63.8925H118.825ZM106.089 51.1042C99.0582 51.1042 93.353 56.8327 93.353 63.8925H115.276C115.276 68.9921 111.168 73.1168 106.089 73.1168V51.1042ZM82.7153 63.8925C82.7153 70.9522 88.4204 76.6808 95.4513 76.6808V54.6682C100.53 54.6682 104.638 58.7929 104.638 63.8925H82.7153ZM95.4513 76.6808C102.482 76.6808 108.187 70.9522 108.187 63.8925H86.2647C86.2647 58.7929 90.3726 54.6682 95.4513 54.6682V76.6808ZM108.187 63.8925C108.187 56.8327 102.482 51.1042 95.4513 51.1042V73.1168C90.3726 73.1168 86.2647 68.9921 86.2647 63.8925H108.187ZM95.4513 51.1042C88.4204 51.1042 82.7153 56.8327 82.7153 63.8925H104.638C104.638 68.9921 100.53 73.1168 95.4513 73.1168V51.1042ZM72.0775 63.8925C72.0775 70.9522 77.7827 76.6808 84.8136 76.6808V54.6682C89.8924 54.6682 94.0003 58.7929 94.0003 63.8925H72.0775ZM84.8136 76.6808C91.8445 76.6808 97.5497 70.9522 97.5497 63.8925H75.6269C75.6269 58.7929 79.7348 54.6682 84.8136 54.6682V76.6808ZM97.5497 63.8925C97.5497 56.8327 91.8445 51.1042 84.8136 51.1042V73.1168C79.7348 73.1168 75.6269 68.9921 75.6269 63.8925H97.5497ZM84.8136 51.1042C77.7827 51.1042 72.0775 56.8327 72.0775 63.8925H94.0003C94.0003 68.9921 89.8924 73.1168 84.8136 73.1168V51.1042ZM61.4398 21.1671C61.4398 28.2269 67.1449 33.9554 74.1759 33.9554V11.9428C79.2546 11.9428 83.3625 16.0675 83.3625 21.1671H61.4398ZM74.1759 33.9554C81.2068 33.9554 86.9119 28.2269 86.9119 21.1671H64.9892C64.9892 16.0675 69.0971 11.9428 74.1759 11.9428V33.9554ZM86.9119 21.1671C86.9119 14.1074 81.2068 8.37886 74.1759 8.37886V30.3914C69.0971 30.3914 64.9892 26.2667 64.9892 21.1671H86.9119ZM74.1759 8.37886C67.1449 8.37886 61.4398 14.1074 61.4398 21.1671H83.3625C83.3625 26.2667 79.2546 30.3914 74.1759 30.3914V8.37886ZM61.4398 31.8485C61.4398 38.9082 67.1449 44.6367 74.1759 44.6367V22.6241C79.2546 22.6241 83.3625 26.7489 83.3625 31.8485H61.4398ZM74.1759 44.6367C81.2068 44.6367 86.9119 38.9082 86.9119 31.8485H64.9892C64.9892 26.7489 69.0971 22.6241 74.1759 22.6241V44.6367ZM86.9119 31.8485C86.9119 24.7887 81.2068 19.0602 74.1759 19.0602V41.0728C69.0971 41.0728 64.9892 36.948 64.9892 31.8485H86.9119ZM74.1759 19.0602C67.1449 19.0602 61.4398 24.7887 61.4398 31.8485H83.3625C83.3625 36.948 79.2546 41.0728 74.1759 41.0728V19.0602ZM61.4398 42.5298C61.4398 49.5896 67.1449 55.3181 74.1759 55.3181V33.3055C79.2546 33.3055 83.3625 37.4302 83.3625 42.5298H61.4398ZM74.1759 55.3181C81.2068 55.3181 86.9119 49.5896 86.9119 42.5298H64.9892C64.9892 37.4302 69.0971 33.3055 74.1759 33.3055V55.3181ZM86.9119 42.5298C86.9119 35.4701 81.2068 29.7415 74.1759 29.7415V51.7541C69.0971 51.7541 64.9892 47.6294 64.9892 42.5298H86.9119ZM74.1759 29.7415C67.1449 29.7415 61.4398 35.4701 61.4398 42.5298H83.3625C83.3625 47.6294 79.2546 51.7541 74.1759 51.7541V29.7415ZM61.4398 53.2112C61.4398 60.2709 67.1449 65.9994 74.1759 65.9994V43.9868C79.2546 43.9868 83.3625 48.1116 83.3625 53.2112H61.4398ZM74.1759 65.9994C81.2068 65.9994 86.9119 60.2709 86.9119 53.2112H64.9892C64.9892 48.1116 69.0971 43.9868 74.1759 43.9868V65.9994ZM86.9119 53.2112C86.9119 46.1514 81.2068 40.4229 74.1759 40.4229V62.4355C69.0971 62.4355 64.9892 58.3107 64.9892 53.2112H86.9119ZM74.1759 40.4229C67.1449 40.4229 61.4398 46.1514 61.4398 53.2112H83.3625C83.3625 58.3107 79.2546 62.4355 74.1759 62.4355V40.4229ZM107.3 31.8485C107.3 31.8852 107.295 31.9743 107.264 32.0843C107.232 32.1944 107.196 32.252 107.201 32.2468L88.4935 20.7688C86.51 24.0235 85.3773 27.7814 85.3773 31.8485H107.3ZM107.05 20.5277C107.185 20.7374 107.248 20.8998 107.274 20.9994C107.3 21.0937 107.305 21.1514 107.305 21.1671H85.3826C85.3826 25.0822 86.4421 29.0602 88.6501 32.4879L107.055 20.5277H107.05ZM107.3 21.1671C107.3 21.817 106.736 22.3831 106.089 22.3831V0.370475C94.6266 0.370475 85.3773 9.65769 85.3773 21.1671H107.3ZM106.089 22.3831C105.442 22.3831 104.878 21.817 104.878 21.1671H126.801C126.801 9.65769 117.552 0.370475 106.089 0.370475V22.3831ZM104.878 21.1671C104.878 20.9784 104.909 20.8422 104.936 20.7583C104.962 20.6745 104.993 20.6063 105.045 20.5277L123.45 32.4879C125.47 29.3537 126.806 25.4334 126.806 21.1671H104.883H104.878ZM104.889 32.2468C104.977 32.3883 104.972 32.4145 104.941 32.3254C104.925 32.2782 104.909 32.2153 104.894 32.1262C104.878 32.0371 104.873 31.9428 104.873 31.8485H126.796C126.796 27.4512 125.381 23.7091 123.591 20.7688L104.883 32.2468H104.889ZM104.878 31.8485C104.878 31.6598 104.909 31.5235 104.936 31.4397C104.962 31.3558 104.993 31.2877 105.045 31.2091L123.45 43.1692C125.47 40.0351 126.806 36.1147 126.806 31.8485H104.883H104.878ZM104.889 42.9281C104.977 43.0696 104.972 43.0958 104.941 43.0067C104.925 42.9596 104.909 42.8967 104.894 42.8076C104.878 42.7185 104.873 42.6242 104.873 42.5298H126.796C126.796 38.1325 125.381 34.3904 123.591 31.4501L104.883 42.9281H104.889ZM104.878 42.5298C104.878 42.3411 104.909 42.2049 104.936 42.121C104.962 42.0371 104.993 41.969 105.045 41.8904L123.45 53.8506C125.47 50.7164 126.806 46.7961 126.806 42.5298H104.883H104.878ZM104.889 53.6095C104.977 53.751 104.972 53.7772 104.941 53.6881C104.925 53.6409 104.909 53.578 104.894 53.4889C104.878 53.3998 104.873 53.3055 104.873 53.2112H126.796C126.796 48.8139 125.381 45.0717 123.591 42.1315L104.883 53.6095H104.889ZM104.878 53.2112C104.878 53.0225 104.909 52.8862 104.936 52.8023C104.962 52.7185 104.993 52.6504 105.045 52.5717L123.45 64.5319C125.47 61.3977 126.806 57.4774 126.806 53.2112H104.883H104.878ZM104.889 64.2908C104.977 64.4323 104.972 64.4585 104.941 64.3694C104.925 64.3275 104.909 64.2594 104.894 64.1703C104.878 64.0812 104.873 63.9868 104.873 63.8925H126.796C126.796 59.4952 125.381 55.7531 123.591 52.8128L104.883 64.2908H104.889ZM104.878 63.8925C104.878 63.2426 105.442 62.6766 106.089 62.6766V84.6891C117.552 84.6891 126.801 75.4019 126.801 63.8925H104.878ZM106.089 62.6766C106.272 62.6766 106.371 62.7028 106.376 62.708C106.381 62.708 106.376 62.708 106.366 62.708C106.35 62.7028 106.34 62.6923 106.329 62.687L95.2165 81.6598C98.1082 83.3684 101.866 84.6944 106.094 84.6944V62.6818L106.089 62.6766ZM95.4461 62.5508C95.3261 62.6189 95.2373 62.6608 95.1747 62.687C95.1121 62.7133 95.086 62.7185 95.0964 62.7185C95.1016 62.7185 95.1434 62.708 95.206 62.6975C95.2739 62.687 95.3574 62.6818 95.4513 62.6818V84.6944C99.7941 84.6944 103.406 83.295 106.094 81.7961L95.4461 62.556V62.5508ZM95.4461 62.6766C95.6288 62.6766 95.728 62.7028 95.7332 62.708C95.7384 62.708 95.7332 62.708 95.7228 62.708C95.7071 62.7028 95.6967 62.6923 95.6862 62.687L84.5735 81.6598C87.4652 83.3684 91.2234 84.6944 95.4513 84.6944V62.6818L95.4461 62.6766ZM84.8032 62.5508C84.6831 62.6189 84.5892 62.6608 84.5317 62.687C84.4691 62.7133 84.443 62.7185 84.4534 62.7185C84.4587 62.7185 84.5004 62.708 84.5631 62.6975C84.6309 62.687 84.7144 62.6818 84.8084 62.6818V84.6944C89.1512 84.6944 92.7632 83.295 95.4513 81.7961L84.8032 62.556V62.5508ZM84.8032 62.6766C85.4504 62.6766 86.0141 63.2426 86.0141 63.8925H64.0914C64.0914 75.4019 73.3407 84.6891 84.8032 84.6891V62.6766ZM86.0141 63.8925V63.0015H64.0914V63.8925H86.0141ZM75.0528 51.9952H74.1654V74.0078H75.0528V51.9952ZM74.1654 51.9952C74.8127 51.9952 75.3764 52.5613 75.3764 53.2112H53.4537C53.4537 64.7206 62.703 74.0078 74.1654 74.0078V51.9952ZM75.3764 53.2112C75.3764 53.3055 75.3712 53.3946 75.3555 53.4575C75.3451 53.5256 75.3346 53.5623 75.3346 53.5675C75.3346 53.5728 75.3399 53.5466 75.366 53.4889C75.3921 53.426 75.4338 53.3369 75.5017 53.2164L56.3402 42.5246C54.8473 45.2237 53.4537 48.8506 53.4537 53.2112H75.3764ZM75.3712 42.2887C75.3712 42.2887 75.3607 42.2678 75.3503 42.252C75.3451 42.2363 75.3451 42.2311 75.3503 42.2415C75.3503 42.2468 75.3816 42.3464 75.3816 42.5298H53.4589C53.4589 46.7751 54.7795 50.5487 56.4811 53.4522L75.3764 42.294L75.3712 42.2887ZM75.3764 42.5298C75.3764 42.6242 75.3712 42.7132 75.3555 42.7761C75.3451 42.8443 75.3346 42.881 75.3346 42.8862C75.3346 42.8914 75.3399 42.8652 75.366 42.8076C75.3921 42.7447 75.4338 42.6556 75.5017 42.535L56.3402 31.8432C54.8473 34.5424 53.4537 38.1692 53.4537 42.5298H75.3764ZM75.3712 31.6074C75.3712 31.6074 75.3607 31.5864 75.3503 31.5707C75.3451 31.555 75.3451 31.5497 75.3503 31.5602C75.3503 31.5654 75.3816 31.665 75.3816 31.8485H53.4589C53.4589 36.0937 54.7795 39.8673 56.4811 42.7709L75.3764 31.6126L75.3712 31.6074ZM75.3764 31.8485C75.3764 31.9428 75.3712 32.0319 75.3555 32.0948C75.3451 32.1629 75.3346 32.1996 75.3346 32.2049C75.3346 32.2101 75.3399 32.1839 75.366 32.1262C75.3921 32.0633 75.4338 31.9743 75.5017 31.8537L56.3402 21.1619C54.8473 23.861 53.4537 27.4879 53.4537 31.8485H75.3764ZM75.3712 20.926C75.3712 20.926 75.3607 20.9051 75.3503 20.8893C75.3451 20.8736 75.3451 20.8684 75.3503 20.8789C75.3503 20.8841 75.3816 20.9837 75.3816 21.1671H53.4589C53.4589 25.4124 54.7795 29.186 56.4811 32.0896L75.3764 20.9313L75.3712 20.926ZM75.3764 21.1671C75.3764 21.817 74.8127 22.3831 74.1654 22.3831V0.370475C62.703 0.370475 53.4537 9.65769 53.4537 21.1671H75.3764ZM74.1654 22.3831C73.5182 22.3831 72.9545 21.817 72.9545 21.1671H94.8772C94.8772 9.65769 85.6279 0.370475 74.1654 0.370475V22.3831ZM72.9545 21.1671C72.9545 20.9784 72.9858 20.8422 73.0119 20.7583C73.038 20.6745 73.0693 20.6063 73.1215 20.5277L91.5261 32.4879C93.5462 29.3537 94.8824 25.4334 94.8824 21.1671H72.9597H72.9545ZM72.9649 32.2468C73.0536 32.3883 73.0484 32.4145 73.0171 32.3254C73.0014 32.2782 72.9858 32.2153 72.9701 32.1262C72.9545 32.0371 72.9492 31.9428 72.9492 31.8485H94.872C94.872 27.4512 93.4574 23.7091 91.6671 20.7688L72.9597 32.2468H72.9649ZM72.9545 31.8485C72.9545 31.6598 72.9858 31.5235 73.0119 31.4397C73.038 31.3558 73.0693 31.2877 73.1215 31.2091L91.5261 43.1692C93.5462 40.0351 94.8824 36.1147 94.8824 31.8485H72.9597H72.9545ZM72.9649 42.9281C73.0536 43.0696 73.0484 43.0958 73.0171 43.0067C73.0014 42.9596 72.9858 42.8967 72.9701 42.8076C72.9545 42.7185 72.9492 42.6242 72.9492 42.5298H94.872C94.872 38.1325 93.4574 34.3904 91.6671 31.4501L72.9597 42.9281H72.9649ZM72.9545 42.5298C72.9545 42.3411 72.9858 42.2049 73.0119 42.121C73.038 42.0371 73.0693 41.969 73.1215 41.8904L91.5261 53.8506C93.5462 50.7164 94.8824 46.7961 94.8824 42.5298H72.9597H72.9545ZM72.9649 53.6095C73.0536 53.751 73.0484 53.7772 73.0171 53.6881C73.0014 53.6409 72.9858 53.578 72.9701 53.4889C72.9545 53.3998 72.9492 53.3055 72.9492 53.2112H94.872C94.872 48.8139 93.4574 45.0717 91.6671 42.1315L72.9597 53.6095H72.9649ZM72.9545 53.2112C72.9545 53.3212 72.9545 53.3055 72.9545 53.274C72.9545 53.2269 72.9545 53.0958 72.9701 52.9177C73.0014 52.4984 73.0693 52.0214 73.1946 51.5235L94.4648 56.8642C94.9137 55.056 94.8824 53.5571 94.8824 53.2164H72.9597L72.9545 53.2112ZM86.4839 64.8673C85.988 64.9931 85.5078 65.0613 85.0955 65.0927C84.918 65.1032 84.7875 65.1084 84.7405 65.1084C84.7092 65.1084 84.6936 65.1084 84.8032 65.1084V43.0958C84.4639 43.0958 82.971 43.0592 81.1703 43.5151L86.4891 64.8726L86.4839 64.8673ZM84.8032 65.1084C84.7092 65.1084 84.61 65.1032 84.5265 65.0875C84.4378 65.0717 84.3751 65.056 84.3282 65.0403C84.2394 65.0141 84.2655 65.0088 84.4065 65.0927L95.8376 46.3086C92.9094 44.5109 89.1825 43.0906 84.8032 43.0906V65.1032V65.1084ZM96.0777 64.946C95.9994 64.9931 95.9316 65.0298 95.848 65.056C95.7645 65.0822 95.6288 65.1137 95.4409 65.1137V43.1011C91.1973 43.1011 87.2877 44.4428 84.1664 46.4711L96.0777 64.9512V64.946ZM95.4409 65.1084C95.6236 65.1084 95.3991 65.1084 95.1016 65.0927C94.9346 65.0822 94.6579 65.056 94.3082 64.9984C93.9689 64.9407 93.4626 64.8359 92.8572 64.6367L99.7889 43.7562C98.4005 43.2898 97.2104 43.1797 96.6623 43.143C96.0568 43.1011 95.5192 43.1063 95.4357 43.1063V65.1189L95.4409 65.1084ZM107.29 54.1912V53.2112H85.3669V54.1912H107.29ZM107.29 53.2112C107.29 53.2478 107.284 53.3369 107.253 53.447C107.222 53.5571 107.185 53.6147 107.19 53.6095L88.4831 42.1315C86.4996 45.3862 85.3669 49.1441 85.3669 53.2112H107.29ZM107.039 41.8904C107.175 42.1 107.237 42.2625 107.264 42.3621C107.29 42.4564 107.295 42.5141 107.295 42.5298H85.3721C85.3721 46.4449 86.4317 50.4229 88.6396 53.8506L107.044 41.8904H107.039ZM107.29 42.5298C107.29 42.5665 107.284 42.6556 107.253 42.7657C107.222 42.8757 107.185 42.9334 107.19 42.9281L88.4831 31.4501C86.4996 34.7049 85.3669 38.4627 85.3669 42.5298H107.29ZM107.039 31.2091C107.175 31.4187 107.237 31.5812 107.264 31.6808C107.29 31.7751 107.295 31.8327 107.295 31.8485H85.3721C85.3721 35.7636 86.4317 39.7416 88.6396 43.1692L107.044 31.2091H107.039ZM119.133 26.5078L128.716 31.8537C130.601 28.447 130.549 24.2908 128.581 20.926L119.133 26.5078ZM135.533 26.5078L126.331 20.5277C124.04 24.0812 123.982 28.6357 126.18 32.2468L135.533 26.5078ZM135.533 37.1891L126.331 31.2091C124.04 34.7625 123.982 39.317 126.18 42.9281L135.533 37.1891ZM135.533 47.8705L126.331 41.8904C124.04 45.4439 123.982 49.9984 126.18 53.6095L135.533 47.8705ZM135.533 58.5518L126.331 52.5717C124.04 56.1252 123.982 60.6797 126.18 64.2908L135.533 58.5518ZM119.133 58.5518L128.716 63.8977C130.601 60.491 130.549 56.3348 128.581 52.9701L119.133 58.5518ZM119.133 47.8705L128.716 53.2164C130.601 49.8097 130.549 45.6535 128.581 42.2887L119.133 47.8705ZM119.133 37.1891L128.716 42.535C130.601 39.1283 130.549 34.9722 128.581 31.6074L119.133 37.1891ZM114.644 21.1671C114.644 28.2269 120.349 33.9554 127.38 33.9554V11.9428C132.459 11.9428 136.567 16.0675 136.567 21.1671H114.644ZM127.38 33.9554C134.411 33.9554 140.116 28.2269 140.116 21.1671H118.194C118.194 16.0675 122.301 11.9428 127.38 11.9428V33.9554ZM140.116 21.1671C140.116 14.1074 134.411 8.37886 127.38 8.37886V30.3914C122.301 30.3914 118.194 26.2667 118.194 21.1671H140.116ZM127.38 8.37886C120.349 8.37886 114.644 14.1074 114.644 21.1671H136.567C136.567 26.2667 132.459 30.3914 127.38 30.3914V8.37886ZM114.644 31.8485C114.644 38.9082 120.349 44.6367 127.38 44.6367V22.6241C132.459 22.6241 136.567 26.7489 136.567 31.8485H114.644ZM127.38 44.6367C134.411 44.6367 140.116 38.9082 140.116 31.8485H118.194C118.194 26.7489 122.301 22.6241 127.38 22.6241V44.6367ZM140.116 31.8485C140.116 24.7887 134.411 19.0602 127.38 19.0602V41.0728C122.301 41.0728 118.194 36.948 118.194 31.8485H140.116ZM127.38 19.0602C120.349 19.0602 114.644 24.7887 114.644 31.8485H136.567C136.567 36.948 132.459 41.0728 127.38 41.0728V19.0602ZM114.644 42.5298C114.644 49.5896 120.349 55.3181 127.38 55.3181V33.3055C132.459 33.3055 136.567 37.4302 136.567 42.5298H114.644ZM127.38 55.3181C134.411 55.3181 140.116 49.5896 140.116 42.5298H118.194C118.194 37.4302 122.301 33.3055 127.38 33.3055V55.3181ZM140.116 42.5298C140.116 35.4701 134.411 29.7415 127.38 29.7415V51.7541C122.301 51.7541 118.194 47.6294 118.194 42.5298H140.116ZM127.38 29.7415C120.349 29.7415 114.644 35.4701 114.644 42.5298H136.567C136.567 47.6294 132.459 51.7541 127.38 51.7541V29.7415ZM114.644 53.2112C114.644 60.2709 120.349 65.9994 127.38 65.9994V43.9868C132.459 43.9868 136.567 48.1116 136.567 53.2112H114.644ZM127.38 65.9994C134.411 65.9994 140.116 60.2709 140.116 53.2112H118.194C118.194 48.1116 122.301 43.9868 127.38 43.9868V65.9994ZM140.116 53.2112C140.116 46.1514 134.411 40.4229 127.38 40.4229V62.4355C122.301 62.4355 118.194 58.3107 118.194 53.2112H140.116ZM127.38 40.4229C120.349 40.4229 114.644 46.1514 114.644 53.2112H136.567C136.567 58.3107 132.459 62.4355 127.38 62.4355V40.4229ZM114.644 63.8925C114.644 70.9522 120.349 76.6808 127.38 76.6808V54.6682C132.459 54.6682 136.567 58.7929 136.567 63.8925H114.644ZM127.38 76.6808C134.411 76.6808 140.116 70.9522 140.116 63.8925H118.194C118.194 58.7929 122.301 54.6682 127.38 54.6682V76.6808ZM140.116 63.8925C140.116 56.8327 134.411 51.1042 127.38 51.1042V73.1168C122.301 73.1168 118.194 68.9921 118.194 63.8925H140.116ZM127.38 51.1042C120.349 51.1042 114.644 56.8327 114.644 63.8925H136.567C136.567 68.9921 132.459 73.1168 127.38 73.1168V51.1042ZM128.591 31.8485C128.591 31.9428 128.586 32.0319 128.576 32.0948C128.565 32.1629 128.555 32.1996 128.555 32.2049C128.555 32.2101 128.56 32.1839 128.586 32.1262C128.612 32.0633 128.654 31.9743 128.722 31.8537L109.555 21.1619C108.062 23.861 106.668 27.4879 106.668 31.8485H128.591ZM128.586 20.926C128.586 20.926 128.57 20.9051 128.565 20.8893C128.56 20.8736 128.56 20.8684 128.565 20.8789C128.565 20.8841 128.596 20.9837 128.596 21.1671H106.674C106.674 25.4124 107.994 29.186 109.696 32.0896L128.591 20.9313L128.586 20.926ZM128.591 21.1671C128.591 21.817 128.027 22.3831 127.38 22.3831V0.370475C115.918 0.370475 106.668 9.65769 106.668 21.1671H128.591ZM127.38 22.3831C126.733 22.3831 126.169 21.817 126.169 21.1671H148.092C148.092 9.65769 138.843 0.370475 127.38 0.370475V22.3831ZM126.169 21.1671C126.169 20.9784 126.201 20.8422 126.227 20.7583C126.253 20.6745 126.284 20.6063 126.336 20.5277L144.741 32.4879C146.761 29.3537 148.097 25.4334 148.097 21.1671H126.174H126.169ZM126.18 32.2468C126.268 32.3883 126.263 32.4145 126.232 32.3254C126.216 32.2782 126.201 32.2153 126.185 32.1262C126.169 32.0371 126.164 31.9428 126.164 31.8485H148.087C148.087 27.4512 146.672 23.7091 144.882 20.7688L126.174 32.2468H126.18ZM126.169 31.8485C126.169 31.6598 126.201 31.5235 126.227 31.4397C126.253 31.3558 126.284 31.2877 126.336 31.2091L144.741 43.1692C146.761 40.0351 148.097 36.1147 148.097 31.8485H126.174H126.169ZM126.18 42.9281C126.268 43.0696 126.263 43.0958 126.232 43.0067C126.216 42.9596 126.201 42.8967 126.185 42.8076C126.169 42.7185 126.164 42.6242 126.164 42.5298H148.087C148.087 38.1325 146.672 34.3904 144.882 31.4501L126.174 42.9281H126.18ZM126.169 42.5298C126.169 42.3411 126.201 42.2049 126.227 42.121C126.253 42.0371 126.284 41.969 126.336 41.8904L144.741 53.8506C146.761 50.7164 148.097 46.7961 148.097 42.5298H126.174H126.169ZM126.18 53.6095C126.268 53.751 126.263 53.7772 126.232 53.6881C126.216 53.6409 126.201 53.578 126.185 53.4889C126.169 53.3998 126.164 53.3055 126.164 53.2112H148.087C148.087 48.8139 146.672 45.0717 144.882 42.1315L126.174 53.6095H126.18ZM126.169 53.2112C126.169 53.0225 126.201 52.8862 126.227 52.8023C126.253 52.7185 126.284 52.6504 126.336 52.5717L144.741 64.5319C146.761 61.3977 148.097 57.4774 148.097 53.2112H126.174H126.169ZM126.18 64.2908C126.268 64.4323 126.263 64.4585 126.232 64.3694C126.216 64.3275 126.201 64.2594 126.185 64.1703C126.169 64.0812 126.164 63.9868 126.164 63.8925H148.087C148.087 59.4952 146.672 55.7531 144.882 52.8128L126.174 64.2908H126.18ZM126.169 63.8925C126.169 63.2426 126.733 62.6766 127.38 62.6766V84.6891C138.843 84.6891 148.092 75.4019 148.092 63.8925H126.169ZM127.38 62.6766C128.027 62.6766 128.591 63.2426 128.591 63.8925H106.668C106.668 75.4019 115.918 84.6891 127.38 84.6891V62.6766ZM128.591 63.8925C128.591 63.9868 128.586 64.0759 128.576 64.1388C128.565 64.207 128.555 64.2436 128.555 64.2489C128.555 64.2541 128.56 64.2279 128.586 64.1703C128.612 64.1074 128.654 64.0183 128.722 63.8977L109.555 53.2059C108.062 55.9051 106.668 59.5319 106.668 63.8925H128.591ZM128.586 52.9701C128.586 52.9701 128.57 52.9491 128.565 52.9334C128.56 52.9177 128.56 52.9124 128.565 52.9229C128.565 52.9281 128.596 53.0277 128.596 53.2112H106.674C106.674 57.4564 107.994 61.23 109.696 64.1336L128.591 52.9701H128.586ZM128.591 53.2112C128.591 53.3055 128.586 53.3946 128.576 53.4575C128.565 53.5256 128.555 53.5623 128.555 53.5675C128.555 53.5728 128.56 53.5466 128.586 53.4889C128.612 53.426 128.654 53.3369 128.722 53.2164L109.555 42.5246C108.062 45.2237 106.668 48.8506 106.668 53.2112H128.591ZM128.586 42.2887C128.586 42.2887 128.57 42.2678 128.565 42.252C128.56 42.2363 128.56 42.2311 128.565 42.2415C128.565 42.2468 128.596 42.3464 128.596 42.5298H106.674C106.674 46.7751 107.994 50.5487 109.696 53.4522L128.591 42.294L128.586 42.2887ZM128.591 42.5298C128.591 42.6242 128.586 42.7132 128.576 42.7761C128.565 42.8443 128.555 42.881 128.555 42.8862C128.555 42.8914 128.56 42.8652 128.586 42.8076C128.612 42.7447 128.654 42.6556 128.722 42.535L109.555 31.8432C108.062 34.5424 106.668 38.1692 106.668 42.5298H128.591ZM128.586 31.6074C128.586 31.6074 128.57 31.5864 128.565 31.5707C128.56 31.555 128.56 31.5497 128.565 31.5602C128.565 31.5654 128.596 31.665 128.596 31.8485H106.674C106.674 36.0937 107.994 39.8673 109.696 42.7709L128.591 31.6126L128.586 31.6074ZM153.948 12.9753L148.233 22.3673C151.829 24.5738 156.365 24.5162 159.904 22.2153L153.948 12.9753ZM164.586 12.9753L158.871 22.3673C162.467 24.5738 167.003 24.5162 170.542 22.2153L164.586 12.9753ZM175.224 12.9753L169.508 22.3673C173.105 24.5738 177.641 24.5162 181.18 22.2153L175.224 12.9753ZM188.696 26.5026L179.494 20.5225C177.202 24.0759 177.145 28.6304 179.342 32.2415L188.696 26.5026ZM179.567 41.6336V30.6273C176.043 30.6273 172.734 32.3254 170.672 35.1975C168.611 38.0696 168.052 41.7594 169.164 45.1137L179.562 41.6336H179.567ZM164.586 50.8003L170.542 41.5602C167.003 39.2594 162.467 39.2017 158.871 41.4082L164.586 50.8003ZM158.291 52.3149V41.3086C154.768 41.3086 151.459 43.0068 149.397 45.8789C147.335 48.751 146.777 52.4407 147.888 55.795L158.286 52.3149H158.291ZM158.291 54.186L147.659 51.5183C146.724 55.2709 147.821 59.2384 150.54 61.969C153.265 64.7049 157.216 65.8003 160.948 64.8621L158.291 54.186ZM164.586 55.7007L158.871 65.0927C162.467 67.2992 167.003 67.2416 170.542 64.9407L164.586 55.7007ZM175.224 55.7007L169.508 65.0927C173.105 67.2992 177.641 67.2416 181.18 64.9407L175.224 55.7007ZM175.224 72.1682L180.783 62.6818C177.437 60.7059 173.298 60.6535 169.9 62.5455L175.224 72.1682ZM164.586 72.1682L170.145 62.6818C166.799 60.7059 162.66 60.6535 159.262 62.5455L164.586 72.1682ZM153.948 72.1682L159.507 62.6818C156.162 60.7059 152.022 60.6535 148.624 62.5455L153.948 72.1682ZM140.388 58.5518L149.971 63.8977C151.855 60.491 151.808 56.3348 149.835 52.9701L140.388 58.5518ZM149.517 43.5099L146.051 53.9501C149.392 55.0665 153.066 54.5057 155.927 52.4355C158.787 50.3652 160.478 47.0424 160.478 43.5047H149.517V43.5099ZM164.586 34.3432L158.871 43.7353C162.467 45.9418 167.003 45.8841 170.542 43.5833L164.586 34.3432ZM170.792 32.8285L167.327 43.2688C170.667 44.3852 174.342 43.8244 177.202 41.7541C180.063 39.6839 181.754 36.361 181.754 32.8233H170.792V32.8285ZM170.792 30.9575H181.754C181.754 24.8778 176.847 19.9512 170.792 19.9512V30.9575ZM164.586 29.4428L170.542 20.2028C167.003 17.9019 162.467 17.8443 158.871 20.0508L164.586 29.4428ZM153.948 29.4428L159.904 20.2028C156.365 17.9019 151.829 17.8443 148.233 20.0508L153.948 29.4428ZM167.807 21.1671C167.807 28.2269 173.512 33.9554 180.543 33.9554V11.9428C185.622 11.9428 189.729 16.0675 189.729 21.1671H167.807ZM180.543 33.9554C187.574 33.9554 193.279 28.2269 193.279 21.1671H171.356C171.356 16.0675 175.464 11.9428 180.543 11.9428V33.9554ZM193.279 21.1671C193.279 14.1074 187.574 8.37886 180.543 8.37886V30.3914C175.464 30.3914 171.356 26.2667 171.356 21.1671H193.279ZM180.543 8.37886C173.512 8.37886 167.807 14.1074 167.807 21.1671H189.729C189.729 26.2667 185.622 30.3914 180.543 30.3914V8.37886ZM167.807 31.8485C167.807 38.9082 173.512 44.6367 180.543 44.6367V22.6241C185.622 22.6241 189.729 26.7489 189.729 31.8485H167.807ZM180.543 44.6367C187.574 44.6367 193.279 38.9082 193.279 31.8485H171.356C171.356 26.7489 175.464 22.6241 180.543 22.6241V44.6367ZM193.279 31.8485C193.279 24.7887 187.574 19.0602 180.543 19.0602V41.0728C175.464 41.0728 171.356 36.948 171.356 31.8485H193.279ZM180.543 19.0602C173.512 19.0602 167.807 24.7887 167.807 31.8485H189.729C189.729 36.948 185.622 41.0728 180.543 41.0728V19.0602ZM167.807 63.8925C167.807 70.9522 173.512 76.6808 180.543 76.6808V54.6682C185.622 54.6682 189.729 58.7929 189.729 63.8925H167.807ZM180.543 76.6808C187.574 76.6808 193.279 70.9522 193.279 63.8925H171.356C171.356 58.7929 175.464 54.6682 180.543 54.6682V76.6808ZM193.279 63.8925C193.279 56.8327 187.574 51.1042 180.543 51.1042V73.1168C175.464 73.1168 171.356 68.9921 171.356 63.8925H193.279ZM180.543 51.1042C173.512 51.1042 167.807 56.8327 167.807 63.8925H189.729C189.729 68.9921 185.622 73.1168 180.543 73.1168V51.1042ZM157.169 21.1671C157.169 28.2269 162.874 33.9554 169.905 33.9554V11.9428C174.984 11.9428 179.092 16.0675 179.092 21.1671H157.169ZM169.905 33.9554C176.936 33.9554 182.641 28.2269 182.641 21.1671H160.718C160.718 16.0675 164.826 11.9428 169.905 11.9428V33.9554ZM182.641 21.1671C182.641 14.1074 176.936 8.37886 169.905 8.37886V30.3914C164.826 30.3914 160.718 26.2667 160.718 21.1671H182.641ZM169.905 8.37886C162.874 8.37886 157.169 14.1074 157.169 21.1671H179.092C179.092 26.2667 174.984 30.3914 169.905 30.3914V8.37886ZM157.169 42.5298C157.169 49.5896 162.874 55.3181 169.905 55.3181V33.3055C174.984 33.3055 179.092 37.4302 179.092 42.5298H157.169ZM169.905 55.3181C176.936 55.3181 182.641 49.5896 182.641 42.5298H160.718C160.718 37.4302 164.826 33.3055 169.905 33.3055V55.3181ZM182.641 42.5298C182.641 35.4701 176.936 29.7415 169.905 29.7415V51.7541C164.826 51.7541 160.718 47.6294 160.718 42.5298H182.641ZM169.905 29.7415C162.874 29.7415 157.169 35.4701 157.169 42.5298H179.092C179.092 47.6294 174.984 51.7541 169.905 51.7541V29.7415ZM157.169 63.8925C157.169 70.9522 162.874 76.6808 169.905 76.6808V54.6682C174.984 54.6682 179.092 58.7929 179.092 63.8925H157.169ZM169.905 76.6808C176.936 76.6808 182.641 70.9522 182.641 63.8925H160.718C160.718 58.7929 164.826 54.6682 169.905 54.6682V76.6808ZM182.641 63.8925C182.641 56.8327 176.936 51.1042 169.905 51.1042V73.1168C164.826 73.1168 160.718 68.9921 160.718 63.8925H182.641ZM169.905 51.1042C162.874 51.1042 157.169 56.8327 157.169 63.8925H179.092C179.092 68.9921 174.984 73.1168 169.905 73.1168V51.1042ZM146.531 21.1671C146.531 28.2269 152.236 33.9554 159.267 33.9554V11.9428C164.346 11.9428 168.454 16.0675 168.454 21.1671H146.531ZM159.267 33.9554C166.298 33.9554 172.003 28.2269 172.003 21.1671H150.081C150.081 16.0675 154.189 11.9428 159.267 11.9428V33.9554ZM172.003 21.1671C172.003 14.1074 166.298 8.37886 159.267 8.37886V30.3914C154.189 30.3914 150.081 26.2667 150.081 21.1671H172.003ZM159.267 8.37886C152.236 8.37886 146.531 14.1074 146.531 21.1671H168.454C168.454 26.2667 164.346 30.3914 159.267 30.3914V8.37886ZM146.531 42.5298C146.531 49.5896 152.236 55.3181 159.267 55.3181V33.3055C164.346 33.3055 168.454 37.4302 168.454 42.5298H146.531ZM159.267 55.3181C166.298 55.3181 172.003 49.5896 172.003 42.5298H150.081C150.081 37.4302 154.189 33.3055 159.267 33.3055V55.3181ZM172.003 42.5298C172.003 35.4701 166.298 29.7415 159.267 29.7415V51.7541C154.189 51.7541 150.081 47.6294 150.081 42.5298H172.003ZM159.267 29.7415C152.236 29.7415 146.531 35.4701 146.531 42.5298H168.454C168.454 47.6294 164.346 51.7541 159.267 51.7541V29.7415ZM146.531 63.8925C146.531 70.9522 152.236 76.6808 159.267 76.6808V54.6682C164.346 54.6682 168.454 58.7929 168.454 63.8925H146.531ZM159.267 76.6808C166.298 76.6808 172.003 70.9522 172.003 63.8925H150.081C150.081 58.7929 154.189 54.6682 159.267 54.6682V76.6808ZM172.003 63.8925C172.003 56.8327 166.298 51.1042 159.267 51.1042V73.1168C154.189 73.1168 150.081 68.9921 150.081 63.8925H172.003ZM159.267 51.1042C152.236 51.1042 146.531 56.8327 146.531 63.8925H168.454C168.454 68.9921 164.346 73.1168 159.267 73.1168V51.1042ZM135.894 21.1671C135.894 28.2269 141.599 33.9554 148.63 33.9554V11.9428C153.708 11.9428 157.816 16.0675 157.816 21.1671H135.894ZM148.63 33.9554C155.661 33.9554 161.366 28.2269 161.366 21.1671H139.443C139.443 16.0675 143.551 11.9428 148.63 11.9428V33.9554ZM161.366 21.1671C161.366 14.1074 155.661 8.37886 148.63 8.37886V30.3914C143.551 30.3914 139.443 26.2667 139.443 21.1671H161.366ZM148.63 8.37886C141.599 8.37886 135.894 14.1074 135.894 21.1671H157.816C157.816 26.2667 153.708 30.3914 148.63 30.3914V8.37886ZM135.894 53.2112C135.894 60.2709 141.599 65.9994 148.63 65.9994V43.9868C153.708 43.9868 157.816 48.1116 157.816 53.2112H135.894ZM148.63 65.9994C155.661 65.9994 161.366 60.2709 161.366 53.2112H139.443C139.443 48.1116 143.551 43.9868 148.63 43.9868V65.9994ZM161.366 53.2112C161.366 46.1514 155.661 40.4229 148.63 40.4229V62.4355C143.551 62.4355 139.443 58.3107 139.443 53.2112H161.366ZM148.63 40.4229C141.599 40.4229 135.894 46.1514 135.894 53.2112H157.816C157.816 58.3107 153.708 62.4355 148.63 62.4355V40.4229ZM135.894 63.8925C135.894 70.9522 141.599 76.6808 148.63 76.6808V54.6682C153.708 54.6682 157.816 58.7929 157.816 63.8925H135.894ZM148.63 76.6808C155.661 76.6808 161.366 70.9522 161.366 63.8925H139.443C139.443 58.7929 143.551 54.6682 148.63 54.6682V76.6808ZM161.366 63.8925C161.366 56.8327 155.661 51.1042 148.63 51.1042V73.1168C143.551 73.1168 139.443 68.9921 139.443 63.8925H161.366ZM148.63 51.1042C141.599 51.1042 135.894 56.8327 135.894 63.8925H157.816C157.816 68.9921 153.708 73.1168 148.63 73.1168V51.1042ZM149.841 21.1671C149.841 21.817 149.277 22.3831 148.63 22.3831V0.370475C137.167 0.370475 127.918 9.65769 127.918 21.1671H149.841ZM148.63 22.3831C148.536 22.3831 148.436 22.3726 148.353 22.3621C148.264 22.3464 148.196 22.3306 148.155 22.3149C148.066 22.2887 148.092 22.2835 148.233 22.3673L159.664 3.58326C156.736 1.78557 153.009 0.365234 148.63 0.365234V22.3778V22.3831ZM159.904 22.2206C159.831 22.2678 159.758 22.3044 159.674 22.3306C159.591 22.3569 159.455 22.3883 159.267 22.3883V0.370475C155.024 0.370475 151.114 1.71219 147.993 3.7405L159.904 22.2206ZM159.267 22.3831C159.173 22.3831 159.074 22.3726 158.991 22.3621C158.902 22.3464 158.834 22.3306 158.792 22.3149C158.704 22.2887 158.73 22.2835 158.871 22.3673L170.302 3.58326C167.374 1.78557 163.647 0.365234 159.267 0.365234V22.3778V22.3831ZM170.542 22.2206C170.469 22.2678 170.396 22.3044 170.312 22.3306C170.229 22.3569 170.093 22.3883 169.905 22.3883V0.370475C165.661 0.370475 161.752 1.71219 158.631 3.7405L170.542 22.2206ZM169.905 22.3831C169.811 22.3831 169.712 22.3726 169.628 22.3621C169.54 22.3464 169.472 22.3306 169.43 22.3149C169.341 22.2887 169.367 22.2835 169.508 22.3673L180.94 3.58326C178.011 1.78557 174.284 0.365234 169.905 0.365234V22.3778V22.3831ZM181.18 22.2206C181.107 22.2678 181.033 22.3044 180.95 22.3306C180.866 22.3569 180.731 22.3883 180.543 22.3883V0.370475C176.299 0.370475 172.39 1.71219 169.268 3.7405L181.18 22.2206ZM180.543 22.3831C179.896 22.3831 179.332 21.817 179.332 21.1671H201.255C201.255 9.65769 192.005 0.370475 180.543 0.370475V22.3831ZM179.332 21.1671C179.332 20.9784 179.358 20.8422 179.389 20.7583C179.415 20.6745 179.447 20.6063 179.499 20.5277L197.904 32.4879C199.924 29.3537 201.26 25.4334 201.26 21.1671H179.337H179.332ZM179.342 32.2468C179.431 32.3883 179.426 32.4145 179.394 32.3254C179.379 32.2782 179.363 32.2153 179.348 32.1262C179.332 32.0371 179.327 31.9428 179.327 31.8485H201.249C201.249 27.4512 199.835 23.7091 198.044 20.7688L179.337 32.2468H179.342ZM179.332 31.8485C179.332 31.1986 179.896 30.6325 180.543 30.6325V52.6451C192.005 52.6451 201.255 43.3579 201.255 31.8485H179.332ZM180.543 30.6325H179.567V52.6451H180.543V30.6325ZM169.169 45.1189C168.966 44.5109 168.861 44.0026 168.809 43.6619C168.752 43.316 168.725 43.0382 168.715 42.8652C168.694 42.5717 168.699 42.3411 168.699 42.5246H190.622C190.622 42.4407 190.622 41.9009 190.58 41.2929C190.544 40.7426 190.429 39.5424 189.97 38.1535L169.169 45.1137V45.1189ZM168.694 42.5298C168.694 41.8799 169.258 41.3139 169.905 41.3139V63.3265C181.368 63.3265 190.617 54.0392 190.617 42.5298H168.694ZM169.905 41.3139C169.905 41.3139 169.978 41.3139 170.072 41.3453C170.166 41.3715 170.328 41.4344 170.537 41.5707L158.625 60.0508C162.039 62.2678 165.996 63.3317 169.9 63.3317V41.3191L169.905 41.3139ZM158.871 41.4135C158.871 41.4135 158.923 41.382 159.032 41.3506C159.142 41.3191 159.236 41.3139 159.267 41.3139V63.3265C163.318 63.3265 167.06 62.1891 170.302 60.1975L158.871 41.4135ZM159.267 41.3139H158.291V63.3265H159.267V41.3139ZM147.894 55.8003C147.69 55.1923 147.586 54.6839 147.533 54.3432C147.476 53.9973 147.45 53.7195 147.44 53.5466C147.419 53.2531 147.424 53.0225 147.424 53.2059H169.347C169.347 53.1221 169.347 52.5822 169.305 51.9743C169.268 51.4239 169.153 50.2237 168.694 48.8348L147.899 55.795L147.894 55.8003ZM147.419 53.2112C147.419 53.3212 147.419 53.3055 147.419 53.274C147.419 53.2269 147.419 53.0958 147.434 52.9177C147.466 52.4984 147.533 52.0214 147.654 51.5235L168.924 56.8642C169.373 55.056 169.341 53.5571 169.341 53.2164H147.419V53.2112ZM160.948 64.8673C160.452 64.9931 159.972 65.0613 159.56 65.0927C159.382 65.1032 159.252 65.1084 159.205 65.1084C159.173 65.1084 159.158 65.1084 159.267 65.1084V43.0958C158.928 43.0958 157.435 43.0592 155.634 43.5151L160.953 64.8726L160.948 64.8673ZM159.262 65.1084C159.168 65.1084 159.069 65.1032 158.985 65.0875C158.897 65.0717 158.829 65.056 158.787 65.0403C158.698 65.0141 158.724 65.0088 158.865 65.0927L170.297 46.3086C167.368 44.5109 163.641 43.0906 159.262 43.0906V65.1032V65.1084ZM170.537 64.946C170.464 64.9931 170.391 65.0298 170.307 65.056C170.223 65.0822 170.088 65.1137 169.9 65.1137V43.1011C165.656 43.1011 161.747 44.4428 158.625 46.4711L170.537 64.9512V64.946ZM169.9 65.1084C169.806 65.1084 169.707 65.1032 169.623 65.0875C169.534 65.0717 169.467 65.056 169.425 65.0403C169.336 65.0141 169.362 65.0088 169.503 65.0927L180.934 46.3086C178.006 44.5109 174.279 43.0906 169.9 43.0906V65.1032V65.1084ZM181.174 64.946C181.101 64.9931 181.028 65.0298 180.945 65.056C180.861 65.0822 180.726 65.1137 180.538 65.1137V43.1011C176.294 43.1011 172.384 44.4428 169.263 46.4711L181.174 64.9512V64.946ZM180.538 65.1084C179.89 65.1084 179.327 64.5424 179.327 63.8925H201.249C201.249 52.3831 192 43.0958 180.538 43.0958V65.1084ZM179.327 63.8925C179.327 63.2426 179.89 62.6766 180.538 62.6766V84.6891C192 84.6891 201.249 75.4019 201.249 63.8925H179.327ZM180.538 62.6766C180.72 62.6766 180.819 62.7028 180.825 62.708C180.83 62.708 180.825 62.708 180.814 62.708C180.799 62.7028 180.788 62.6923 180.778 62.687L169.66 81.6598C172.551 83.3684 176.31 84.6944 180.538 84.6944V62.6818V62.6766ZM169.895 62.5508C169.775 62.6189 169.686 62.6608 169.623 62.687C169.566 62.7133 169.534 62.7185 169.545 62.7185C169.55 62.7185 169.592 62.708 169.655 62.6975C169.722 62.687 169.806 62.6818 169.9 62.6818V84.6944C174.243 84.6944 177.855 83.295 180.543 81.7961L169.895 62.556V62.5508ZM169.895 62.6766C170.077 62.6766 170.177 62.7028 170.182 62.708C170.187 62.708 170.182 62.708 170.171 62.708C170.156 62.7028 170.145 62.6923 170.135 62.687L159.022 81.6598C161.914 83.3684 165.672 84.6944 169.9 84.6944V62.6818L169.895 62.6766ZM159.252 62.5508C159.132 62.6189 159.043 62.6608 158.98 62.687C158.918 62.7133 158.892 62.7185 158.902 62.7185C158.907 62.7185 158.949 62.708 159.012 62.6975C159.079 62.687 159.163 62.6818 159.257 62.6818V84.6944C163.6 84.6944 167.212 83.295 169.9 81.7961L159.252 62.556V62.5508ZM159.252 62.6766C159.434 62.6766 159.534 62.7028 159.539 62.708C159.544 62.708 159.539 62.708 159.528 62.708C159.513 62.7028 159.502 62.6923 159.492 62.687L148.374 81.6598C151.266 83.3684 155.024 84.6944 159.252 84.6944V62.6818V62.6766ZM148.609 62.5508C148.489 62.6189 148.4 62.6608 148.337 62.687C148.275 62.7133 148.249 62.7185 148.259 62.7185C148.264 62.7185 148.306 62.708 148.369 62.6975C148.436 62.687 148.52 62.6818 148.614 62.6818V84.6944C152.957 84.6944 156.569 83.295 159.257 81.7961L148.609 62.556V62.5508ZM148.609 62.6766C149.256 62.6766 149.82 63.2426 149.82 63.8925H127.897C127.897 75.4019 137.146 84.6891 148.609 84.6891V62.6766ZM149.82 63.8925C149.82 63.9868 149.814 64.0759 149.804 64.1388C149.794 64.207 149.783 64.2436 149.783 64.2489C149.783 64.2541 149.788 64.2279 149.814 64.1703C149.841 64.1074 149.882 64.0183 149.95 63.8977L130.789 53.2059C129.296 55.9051 127.902 59.5319 127.902 63.8925H149.825H149.82ZM149.814 52.9701C149.814 52.9701 149.804 52.9491 149.794 52.9334C149.788 52.9177 149.788 52.9124 149.794 52.9229C149.794 52.9281 149.825 53.0277 149.825 53.2112H127.902C127.902 57.4564 129.223 61.23 130.924 64.1336L149.82 52.9701H149.814ZM149.82 53.2112C149.82 53.861 149.256 54.4271 148.609 54.4271V32.4145C137.146 32.4145 127.897 41.7017 127.897 53.2112H149.82ZM148.609 54.4271C148.791 54.4271 148.567 54.4271 148.269 54.4114C148.097 54.4009 147.826 54.3747 147.476 54.317C147.137 54.2594 146.63 54.1545 146.025 53.9554L152.957 33.0749C151.568 32.6084 150.378 32.4984 149.83 32.4617C149.225 32.4197 148.687 32.425 148.604 32.425V54.4376L148.609 54.4271ZM160.457 43.5099V42.5298H138.535V43.5099H160.457ZM160.457 42.5298C160.457 43.1797 159.894 43.7457 159.246 43.7457V21.7332C147.784 21.7332 138.535 31.0204 138.535 42.5298H160.457ZM159.246 43.7457C159.152 43.7457 159.053 43.7353 158.97 43.7248C158.881 43.7091 158.813 43.6933 158.771 43.6776C158.683 43.6514 158.709 43.6462 158.85 43.73L170.281 24.9459C167.353 23.1483 163.626 21.7279 159.246 21.7279V43.7405V43.7457ZM170.521 43.5833C170.448 43.6304 170.375 43.6671 170.291 43.6933C170.208 43.7195 170.072 43.751 169.884 43.751V21.7384C165.641 21.7384 161.731 23.0801 158.61 25.1084L170.521 43.5885V43.5833ZM169.884 43.7457C170.067 43.7457 169.842 43.7457 169.545 43.73C169.373 43.7195 169.101 43.6933 168.752 43.6357C168.412 43.578 167.906 43.4732 167.3 43.274L174.232 22.3935C172.844 21.9271 171.654 21.817 171.106 21.7803C170.5 21.7384 169.962 21.7436 169.879 21.7436V43.7562L169.884 43.7457ZM181.733 32.8285V31.8485H159.81V32.8285H181.733ZM181.733 31.8485V30.9575H159.81V31.8485H181.733ZM170.772 19.9512H169.884V41.9638H170.772V19.9512ZM169.884 19.9512C169.884 19.9512 169.957 19.9512 170.051 19.9826C170.145 20.0088 170.307 20.0717 170.516 20.208L158.604 38.6881C162.018 40.9051 165.975 41.969 169.879 41.969V19.9564L169.884 19.9512ZM158.85 20.0508C158.85 20.0508 158.902 20.0193 159.012 19.9879C159.121 19.9564 159.215 19.9512 159.246 19.9512V41.9638C163.297 41.9638 167.039 40.8265 170.281 38.8348L158.85 20.0508ZM159.246 19.9512C159.246 19.9512 159.32 19.9512 159.413 19.9826C159.507 20.0088 159.674 20.0717 159.883 20.208L147.972 38.6881C151.386 40.9051 155.342 41.969 159.246 41.969V19.9564V19.9512ZM148.212 20.0508C148.212 20.0508 148.264 20.0193 148.374 19.9879C148.483 19.9564 148.577 19.9512 148.609 19.9512V41.9638C152.659 41.9638 156.402 40.8265 159.643 38.8348L148.212 20.0508ZM148.609 19.9512C149.256 19.9512 149.82 20.5172 149.82 21.1671H127.897C127.897 32.6766 137.146 41.9638 148.609 41.9638V19.9512Z" fill="#58C175"/>
<path d="M51.1099 31.8487C51.1099 32.8287 51.9086 33.6306 52.8846 33.6306C53.8607 33.6306 54.6593 32.8287 54.6593 31.8487C54.6593 30.8686 53.8607 30.0667 52.8846 30.0667C51.9086 30.0667 51.1099 30.8686 51.1099 31.8487ZM51.1099 42.53C51.1099 43.5101 51.9086 44.312 52.8846 44.312C53.8607 44.312 54.6593 43.5101 54.6593 42.53C54.6593 41.5499 53.8607 40.748 52.8846 40.748C51.9086 40.748 51.1099 41.5499 51.1099 42.53ZM51.1099 53.2113C51.1099 54.1914 51.9086 54.9933 52.8846 54.9933C53.8607 54.9933 54.6593 54.1914 54.6593 53.2113C54.6593 52.2312 53.8607 51.4294 52.8846 51.4294C51.9086 51.4294 51.1099 52.2312 51.1099 53.2113ZM51.1099 74.574C51.1099 75.5541 51.9086 76.356 52.8846 76.356C53.8607 76.356 54.6593 75.5541 54.6593 74.574C54.6593 73.5939 53.8607 72.792 52.8846 72.792C51.9086 72.792 51.1099 73.5939 51.1099 74.574ZM40.4722 21.1673C40.4722 22.1474 41.2708 22.9493 42.2469 22.9493C43.223 22.9493 44.0216 22.1474 44.0216 21.1673C44.0216 20.1872 43.223 19.3853 42.2469 19.3853C41.2708 19.3853 40.4722 20.1872 40.4722 21.1673ZM40.4722 63.8927C40.4722 64.8728 41.2708 65.6746 42.2469 65.6746C43.223 65.6746 44.0216 64.8728 44.0216 63.8927C44.0216 62.9126 43.223 62.1107 42.2469 62.1107C41.2708 62.1107 40.4722 62.9126 40.4722 63.8927ZM29.8345 21.1673C29.8345 22.1474 30.6331 22.9493 31.6092 22.9493C32.5852 22.9493 33.3839 22.1474 33.3839 21.1673C33.3839 20.1872 32.5852 19.3853 31.6092 19.3853C30.6331 19.3853 29.8345 20.1872 29.8345 21.1673ZM29.8345 63.8927C29.8345 64.8728 30.6331 65.6746 31.6092 65.6746C32.5852 65.6746 33.3839 64.8728 33.3839 63.8927C33.3839 62.9126 32.5852 62.1107 31.6092 62.1107C30.6331 62.1107 29.8345 62.9126 29.8345 63.8927ZM19.1967 31.8487C19.1967 32.8287 19.9953 33.6306 20.9714 33.6306C21.9475 33.6306 22.7461 32.8287 22.7461 31.8487C22.7461 30.8686 21.9475 30.0667 20.9714 30.0667C19.9953 30.0667 19.1967 30.8686 19.1967 31.8487ZM19.1967 42.53C19.1967 43.5101 19.9953 44.312 20.9714 44.312C21.9475 44.312 22.7461 43.5101 22.7461 42.53C22.7461 41.5499 21.9475 40.748 20.9714 40.748C19.9953 40.748 19.1967 41.5499 19.1967 42.53ZM19.1967 53.2113C19.1967 54.1914 19.9953 54.9933 20.9714 54.9933C21.9475 54.9933 22.7461 54.1914 22.7461 53.2113C22.7461 52.2312 21.9475 51.4294 20.9714 51.4294C19.9953 51.4294 19.1967 52.2312 19.1967 53.2113ZM21.8536 21.1673C21.8536 15.7375 26.1963 11.377 31.6039 11.377C33.5561 11.377 35.3256 12.0006 36.9228 12.9807C38.4313 12.0006 40.2895 11.377 42.2417 11.377C47.6493 11.377 51.9921 15.7375 51.9921 21.1673C51.9921 21.5237 51.9921 21.791 51.9033 22.1474C52.2583 22.0583 52.5245 22.0583 52.8794 22.0583C58.287 22.0583 62.6298 26.4189 62.6298 31.8487C62.6298 33.8088 62.0087 35.6746 61.0326 37.1893C62.0087 38.7931 62.6298 40.5698 62.6298 42.53C62.6298 44.4902 62.0087 46.356 61.0326 47.8707C62.0087 49.4744 62.6298 51.2512 62.6298 53.2113C62.6298 58.6411 58.287 63.0017 52.8794 63.0017H51.9033C51.9921 63.269 51.9921 63.6254 51.9921 63.8927C51.9921 64.2491 51.9921 64.5164 51.9033 64.8728C52.2583 64.7837 52.5245 64.7837 52.8794 64.7837C58.287 64.7837 62.6298 69.1442 62.6298 74.574C62.6298 80.0038 58.287 84.3644 52.8794 84.3644C47.4718 84.3644 43.129 80.0038 43.129 74.574V73.5939C42.8628 73.683 42.5079 73.683 42.2417 73.683C40.2895 73.683 38.4313 73.0593 36.9228 72.1684C35.3256 73.0593 33.5561 73.683 31.6039 73.683C26.1963 73.683 21.8536 69.3224 21.8536 63.8927V63.0017H20.9662C15.5586 63.0017 11.2158 58.6411 11.2158 53.2113C11.2158 51.2512 11.837 49.4744 12.7243 47.8707C11.837 46.356 11.2158 44.4902 11.2158 42.53C11.2158 40.5698 11.837 38.7931 12.7243 37.1893C11.837 35.6746 11.2158 33.8088 11.2158 31.8487C11.2158 26.4189 15.5586 22.0583 20.9662 22.0583C21.2324 22.0583 21.5874 22.0583 21.8536 22.1474V21.1673ZM43.129 42.53C43.129 40.5698 43.6614 38.7931 44.6375 37.1893C43.6614 35.6746 43.129 33.8088 43.129 31.8487V30.9577H42.2417C40.2895 30.9577 38.4313 30.4231 36.9228 29.443C35.3256 30.4231 33.5561 30.9577 31.6039 30.9577H30.6279C30.7166 31.225 30.7166 31.5814 30.7166 31.8487C30.7166 33.8088 30.0955 35.6746 29.1194 37.1893C30.0955 38.7931 30.7166 40.5698 30.7166 42.53C30.7166 44.4902 30.0955 46.356 29.1194 47.8707C30.0955 49.4744 30.7166 51.2512 30.7166 53.2113C30.7166 53.5677 30.7166 53.835 30.6279 54.1914C30.9828 54.1023 31.249 54.1023 31.6039 54.1023C33.5561 54.1023 35.3256 54.726 36.9228 55.7061C38.4313 54.726 40.2895 54.1023 42.2417 54.1023C42.5079 54.1023 42.8628 54.1023 43.129 54.1914V53.2113C43.129 51.2512 43.6614 49.4744 44.6375 47.8707C43.6614 46.356 43.129 44.4902 43.129 42.53ZM104.314 21.1673C104.314 22.1474 105.113 22.9493 106.089 22.9493C107.065 22.9493 107.864 22.1474 107.864 21.1673C107.864 20.1872 107.065 19.3853 106.089 19.3853C105.113 19.3853 104.314 20.1872 104.314 21.1673ZM104.314 31.8487C104.314 32.8287 105.113 33.6306 106.089 33.6306C107.065 33.6306 107.864 32.8287 107.864 31.8487C107.864 30.8686 107.065 30.0667 106.089 30.0667C105.113 30.0667 104.314 30.8686 104.314 31.8487ZM104.314 42.53C104.314 43.5101 105.113 44.312 106.089 44.312C107.065 44.312 107.864 43.5101 107.864 42.53C107.864 41.5499 107.065 40.748 106.089 40.748C105.113 40.748 104.314 41.5499 104.314 42.53ZM104.314 53.2113C104.314 54.1914 105.113 54.9933 106.089 54.9933C107.065 54.9933 107.864 54.1914 107.864 53.2113C107.864 52.2312 107.065 51.4294 106.089 51.4294C105.113 51.4294 104.314 52.2312 104.314 53.2113ZM104.314 63.8927C104.314 64.8728 105.113 65.6746 106.089 65.6746C107.065 65.6746 107.864 64.8728 107.864 63.8927C107.864 62.9126 107.065 62.1107 106.089 62.1107C105.113 62.1107 104.314 62.9126 104.314 63.8927ZM93.6765 63.8927C93.6765 64.8728 94.4752 65.6746 95.4512 65.6746C96.4273 65.6746 97.2259 64.8728 97.2259 63.8927C97.2259 62.9126 96.4273 62.1107 95.4512 62.1107C94.4752 62.1107 93.6765 62.9126 93.6765 63.8927ZM83.0388 63.8927C83.0388 64.8728 83.8374 65.6746 84.8135 65.6746C85.7896 65.6746 86.5882 64.8728 86.5882 63.8927C86.5882 62.9126 85.7896 62.1107 84.8135 62.1107C83.8374 62.1107 83.0388 62.9126 83.0388 63.8927ZM72.4011 21.1673C72.4011 22.1474 73.1997 22.9493 74.1758 22.9493C75.1519 22.9493 75.9505 22.1474 75.9505 21.1673C75.9505 20.1872 75.1519 19.3853 74.1758 19.3853C73.1997 19.3853 72.4011 20.1872 72.4011 21.1673ZM72.4011 31.8487C72.4011 32.8287 73.1997 33.6306 74.1758 33.6306C75.1519 33.6306 75.9505 32.8287 75.9505 31.8487C75.9505 30.8686 75.1519 30.0667 74.1758 30.0667C73.1997 30.0667 72.4011 30.8686 72.4011 31.8487ZM72.4011 42.53C72.4011 43.5101 73.1997 44.312 74.1758 44.312C75.1519 44.312 75.9505 43.5101 75.9505 42.53C75.9505 41.5499 75.1519 40.748 74.1758 40.748C73.1997 40.748 72.4011 41.5499 72.4011 42.53ZM72.4011 53.2113C72.4011 54.1914 73.1997 54.9933 74.1758 54.9933C75.1519 54.9933 75.9505 54.1914 75.9505 53.2113C75.9505 52.2312 75.1519 51.4294 74.1758 51.4294C73.1997 51.4294 72.4011 52.2312 72.4011 53.2113ZM96.3334 31.8487C96.3334 29.8885 96.8658 28.1118 97.8419 26.508C96.8658 24.9933 96.3334 23.1275 96.3334 21.1673C96.3334 15.7375 100.676 11.377 106.084 11.377C111.491 11.377 115.834 15.7375 115.834 21.1673C115.834 23.1275 115.213 24.9933 114.237 26.508C115.213 28.1118 115.834 29.8885 115.834 31.8487C115.834 33.8088 115.213 35.6746 114.237 37.1893C115.213 38.7931 115.834 40.5698 115.834 42.53C115.834 44.4902 115.213 46.356 114.237 47.8707C115.213 49.4744 115.834 51.2512 115.834 53.2113C115.834 55.1715 115.213 57.0373 114.237 58.552C115.213 60.1558 115.834 61.9325 115.834 63.8927C115.834 69.3224 111.491 73.683 106.084 73.683C104.132 73.683 102.273 73.0593 100.765 72.1684C99.1677 73.0593 97.3982 73.683 95.446 73.683C93.4939 73.683 91.6356 73.0593 90.1272 72.1684C88.5299 73.0593 86.7605 73.683 84.8083 73.683C79.4007 73.683 75.0579 69.3224 75.0579 63.8927V63.0017H74.1706C68.763 63.0017 64.4202 58.6411 64.4202 53.2113C64.4202 51.2512 65.0413 49.4744 65.9287 47.8707C65.0413 46.356 64.4202 44.4902 64.4202 42.53C64.4202 40.5698 65.0413 38.7931 65.9287 37.1893C65.0413 35.6746 64.4202 33.8088 64.4202 31.8487C64.4202 29.8885 65.0413 28.1118 65.9287 26.508C65.0413 24.9933 64.4202 23.1275 64.4202 21.1673C64.4202 15.7375 68.763 11.377 74.1706 11.377C79.5782 11.377 83.9209 15.7375 83.9209 21.1673C83.9209 23.1275 83.2998 24.9933 82.3237 26.508C83.2998 28.1118 83.9209 29.8885 83.9209 31.8487C83.9209 33.8088 83.2998 35.6746 82.3237 37.1893C83.2998 38.7931 83.9209 40.5698 83.9209 42.53C83.9209 44.4902 83.2998 46.356 82.3237 47.8707C83.2998 49.4744 83.9209 51.2512 83.9209 53.2113C83.9209 53.5677 83.9209 53.835 83.8322 54.1914C84.1871 54.1023 84.4533 54.1023 84.8083 54.1023C86.7605 54.1023 88.5299 54.726 90.1272 55.7061C91.6356 54.726 93.4939 54.1023 95.446 54.1023C95.7122 54.1023 96.0672 54.1023 96.3334 54.1914V53.2113C96.3334 51.2512 96.8658 49.4744 97.8419 47.8707C96.8658 46.356 96.3334 44.4902 96.3334 42.53C96.3334 40.5698 96.8658 38.7931 97.8419 37.1893C96.8658 35.6746 96.3334 33.8088 96.3334 31.8487ZM125.605 21.1673C125.605 22.1474 126.404 22.9493 127.38 22.9493C128.356 22.9493 129.155 22.1474 129.155 21.1673C129.155 20.1872 128.356 19.3853 127.38 19.3853C126.404 19.3853 125.605 20.1872 125.605 21.1673ZM125.605 31.8487C125.605 32.8287 126.404 33.6306 127.38 33.6306C128.356 33.6306 129.155 32.8287 129.155 31.8487C129.155 30.8686 128.356 30.0667 127.38 30.0667C126.404 30.0667 125.605 30.8686 125.605 31.8487ZM125.605 42.53C125.605 43.5101 126.404 44.312 127.38 44.312C128.356 44.312 129.155 43.5101 129.155 42.53C129.155 41.5499 128.356 40.748 127.38 40.748C126.404 40.748 125.605 41.5499 125.605 42.53ZM125.605 53.2113C125.605 54.1914 126.404 54.9933 127.38 54.9933C128.356 54.9933 129.155 54.1914 129.155 53.2113C129.155 52.2312 128.356 51.4294 127.38 51.4294C126.404 51.4294 125.605 52.2312 125.605 53.2113ZM125.605 63.8927C125.605 64.8728 126.404 65.6746 127.38 65.6746C128.356 65.6746 129.155 64.8728 129.155 63.8927C129.155 62.9126 128.356 62.1107 127.38 62.1107C126.404 62.1107 125.605 62.9126 125.605 63.8927ZM117.625 31.8487C117.625 29.8885 118.246 28.1118 119.133 26.508C118.246 24.9933 117.625 23.1275 117.625 21.1673C117.625 15.7375 121.967 11.377 127.375 11.377C132.782 11.377 137.125 15.7375 137.125 21.1673C137.125 23.1275 136.504 24.9933 135.528 26.508C136.504 28.1118 137.125 29.8885 137.125 31.8487C137.125 33.8088 136.504 35.6746 135.528 37.1893C136.504 38.7931 137.125 40.5698 137.125 42.53C137.125 44.4902 136.504 46.356 135.528 47.8707C136.504 49.4744 137.125 51.2512 137.125 53.2113C137.125 55.1715 136.504 57.0373 135.528 58.552C136.504 60.1558 137.125 61.9325 137.125 63.8927C137.125 69.3224 132.782 73.683 127.375 73.683C121.967 73.683 117.625 69.3224 117.625 63.8927C117.625 61.9325 118.246 60.1558 119.133 58.552C118.246 57.0373 117.625 55.1715 117.625 53.2113C117.625 51.2512 118.246 49.4744 119.133 47.8707C118.246 46.356 117.625 44.4902 117.625 42.53C117.625 40.5698 118.246 38.7931 119.133 37.1893C118.246 35.6746 117.625 33.8088 117.625 31.8487ZM178.763 21.1673C178.763 22.1474 179.561 22.9493 180.537 22.9493C181.514 22.9493 182.312 22.1474 182.312 21.1673C182.312 20.1872 181.514 19.3853 180.537 19.3853C179.561 19.3853 178.763 20.1872 178.763 21.1673ZM178.763 31.8487C178.763 32.8287 179.561 33.6306 180.537 33.6306C181.514 33.6306 182.312 32.8287 182.312 31.8487C182.312 30.8686 181.514 30.0667 180.537 30.0667C179.561 30.0667 178.763 30.8686 178.763 31.8487ZM178.763 63.8927C178.763 64.8728 179.561 65.6746 180.537 65.6746C181.514 65.6746 182.312 64.8728 182.312 63.8927C182.312 62.9126 181.514 62.1107 180.537 62.1107C179.561 62.1107 178.763 62.9126 178.763 63.8927ZM168.125 21.1673C168.125 22.1474 168.924 22.9493 169.9 22.9493C170.876 22.9493 171.674 22.1474 171.674 21.1673C171.674 20.1872 170.876 19.3853 169.9 19.3853C168.924 19.3853 168.125 20.1872 168.125 21.1673ZM168.125 42.53C168.125 43.5101 168.924 44.312 169.9 44.312C170.876 44.312 171.674 43.5101 171.674 42.53C171.674 41.5499 170.876 40.748 169.9 40.748C168.924 40.748 168.125 41.5499 168.125 42.53ZM168.125 63.8927C168.125 64.8728 168.924 65.6746 169.9 65.6746C170.876 65.6746 171.674 64.8728 171.674 63.8927C171.674 62.9126 170.876 62.1107 169.9 62.1107C168.924 62.1107 168.125 62.9126 168.125 63.8927ZM157.487 21.1673C157.487 22.1474 158.286 22.9493 159.262 22.9493C160.238 22.9493 161.037 22.1474 161.037 21.1673C161.037 20.1872 160.238 19.3853 159.262 19.3853C158.286 19.3853 157.487 20.1872 157.487 21.1673ZM157.487 42.53C157.487 43.5101 158.286 44.312 159.262 44.312C160.238 44.312 161.037 43.5101 161.037 42.53C161.037 41.5499 160.238 40.748 159.262 40.748C158.286 40.748 157.487 41.5499 157.487 42.53ZM157.487 63.8927C157.487 64.8728 158.286 65.6746 159.262 65.6746C160.238 65.6746 161.037 64.8728 161.037 63.8927C161.037 62.9126 160.238 62.1107 159.262 62.1107C158.286 62.1107 157.487 62.9126 157.487 63.8927ZM146.85 21.1673C146.85 22.1474 147.648 22.9493 148.624 22.9493C149.6 22.9493 150.399 22.1474 150.399 21.1673C150.399 20.1872 149.6 19.3853 148.624 19.3853C147.648 19.3853 146.85 20.1872 146.85 21.1673ZM146.85 53.2113C146.85 54.1914 147.648 54.9933 148.624 54.9933C149.6 54.9933 150.399 54.1914 150.399 53.2113C150.399 52.2312 149.6 51.4294 148.624 51.4294C147.648 51.4294 146.85 52.2312 146.85 53.2113ZM146.85 63.8927C146.85 64.8728 147.648 65.6746 148.624 65.6746C149.6 65.6746 150.399 64.8728 150.399 63.8927C150.399 62.9126 149.6 62.1107 148.624 62.1107C147.648 62.1107 146.85 62.9126 146.85 63.8927ZM138.874 21.1673C138.874 15.7375 143.217 11.377 148.624 11.377C150.576 11.377 152.346 12.0006 153.943 12.9807C155.452 12.0006 157.31 11.377 159.262 11.377C161.214 11.377 162.984 12.0006 164.581 12.9807C166.089 12.0006 167.948 11.377 169.9 11.377C171.852 11.377 173.621 12.0006 175.219 12.9807C176.727 12.0006 178.585 11.377 180.537 11.377C185.945 11.377 190.288 15.7375 190.288 21.1673C190.288 23.1275 189.667 24.9933 188.691 26.508C189.667 28.1118 190.288 29.8885 190.288 31.8487C190.288 37.2784 185.945 41.639 180.537 41.639H179.561C179.65 41.9063 179.65 42.2627 179.65 42.53C179.65 47.9598 175.307 52.3204 169.9 52.3204C167.948 52.3204 166.089 51.7858 164.581 50.8057C162.984 51.7858 161.214 52.3204 159.262 52.3204H158.286C158.375 52.5876 158.375 52.944 158.375 53.2113C158.375 53.5677 158.375 53.835 158.286 54.1914C158.641 54.1023 158.907 54.1023 159.262 54.1023C161.214 54.1023 162.984 54.726 164.581 55.7061C166.089 54.726 167.948 54.1023 169.9 54.1023C171.852 54.1023 173.621 54.726 175.219 55.7061C176.727 54.726 178.585 54.1023 180.537 54.1023C185.945 54.1023 190.288 58.4629 190.288 63.8927C190.288 69.3224 185.945 73.683 180.537 73.683C178.585 73.683 176.727 73.0593 175.219 72.1684C173.621 73.0593 171.852 73.683 169.9 73.683C167.948 73.683 166.089 73.0593 164.581 72.1684C162.984 73.0593 161.214 73.683 159.262 73.683C157.31 73.683 155.452 73.0593 153.943 72.1684C152.346 73.0593 150.576 73.683 148.624 73.683C143.217 73.683 138.874 69.3224 138.874 63.8927C138.874 61.9325 139.495 60.1558 140.382 58.552C139.495 57.0373 138.874 55.1715 138.874 53.2113C138.874 47.7816 143.217 43.421 148.624 43.421C148.89 43.421 149.245 43.421 149.512 43.5101V42.53C149.512 37.1002 153.854 32.7396 159.262 32.7396C161.214 32.7396 162.984 33.3633 164.581 34.3434C166.089 33.3633 167.948 32.7396 169.9 32.7396C170.166 32.7396 170.521 32.7396 170.787 32.8287V30.9577H169.9C167.948 30.9577 166.089 30.4231 164.581 29.443C162.984 30.4231 161.214 30.9577 159.262 30.9577C157.31 30.9577 155.452 30.4231 153.943 29.443C152.346 30.4231 150.576 30.9577 148.624 30.9577C143.217 30.9577 138.874 26.5971 138.874 21.1673Z" fill="black"/>
</g>
<defs>
<clipPath id="clip0_5899_13218">
<rect width="201" height="95" fill="white" transform="translate(0.259766 0.371094)"/>
</clipPath>
</defs>
</svg>
