<svg width="238" height="70" viewBox="0 0 238 70" fill="none" xmlns="http://www.w3.org/2000/svg">
<g clip-path="url(#clip0_5899_13216)">
<path d="M234.46 11.2503C233.76 10.5503 232.99 9.99031 232.19 9.53031C231.73 8.73031 231.17 7.96031 230.47 7.26031C229.77 6.56031 229 6.00031 228.2 5.54031C227.74 4.74031 227.18 3.97031 226.48 3.27031C224.26 1.05031 221.38 0.0803125 218.68 0.0803125H198.81C196.1 0.0803125 193.23 1.05031 191.01 3.27031C190.31 3.97031 189.75 4.74031 189.29 5.54031C188.49 6.00031 187.72 6.56031 187.02 7.26031C184.8 9.48031 183.83 12.3603 183.83 15.0603V27.2603C183.83 27.2603 183.75 27.1703 183.71 27.1203C183.45 26.8603 183.19 26.6303 182.91 26.4003V23.0303C182.91 20.3203 181.94 17.4503 179.72 15.2303C179.45 14.9603 179.18 14.7203 178.9 14.4903C178.77 11.9503 177.8 9.32031 175.74 7.25031C175.07 6.58031 174.34 6.04031 173.58 5.59031C173.11 4.76031 172.54 3.97031 171.82 3.26031C169.6 1.04031 166.72 0.0703125 164.02 0.0703125H160.03C157.32 0.0703125 154.45 1.04031 152.23 3.26031C151.53 3.96031 150.97 4.73031 150.51 5.53031C149.71 5.99031 148.94 6.55031 148.24 7.25031C146.17 9.32031 145.2 11.9503 145.08 14.4903C144.8 14.7203 144.52 14.9703 144.26 15.2303C143.58 15.9103 143.03 16.6603 142.57 17.4503C142.12 16.6703 141.56 15.9203 140.88 15.2303C140.61 14.9603 140.34 14.7203 140.06 14.4903C139.93 11.9503 138.96 9.32031 136.9 7.25031C136.2 6.55031 135.43 5.99031 134.63 5.53031C134.17 4.73031 133.61 3.96031 132.91 3.26031C130.69 1.04031 127.81 0.0703125 125.11 0.0703125H105.17C102.83 0.0703125 100.35 0.800312 98.2897 2.44031C96.6897 0.970312 94.5597 0.0703125 92.2197 0.0703125H62.3797C59.6697 0.0703125 56.7997 1.04031 54.5797 3.26031C53.8797 3.96031 53.3197 4.73031 52.8597 5.53031C52.1897 5.92031 51.5397 6.38031 50.9397 6.93031C50.3397 6.38031 49.6897 5.91031 49.0197 5.53031C48.5597 4.73031 47.9997 3.96031 47.2997 3.26031C45.0797 1.04031 42.1997 0.0703125 39.4997 0.0703125H15.6597C12.9497 0.0703125 10.0797 1.04031 7.85969 3.26031C7.15969 3.96031 6.59969 4.73031 6.13969 5.53031C5.33969 5.99031 4.56969 6.55031 3.86969 7.25031C1.64969 9.48031 0.679688 12.3603 0.679688 15.0603V30.9403C0.679688 32.9503 1.21969 35.0603 2.40969 36.9203C1.21969 38.7803 0.679688 40.8903 0.679688 42.9003V60.7803C0.679688 65.7503 4.70969 69.7803 9.67969 69.7803H17.6597C22.6297 69.7803 26.6597 65.7503 26.6597 60.7803V49.9103H26.9397C27.1597 50.1803 27.3997 50.4503 27.6597 50.7103C28.3797 51.4303 29.1697 52.0003 29.9897 52.4703C30.4397 53.2303 30.9797 53.9603 31.6497 54.6303C31.9097 54.8903 32.1797 55.1203 32.4497 55.3503V60.7903C32.4497 65.7603 36.4797 69.7903 41.4497 69.7903H49.4297C51.7597 69.7903 53.8797 68.8903 55.4797 67.4403C57.5397 69.0703 59.9997 69.7903 62.3397 69.7903H92.1797C94.5397 69.7903 96.6797 68.8803 98.2797 67.3903C100.35 69.0503 102.84 69.7903 105.2 69.7903H125.07C127.43 69.7903 129.91 69.0503 131.98 67.4003C133.58 68.8803 135.72 69.7903 138.07 69.7903H146.05C151.02 69.7903 155.05 65.7603 155.05 60.7903V59.3403C155.32 59.1203 155.59 58.8803 155.85 58.6203C156.08 58.3903 156.3 58.1403 156.5 57.9003H167.44C167.65 58.1503 167.86 58.3903 168.09 58.6203C168.35 58.8803 168.61 59.1103 168.89 59.3403V60.7903C168.89 65.7603 172.92 69.7903 177.89 69.7903H185.87C187.1 69.7903 188.28 69.5403 189.35 69.0903C190.42 69.5403 191.59 69.7903 192.83 69.7903H200.81C205.78 69.7903 209.81 65.7603 209.81 60.7903V49.9203H218.69C221.4 49.9203 224.27 48.9503 226.49 46.7303C227.19 46.0303 227.75 45.2603 228.21 44.4603C229.01 44.0003 229.78 43.4403 230.48 42.7403C231.18 42.0403 231.74 41.2703 232.2 40.4703C233 40.0103 233.77 39.4503 234.47 38.7503C236.69 36.5303 237.66 33.6503 237.66 30.9503V19.0603C237.66 16.3503 236.69 13.4803 234.47 11.2603L234.46 11.2503Z" fill="#58C175"/>
<path d="M17.6599 17.0598V32.9398H37.4599V30.9498C37.4599 29.7698 38.2699 28.9598 39.4499 28.9598H41.4399V21.0598H39.4499C38.2699 21.0598 37.4599 20.2498 37.4599 19.0698V17.0798H17.6599V17.0598ZM11.6799 13.0698H13.6699V11.0798C13.6699 9.89984 14.4799 9.08984 15.6599 9.08984H39.4499C40.6299 9.08984 41.4399 9.89984 41.4399 11.0798V13.0698H43.4299C44.6099 13.0698 45.4199 13.8798 45.4199 15.0598V17.0498H47.4099C48.5899 17.0498 49.3999 17.8598 49.3999 19.0398V30.9298C49.3999 32.1098 48.5899 32.9198 47.4099 32.9198H45.4199V34.9098C45.4199 36.0898 44.6099 36.8998 43.4299 36.8998H41.4399V40.8898H43.4299C44.6099 40.8898 45.4199 41.6998 45.4199 42.8798V44.8698H47.4099C48.5899 44.8698 49.3999 45.6798 49.3999 46.8598V60.7498H41.4199V48.7798H39.4299C38.2499 48.7798 37.4399 47.9698 37.4399 46.7898V44.8698H35.4499C34.2699 44.8698 33.4599 44.0598 33.4599 42.8798V40.8898H17.6499V60.7598H9.66992V42.8798C9.66992 41.6998 10.4799 40.8898 11.6599 40.8898H13.6499V32.9098H11.6599C10.4799 32.9098 9.66992 32.0998 9.66992 30.9198V15.0398C9.66992 13.8598 10.4799 13.0498 11.6599 13.0498L11.6799 13.0698ZM58.3499 13.0698H60.3399V11.0798C60.3399 9.89984 61.1499 9.08984 62.3299 9.08984H92.1699V17.0698H64.3199V28.9598H88.1799V36.9398H64.3199V52.8198H92.1699V60.7998H62.3299C61.1499 60.7998 60.3399 59.9898 60.3399 58.8098V56.8198H58.3499C57.1699 56.8198 56.3599 56.0098 56.3599 54.8298V38.9498C56.3599 37.7698 57.1699 36.9598 58.3499 36.9598H60.3399V28.9798H58.3499C57.1699 28.9798 56.3599 28.1698 56.3599 26.9898V15.0998C56.3599 13.9198 57.1699 13.1098 58.3499 13.1098V13.0698ZM99.1499 48.8198H97.2299C96.0499 48.8198 95.2399 48.0098 95.2399 46.8298V23.0398C95.2399 21.8598 96.0499 21.0498 97.2299 21.0498H99.1499V15.0698C99.1499 13.8898 99.9599 13.0798 101.14 13.0798H103.13V11.0898C103.13 9.90984 103.94 9.09984 105.12 9.09984H125.06C126.24 9.09984 127.05 9.90984 127.05 11.0898V13.0798H129.04C130.22 13.0798 131.04 13.8898 131.04 15.0698V21.0498H133.03C134.21 21.0498 135.03 21.8598 135.03 23.0398V28.9498H127.05V24.9598H125.06C123.88 24.9598 123.06 24.1498 123.06 22.9698V17.0598H107.1V22.9698C107.1 24.1498 106.29 24.9598 105.11 24.9598H103.12V44.8298H105.11C106.29 44.8298 107.1 45.6398 107.1 46.8198V52.7998H123.06V46.8898C123.06 45.7098 123.87 44.8998 125.06 44.8998H127.05V40.9098H135.03V46.8198C135.03 47.9998 134.22 48.8098 133.03 48.8098H131.04V54.7898C131.04 55.9698 130.23 56.7798 129.04 56.7798H127.05V58.7698C127.05 59.9498 126.24 60.7598 125.06 60.7598H105.19C104.01 60.7598 103.2 59.9498 103.2 58.7698V56.7798H101.13C99.9499 56.7798 99.1399 55.9698 99.1399 54.7898V48.8098L99.1499 48.8198ZM138.08 60.7898V50.8198C138.08 49.6398 138.89 48.8298 140.07 48.8298H142.06V42.9198C142.06 41.7398 142.87 40.9298 144.05 40.9298H146.05V34.9498C146.05 33.7698 146.86 32.9598 148.04 32.9598H150.03V23.0598C150.03 21.8798 150.84 21.0698 152.02 21.0698H154.01V15.0898C154.01 13.9098 154.82 13.0998 156.01 13.0998H158V11.1098C158 9.92984 158.81 9.11984 159.99 9.11984H163.98C165.16 9.11984 165.98 9.92984 165.98 11.1098V13.0998H167.9C169.08 13.0998 169.89 13.9098 169.89 15.0898V21.0698H171.88C173.06 21.0698 173.87 21.8798 173.87 23.0598V32.9598H175.86C177.04 32.9598 177.85 33.7698 177.85 34.9498V40.9298H179.84C181.02 40.9298 181.83 41.7398 181.83 42.9198V48.8298H183.82C185 48.8298 185.81 49.6398 185.81 50.8198V60.7898H177.83V52.8098H175.84C174.66 52.8098 173.85 51.9998 173.85 50.8198V44.9098H169.86V46.8998C169.86 48.0798 169.05 48.8898 167.87 48.8898H155.98C154.8 48.8898 153.98 48.0798 153.98 46.8998V44.9098H149.99V50.8198C149.99 51.9998 149.18 52.8098 148 52.8098H146.01V60.7898H138.03H138.08ZM169.92 32.9398H167.93C166.75 32.9398 165.94 32.1298 165.94 30.9498V21.0498H158.04V30.9498C158.04 32.1298 157.23 32.9398 156.05 32.9398H154.05V40.9198H169.93V32.9398H169.92ZM200.81 17.0598V32.9398H216.69V30.9498C216.69 29.7698 217.5 28.9598 218.68 28.9598H220.67V21.0598H218.68C217.5 21.0598 216.69 20.2498 216.69 19.0698V17.0798H200.81V17.0598ZM194.83 13.0698H196.82V11.0798C196.82 9.89984 197.63 9.08984 198.81 9.08984H218.68C219.86 9.08984 220.67 9.89984 220.67 11.0798V13.0698H222.66C223.84 13.0698 224.65 13.8798 224.65 15.0598V17.0498H226.64C227.82 17.0498 228.63 17.8598 228.63 19.0398V30.9298C228.63 32.1098 227.82 32.9198 226.64 32.9198H224.65V34.9098C224.65 36.0898 223.84 36.8998 222.66 36.8998H220.67V38.8898C220.67 40.0698 219.86 40.8798 218.68 40.8798H200.8V60.7498H192.82V42.8698C192.82 41.6898 193.63 40.8798 194.82 40.8798H196.81V32.8998H194.82C193.64 32.8998 192.82 32.0898 192.82 30.9098V15.0298C192.82 13.8498 193.63 13.0398 194.82 13.0398L194.83 13.0698Z" fill="black"/>
</g>
<defs>
<clipPath id="clip0_5899_13216">
<rect width="236.97" height="69.71" fill="white" transform="translate(0.679688 0.0800781)"/>
</clipPath>
</defs>
</svg>
