<svg width="423" height="423" viewBox="0 0 423 423" fill="none" xmlns="http://www.w3.org/2000/svg">
<path d="M211.4 422.8C328.153 422.8 422.8 328.153 422.8 211.4C422.8 94.647 328.153 0 211.4 0C94.647 0 0 94.647 0 211.4C0 328.153 94.647 422.8 211.4 422.8Z" fill="white"/>
<path d="M56.6 104.6L73.6 85.5005C78.2 80.4005 81.9 77.5005 86.1 76.2005C90.4 74.9005 95 75.7005 99.1 79.3005C104.6 84.2005 105.2 90.8005 102.5 96.2005H102.6C108.4 91.6005 116.3 91.1005 122.4 96.5005C126.2 99.9005 129.4 104.8 128.1 111.6C127.3 115.6 125.3 119.9 120.3 125.6L102.6 145.5L56.6 104.6ZM81.7 116.3L93.2 103.4C100 95.7005 99.5 90.3005 94.5 85.8005C90.1 81.9005 84.7 82.6005 78.6 89.5005L66.7 102.8L81.8 116.2H81.7V116.3ZM103.2 135.4L116.2 120.8C122 114.3 123.2 107.9 117 102.3C111.5 97.4005 105.3 98.9005 98.4 106.6L86.2 120.3L103.2 135.4Z" fill="black"/>
<path d="M56.6 104.6L73.6 85.5005C78.2 80.4005 81.9 77.5005 86.1 76.2005C90.4 74.9005 95 75.7005 99.1 79.3005C104.6 84.2005 105.2 90.8005 102.5 96.2005H102.6C108.4 91.6005 116.3 91.1005 122.4 96.5005C126.2 99.9005 129.4 104.8 128.1 111.6C127.3 115.6 125.3 119.9 120.3 125.6L102.6 145.5L56.6 104.6ZM81.7 116.3L93.2 103.4C100 95.7005 99.5 90.3005 94.5 85.8005C90.1 81.9005 84.7 82.6005 78.6 89.5005L66.7 102.8L81.8 116.2H81.7V116.3ZM103.2 135.4L116.2 120.8C122 114.3 123.2 107.9 117 102.3C111.5 97.4005 105.3 98.9005 98.4 106.6L86.2 120.3L103.2 135.4Z" fill="black" fill-opacity="0.2"/>
<path d="M114.9 50.1004L137.7 39.9004C145 36.6004 149.5 36.0004 153.6 36.7004C158.5 37.6004 161.9 40.8004 164.1 45.7004C167.2 52.5004 166.3 59.3004 160.3 64.3004V64.5004C167.2 63.2004 171.1 67.5004 174.6 74.0004L175.2 75.1004C177.6 79.6004 179.8 84.6004 183.6 86.5004V86.8004C183.7 86.8004 176.4 90.1004 176.4 90.1004C174.4 89.1004 172.4 85.2004 170.3 81.2004L169.6 79.8004C166.4 73.5004 162.1 67.4004 153.4 71.3004L136.6 78.8004L147.5 103.1L140.2 106.4L115 50.2004L114.9 50.1004ZM133.9 72.9004L149.1 66.1004C156 63.0004 161.1 58.2004 157.5 50.1004C153.7 41.6004 147 42.8004 140.1 45.8004L124.9 52.6004L134 72.8004H133.9V72.9004Z" fill="black"/>
<path d="M114.9 50.1004L137.7 39.9004C145 36.6004 149.5 36.0004 153.6 36.7004C158.5 37.6004 161.9 40.8004 164.1 45.7004C167.2 52.5004 166.3 59.3004 160.3 64.3004V64.5004C167.2 63.2004 171.1 67.5004 174.6 74.0004L175.2 75.1004C177.6 79.6004 179.8 84.6004 183.6 86.5004V86.8004C183.7 86.8004 176.4 90.1004 176.4 90.1004C174.4 89.1004 172.4 85.2004 170.3 81.2004L169.6 79.8004C166.4 73.5004 162.1 67.4004 153.4 71.3004L136.6 78.8004L147.5 103.1L140.2 106.4L115 50.2004L114.9 50.1004ZM133.9 72.9004L149.1 66.1004C156 63.0004 161.1 58.2004 157.5 50.1004C153.7 41.6004 147 42.8004 140.1 45.8004L124.9 52.6004L134 72.8004H133.9V72.9004Z" fill="black" fill-opacity="0.2"/>
<path d="M192.7 24.7002L235.2 25.0002V31.6002L200.6 31.4002V51.5002C200.5 51.5002 232.8 51.7002 232.8 51.7002V58.3002L200.5 58.1002V79.9002C200.4 79.9002 235.2 80.1002 235.2 80.1002V86.6002L192.4 86.3002L192.8 24.7002H192.7Z" fill="black"/>
<path d="M192.7 24.7002L235.2 25.0002V31.6002L200.6 31.4002V51.5002C200.5 51.5002 232.8 51.7002 232.8 51.7002V58.3002L200.5 58.1002V79.9002C200.4 79.9002 235.2 80.1002 235.2 80.1002V86.6002L192.4 86.3002L192.8 24.7002H192.7Z" fill="black" fill-opacity="0.2"/>
<path d="M290.8 42.5L298.5 46.4L292.3 112.2L284.8 108.5L287.1 88.8L263.2 76.9L248.8 90.6L241.7 87.1L290.7 42.7V42.5H290.8ZM291.5 49.8C288.3 52.9 285.6 55.5 281.5 59.5L268.4 71.9L287.9 81.6L289.9 63.9C290.6 57.1 291 54.1 291.7 49.8H291.5Z" fill="black"/>
<path d="M290.8 42.5L298.5 46.4L292.3 112.2L284.8 108.5L287.1 88.8L263.2 76.9L248.8 90.6L241.7 87.1L290.7 42.7V42.5H290.8ZM291.5 49.8C288.3 52.9 285.6 55.5 281.5 59.5L268.4 71.9L287.9 81.6L289.9 63.9C290.6 57.1 291 54.1 291.7 49.8H291.5Z" fill="black" fill-opacity="0.2"/>
<path d="M347.2 81.2006L360 98.5006C365.2 105.501 367.2 110.801 367.4 116.401C367.8 124.901 363.3 133.001 353.4 140.301C345 146.501 336.9 149.201 329.4 148.101C322.7 147.201 316.5 143.201 310.9 135.601L297.7 117.701L347.2 81.1006V81.2006ZM307.5 120.501L314.5 130.001C323.7 142.401 333.8 144.701 348 134.101C355.4 128.601 359.4 123.301 359.8 117.301C360.2 112.201 358.5 107.201 353.3 100.201L346.8 91.4006L307.5 120.501Z" fill="black"/>
<path d="M347.2 81.2006L360 98.5006C365.2 105.501 367.2 110.801 367.4 116.401C367.8 124.901 363.3 133.001 353.4 140.301C345 146.501 336.9 149.201 329.4 148.101C322.7 147.201 316.5 143.201 310.9 135.601L297.7 117.701L347.2 81.1006V81.2006ZM307.5 120.501L314.5 130.001C323.7 142.401 333.8 144.701 348 134.101C355.4 128.601 359.4 123.301 359.8 117.301C360.2 112.201 358.5 107.201 353.3 100.201L346.8 91.4006L307.5 120.501Z" fill="black" fill-opacity="0.2"/>
<path d="M335.4 205.5C335.4 212.4 336.3 217.7 337.8 221.7C331.3 219.5 328.1 214.2 328 205.9C328 197.5 331.2 191.8 337.5 189.3C336 193.4 335.3 198.8 335.3 205.4H335.4V205.5ZM350.6 179.7C360.4 179.7 365.8 187.1 368 192.7H368.3C370.5 188.6 373.9 183.5 381.1 183.5C388.3 183.5 390.9 187.8 392.4 192.2C390.5 191.5 388.3 191.1 386.1 191.1C376.7 191.1 371.2 197.9 371.3 207.9V222.8H387.4V231.8H371.4V242.3H364.3V231.8H353.5C346.3 231.8 340.7 229.2 337.8 221.7C340.1 222.5 343 222.9 346.3 222.9H364.2V207.3C364.2 196.8 359 187.9 345.7 188C342.6 188 340 188.4 337.7 189.4C340.1 183 344.4 179.8 350.7 179.8L350.6 179.7ZM401.3 207.6V216.6H393.7V201.2C393.7 199.9 393.7 196 392.4 192.1C397.5 194.2 401.3 199.1 401.3 207.6Z" fill="black"/>
<path d="M335.4 205.5C335.4 212.4 336.3 217.7 337.8 221.7C331.3 219.5 328.1 214.2 328 205.9C328 197.5 331.2 191.8 337.5 189.3C336 193.4 335.3 198.8 335.3 205.4H335.4V205.5ZM350.6 179.7C360.4 179.7 365.8 187.1 368 192.7H368.3C370.5 188.6 373.9 183.5 381.1 183.5C388.3 183.5 390.9 187.8 392.4 192.2C390.5 191.5 388.3 191.1 386.1 191.1C376.7 191.1 371.2 197.9 371.3 207.9V222.8H387.4V231.8H371.4V242.3H364.3V231.8H353.5C346.3 231.8 340.7 229.2 337.8 221.7C340.1 222.5 343 222.9 346.3 222.9H364.2V207.3C364.2 196.8 359 187.9 345.7 188C342.6 188 340 188.4 337.7 189.4C340.1 183 344.4 179.8 350.7 179.8L350.6 179.7ZM401.3 207.6V216.6H393.7V201.2C393.7 199.9 393.7 196 392.4 192.1C397.5 194.2 401.3 199.1 401.3 207.6Z" fill="black" fill-opacity="0.2"/>
<path d="M377.9 295.2L363.5 316.9C359.9 322.3 356 324.1 351.5 322.9C352.2 322.2 352.8 321.5 353.2 320.7L368 298.2L351.9 287.5L337.1 310C336.4 311 335.9 312 335.5 313.1L329.7 309.3C330.5 308.5 331.2 307.6 331.9 306.6L346.7 284.1L328.6 272.1L313.9 294.3C313.3 295.2 312.8 296.1 312.4 297C309.9 293.6 309.6 289 313.2 283.6L327.6 261.9L377.8 295.1H377.9V295.2ZM315.7 300.1L329.7 309.3C326 313 321.2 314.2 316.2 310.9C311.3 307.7 310.3 302.4 312.5 297.1C313.3 298.2 314.4 299.2 315.7 300V300.1ZM339 325.2C334.6 322.3 333.7 317.8 335.5 313.1L347 320.7C348.6 321.7 350.2 322.5 351.5 322.9C348.5 326.3 343.7 328.4 338.9 325.2H339Z" fill="black"/>
<path d="M377.9 295.2L363.5 316.9C359.9 322.3 356 324.1 351.5 322.9C352.2 322.2 352.8 321.5 353.2 320.7L368 298.2L351.9 287.5L337.1 310C336.4 311 335.9 312 335.5 313.1L329.7 309.3C330.5 308.5 331.2 307.6 331.9 306.6L346.7 284.1L328.6 272.1L313.9 294.3C313.3 295.2 312.8 296.1 312.4 297C309.9 293.6 309.6 289 313.2 283.6L327.6 261.9L377.8 295.1H377.9V295.2ZM315.7 300.1L329.7 309.3C326 313 321.2 314.2 316.2 310.9C311.3 307.7 310.3 302.4 312.5 297.1C313.3 298.2 314.4 299.2 315.7 300V300.1ZM339 325.2C334.6 322.3 333.7 317.8 335.5 313.1L347 320.7C348.6 321.7 350.2 322.5 351.5 322.9C348.5 326.3 343.7 328.4 338.9 325.2H339Z" fill="black" fill-opacity="0.2"/>
<path d="M273.2 341.5L295.5 377.2L288.6 381.5L270.8 353C265.6 344.7 265.2 338 269.1 332.1C269.7 335 271.1 338.2 273.2 341.6V341.5ZM280.3 322.1C275.1 325.3 271.4 328.6 269.1 332C267.8 325.7 270.3 320.7 276.9 316.6C283.4 312.5 289 312.5 294.1 316.3C290 316.8 285.5 318.9 280.3 322.1ZM312.2 327.1L330 355.6L323.1 359.9L300.8 324.2C298.6 320.7 296.4 318.1 294 316.3C301 315.4 306.8 318.6 312.1 327.1H312.2Z" fill="black"/>
<path d="M273.2 341.5L295.5 377.2L288.6 381.5L270.8 353C265.6 344.7 265.2 338 269.1 332.1C269.7 335 271.1 338.2 273.2 341.6V341.5ZM280.3 322.1C275.1 325.3 271.4 328.6 269.1 332C267.8 325.7 270.3 320.7 276.9 316.6C283.4 312.5 289 312.5 294.1 316.3C290 316.8 285.5 318.9 280.3 322.1ZM312.2 327.1L330 355.6L323.1 359.9L300.8 324.2C298.6 320.7 296.4 318.1 294 316.3C301 315.4 306.8 318.6 312.1 327.1H312.2Z" fill="black" fill-opacity="0.2"/>
<path d="M226.2 396.4L214.7 398.1L213.7 391.6L233.7 388.6C233.5 393 230.8 395.6 226.2 396.3V396.4ZM242.4 387.3L233.7 388.6C233.8 387.6 233.7 386.5 233.6 385.3L226.1 335.5L234.1 334.3L241.6 384.1C241.8 385.3 242 386.4 242.4 387.3ZM263.4 390.8L251.9 392.5C247.2 393.2 243.9 391.4 242.4 387.3L262.4 384.3L263.4 390.8Z" fill="black"/>
<path d="M226.2 396.4L214.7 398.1L213.7 391.6L233.7 388.6C233.5 393 230.8 395.6 226.2 396.3V396.4ZM242.4 387.3L233.7 388.6C233.8 387.6 233.7 386.5 233.6 385.3L226.1 335.5L234.1 334.3L241.6 384.1C241.8 385.3 242 386.4 242.4 387.3ZM263.4 390.8L251.9 392.5C247.2 393.2 243.9 391.4 242.4 387.3L262.4 384.3L263.4 390.8Z" fill="black" fill-opacity="0.2"/>
<path d="M158.2 389.3L146.9 386.8L148.3 380.4L168 384.8C166.2 388.8 162.8 390.3 158.2 389.3ZM176.6 386.7L168 384.8C168.5 383.9 168.8 382.9 169 381.7L180 332.5L187.9 334.3L176.9 383.5C176.6 384.7 176.5 385.8 176.5 386.8H176.6V386.7ZM194.9 397.4L183.6 394.9C179 393.9 176.5 391 176.6 386.6L196.3 391L194.9 397.4Z" fill="black"/>
<path d="M158.2 389.3L146.9 386.8L148.3 380.4L168 384.8C166.2 388.8 162.8 390.3 158.2 389.3ZM176.6 386.7L168 384.8C168.5 383.9 168.8 382.9 169 381.7L180 332.5L187.9 334.3L176.9 383.5C176.6 384.7 176.5 385.8 176.5 386.8H176.6V386.7ZM194.9 397.4L183.6 394.9C179 393.9 176.5 391 176.6 386.6L196.3 391L194.9 397.4Z" fill="black" fill-opacity="0.2"/>
<path d="M124.5 376.1L90.2 353L94 347.4L121.7 366.1L132.1 350.6C137 354.4 137.2 357.2 134 361.9L124.4 376.1H124.5ZM132.1 350.7C131.5 350.2 130.7 349.7 129.9 349.1L106.2 333.1L110 327.5L133.7 343.5C134.5 344 135.3 344.5 136 344.8L132.1 350.6V350.7ZM136 344.9L147.8 327.4L119.4 308.3L123.2 302.7L158.1 326.3L147.5 342.1C144.9 346 141.5 347.9 136 345V344.9Z" fill="black"/>
<path d="M124.5 376.1L90.2 353L94 347.4L121.7 366.1L132.1 350.6C137 354.4 137.2 357.2 134 361.9L124.4 376.1H124.5ZM132.1 350.7C131.5 350.2 130.7 349.7 129.9 349.1L106.2 333.1L110 327.5L133.7 343.5C134.5 344 135.3 344.5 136 344.8L132.1 350.6V350.7ZM136 344.9L147.8 327.4L119.4 308.3L123.2 302.7L158.1 326.3L147.5 342.1C144.9 346 141.5 347.9 136 345V344.9Z" fill="black" fill-opacity="0.2"/>
<path d="M67.4 329.7L54.3 309.5C50.8 304.1 50.5 299.2 53.3 295.4C53.7 296.6 54.4 297.7 55.1 298.8L68.5 319.5L86.1 308.1L72.7 287.4C71.8 286 70.8 284.7 69.7 283.7L75.8 279.8C76.2 281 76.8 282.2 77.7 283.5L91.4 304.7L113.6 290.3L117.9 296.9L67.3 329.6L67.4 329.7ZM57.1 282.3C61.7 279.4 66.1 280.5 69.7 283.8L57.1 292C55.5 293 54.2 294.2 53.3 295.5C51.5 290.6 52.1 285.6 57.1 282.4V282.3ZM75.8 279.8C74.2 275.4 75.4 271.4 80.5 268.2L86.7 264.2C89.8 262.2 91.4 260.5 92.4 258.1L92.7 257.9L97.7 265.7L75.8 279.8Z" fill="black"/>
<path d="M67.4 329.7L54.3 309.5C50.8 304.1 50.5 299.2 53.3 295.4C53.7 296.6 54.4 297.7 55.1 298.8L68.5 319.5L86.1 308.1L72.7 287.4C71.8 286 70.8 284.7 69.7 283.7L75.8 279.8C76.2 281 76.8 282.2 77.7 283.5L91.4 304.7L113.6 290.3L117.9 296.9L67.3 329.6L67.4 329.7ZM57.1 282.3C61.7 279.4 66.1 280.5 69.7 283.8L57.1 292C55.5 293 54.2 294.2 53.3 295.5C51.5 290.6 52.1 285.6 57.1 282.4V282.3ZM75.8 279.8C74.2 275.4 75.4 271.4 80.5 268.2L86.7 264.2C89.8 262.2 91.4 260.5 92.4 258.1L92.7 257.9L97.7 265.7L75.8 279.8Z" fill="black" fill-opacity="0.2"/>
</svg>
